<svg width="89" height="26" viewBox="0 0 89 26" fill="none" xmlns="http://www.w3.org/2000/svg">
<path fill-rule="evenodd" clip-rule="evenodd" d="M11.5762 23.9836C11.5114 23.9836 11.4399 23.9832 11.3718 23.963C11.2494 23.9259 11.1817 23.8614 11.124 23.7426C11.1139 23.722 11.1047 23.7073 11.0988 23.6888C11.0504 23.5391 11.0681 23.552 11.0551 23.4948C11.0454 23.4517 11.0424 23.4595 11.0429 23.4285C11.0445 23.3235 11.0235 23.2026 11.0256 23.1057L11.0307 22.5777C11.0353 22.2924 11.0281 22.0067 11.029 21.7214C11.0294 21.5626 11.026 21.4016 11.0323 21.2433L11.0429 21.0414C11.0429 21.0066 11.0311 20.9334 11.0601 20.8796C11.548 20.8715 12.0367 20.8895 12.5246 20.8771C12.5191 20.8921 12.5351 20.9795 12.5351 21.0096V21.7338C12.5351 21.7704 12.5397 21.7971 12.5414 21.8535C12.5431 21.915 12.5103 22.0471 12.6996 21.915L12.9305 21.7295C13.0878 21.5785 13.2316 21.4223 13.3843 21.2665C13.4019 21.2484 13.4175 21.2355 13.4318 21.2153L13.5062 21.1124C13.5281 21.0879 13.5226 21.0871 13.5441 21.0591C13.5622 21.0354 13.5538 21.0561 13.5756 21.0208L13.6412 20.9059C13.6438 20.9007 13.6534 20.8827 13.6539 20.8818C13.6593 20.8732 13.6703 20.8594 13.6749 20.8521L13.8259 20.5565C13.8444 20.5272 13.8814 20.4132 13.91 20.3632C13.9226 20.3413 13.9344 20.3172 13.9415 20.2914L14.0349 20.0612C14.0488 20.0358 14.053 20.0069 14.0597 19.9919C14.0829 19.9394 14.1073 19.877 14.1115 19.821C14.1131 19.8012 14.122 19.7965 14.1241 19.7651C14.1258 19.7436 14.111 19.698 14.1153 19.6872C14.0366 19.6872 13.9899 19.6708 13.8991 19.673L13.4419 19.6846C13.3973 19.6863 13.3527 19.6863 13.309 19.6842C13.1197 19.6756 12.6634 19.6859 12.4068 19.6872C12.3883 19.6872 12.3433 19.6829 12.3353 19.6807C12.3088 19.6739 12.2962 19.6773 12.2651 19.6747L12.1095 19.6627C12.0969 19.6609 12.027 19.6554 12.014 19.6549L11.8483 19.642C11.7839 19.6369 11.6721 19.6119 11.6073 19.5977C11.4979 19.5745 11.3638 19.5327 11.2725 19.4634C11.2582 19.4527 11.217 19.4092 11.2069 19.3954C11.1884 19.37 11.2065 19.3851 11.185 19.3606L11.1055 19.25C11.0933 19.2285 11.0874 19.1958 11.0761 19.1721C11.0605 19.139 11.0323 19.0305 11.0298 18.9969L11.0168 18.8868C11.0096 18.7921 11.0101 18.4397 11.018 18.3837C11.0252 18.3364 11.0298 18.2521 11.0298 18.2189L11.0328 17.7744C11.0336 17.7529 11.0336 17.7318 11.0336 17.7103L11.0408 16.4546C11.0462 16.3027 11.0399 15.7127 11.0336 15.5483C11.0281 15.4046 11.0336 15.2509 11.0336 15.1059C11.0336 15.0848 11.0344 15.0625 11.0336 15.0414L11.0445 14.5934C11.045 14.5749 11.0437 14.5611 11.0441 14.5443L11.0828 14.3584C11.1072 14.2874 11.1463 14.2018 11.2014 14.1459L11.3053 14.0736L11.3949 14.0456C11.482 14.0353 11.5694 14.0133 11.6531 14.0361C11.6674 14.04 11.6679 14.0387 11.6868 14.0404C11.704 14.0421 11.7297 14.0452 11.7368 14.0464C11.7372 14.0464 11.7507 14.0495 11.7511 14.0495L11.8971 14.0637C11.9391 14.0693 11.9597 14.0796 11.9972 14.0878C12.1305 14.1162 12.1637 14.1196 12.2907 14.1842C12.4392 14.2595 12.4194 14.2861 12.4779 14.3645C12.5237 14.426 12.5406 14.5684 12.5406 14.642L12.5477 16.711C12.554 16.8169 12.5494 17.0101 12.5502 17.131C12.5507 17.1995 12.5393 17.2528 12.5372 17.32C12.5359 17.363 12.5372 17.4073 12.5372 17.4512C12.5372 17.5988 12.5048 17.7507 12.5187 17.9181C12.5271 18.0184 12.5212 17.9943 12.5507 18.0855C12.5566 18.1036 12.5587 18.101 12.5645 18.1186C12.6007 18.2198 12.7008 18.2602 12.8093 18.268C12.9452 18.2779 13.0428 18.2551 13.089 18.2555C13.1164 18.2559 13.1521 18.2581 13.1836 18.2495L13.3174 18.2361C13.4141 18.231 13.5567 18.2456 13.6577 18.2452L13.8019 18.2521C13.9041 18.2521 13.95 18.2624 14.048 18.2262C14.1249 18.1983 14.1119 18.2026 14.0597 18.0472C14.0522 18.0248 14.0597 18.0274 14.0555 18.0076L14.0328 17.9551C14.0135 17.9233 14.0076 17.8747 13.9983 17.8415C13.9828 17.7869 13.9247 17.6371 13.8965 17.5919C13.8822 17.5695 13.7733 17.3118 13.7376 17.2576L13.6598 17.1254C13.6429 17.0962 13.6248 17.0699 13.6236 17.0402C13.6215 16.98 13.6551 16.9172 13.6863 16.8763L13.7716 16.7799C13.7721 16.7795 13.7733 16.7777 13.7737 16.7773L13.8974 16.637C13.8978 16.6366 13.8991 16.6353 13.8995 16.6344L13.9613 16.5652C13.9878 16.5342 13.9601 16.5578 13.9819 16.5294L14.1468 16.3427C14.1632 16.3207 14.1451 16.3354 14.1695 16.3083C14.1838 16.2928 14.1956 16.2846 14.2078 16.2682L14.4134 16.0298C14.4223 16.0178 14.4189 16.0195 14.4219 16.0165L14.5661 15.8689C14.5674 15.868 14.588 15.8551 14.5905 15.8534C14.6082 15.8805 14.6288 15.8908 14.6443 15.9188L14.6692 15.9515C14.6957 15.9816 14.6751 15.9644 14.691 15.9872C14.7003 16.0006 14.7104 16.0062 14.7205 16.0195C14.7344 16.0384 14.7188 16.0251 14.7394 16.0505C14.7512 16.0655 14.7579 16.0699 14.7697 16.0845C14.789 16.109 14.7895 16.1249 14.8092 16.1503C14.8193 16.1637 14.8273 16.1714 14.8353 16.1843L14.8622 16.2321C14.8689 16.2411 14.871 16.2428 14.8782 16.2515C14.9013 16.2803 14.9434 16.3689 14.9585 16.3904L15.0595 16.5544C15.0864 16.6017 15.1335 16.7205 15.1604 16.7481C15.1608 16.7489 15.1684 16.7554 15.1688 16.7562C15.1793 16.773 15.181 16.8061 15.1924 16.8242C15.2222 16.872 15.2285 16.9245 15.258 16.9753C15.2744 17.0041 15.2651 16.9624 15.271 16.9929L15.3396 17.1594C15.34 17.1603 15.3413 17.1706 15.3425 17.1745L15.4056 17.3453C15.4136 17.3673 15.4073 17.366 15.4132 17.3772C15.4233 17.3957 15.4229 17.3639 15.4275 17.4142L15.4308 17.4357C15.4308 17.4361 15.4321 17.4379 15.4325 17.4383C15.4498 17.471 15.462 17.5222 15.4666 17.5536L15.515 17.7133C15.5238 17.7408 15.5213 17.7352 15.5225 17.7537C15.5255 17.7993 15.5352 17.7701 15.5373 17.8166C15.5389 17.8579 15.5347 17.817 15.5482 17.8527C15.5633 17.894 15.5877 18.0472 15.5949 18.1032C15.6033 18.1703 15.6184 18.2094 15.6205 18.2736C15.6205 18.2835 15.6193 18.2934 15.6222 18.3106L15.634 18.351C15.6382 18.3764 15.6331 18.3898 15.6437 18.4276C15.6567 18.4745 15.6407 18.509 15.6554 18.5675C15.6706 18.6264 15.658 18.6579 15.6634 18.7069L15.6756 19.1605C15.6735 19.2259 15.6626 19.3029 15.6626 19.3442C15.6626 19.4083 15.6453 19.6007 15.6289 19.6782L15.605 19.8744C15.6003 19.8968 15.594 19.9045 15.5928 19.9226C15.5915 19.9368 15.5953 19.9402 15.5907 19.9544C15.5751 20.0056 15.5701 20.0779 15.56 20.0995C15.5444 20.1322 15.5562 20.1081 15.5499 20.136C15.5474 20.1464 15.5398 20.1571 15.5373 20.1748C15.5352 20.1881 15.5394 20.1946 15.536 20.2075C15.5335 20.2182 15.5263 20.2273 15.5234 20.2462C15.5087 20.343 15.4237 20.5728 15.3968 20.6791C15.3821 20.7385 15.3572 20.7785 15.3417 20.8314C15.3383 20.8435 15.335 20.8508 15.3291 20.8702L15.1461 21.2867L14.935 21.671C14.9039 21.7166 14.8483 21.8199 14.8227 21.8492L14.7394 21.9701C14.7264 21.9886 14.7268 21.9933 14.715 22.0097C14.7041 22.0252 14.6931 22.0316 14.6818 22.0471C14.6633 22.0717 14.6805 22.0566 14.6633 22.0781C14.6523 22.091 14.6422 22.0966 14.6343 22.1104C14.6221 22.1306 14.641 22.1143 14.6149 22.1422C14.5947 22.1637 14.5993 22.1547 14.5876 22.1779C14.5745 22.2051 14.5485 22.2193 14.5274 22.2459L14.4362 22.3608C14.4353 22.3617 14.4324 22.3643 14.4315 22.3651L14.3104 22.5093C14.2301 22.6057 14.13 22.6814 14.0429 22.7705L13.9769 22.8239C13.9542 22.8432 13.9357 22.8708 13.9129 22.8876C13.8923 22.9026 13.8961 22.8932 13.8747 22.9129C13.86 22.9263 13.8549 22.9353 13.8385 22.9478L13.6076 23.1242C13.6068 23.1247 13.6051 23.126 13.6042 23.1268C13.6038 23.1273 13.6021 23.1285 13.6013 23.129L13.3994 23.2693C13.3733 23.2899 13.3431 23.3007 13.314 23.3179L12.9961 23.4926C12.9132 23.5382 12.7883 23.6114 12.7096 23.6381C12.6831 23.6471 12.6701 23.6557 12.6348 23.6716L12.3269 23.7921C12.2861 23.8054 12.2638 23.8132 12.2377 23.8222C12.1915 23.8386 12.2352 23.8261 12.2091 23.8356C12.202 23.8382 12.1763 23.8429 12.1726 23.8442L12.0931 23.8717C11.9803 23.9044 11.8584 23.9453 11.7511 23.963C11.6927 23.9724 11.6266 23.9815 11.5783 23.9815L11.5762 23.9836Z" fill="white"/>
<path fill-rule="evenodd" clip-rule="evenodd" d="M5.28816 18.9815C5.28816 18.9015 5.27806 18.8167 5.29489 18.7371C5.30835 18.6717 5.28942 18.6476 5.30793 18.5809C5.31844 18.5435 5.30793 18.5353 5.31424 18.5009C5.32139 18.4617 5.32307 18.4798 5.32559 18.4514C5.32727 18.4307 5.32643 18.4264 5.32643 18.4122C5.32643 18.3515 5.34031 18.2977 5.35251 18.2431C5.35671 18.2246 5.35419 18.2211 5.35503 18.2026C5.35671 18.1648 5.35882 18.1927 5.36723 18.1532C5.36975 18.1402 5.36765 18.1303 5.36807 18.1166C5.36807 18.0852 5.36891 18.1093 5.37901 18.0766C5.38616 18.0533 5.37943 18.0585 5.38447 18.0357L5.42359 17.8816C5.42653 17.8648 5.43452 17.8115 5.43915 17.7912L5.46439 17.7155C5.47154 17.6897 5.47784 17.6497 5.48752 17.6226L5.65659 17.16C5.66879 17.1337 5.65659 17.1479 5.66627 17.1247C5.68141 17.0877 5.71127 17.0459 5.71758 17.0029C5.72262 16.9693 5.71421 17.0046 5.72851 16.9762C5.73398 16.965 5.74323 16.9388 5.7466 16.9314L5.8324 16.7709C5.85049 16.7331 5.87446 16.6616 5.89549 16.6328C5.90138 16.6251 5.90474 16.6212 5.90894 16.6143C5.91189 16.6091 5.9224 16.5863 5.92619 16.579C5.94974 16.5295 5.98633 16.4633 6.0204 16.4181L6.11293 16.2683C6.12975 16.2412 6.15793 16.2205 6.1613 16.1844C6.19326 16.1818 6.19116 16.1663 6.21429 16.1328C6.23322 16.1048 6.20798 16.1362 6.22733 16.1078C6.23742 16.0932 6.24037 16.0927 6.24836 16.0798C6.25341 16.0717 6.24752 16.079 6.25383 16.0699C6.27906 16.0342 6.31607 16.0054 6.34467 15.9718C6.36781 15.9438 6.35309 15.9486 6.38295 15.9189L6.49062 15.8031C6.50239 15.7984 6.49062 15.7997 6.5108 15.7993C6.51922 15.8388 6.50912 15.8156 6.53394 15.8543L6.65086 16.0445C6.65128 16.0454 6.65212 16.0471 6.65254 16.048C6.66474 16.0686 6.67567 16.0785 6.68451 16.0975C6.71857 16.1702 6.78124 16.2343 6.82078 16.304L7.00037 16.5433C7.00794 16.5558 6.99785 16.5459 7.01509 16.5678L7.18164 16.7623C7.2094 16.8028 7.25945 16.8419 7.29352 16.8833C7.29815 16.8888 7.29604 16.8858 7.30193 16.8949L7.31539 16.9147C7.33852 16.9392 7.37427 16.9878 7.37932 17.0253C7.38394 17.0618 7.35997 17.1307 7.32927 17.1643L7.32464 17.169C7.3238 17.1699 7.32086 17.1724 7.32002 17.1733C7.30319 17.1909 7.31833 17.1737 7.30614 17.1931L7.13706 17.4672C7.08028 17.5615 6.93896 17.9036 6.92046 17.9815L6.79638 18.5529C6.77872 18.6442 6.78461 18.6769 6.77578 18.7888C6.77367 18.815 6.7661 18.8447 6.76568 18.8593V19.2402C6.76652 19.2578 6.77409 19.2853 6.77788 19.315C6.78293 19.3572 6.77451 19.3895 6.78965 19.454C6.7968 19.4863 6.79218 19.479 6.79428 19.5048L6.81952 19.621C6.82709 19.6451 6.81699 19.649 6.82541 19.6752L6.8683 19.8684C6.88134 19.899 6.87672 19.9115 6.89312 19.9554C6.91078 20.0014 6.89606 19.9967 6.91331 20.0328C6.93938 20.0858 6.95326 20.1748 6.9827 20.223C6.99154 20.2377 6.9827 20.2149 6.99196 20.2415C7.00836 20.2893 7.0336 20.3685 7.05378 20.4046L7.3482 20.9271C7.34862 20.9275 7.3503 20.9292 7.35072 20.9296C7.36712 20.9507 7.36165 20.9593 7.37806 20.9783C7.41423 21.0196 7.43652 21.0656 7.47311 21.0988L7.48404 21.1095C7.49372 21.1194 7.48615 21.1074 7.4954 21.1246C7.51979 21.1693 7.59129 21.2296 7.6241 21.2834C7.64513 21.3174 7.70822 21.3789 7.73514 21.4185L7.85584 21.5674C7.86594 21.5773 7.87098 21.582 7.87771 21.5928C7.88402 21.6027 7.87603 21.5911 7.88318 21.6027L8.13427 21.9022C8.13469 21.9026 8.13595 21.9039 8.1368 21.9048L8.17675 21.9439C8.1797 21.9474 8.17339 21.9426 8.18853 21.9542C8.21839 21.9775 8.22133 21.9925 8.24573 22.0162C8.24615 22.0166 8.24783 22.0179 8.24825 22.0184L8.2861 22.0549C8.29073 22.0601 8.27853 22.0494 8.29367 22.0631C8.29409 22.0631 8.30461 22.0713 8.3084 22.0739C8.34204 22.101 8.36601 22.1449 8.40345 22.1655L8.45392 22.2034C8.46023 22.2081 8.48126 22.2378 8.49724 22.2297C8.52079 22.218 8.50607 22.1539 8.50649 22.1354C8.50691 22.0399 8.51785 21.8376 8.50733 21.7628L8.50649 21.3006C8.50649 21.1414 8.5128 20.9813 8.50649 20.8225C8.50649 20.7158 8.5128 20.597 8.50986 20.4997C8.50187 20.2385 8.50986 19.9967 8.50986 19.7363C8.50986 19.5685 8.50986 19.4067 8.50986 19.2367L8.51532 19.1446C8.51701 19.136 8.51701 19.1136 8.51701 19.105C8.51659 19.0822 8.50775 19.0586 8.51448 19.0293C8.51911 19.0082 8.51743 18.9747 8.51743 18.9467V16.5248C8.51743 16.4994 8.51574 16.4805 8.51532 16.4602C8.51448 16.4189 8.51154 16.428 8.50986 16.3905C8.50439 16.2541 8.50944 16.1186 8.50944 15.9826L8.50565 15.7072C8.49598 15.6504 8.49808 15.1792 8.49472 15.075C8.48757 14.8573 8.44298 14.5474 8.53467 14.3555C8.55738 14.3086 8.55612 14.3542 8.56495 14.3206C8.57126 14.2965 8.55486 14.3228 8.5721 14.2965C8.58935 14.2699 8.61416 14.2561 8.63687 14.2354L8.6415 14.2307C8.64192 14.2303 8.64318 14.2286 8.6436 14.2286C8.64402 14.2281 8.64528 14.2264 8.64571 14.226L8.79291 14.1365C8.81773 14.1339 8.77062 14.1416 8.80427 14.1369C8.83876 14.1322 8.88838 14.1072 8.92666 14.0964L9.43599 14.019C9.4974 14.0147 9.58067 14.0259 9.66731 14.0452C9.75522 14.065 9.84101 14.1494 9.88476 14.2247L9.94574 14.3731C9.97308 14.5109 9.97056 14.5186 9.97518 14.6529C9.97855 14.7548 9.9878 14.8164 9.98738 14.9162L10.0202 19.5315C10.0193 20.0208 10.0231 20.5126 10.0151 21.0015L9.99201 23.5684C9.98948 23.58 9.99032 23.6011 9.98822 23.6123C9.98149 23.642 9.97897 23.6312 9.97518 23.654C9.9693 23.6876 9.95373 23.7014 9.95037 23.741C9.92597 23.7436 9.92429 23.7689 9.90915 23.7965C9.88938 23.8331 9.85195 23.8714 9.81746 23.8968C9.80064 23.9092 9.81284 23.8993 9.80316 23.9088L9.76195 23.951C9.57016 24.0831 9.45071 24.0164 9.34472 24.0465C9.31738 24.0543 9.2993 24.0551 9.23916 24.0551C9.22528 24.0809 9.24504 24.0598 9.20971 24.0581C9.17649 24.0564 9.20256 24.0676 9.16766 24.0607C9.14284 24.056 9.14032 24.0624 9.12854 24.0624C9.08648 24.062 9.17312 24.0719 9.1113 24.0564C9.10793 24.0555 9.07849 24.0521 9.07849 24.0521C9.04022 24.0491 8.98344 24.0439 8.93675 24.0297C8.93381 24.0289 8.91909 24.025 8.90899 24.0216C8.87408 24.0104 8.86778 24.0117 8.85011 24.0078C8.83497 24.0048 8.8274 23.9953 8.80889 23.9897C8.70543 23.9579 8.59902 23.9307 8.5006 23.889C8.47957 23.88 8.46317 23.8679 8.44046 23.8585C8.37947 23.8326 8.30713 23.8051 8.24699 23.7715C8.21376 23.7526 8.16077 23.7302 8.14268 23.719C8.12502 23.7083 8.11871 23.7005 8.09221 23.6876C8.0695 23.6764 8.04973 23.667 8.03165 23.6571C8.00431 23.642 8.01062 23.639 7.98076 23.6235L7.63672 23.4178L7.23758 23.1359C7.19005 23.0989 7.15094 23.0447 7.10552 23.0064C7.06598 22.9733 6.98859 22.8902 6.95453 22.8678L6.92634 22.8416C6.92592 22.8412 6.92466 22.8394 6.92424 22.839L6.92046 22.833C6.91962 22.8313 6.92214 22.8325 6.91373 22.8231L6.81952 22.7207C6.81615 22.7159 6.81615 22.7155 6.81068 22.7086L6.79722 22.6931C6.7968 22.6923 6.79554 22.691 6.79512 22.6901L6.72741 22.6079C6.68998 22.5546 6.63446 22.5034 6.59745 22.4496L6.59198 22.4418C6.59156 22.4414 6.5903 22.4397 6.5903 22.4392C6.58946 22.4379 6.58735 22.4345 6.58651 22.4332L6.55665 22.4014C6.54403 22.3704 6.52889 22.3557 6.51207 22.3329L6.35308 22.107C6.33584 22.0838 6.31061 22.0657 6.29631 22.0407L6.14027 21.8101C6.1327 21.7968 6.14279 21.8122 6.1348 21.8002L5.83534 21.2769C5.81599 21.2227 5.76468 21.1383 5.73945 21.0798C5.72978 21.0579 5.72305 21.0394 5.71758 21.0282L5.63178 20.8393C5.61622 20.8079 5.63178 20.8255 5.61832 20.7967C5.59645 20.7489 5.58636 20.693 5.56407 20.643C5.53547 20.5789 5.50602 20.4636 5.48457 20.3926C5.47784 20.3715 5.47322 20.3603 5.47069 20.3435C5.46859 20.3315 5.45892 20.3048 5.45555 20.2889C5.44672 20.2476 5.42906 20.2037 5.42906 20.183L5.36092 19.8676C5.35629 19.8392 5.36092 19.8456 5.35461 19.8142L5.33148 19.655C5.33064 19.5681 5.3033 19.4588 5.30372 19.3452C5.30372 19.3236 5.29657 19.2526 5.29657 19.2346L5.29194 19.0198C5.29026 18.9901 5.29321 19.0043 5.29321 18.9833L5.28816 18.9815Z" fill="white"/>
<path fill-rule="evenodd" clip-rule="evenodd" d="M12.1938 0.25H9.12731C9.05539 0.305943 8.41021 0.363175 7.99551 0.939385C7.9135 1.05342 7.86051 1.07236 7.8971 1.2432C7.92612 1.37832 7.94084 1.51 7.96397 1.63609C8.20244 2.94257 8.39633 4.24517 8.64364 5.5736C8.68738 5.80856 8.77528 6.12356 8.6857 6.36239C8.60158 6.58573 8.45269 6.73161 8.20286 6.80133C7.92654 6.87836 7.66157 6.71913 7.54675 6.58358C7.37599 6.38133 7.39029 6.1696 7.32972 5.8688C7.12153 4.83171 6.97475 3.75718 6.78675 2.71148C6.7653 2.59228 6.70894 1.99283 6.62272 1.98207C6.58865 1.9782 6.09993 2.26222 6.03431 2.30181C5.61877 2.55312 5.33404 2.81046 4.98285 3.07296C4.75363 3.24423 4.26532 3.74556 4.05755 3.9732C3.04184 5.08345 2.24525 6.69417 1.93822 8.26315C1.88564 8.53125 1.85872 8.78213 1.81414 9.06658C1.63792 10.1983 1.95798 10.0946 1.4579 10.0916C1.28126 10.0908 1.18789 10.0998 1.03732 10.1424C0.607477 10.2638 0.266383 10.6205 0.140627 11.0754C-0.025505 11.6765 0.245352 12.1482 0.528828 12.4361C0.882542 12.7954 1.35949 12.7859 1.98868 12.7859H18.2856C19.3442 12.7859 20.6825 13.045 21.1183 11.9928C21.4257 11.2496 21.096 10.4669 20.4083 10.1837C20.071 10.0451 19.8544 10.1493 19.5953 10.0817C19.5415 9.93756 19.5705 9.52402 19.549 9.32478C19.5242 9.09369 19.4986 8.81139 19.4544 8.59494C19.1545 7.12622 18.8942 6.34518 18.1001 5.06839C17.783 4.55845 17.0247 3.61818 16.6104 3.3105L16.1856 2.94171C15.8878 2.68652 15 2.07244 14.6946 1.97562C14.6278 2.07847 14.4221 3.40216 14.3872 3.62894C14.3031 4.17374 14.2072 4.76114 14.1008 5.29561C13.9939 5.8305 14.0074 6.52376 13.5969 6.7342C13.064 7.00745 12.4954 6.56637 12.6203 5.951C12.7338 5.39157 12.8079 4.84032 12.9092 4.2882C13.056 3.4865 13.1856 2.57033 13.3399 1.79789C13.3643 1.67611 13.3782 1.51904 13.4059 1.38736C13.4476 1.18984 13.4774 1.14422 13.3715 0.996189C12.8752 0.30379 12.2981 0.332191 12.1942 0.250859L12.1938 0.25Z" fill="white"/>
<path fill-rule="evenodd" clip-rule="evenodd" d="M2.59877 18.4315C2.65891 18.6815 2.81916 19.0378 2.92262 19.2741C3.3247 20.1911 3.58042 20.6653 4.10405 21.5212C4.43211 22.0574 5.12776 23.002 5.58326 23.4633C5.74392 23.6264 5.95842 23.885 6.14853 24.0369C6.2562 24.123 6.34872 24.2108 6.45766 24.3081C7.11545 24.8954 8.14463 25.5095 8.99085 25.7591C10.3632 26.1641 11.5611 26.0444 12.7703 25.5065C14.7264 24.636 16.2973 22.7653 17.3433 20.9476C17.7576 20.2272 18.1378 19.3976 18.4448 18.5954C18.5584 18.2981 18.4911 18.4552 18.7249 18.2968C19.1968 17.9766 19.5711 17.0815 19.7343 16.4606C19.8492 16.0238 20.0599 14.9067 19.9455 14.4221C19.6944 14.3864 19.2692 14.3954 18.894 14.4053C18.9407 15.118 18.7863 16.3586 18.6972 16.8814C18.5525 17.4323 18.2202 18.2266 17.8013 18.5111C17.594 18.6514 17.6541 18.5124 17.5527 18.7762C17.2802 19.4884 16.9433 20.2242 16.5753 20.8633C15.6471 22.4766 14.2532 24.1368 12.5171 24.9092C11.4441 25.3865 10.3813 25.4927 9.16287 25.133C8.41213 24.9114 7.49861 24.3666 6.91526 23.8454C6.81852 23.759 6.73608 23.6811 6.64103 23.6049C6.4728 23.4702 6.28227 23.2404 6.13927 23.0958C5.73509 22.6861 5.11767 21.8479 4.82662 21.3723C4.36229 20.6128 4.13517 20.192 3.77851 19.3782C3.68641 19.1686 3.54425 18.8523 3.49041 18.6307C3.13334 18.4995 2.95921 18.3114 2.7771 17.9917C2.37165 17.2804 2.25557 16.6934 2.14538 15.8607C2.09154 15.3951 2.05957 14.9092 2.02761 14.4152H1.65581C1.02998 14.4152 1.05648 14.3498 1.0569 14.5482C1.05774 14.809 1.05143 15.0672 1.08381 15.3107C1.20746 16.2493 1.33869 16.9107 1.79503 17.712C2.00069 18.0722 2.19669 18.2843 2.59919 18.4323L2.59877 18.4315Z" fill="white"/>
<path d="M25.6585 6.68481H27.9524C28.2998 6.68481 28.5084 6.87158 28.5778 7.24467L30.8196 17.2718H31.0021L33.1913 7.24467C33.2607 6.87158 33.4781 6.68481 33.8427 6.68481H36.1366C36.5017 6.68481 36.6321 6.87158 36.5278 7.24467L33.2438 19.6984C33.1744 20.0896 32.9397 20.2849 32.5402 20.2849H29.2302C28.8655 20.2849 28.6308 20.0896 28.5265 19.6984L25.2687 7.24467C25.1644 6.87158 25.2947 6.68481 25.6598 6.68481H25.6585Z" fill="white"/>
<path d="M39.903 20.2854H37.6877C37.3227 20.2854 37.1401 20.0986 37.1401 19.7255V2.09837C37.1401 1.72485 37.3227 1.53809 37.6877 1.53809H39.903C40.2676 1.53809 40.4502 1.72485 40.4502 2.09837V8.12513H40.5545C40.9368 7.16507 41.788 6.68525 43.1087 6.68525H43.9427C46.6706 6.68525 48.0346 8.13417 48.0346 11.032V19.7255C48.0346 20.0986 47.8437 20.2854 47.4613 20.2854H45.2722C44.9071 20.2854 44.7246 20.0986 44.7246 19.7255V11.1921C44.7246 10.6232 44.6072 10.2187 44.3726 9.97856C44.1383 9.73886 43.7425 9.61837 43.1865 9.61837H42.2482C41.0491 9.61837 40.4497 10.294 40.4497 11.6452V19.7255C40.4497 20.0986 40.2676 20.2854 39.903 20.2854Z" fill="white"/>
<path d="M49.6225 4.39165V2.07175C49.6225 1.7163 49.7962 1.53857 50.1436 1.53857H52.4109C52.7583 1.53857 52.9321 1.70769 52.9321 2.0455V4.39208C52.9321 4.74754 52.7583 4.92526 52.4109 4.92526H50.1436C49.7962 4.92526 49.6225 4.74754 49.6225 4.39208V4.39165ZM48.6059 24.7122H46.8596C46.4945 24.7122 46.312 24.5254 46.312 24.1519V22.3385C46.312 21.965 46.4945 21.7787 46.8596 21.7787H47.5893C48.3712 21.7787 48.9058 21.6362 49.1922 21.3518C49.4786 21.0673 49.622 20.5251 49.622 19.7251V7.24473C49.622 6.87164 49.8046 6.68488 50.1696 6.68488H52.3849C52.7495 6.68488 52.9321 6.87164 52.9321 7.24473V20.3384C52.9321 21.7249 52.5497 22.8007 51.7851 23.565C51.0205 24.3297 49.9606 24.7118 48.6055 24.7118L48.6059 24.7122Z" fill="white"/>
<path d="M61.0063 20.2854H58.6867C57.3144 20.2854 56.2545 19.9119 55.5071 19.1653C54.7601 18.4187 54.3862 17.3428 54.3862 15.9387V11.0321C54.3862 9.62746 54.7597 8.55207 55.5071 7.80545C56.2545 7.05883 57.3144 6.6853 58.6867 6.6853H61.0063C62.3614 6.6853 63.4171 7.06313 64.1733 7.81879C64.9291 8.57445 65.3072 9.64554 65.3072 11.0321V15.9387C65.3072 17.3252 64.9291 18.3967 64.1733 19.1519C63.4175 19.9076 62.3618 20.2854 61.0063 20.2854ZM59.1818 17.3785H60.5112C61.0673 17.3785 61.4626 17.2628 61.6969 17.0317C61.9316 16.8006 62.0489 16.4004 62.0489 15.8315V11.1379C62.0489 10.569 61.9316 10.1688 61.6969 9.93773C61.4626 9.70664 61.0668 9.59088 60.5112 9.59088H59.1818C58.6257 9.59088 58.2346 9.70664 58.0087 9.93773C57.7829 10.1688 57.6698 10.569 57.6698 11.1379V15.8315C57.6698 16.4004 57.7829 16.8006 58.0087 17.0317C58.2346 17.2628 58.6257 17.3785 59.1818 17.3785Z" fill="white"/>
<path d="M70.235 17.3518H72.8936C73.4496 17.3518 73.845 17.2317 74.0792 16.9916C74.3139 16.7514 74.4312 16.3469 74.4312 15.778V11.1378C74.4312 10.5689 74.3139 10.1644 74.0792 9.92428C73.845 9.68458 73.4496 9.56409 72.8936 9.56409H71.7466C70.5476 9.56409 69.9482 10.2397 69.9482 11.5909V17.0578C69.9482 17.2536 70.0437 17.3513 70.235 17.3513V17.3518ZM66.6382 19.725V2.09789C66.6382 1.72436 66.8207 1.5376 67.1858 1.5376H69.401C69.7657 1.5376 69.9482 1.72436 69.9482 2.09789V8.09796H70.0525C70.2435 7.61814 70.5825 7.25365 71.0691 7.00449C71.5557 6.75576 72.0684 6.63097 72.6067 6.63097H73.4408C74.8136 6.63097 75.8734 7.0045 76.6204 7.75112C77.3674 8.49774 77.7413 9.57356 77.7413 10.9777V15.9377C77.7413 17.3423 77.3678 18.4177 76.6204 19.1643C75.8734 19.9109 74.8136 20.2844 73.4408 20.2844H67.1858C66.8207 20.2844 66.6382 20.0977 66.6382 19.7246V19.725Z" fill="white"/>
<path d="M84.0958 20.2854H79.1438C78.7964 20.2854 78.6227 20.0986 78.6227 19.7255V18.0188C78.6227 17.8234 78.6576 17.6853 78.727 17.6053C78.7964 17.5252 78.9356 17.4852 79.1438 17.4852H83.4964C84.3477 17.4852 84.7738 17.2184 84.7738 16.6852V16.5518C84.7738 16.1249 84.4175 15.7161 83.705 15.325L81.1247 13.8584C80.2386 13.3962 79.5871 12.8983 79.1699 12.3652C78.7526 11.832 78.5444 11.1473 78.5444 10.3116C78.5444 9.06712 78.8658 8.15138 79.5088 7.56484C80.1519 6.9783 81.1596 6.68481 82.5324 6.68481H86.8851C87.2325 6.68481 87.4062 6.87158 87.4062 7.24467V8.97804C87.4062 9.17341 87.3713 9.31111 87.3019 9.39115C87.2325 9.47119 87.0933 9.51121 86.8851 9.51121H83.2622C82.4109 9.51121 81.9848 9.73326 81.9848 10.1778V10.3112C81.9848 10.7024 82.3583 11.1021 83.1057 11.5114L85.7382 13.1113C86.6416 13.6092 87.2758 14.12 87.6409 14.6446C88.006 15.1692 88.1885 15.8581 88.1885 16.7115C88.1885 19.0938 86.8245 20.2849 84.0966 20.2849L84.0958 20.2854Z" fill="white"/>
</svg>
