<svg width="156" height="50" viewBox="0 0 156 50" fill="none" xmlns="http://www.w3.org/2000/svg">
<g opacity="0.07">
<path d="M68.0313 49.1247H55.5L63.338 0.874512H75.8686L68.0313 49.1247Z" fill="white"/>
<path d="M113.458 2.0542C110.986 1.07793 107.066 0 102.218 0C89.843 0 81.1286 6.56989 81.0751 15.9629C80.9724 22.893 87.3144 26.7421 92.0578 29.0528C96.906 31.414 98.554 32.9552 98.554 35.0599C98.5047 38.2923 94.6364 39.7823 91.0285 39.7823C86.0254 39.7823 83.3447 39.0141 79.2709 37.2157L77.6208 36.4448L75.8672 47.2759C78.8063 48.609 84.2212 49.792 89.843 49.8439C102.992 49.8439 111.552 43.3756 111.653 33.3659C111.703 27.8733 108.355 23.6646 101.135 20.2254C96.7518 18.0177 94.0676 16.5291 94.0676 14.2702C94.119 12.2167 96.3379 10.1134 101.285 10.1134C105.359 10.0104 108.353 10.9853 110.62 11.9609L111.753 12.4732L113.458 2.0542Z" fill="white"/>
<path fill-rule="evenodd" clip-rule="evenodd" d="M135.89 0.874512H145.583L155.692 49.124H144.09C144.09 49.124 142.954 43.5802 142.594 41.8862H126.505C126.04 43.1688 123.875 49.124 123.875 49.124H110.727L129.34 4.87785C130.63 1.7464 132.901 0.874512 135.89 0.874512ZM135.118 18.5313C135.118 18.5313 131.147 29.2594 130.115 32.0314H140.531C140.016 29.619 137.643 18.0695 137.643 18.0695L136.767 13.912C136.398 14.9825 135.865 16.4544 135.505 17.4471C135.261 18.1201 135.097 18.573 135.118 18.5313Z" fill="white"/>
<path d="M45.0344 0.874512L32.7621 33.7765L31.4211 27.1036C29.1522 19.4039 22.0365 11.0384 14.0957 6.87883L25.3367 49.0735H38.5882L58.2852 0.874512H45.0344V0.874512Z" fill="white"/>
<path d="M21.366 0.874512H1.20431L0.998047 1.84942C16.7254 5.85344 27.1413 15.505 31.4208 27.1056L27.0378 4.93038C26.3163 1.84874 24.0988 0.976164 21.366 0.874512Z" fill="white"/>
</g>
</svg>
