<svg width="187" height="59" viewBox="0 0 187 59" fill="none" xmlns="http://www.w3.org/2000/svg">
<path d="M57.6337 16.8078H62.3546C63.0696 16.8078 63.4989 17.1835 63.6418 17.9339L68.2553 38.103H68.631L73.1364 17.9339C73.2792 17.1835 73.7267 16.8078 74.4772 16.8078H79.1981C79.9494 16.8078 80.2178 17.1835 80.0031 17.9339L73.2446 42.9841C73.1018 43.7709 72.6188 44.1638 71.7965 44.1638H64.9843C64.2338 44.1638 63.7508 43.7709 63.5362 42.9841L56.8313 17.9339C56.6167 17.1835 56.885 16.8078 57.6363 16.8078H57.6337Z" fill="#1C71B7"/>
<path d="M86.9605 44.1584H82.4014C81.6501 44.1584 81.2744 43.7827 81.2744 43.0322V7.57603C81.2744 6.8247 81.6501 6.44904 82.4014 6.44904H86.9605C87.7109 6.44904 88.0866 6.8247 88.0866 7.57603V19.6986H88.3013C89.0881 17.7675 90.84 16.8023 93.558 16.8023H95.2744C100.889 16.8023 103.696 19.7168 103.696 25.5456V43.0322C103.696 43.7827 103.303 44.1584 102.516 44.1584H98.0106C97.2592 44.1584 96.8836 43.7827 96.8836 43.0322V25.8676C96.8836 24.7233 96.6421 23.9097 96.1591 23.4267C95.6769 22.9445 94.8624 22.7022 93.7181 22.7022H91.787C89.3192 22.7022 88.0857 24.0612 88.0857 26.7791V43.0322C88.0857 43.7827 87.7101 44.1584 86.9596 44.1584H86.9605Z" fill="#1C71B7"/>
<path d="M107.006 12.1879V7.5215C107.006 6.80652 107.364 6.44904 108.079 6.44904H112.745C113.46 6.44904 113.818 6.78921 113.818 7.4687V12.1887C113.818 12.9037 113.46 13.2612 112.745 13.2612H108.079C107.364 13.2612 107.006 12.9037 107.006 12.1887V12.1879ZM104.914 53.0618H101.32C100.569 53.0618 100.193 52.6861 100.193 51.9348V48.2872C100.193 47.5359 100.569 47.1611 101.32 47.1611H102.822C104.431 47.1611 105.531 46.8746 106.121 46.3024C106.71 45.7303 107.006 44.6396 107.006 43.0305V17.9267C107.006 17.1763 107.381 16.8006 108.133 16.8006H112.692C113.442 16.8006 113.818 17.1763 113.818 17.9267V44.264C113.818 47.0529 113.031 49.2169 111.457 50.7542C109.884 52.2923 107.702 53.0609 104.913 53.0609L104.914 53.0618Z" fill="#1C71B7"/>
<path d="M130.415 44.1638H125.642C122.817 44.1638 120.636 43.4125 119.098 41.9107C117.561 40.4089 116.791 38.245 116.791 35.4205V25.5511C116.791 22.7258 117.56 20.5627 119.098 19.0609C120.636 17.5591 122.817 16.8078 125.642 16.8078H130.415C133.204 16.8078 135.377 17.5678 136.933 19.0878C138.489 20.6077 139.267 22.7622 139.267 25.5511V35.4205C139.267 38.2095 138.489 40.3648 136.933 41.8839C135.378 43.4039 133.205 44.1638 130.415 44.1638ZM126.66 38.3168H129.397C130.541 38.3168 131.355 38.084 131.837 37.6191C132.32 37.1543 132.561 36.3493 132.561 35.205V25.764C132.561 24.6197 132.32 23.8147 131.837 23.3499C131.355 22.8851 130.54 22.6523 129.397 22.6523H126.66C125.516 22.6523 124.711 22.8851 124.246 23.3499C123.781 23.8147 123.549 24.6197 123.549 25.764V35.205C123.549 36.3493 123.781 37.1543 124.246 37.6191C124.711 38.084 125.516 38.3168 126.66 38.3168Z" fill="#1C71B7"/>
<path d="M149.368 38.2585H154.839C155.984 38.2585 156.797 38.017 157.279 37.534C157.762 37.051 158.004 36.2374 158.004 35.0931V25.7594C158.004 24.6151 157.762 23.8015 157.279 23.3185C156.797 22.8363 155.984 22.594 154.839 22.594H152.479C150.011 22.594 148.778 23.953 148.778 26.6709V37.6673C148.778 38.0612 148.974 38.2577 149.368 38.2577V38.2585ZM141.965 43.0322V7.57603C141.965 6.8247 142.341 6.44904 143.092 6.44904H147.651C148.402 6.44904 148.778 6.8247 148.778 7.57603V19.6449H148.992C149.385 18.6798 150.083 17.9466 151.084 17.4455C152.086 16.9452 153.141 16.6941 154.249 16.6941H155.965C158.791 16.6941 160.972 17.4455 162.509 18.9473C164.046 20.4491 164.816 22.613 164.816 25.4374V35.4142C164.816 38.2395 164.047 40.4026 162.509 41.9044C160.972 43.4062 158.791 44.1575 155.965 44.1575H143.092C142.341 44.1575 141.965 43.7818 141.965 43.0314V43.0322Z" fill="#1C71B7"/>
<path d="M177.901 44.1647H167.71C166.995 44.1647 166.638 43.789 166.638 43.0386V39.6057C166.638 39.2127 166.709 38.9348 166.852 38.7738C166.995 38.6128 167.282 38.5323 167.71 38.5323H176.668C178.42 38.5323 179.297 37.9957 179.297 36.9232V36.6549C179.297 35.7962 178.564 34.9739 177.097 34.1871L171.787 31.2372C169.963 30.3075 168.622 29.306 167.764 28.2336C166.905 27.1611 166.477 25.7839 166.477 24.103C166.477 21.5997 167.138 19.7577 168.461 18.5779C169.785 17.3981 171.859 16.8078 174.684 16.8078H183.642C184.357 16.8078 184.714 17.1835 184.714 17.9339V21.4205C184.714 21.8135 184.643 22.0905 184.5 22.2515C184.357 22.4125 184.071 22.493 183.642 22.493H176.186C174.434 22.493 173.557 22.9396 173.557 23.8338V24.1021C173.557 24.8889 174.326 25.6931 175.864 26.5162L181.282 29.7345C183.141 30.736 184.446 31.7634 185.198 32.8186C185.949 33.8737 186.324 35.2595 186.324 36.976C186.324 41.7679 183.517 44.1638 177.903 44.1638L177.901 44.1647Z" fill="#1C71B7"/>
<path fill-rule="evenodd" clip-rule="evenodd" d="M27.194 54.2742C27.0444 54.2742 26.8792 54.2733 26.7218 54.2276C26.4391 54.1441 26.2827 53.9983 26.1496 53.7302C26.1263 53.6835 26.1049 53.6505 26.0913 53.6087C25.9796 53.2706 26.0204 53.2998 25.9902 53.1706C25.9679 53.0734 25.9611 53.0909 25.9621 53.021C25.966 52.7839 25.9174 52.5109 25.9222 52.2923L25.9339 51.1003C25.9446 50.4561 25.9281 49.8111 25.93 49.1669C25.931 48.8084 25.9232 48.4451 25.9378 48.0876L25.9621 47.6319C25.9621 47.5532 25.9349 47.3881 26.0019 47.2666C27.1289 47.2482 28.2578 47.289 29.3847 47.2608C29.3721 47.2948 29.409 47.492 29.409 47.56V49.1951C29.409 49.2777 29.4197 49.3379 29.4236 49.4652C29.4275 49.6041 29.3517 49.9024 29.7889 49.6041L30.3223 49.1854C30.6856 48.8444 31.0179 48.4917 31.3705 48.14C31.4113 48.0992 31.4473 48.0701 31.4803 48.0244L31.6523 47.7922C31.7028 47.7369 31.6902 47.7349 31.7397 47.6718C31.7815 47.6183 31.7621 47.665 31.8126 47.5853L31.9641 47.3259C31.97 47.3142 31.9923 47.2734 31.9933 47.2715C32.0059 47.2521 32.0312 47.221 32.0419 47.2045L32.3906 46.537C32.4334 46.471 32.5189 46.2135 32.5849 46.1008C32.6141 46.0513 32.6413 45.9969 32.6578 45.9386L32.8735 45.4188C32.9055 45.3615 32.9153 45.2964 32.9308 45.2624C32.9842 45.1439 33.0406 45.003 33.0503 44.8767C33.0542 44.832 33.0746 44.8213 33.0794 44.7504C33.0833 44.7018 33.0493 44.5988 33.059 44.5745C32.8774 44.5745 32.7695 44.5376 32.5597 44.5425L31.5036 44.5687C31.4007 44.5726 31.2977 44.5726 31.1966 44.5677C30.7594 44.5483 29.7054 44.5716 29.1127 44.5745C29.07 44.5745 28.966 44.5648 28.9476 44.56C28.8864 44.5444 28.8572 44.5522 28.7853 44.5464L28.4259 44.5192C28.3967 44.5153 28.2354 44.5027 28.2053 44.5017L27.8225 44.4725C27.6739 44.4609 27.4155 44.4045 27.2659 44.3725C27.0133 44.32 26.7033 44.2258 26.4925 44.0694C26.4595 44.0451 26.3643 43.9469 26.341 43.9159C26.2982 43.8585 26.34 43.8925 26.2904 43.8372L26.1068 43.5875C26.0787 43.5389 26.0651 43.4651 26.0388 43.4116C26.0029 43.3368 25.9378 43.092 25.932 43.0162L25.9018 42.7675C25.8853 42.5538 25.8863 41.7581 25.9048 41.6318C25.9213 41.5249 25.932 41.3345 25.932 41.2597L25.9388 40.2561C25.9407 40.2076 25.9407 40.1599 25.9407 40.1114L25.9572 37.2765C25.9698 36.9335 25.9553 35.6016 25.9407 35.2304C25.9281 34.906 25.9407 34.5591 25.9407 34.2317C25.9407 34.1841 25.9426 34.1336 25.9407 34.086L25.966 33.0746C25.9669 33.0329 25.964 33.0018 25.965 32.9639L26.0544 32.5442C26.1107 32.3839 26.2011 32.1905 26.3283 32.0642L26.5683 31.901L26.7752 31.8379C26.9763 31.8146 27.1784 31.765 27.3717 31.8165C27.4048 31.8253 27.4058 31.8223 27.4495 31.8262C27.4893 31.8301 27.5486 31.8369 27.5651 31.8398C27.5661 31.8398 27.5971 31.8466 27.5981 31.8466L27.9352 31.8787C28.0324 31.8913 28.08 31.9146 28.1665 31.9331C28.4744 31.9972 28.5512 32.005 28.8446 32.1507C29.1875 32.3207 29.1419 32.381 29.2769 32.5578C29.3828 32.6967 29.4217 33.0183 29.4217 33.1844L29.4382 37.8555C29.4528 38.0945 29.4421 38.5307 29.444 38.8037C29.445 38.9582 29.4187 39.0786 29.4139 39.2302C29.411 39.3274 29.4139 39.4274 29.4139 39.5265C29.4139 39.8597 29.3391 40.2027 29.3711 40.5806C29.3906 40.807 29.377 40.7526 29.445 40.9585C29.4586 40.9993 29.4634 40.9935 29.477 41.0333C29.5606 41.2617 29.7918 41.353 30.0425 41.3705C30.3563 41.3928 30.5817 41.3413 30.6885 41.3423C30.7517 41.3433 30.8343 41.3481 30.9071 41.3287L31.2161 41.2986C31.4395 41.2869 31.7689 41.3199 32.002 41.319L32.3353 41.3345C32.5713 41.3345 32.6772 41.3578 32.9036 41.2762C33.0814 41.2131 33.0513 41.2228 32.9308 40.8721C32.9133 40.8216 32.9308 40.8274 32.9211 40.7827L32.8686 40.6642C32.8239 40.5923 32.8103 40.4825 32.789 40.4077C32.753 40.2843 32.6189 39.9462 32.5539 39.8442C32.5208 39.7937 32.2692 39.2117 32.1866 39.0893L32.0069 38.7911C31.968 38.725 31.9263 38.6657 31.9233 38.5987C31.9185 38.4627 31.9962 38.3209 32.0681 38.2286L32.2653 38.0109C32.2663 38.01 32.2692 38.0061 32.2702 38.0051L32.5558 37.6884C32.5568 37.6874 32.5597 37.6845 32.5607 37.6826L32.7035 37.5262C32.7647 37.4562 32.7006 37.5096 32.7511 37.4455L33.1319 37.0239C33.1698 36.9743 33.128 37.0074 33.1844 36.9461C33.2174 36.9112 33.2446 36.8927 33.2728 36.8558L33.7479 36.3176C33.7683 36.2904 33.7605 36.2943 33.7673 36.2875L34.1005 35.9542C34.1034 35.9523 34.151 35.9231 34.1569 35.9192C34.1977 35.9805 34.2453 36.0038 34.2812 36.0669L34.3385 36.1408C34.3997 36.2088 34.3521 36.1699 34.3891 36.2214C34.4104 36.2515 34.4337 36.2641 34.4571 36.2943C34.4891 36.337 34.4532 36.3069 34.5008 36.3642C34.528 36.3982 34.5435 36.4079 34.5707 36.441C34.6154 36.4963 34.6164 36.5323 34.6621 36.5896C34.6854 36.6197 34.7038 36.6372 34.7223 36.6663L34.7845 36.7742C34.8 36.7946 34.8049 36.7985 34.8214 36.8179C34.8748 36.883 34.972 37.0831 35.007 37.1317L35.2401 37.5019C35.3023 37.6087 35.4111 37.8769 35.4733 37.939C35.4743 37.941 35.4917 37.9556 35.4927 37.9575C35.517 37.9954 35.5209 38.0702 35.5471 38.111C35.6161 38.2188 35.6307 38.3374 35.6987 38.452C35.7366 38.5171 35.7152 38.4229 35.7288 38.4918L35.8871 38.8678C35.8881 38.8698 35.891 38.8931 35.894 38.9018L36.0397 39.2875C36.0581 39.3371 36.0436 39.3342 36.0572 39.3594C36.0805 39.4012 36.0795 39.3293 36.0902 39.443L36.098 39.4915C36.098 39.4925 36.1009 39.4964 36.1019 39.4974C36.1417 39.5712 36.1699 39.6868 36.1806 39.7577L36.2923 40.1182C36.3127 40.1804 36.3068 40.1677 36.3098 40.2095C36.3166 40.3125 36.3389 40.2464 36.3438 40.3513C36.3477 40.4446 36.3379 40.3523 36.369 40.4329C36.404 40.5262 36.4603 40.8721 36.4769 40.9984C36.4963 41.1499 36.5313 41.2383 36.5361 41.3831C36.5361 41.4054 36.5332 41.4278 36.54 41.4666L36.5672 41.558C36.5769 41.6153 36.5653 41.6454 36.5896 41.7309C36.6197 41.8368 36.5828 41.9145 36.6168 42.0466C36.6517 42.1797 36.6226 42.2507 36.6352 42.3614L36.6634 43.3854C36.6585 43.5331 36.6333 43.707 36.6333 43.8002C36.6333 43.945 36.5934 44.3793 36.5556 44.5541L36.5002 44.9972C36.4895 45.0477 36.4749 45.0652 36.472 45.106C36.4691 45.138 36.4778 45.1458 36.4671 45.1779C36.4312 45.2935 36.4195 45.4567 36.3962 45.5053C36.3603 45.5791 36.3875 45.5247 36.3729 45.5878C36.3671 45.6112 36.3496 45.6355 36.3438 45.6753C36.3389 45.7054 36.3486 45.72 36.3408 45.7491C36.335 45.7734 36.3185 45.7938 36.3117 45.8366C36.2777 46.0551 36.0815 46.5739 36.0193 46.8139C35.9853 46.948 35.928 47.0383 35.892 47.1578C35.8842 47.185 35.8765 47.2015 35.8629 47.2453L35.4403 48.1857L34.9525 49.0533C34.8807 49.1562 34.7524 49.3894 34.6932 49.4555L34.5008 49.7285C34.4707 49.7703 34.4716 49.7809 34.4444 49.8179C34.4192 49.8528 34.3939 49.8674 34.3677 49.9024C34.3249 49.9578 34.3648 49.9238 34.3249 49.9723C34.2997 50.0015 34.2764 50.0141 34.2579 50.0452C34.2297 50.0909 34.2735 50.0539 34.2132 50.1171C34.1666 50.1657 34.1773 50.1453 34.1501 50.1977C34.1199 50.2589 34.0597 50.291 34.0111 50.3512L33.8003 50.6106C33.7984 50.6126 33.7916 50.6184 33.7896 50.6203L33.5098 50.9458C33.3243 51.1634 33.093 51.3344 32.8919 51.5355L32.7394 51.656C32.687 51.6997 32.6442 51.7619 32.5917 51.7998C32.5441 51.8338 32.5529 51.8124 32.5033 51.8571C32.4693 51.8872 32.4577 51.9076 32.4198 51.9358L31.8864 52.3341C31.8845 52.3351 31.8806 52.338 31.8786 52.3399C31.8777 52.3409 31.8738 52.3438 31.8718 52.3448L31.4055 52.6615C31.3453 52.7081 31.2753 52.7324 31.2083 52.7713L30.4738 53.1657C30.2824 53.2687 29.9939 53.4339 29.8122 53.4941C29.751 53.5145 29.7209 53.5339 29.6393 53.5699L28.9281 53.8419C28.8339 53.872 28.7824 53.8895 28.7222 53.9099C28.6153 53.9468 28.7163 53.9187 28.6561 53.94C28.6396 53.9459 28.5803 53.9565 28.5716 53.9595L28.388 54.0216C28.1276 54.0955 27.8459 54.1878 27.5981 54.2276C27.4631 54.249 27.3105 54.2694 27.1988 54.2694L27.194 54.2742Z" fill="#1C71B7"/>
<path fill-rule="evenodd" clip-rule="evenodd" d="M12.692 42.9762C12.692 42.7955 12.6687 42.6042 12.7075 42.4244C12.7386 42.2767 12.6949 42.2223 12.7377 42.0718C12.7619 41.9872 12.7377 41.9688 12.7522 41.8911C12.7687 41.8026 12.7726 41.8434 12.7785 41.7793C12.7823 41.7327 12.7804 41.723 12.7804 41.6909C12.7804 41.5539 12.8125 41.4325 12.8406 41.3091C12.8504 41.2673 12.8445 41.2596 12.8465 41.2178C12.8504 41.1323 12.8552 41.1954 12.8746 41.1061C12.8805 41.0769 12.8756 41.0546 12.8766 41.0235C12.8766 40.9526 12.8785 41.007 12.9018 40.9331C12.9184 40.8807 12.9028 40.8923 12.9145 40.8408L13.0048 40.493C13.0116 40.4551 13.0301 40.3347 13.0408 40.289L13.0991 40.118C13.1156 40.0597 13.1302 39.9694 13.1525 39.9082L13.543 38.8638C13.5712 38.8045 13.5431 38.8366 13.5654 38.7841C13.6004 38.7006 13.6693 38.6063 13.6839 38.5092C13.6956 38.4334 13.6761 38.5131 13.7092 38.4489C13.7218 38.4237 13.7432 38.3644 13.751 38.3479L13.9491 37.9855C13.9909 37.9 14.0463 37.7388 14.0949 37.6737C14.1085 37.6562 14.1162 37.6474 14.126 37.6319C14.1328 37.6202 14.1571 37.5687 14.1658 37.5522C14.2202 37.4405 14.3047 37.2909 14.3834 37.1889L14.5972 36.8508C14.636 36.7896 14.7011 36.743 14.7089 36.6613C14.7827 36.6555 14.7779 36.6205 14.8313 36.5448C14.875 36.4816 14.8167 36.5525 14.8614 36.4884C14.8847 36.4554 14.8915 36.4544 14.91 36.4253C14.9216 36.4068 14.908 36.4233 14.9226 36.4029C14.9809 36.3223 15.0664 36.2572 15.1325 36.1814C15.1859 36.1183 15.1519 36.129 15.2209 36.0619L15.4696 35.8006C15.4968 35.7899 15.4696 35.7928 15.5162 35.7918C15.5356 35.8812 15.5123 35.8288 15.5696 35.9162L15.8397 36.3456C15.8407 36.3475 15.8426 36.3514 15.8436 36.3534C15.8718 36.4 15.897 36.4224 15.9174 36.4651C15.9961 36.6293 16.1409 36.774 16.2322 36.9314L16.6471 37.4716C16.6646 37.4998 16.6412 37.4774 16.6811 37.527L17.0658 37.9661C17.1299 38.0574 17.2455 38.1458 17.3242 38.2391C17.3349 38.2517 17.33 38.2449 17.3436 38.2653L17.3747 38.31C17.4282 38.3654 17.5107 38.4752 17.5224 38.5597C17.5331 38.6423 17.4777 38.7977 17.4068 38.8735L17.3961 38.8842C17.3942 38.8861 17.3874 38.892 17.3854 38.8939C17.3466 38.9337 17.3815 38.8949 17.3534 38.9386L16.9628 39.5575C16.8317 39.7702 16.5052 40.5426 16.4625 40.7184L16.1759 42.0086C16.1351 42.2146 16.1487 42.2884 16.1283 42.541C16.1234 42.6003 16.1059 42.6673 16.105 42.7003V43.5601C16.1069 43.6 16.1244 43.6621 16.1331 43.7292C16.1448 43.8244 16.1254 43.8973 16.1603 44.043C16.1768 44.1158 16.1662 44.0993 16.171 44.1576L16.2293 44.4199C16.2468 44.4743 16.2235 44.4831 16.2429 44.5423L16.342 44.9786C16.3721 45.0475 16.3614 45.0757 16.3993 45.1748C16.4401 45.2788 16.4061 45.2681 16.446 45.3497C16.5062 45.4692 16.5383 45.6703 16.6063 45.7791C16.6267 45.8121 16.6063 45.7606 16.6276 45.8209C16.6655 45.9287 16.7238 46.1075 16.7704 46.1891L17.4505 47.3685C17.4515 47.3695 17.4554 47.3734 17.4563 47.3743C17.4942 47.4219 17.4816 47.4414 17.5195 47.4841C17.603 47.5774 17.6545 47.6813 17.7391 47.7561L17.7643 47.7804C17.7867 47.8028 17.7692 47.7756 17.7905 47.8144C17.8469 47.9155 18.0121 48.0515 18.0878 48.1729C18.1364 48.2497 18.2821 48.3886 18.3443 48.478L18.6231 48.8141C18.6465 48.8365 18.6581 48.8472 18.6737 48.8714C18.6882 48.8938 18.6698 48.8676 18.6863 48.8938L19.2663 49.57C19.2673 49.5709 19.2702 49.5739 19.2721 49.5758L19.3644 49.6642C19.3712 49.672 19.3566 49.6613 19.3916 49.6875C19.4606 49.74 19.4674 49.774 19.5237 49.8274C19.5247 49.8284 19.5286 49.8313 19.5296 49.8323L19.617 49.9149C19.6277 49.9265 19.5995 49.9022 19.6345 49.9333C19.6355 49.9333 19.6598 49.9518 19.6685 49.9576C19.7462 50.0188 19.8016 50.1179 19.8881 50.1645L20.0046 50.25C20.0192 50.2607 20.0678 50.3278 20.1047 50.3093C20.1591 50.2831 20.1251 50.1383 20.1261 50.0965C20.1271 49.8809 20.1523 49.4242 20.128 49.2552L20.1261 48.2118C20.1261 47.8523 20.1407 47.4909 20.1261 47.1324C20.1261 46.8915 20.1407 46.6233 20.1339 46.4038C20.1154 45.8141 20.1339 45.2681 20.1339 44.6803C20.1339 44.3014 20.1339 43.9361 20.1339 43.5524L20.1465 43.3445C20.1504 43.325 20.1504 43.2745 20.1504 43.2551C20.1494 43.2036 20.129 43.1501 20.1445 43.0841C20.1552 43.0365 20.1513 42.9607 20.1513 42.8975V37.4298C20.1513 37.3725 20.1475 37.3298 20.1465 37.2841C20.1445 37.1908 20.1377 37.2112 20.1339 37.1267C20.1212 36.8187 20.1329 36.5127 20.1329 36.2057L20.1241 35.5839C20.1018 35.4557 20.1067 34.3919 20.0989 34.1568C20.0824 33.6652 19.9794 32.9657 20.1912 32.5324C20.2436 32.4265 20.2407 32.5295 20.2611 32.4537C20.2757 32.3993 20.2378 32.4585 20.2776 32.3993C20.3175 32.339 20.3748 32.308 20.4273 32.2613L20.4379 32.2506C20.4389 32.2497 20.4418 32.2458 20.4428 32.2458C20.4438 32.2448 20.4467 32.2409 20.4477 32.2399L20.7877 32.0379C20.845 32.032 20.7362 32.0495 20.8139 32.0388C20.8936 32.0281 21.0082 31.9718 21.0966 31.9475L22.2732 31.7726C22.415 31.7629 22.6074 31.7882 22.8075 31.8319C23.0105 31.8766 23.2087 32.067 23.3098 32.237L23.4506 32.5722C23.5138 32.8831 23.508 32.9006 23.5187 33.2037C23.5264 33.4339 23.5478 33.5729 23.5468 33.7983L23.6226 44.2179C23.6207 45.3225 23.6294 46.4329 23.6109 47.5366L23.5575 53.3317C23.5517 53.3579 23.5536 53.4055 23.5488 53.4308C23.5332 53.4978 23.5274 53.4736 23.5187 53.525C23.505 53.6008 23.4691 53.6319 23.4613 53.7213C23.405 53.7271 23.4011 53.7844 23.3661 53.8466C23.3205 53.9292 23.234 54.0157 23.1543 54.073C23.1155 54.1012 23.1436 54.0788 23.1213 54.1002L23.0261 54.1954C22.5831 54.4937 22.3072 54.3431 22.0623 54.4111C21.9992 54.4286 21.9574 54.4305 21.8185 54.4305C21.7864 54.4888 21.8321 54.4412 21.7505 54.4373C21.6737 54.4334 21.734 54.4587 21.6533 54.4431C21.596 54.4324 21.5902 54.447 21.563 54.447C21.4658 54.446 21.666 54.4684 21.5231 54.4334C21.5154 54.4315 21.4474 54.4237 21.4474 54.4237C21.359 54.4169 21.2278 54.4052 21.12 54.3732C21.1132 54.3712 21.0792 54.3625 21.0558 54.3547C20.9752 54.3295 20.9606 54.3324 20.9198 54.3236C20.8849 54.3168 20.8674 54.2955 20.8246 54.2828C20.5856 54.2109 20.3398 54.1497 20.1125 54.0555C20.0639 54.0351 20.026 54.0079 19.9736 53.9865C19.8327 53.9282 19.6656 53.866 19.5267 53.7903C19.4499 53.7475 19.3275 53.697 19.2857 53.6717C19.2449 53.6475 19.2303 53.63 19.1691 53.6008C19.1167 53.5756 19.071 53.5542 19.0292 53.5318C18.9661 53.4978 18.9807 53.491 18.9117 53.4561L18.117 52.9917L17.195 52.3553C17.0852 52.2718 16.9949 52.1494 16.8899 52.0629C16.7986 51.9881 16.6199 51.8006 16.5412 51.7501L16.4761 51.6908C16.4751 51.6898 16.4722 51.6859 16.4712 51.685L16.4625 51.6714C16.4605 51.6675 16.4664 51.6704 16.4469 51.649L16.2293 51.4178C16.2215 51.4071 16.2215 51.4062 16.2089 51.3906L16.1778 51.3556C16.1768 51.3537 16.1739 51.3508 16.173 51.3488L16.0165 51.1633C15.9301 51.0428 15.8018 50.9272 15.7163 50.8057L15.7037 50.7883C15.7027 50.7873 15.6998 50.7834 15.6998 50.7824C15.6979 50.7795 15.693 50.7717 15.6911 50.7688L15.6221 50.6969C15.593 50.627 15.558 50.594 15.5191 50.5425L15.1519 50.0324C15.1121 49.98 15.0538 49.9392 15.0207 49.8828L14.6603 49.3621C14.6428 49.332 14.6661 49.3669 14.6477 49.3397L13.9559 48.1583C13.9113 48.0359 13.7927 47.8455 13.7344 47.7134C13.7121 47.6638 13.6965 47.6221 13.6839 47.5968L13.4857 47.1703C13.4498 47.0994 13.4857 47.1392 13.4546 47.0741C13.4041 46.9663 13.3808 46.84 13.3293 46.7273C13.2633 46.5825 13.1952 46.3222 13.1457 46.1619C13.1302 46.1143 13.1195 46.089 13.1136 46.0511C13.1088 46.0239 13.0864 45.9637 13.0787 45.9277C13.0583 45.8345 13.0175 45.7354 13.0175 45.6887L12.8601 44.9766C12.8494 44.9125 12.8601 44.9271 12.8455 44.8561L12.7921 44.4967C12.7901 44.3004 12.727 44.0537 12.7279 43.7972C12.7279 43.7486 12.7114 43.5883 12.7114 43.5475L12.7007 43.0627C12.6969 42.9957 12.7037 43.0277 12.7037 42.9801L12.692 42.9762Z" fill="#1C71B7"/>
<path fill-rule="evenodd" clip-rule="evenodd" d="M28.6345 0.696289H21.5511C21.385 0.822587 19.8947 0.951796 18.9368 2.25266C18.7473 2.51012 18.6249 2.55287 18.7094 2.93856C18.7765 3.24362 18.8105 3.5409 18.8639 3.82556C19.4147 6.7751 19.8626 9.7159 20.4339 12.715C20.5349 13.2454 20.738 13.9566 20.531 14.4958C20.3367 15 19.9928 15.3294 19.4157 15.4868C18.7774 15.6607 18.1654 15.3012 17.9001 14.9952C17.5057 14.5385 17.5387 14.0606 17.3988 13.3815C16.9179 11.0401 16.5789 8.6142 16.1446 6.2534C16.0951 5.98428 15.9649 4.63096 15.7657 4.60667C15.687 4.59793 14.5581 5.23913 14.4065 5.32851C13.4467 5.89588 12.789 6.47685 11.9777 7.06948C11.4483 7.45614 10.3203 8.58797 9.84039 9.1019C7.49416 11.6084 5.6541 15.2448 4.94489 18.787C4.82345 19.3923 4.76127 19.9587 4.65829 20.6009C4.25122 23.156 4.99054 22.9218 3.8354 22.915C3.42736 22.9131 3.21169 22.9335 2.86388 23.0297C1.87098 23.3036 1.08308 24.109 0.792598 25.1359C0.408847 26.4931 1.03451 27.5579 1.68931 28.2079C2.50636 29.0191 3.60807 28.9977 5.06146 28.9977H42.706C45.1514 28.9977 48.2428 29.5826 49.2493 27.2072C49.9594 25.5294 49.1978 23.7622 47.6093 23.1229C46.8302 22.8101 46.3298 23.0452 45.7314 22.8927C45.607 22.5672 45.674 21.6336 45.6245 21.1838C45.5672 20.6621 45.5079 20.0247 45.4059 19.5361C44.7132 16.2203 44.1118 14.4569 42.2776 11.5744C41.5451 10.4232 39.7934 8.3004 38.8365 7.60576L37.8552 6.77316C37.1674 6.19705 35.1165 4.81069 34.4112 4.59209C34.2567 4.82429 33.7816 7.81269 33.701 8.32468C33.5067 9.55463 33.2852 10.8808 33.0394 12.0874C32.7926 13.295 32.8237 14.8601 31.8755 15.3352C30.6446 15.9521 29.3311 14.9563 29.6196 13.567C29.8819 12.304 30.0529 11.0595 30.2871 9.81306C30.6261 8.00311 30.9254 5.93474 31.2819 4.19085C31.3382 3.91591 31.3703 3.56131 31.4344 3.26402C31.5306 2.81809 31.5996 2.71511 31.3548 2.38091C30.2084 0.817726 28.8754 0.881846 28.6355 0.698228L28.6345 0.696289Z" fill="#1C71B7"/>
<path fill-rule="evenodd" clip-rule="evenodd" d="M6.44403 41.7277C6.58296 42.2922 6.95311 43.0966 7.1921 43.6299C8.12088 45.7002 8.71156 46.7709 9.92111 48.7032C10.6789 49.9137 12.2858 52.0462 13.338 53.0877C13.7091 53.4559 14.2046 54.0398 14.6437 54.3828C14.8924 54.5771 15.1061 54.7752 15.3578 54.9948C16.8772 56.3209 19.2545 57.7073 21.2092 58.2708C24.3793 59.185 27.1462 58.9149 29.9393 57.7005C34.4579 55.7351 38.0865 51.5119 40.5027 47.4082C41.4597 45.7819 42.3379 43.9088 43.0471 42.0978C43.3094 41.4265 43.154 41.7811 43.6942 41.4236C44.7842 40.7008 45.6489 38.68 46.0258 37.2781C46.291 36.292 46.7778 33.7699 46.5135 32.676C45.9335 32.5954 44.9513 32.6158 44.0847 32.6381C44.1926 34.247 43.836 37.0479 43.63 38.2283C43.2958 39.4718 42.5283 41.2652 41.5607 41.9074C41.0817 42.2241 41.2207 41.9103 40.9865 42.5059C40.357 44.1138 39.5788 45.7751 38.7287 47.2178C36.5846 50.86 33.3649 54.6082 29.3545 56.352C26.8761 57.4295 24.4211 57.6694 21.6066 56.8572C19.8724 56.3569 17.7623 55.1269 16.4148 53.9504C16.1913 53.7551 16.0009 53.5793 15.7813 53.4073C15.3927 53.1033 14.9526 52.5845 14.6223 52.258C13.6887 51.3331 12.2625 49.4406 11.5902 48.3671C10.5176 46.6523 9.993 45.7022 9.16915 43.865C8.95638 43.3919 8.62801 42.6778 8.50366 42.1775C7.67883 41.8812 7.27662 41.4566 6.85595 40.7348C5.9194 39.1289 5.65127 37.8037 5.39673 35.9238C5.27237 34.8726 5.19853 33.7758 5.1247 32.6605H4.26587C2.82025 32.6605 2.88146 32.5128 2.88243 32.9607C2.88437 33.5494 2.86979 34.1323 2.9446 34.6822C3.23023 36.8011 3.53335 38.2943 4.58745 40.1033C5.06252 40.9165 5.51525 41.3954 6.445 41.7296L6.44403 41.7277Z" fill="#1C71B7"/>
</svg>
