<svg width="69" height="22" viewBox="0 0 69 22" fill="none" xmlns="http://www.w3.org/2000/svg">
<path d="M22.218 5.85132H23.9258C24.1845 5.85132 24.3398 5.98722 24.3914 6.2587L26.0604 13.5549H26.1963L27.8262 6.2587C27.8778 5.98722 28.0397 5.85132 28.3112 5.85132H30.019C30.2908 5.85132 30.3879 5.98722 30.3102 6.2587L27.8653 15.3207C27.8136 15.6053 27.6389 15.7475 27.3414 15.7475H24.8771C24.6056 15.7475 24.4309 15.6053 24.3532 15.3207L21.9277 6.2587C21.8501 5.98722 21.9472 5.85132 22.2189 5.85132H22.218Z" fill="#1C71B7"/>
<path d="M32.827 15.7454H31.1777C30.9059 15.7454 30.77 15.6095 30.77 15.3381V2.51164C30.77 2.23984 30.9059 2.10394 31.1777 2.10394H32.827C33.0985 2.10394 33.2344 2.23984 33.2344 2.51164V6.89702H33.312C33.5966 6.19843 34.2304 5.84929 35.2136 5.84929H35.8346C37.8655 5.84929 38.881 6.90359 38.881 9.01221V15.3381C38.881 15.6095 38.7389 15.7454 38.4542 15.7454H36.8244C36.5526 15.7454 36.4167 15.6095 36.4167 15.3381V9.12869C36.4167 8.71473 36.3293 8.42039 36.1546 8.24567C35.9802 8.07125 35.6855 7.98358 35.2716 7.98358H34.573C33.6802 7.98358 33.234 8.47519 33.234 9.45842V15.3381C33.234 15.6095 33.0981 15.7454 32.8267 15.7454H32.827Z" fill="#1C71B7"/>
<path d="M40.0789 4.17999V2.49191C40.0789 2.23326 40.2082 2.10394 40.4669 2.10394H42.1549C42.4136 2.10394 42.5429 2.227 42.5429 2.47281V4.1803C42.5429 4.43895 42.4136 4.56827 42.1549 4.56827H40.4669C40.2082 4.56827 40.0789 4.43895 40.0789 4.1803V4.17999ZM39.3221 18.9663H38.0219C37.7502 18.9663 37.6143 18.8304 37.6143 18.5586V17.2391C37.6143 16.9673 37.7502 16.8317 38.0219 16.8317H38.5652C39.1473 16.8317 39.5453 16.728 39.7586 16.5211C39.9718 16.3141 40.0786 15.9195 40.0786 15.3374V6.25604C40.0786 5.98456 40.2145 5.84866 40.4863 5.84866H42.1355C42.407 5.84866 42.5429 5.98456 42.5429 6.25604V15.7836C42.5429 16.7925 42.2583 17.5754 41.689 18.1315C41.1197 18.6879 40.3307 18.966 39.3218 18.966L39.3221 18.9663Z" fill="#1C71B7"/>
<path d="M48.5468 15.7474H46.8199C45.7982 15.7474 45.0091 15.4756 44.4527 14.9323C43.8965 14.389 43.6182 13.6062 43.6182 12.5845V9.01418C43.6182 7.99212 43.8962 7.20961 44.4527 6.66633C45.0091 6.12305 45.7982 5.85126 46.8199 5.85126H48.5468C49.5557 5.85126 50.3417 6.12619 50.9047 6.67604C51.4674 7.2259 51.7489 8.00528 51.7489 9.01418V12.5845C51.7489 13.5934 51.4674 14.3731 50.9047 14.9226C50.342 15.4725 49.556 15.7474 48.5468 15.7474ZM47.1885 13.6322H48.1783C48.5922 13.6322 48.8866 13.548 49.061 13.3798C49.2357 13.2117 49.3231 12.9205 49.3231 12.5065V9.09121C49.3231 8.67725 49.2357 8.38604 49.061 8.21789C48.8866 8.04974 48.5919 7.96551 48.1783 7.96551H47.1885C46.7745 7.96551 46.4833 8.04974 46.3151 8.21789C46.147 8.38604 46.0628 8.67725 46.0628 9.09121V12.5065C46.0628 12.9205 46.147 13.2117 46.3151 13.3798C46.4833 13.548 46.7745 13.6322 47.1885 13.6322Z" fill="#1C71B7"/>
<path d="M55.403 13.6111H57.3823C57.7962 13.6111 58.0906 13.5238 58.265 13.3491C58.4397 13.1743 58.5271 12.88 58.5271 12.466V9.08955C58.5271 8.67559 58.4397 8.38125 58.265 8.20652C58.0906 8.03211 57.7962 7.94444 57.3823 7.94444H56.5284C55.6356 7.94444 55.1894 8.43605 55.1894 9.41927V13.3973C55.1894 13.5397 55.2605 13.6108 55.403 13.6108V13.6111ZM52.7251 15.338V2.51164C52.7251 2.23984 52.861 2.10394 53.1328 2.10394H54.7821C55.0535 2.10394 55.1894 2.23984 55.1894 2.51164V6.8776H55.2671C55.4092 6.52846 55.6616 6.26324 56.0239 6.08194C56.3862 5.90095 56.7679 5.81014 57.1687 5.81014H57.7897C58.8117 5.81014 59.6008 6.08194 60.1569 6.62522C60.713 7.1685 60.9914 7.95132 60.9914 8.97307V12.5822C60.9914 13.6043 60.7133 14.3868 60.1569 14.93C59.6008 15.4733 58.8117 15.7451 57.7897 15.7451H53.1328C52.861 15.7451 52.7251 15.6092 52.7251 15.3377V15.338Z" fill="#1C71B7"/>
<path d="M65.7253 15.7478H62.0385C61.7798 15.7478 61.6505 15.6119 61.6505 15.3404V14.0985C61.6505 13.9564 61.6765 13.8559 61.7282 13.7976C61.7799 13.7394 61.8835 13.7102 62.0385 13.7102H65.2791C65.9128 13.7102 66.2301 13.5161 66.2301 13.1281V13.0311C66.2301 12.7204 65.9648 12.423 65.4344 12.1383L63.5133 11.0712C62.8536 10.7349 62.3685 10.3726 62.0579 9.98463C61.7473 9.59666 61.5923 9.09847 61.5923 8.49038C61.5923 7.5848 61.8315 6.91846 62.3103 6.49167C62.7891 6.06487 63.5393 5.85132 64.5614 5.85132H67.802C68.0606 5.85132 68.1899 5.98722 68.1899 6.2587V7.51999C68.1899 7.66215 68.1639 7.76235 68.1123 7.82059C68.0606 7.87883 67.957 7.90795 67.802 7.90795H65.1047C64.4709 7.90795 64.1537 8.06953 64.1537 8.39299V8.49006C64.1537 8.7747 64.4317 9.06559 64.9882 9.36338L66.9481 10.5276C67.6207 10.8899 68.0929 11.2616 68.3647 11.6433C68.6364 12.025 68.7723 12.5263 68.7723 13.1472C68.7723 14.8807 67.7569 15.7475 65.7259 15.7475L65.7253 15.7478Z" fill="#1C71B7"/>
<path fill-rule="evenodd" clip-rule="evenodd" d="M9.82664 19.4048C9.77252 19.4048 9.71277 19.4045 9.65584 19.388C9.55357 19.3578 9.49698 19.305 9.44883 19.208C9.4404 19.1912 9.43267 19.1792 9.42775 19.1641C9.38733 19.0418 9.40209 19.0523 9.3912 19.0056C9.38311 18.9705 9.38065 18.9768 9.381 18.9515C9.38241 18.8657 9.36484 18.767 9.36659 18.6879L9.37081 18.2567C9.37468 18.0236 9.3687 17.7903 9.36941 17.5573C9.36976 17.4276 9.36694 17.2961 9.37222 17.1668L9.381 17.002C9.381 16.9735 9.37116 16.9138 9.39541 16.8698C9.8031 16.8631 10.2115 16.8779 10.6192 16.8677C10.6146 16.88 10.628 16.9514 10.628 16.976V17.5675C10.628 17.5973 10.6318 17.6191 10.6332 17.6652C10.6346 17.7154 10.6072 17.8233 10.7654 17.7154L10.9583 17.5639C11.0898 17.4406 11.21 17.313 11.3375 17.1858C11.3523 17.171 11.3653 17.1605 11.3773 17.144L11.4395 17.06C11.4577 17.0399 11.4532 17.0392 11.4711 17.0164C11.4862 16.997 11.4792 17.0139 11.4974 16.9851L11.5523 16.8913C11.5544 16.887 11.5625 16.8723 11.5628 16.8716C11.5674 16.8646 11.5765 16.8533 11.5804 16.8473L11.7066 16.6059C11.722 16.582 11.753 16.4888 11.7769 16.4481C11.7874 16.4302 11.7972 16.4105 11.8032 16.3894L11.8812 16.2014C11.8928 16.1806 11.8963 16.1571 11.902 16.1448C11.9213 16.1019 11.9417 16.0509 11.9452 16.0053C11.9466 15.9891 11.954 15.9852 11.9557 15.9596C11.9571 15.942 11.9448 15.9047 11.9484 15.896C11.8826 15.896 11.8436 15.8826 11.7677 15.8844L11.3857 15.8938C11.3484 15.8952 11.3112 15.8952 11.2746 15.8935C11.1165 15.8865 10.7351 15.8949 10.5208 15.896C10.5053 15.896 10.4677 15.8924 10.461 15.8907C10.4389 15.8851 10.4283 15.8879 10.4023 15.8858L10.2723 15.8759C10.2617 15.8745 10.2034 15.8699 10.1925 15.8696L10.054 15.859C10.0003 15.8548 9.90678 15.8344 9.85265 15.8228C9.76127 15.8039 9.64916 15.7698 9.5729 15.7132C9.56095 15.7044 9.5265 15.6689 9.51807 15.6577C9.50261 15.6369 9.51772 15.6492 9.49979 15.6292L9.43337 15.5389C9.42318 15.5213 9.41826 15.4946 9.40877 15.4753C9.39576 15.4482 9.37222 15.3596 9.37011 15.3322L9.35921 15.2422C9.35324 15.1649 9.35359 14.8771 9.36027 14.8314C9.36624 14.7927 9.37011 14.7239 9.37011 14.6968L9.37257 14.3337C9.37327 14.3162 9.37327 14.299 9.37327 14.2814L9.37925 13.2558C9.38381 13.1318 9.37854 12.6499 9.37327 12.5157C9.3687 12.3983 9.37327 12.2728 9.37327 12.1544C9.37327 12.1372 9.37397 12.1189 9.37327 12.1017L9.38241 11.7358C9.38276 11.7207 9.38171 11.7095 9.38206 11.6957L9.41439 11.5439C9.43477 11.4859 9.46746 11.416 9.5135 11.3703L9.60031 11.3113L9.67517 11.2884C9.74792 11.28 9.82102 11.2621 9.89096 11.2807C9.90291 11.2838 9.90326 11.2828 9.91908 11.2842C9.93349 11.2856 9.95492 11.2881 9.9609 11.2891C9.96125 11.2891 9.9725 11.2916 9.97285 11.2916L10.0948 11.3032C10.1299 11.3077 10.1472 11.3162 10.1784 11.3229C10.2899 11.3461 10.3176 11.3489 10.4238 11.4016C10.5478 11.4631 10.5313 11.4849 10.5802 11.5488C10.6185 11.5991 10.6325 11.7154 10.6325 11.7755L10.6385 13.4653C10.6438 13.5518 10.6399 13.7096 10.6406 13.8083C10.641 13.8642 10.6315 13.9078 10.6297 13.9626C10.6287 13.9978 10.6297 14.034 10.6297 14.0698C10.6297 14.1904 10.6026 14.3144 10.6142 14.4511C10.6213 14.533 10.6164 14.5133 10.641 14.5878C10.6459 14.6026 10.6476 14.6005 10.6526 14.6149C10.6828 14.6975 10.7664 14.7305 10.8571 14.7369C10.9706 14.7449 11.0522 14.7263 11.0908 14.7267C11.1137 14.727 11.1435 14.7288 11.1699 14.7217L11.2817 14.7109C11.3625 14.7066 11.4816 14.7186 11.566 14.7182L11.6865 14.7239C11.7719 14.7239 11.8102 14.7323 11.8921 14.7028C11.9564 14.6799 11.9455 14.6834 11.902 14.5566C11.8956 14.5383 11.902 14.5404 11.8985 14.5242L11.8795 14.4814C11.8633 14.4553 11.8584 14.4156 11.8507 14.3886C11.8377 14.3439 11.7892 14.2216 11.7656 14.1847C11.7537 14.1665 11.6626 13.9559 11.6328 13.9117L11.5677 13.8038C11.5537 13.7799 11.5386 13.7584 11.5375 13.7342C11.5358 13.685 11.5639 13.6337 11.5899 13.6003L11.6612 13.5215C11.6616 13.5212 11.6626 13.5198 11.663 13.5194L11.7663 13.4049C11.7667 13.4045 11.7677 13.4035 11.7681 13.4028L11.8197 13.3462C11.8419 13.3209 11.8187 13.3402 11.8369 13.317L11.9747 13.1645C11.9884 13.1465 11.9733 13.1585 11.9937 13.1363C12.0056 13.1237 12.0155 13.117 12.0257 13.1037L12.1975 12.909C12.2049 12.8991 12.2021 12.9005 12.2046 12.8981L12.3251 12.7775C12.3262 12.7768 12.3434 12.7663 12.3455 12.7649C12.3603 12.787 12.3775 12.7954 12.3905 12.8183L12.4112 12.845C12.4334 12.8696 12.4161 12.8555 12.4295 12.8742C12.4372 12.8851 12.4457 12.8896 12.4541 12.9005C12.4657 12.916 12.4527 12.9051 12.4699 12.9258C12.4798 12.9381 12.4854 12.9416 12.4952 12.9536C12.5114 12.9736 12.5117 12.9866 12.5283 13.0074C12.5367 13.0183 12.5434 13.0246 12.55 13.0351L12.5725 13.0741C12.5782 13.0815 12.5799 13.0829 12.5859 13.09C12.6052 13.1135 12.6404 13.1859 12.653 13.2035L12.7374 13.3374C12.7599 13.376 12.7992 13.473 12.8217 13.4955C12.8221 13.4962 12.8284 13.5015 12.8287 13.5022C12.8375 13.5159 12.8389 13.543 12.8484 13.5577C12.8734 13.5968 12.8787 13.6396 12.9033 13.6811C12.917 13.7046 12.9092 13.6706 12.9141 13.6955L12.9714 13.8315C12.9718 13.8322 12.9728 13.8407 12.9739 13.8438L13.0266 13.9834C13.0333 14.0013 13.028 14.0002 13.0329 14.0094C13.0414 14.0245 13.041 13.9985 13.0449 14.0396L13.0477 14.0572C13.0477 14.0575 13.0488 14.0589 13.0491 14.0593C13.0635 14.086 13.0737 14.1278 13.0776 14.1535L13.118 14.2838C13.1254 14.3063 13.1233 14.3018 13.1243 14.3169C13.1268 14.3541 13.1349 14.3302 13.1366 14.3682C13.138 14.4019 13.1345 14.3685 13.1458 14.3977C13.1584 14.4315 13.1788 14.5566 13.1848 14.6023C13.1918 14.6571 13.2044 14.6891 13.2062 14.7414C13.2062 14.7495 13.2052 14.7576 13.2076 14.7717L13.2175 14.8047C13.221 14.8254 13.2167 14.8363 13.2255 14.8673C13.2364 14.9056 13.2231 14.9337 13.2354 14.9815C13.248 15.0296 13.2375 15.0553 13.2421 15.0953L13.2522 15.4658C13.2505 15.5192 13.2414 15.5821 13.2414 15.6158C13.2414 15.6682 13.2269 15.8253 13.2132 15.8886L13.1932 16.0488C13.1893 16.0671 13.1841 16.0734 13.183 16.0882C13.182 16.0998 13.1851 16.1026 13.1813 16.1142C13.1682 16.156 13.164 16.2151 13.1556 16.2326C13.1426 16.2594 13.1524 16.2397 13.1472 16.2625C13.1451 16.2709 13.1387 16.2797 13.1366 16.2941C13.1349 16.305 13.1384 16.3103 13.1356 16.3209C13.1335 16.3296 13.1275 16.337 13.125 16.3525C13.1127 16.4316 13.0417 16.6192 13.0192 16.706C13.0069 16.7545 12.9862 16.7872 12.9732 16.8305C12.9704 16.8403 12.9676 16.8463 12.9626 16.8621L12.8098 17.2023L12.6333 17.5161C12.6073 17.5534 12.5609 17.6377 12.5395 17.6616L12.4699 17.7604C12.459 17.7755 12.4594 17.7794 12.4495 17.7927C12.4404 17.8054 12.4313 17.8107 12.4218 17.8233C12.4063 17.8433 12.4207 17.831 12.4063 17.8486C12.3972 17.8592 12.3887 17.8637 12.3821 17.875C12.3719 17.8915 12.3877 17.8781 12.3659 17.901C12.349 17.9186 12.3529 17.9112 12.343 17.9302C12.3321 17.9523 12.3104 17.9639 12.2928 17.9857L12.2165 18.0795C12.2158 18.0802 12.2134 18.0823 12.2127 18.083L12.1114 18.2008C12.0443 18.2795 11.9607 18.3414 11.8879 18.4141L11.8327 18.4577C11.8138 18.4735 11.7983 18.496 11.7793 18.5097C11.7621 18.522 11.7653 18.5143 11.7473 18.5304C11.735 18.5413 11.7308 18.5487 11.7171 18.5589L11.5242 18.703C11.5235 18.7033 11.522 18.7044 11.5213 18.7051C11.521 18.7055 11.5196 18.7065 11.5189 18.7069L11.3502 18.8214C11.3284 18.8383 11.3031 18.8471 11.2788 18.8611L11.0131 19.0038C10.9439 19.0411 10.8395 19.1008 10.7738 19.1226C10.7517 19.13 10.7408 19.137 10.7112 19.15L10.454 19.2484C10.4199 19.2593 10.4013 19.2657 10.3795 19.2731C10.3408 19.2864 10.3774 19.2762 10.3556 19.2839C10.3496 19.2861 10.3282 19.2899 10.325 19.291L10.2586 19.3135C10.1644 19.3402 10.0625 19.3736 9.97285 19.388C9.924 19.3957 9.86882 19.4031 9.8284 19.4031L9.82664 19.4048Z" fill="#1C71B7"/>
<path fill-rule="evenodd" clip-rule="evenodd" d="M4.58064 15.3178C4.58064 15.2524 4.5722 15.1832 4.58626 15.1182C4.5975 15.0647 4.58169 15.0451 4.59715 14.9906C4.60594 14.96 4.59715 14.9533 4.60242 14.9252C4.6084 14.8932 4.6098 14.908 4.61191 14.8848C4.61332 14.8679 4.61262 14.8644 4.61262 14.8528C4.61262 14.8033 4.62421 14.7593 4.63441 14.7147C4.63792 14.6996 4.63581 14.6968 4.63651 14.6817C4.63792 14.6507 4.63968 14.6736 4.64671 14.6412C4.64881 14.6307 4.64706 14.6226 4.64741 14.6114C4.64741 14.5857 4.64811 14.6054 4.65655 14.5787C4.66252 14.5597 4.6569 14.5639 4.66112 14.5453L4.6938 14.4195C4.69626 14.4058 4.70294 14.3622 4.70681 14.3457L4.72789 14.2838C4.73387 14.2627 4.73914 14.23 4.74722 14.2079L4.88851 13.8301C4.8987 13.8087 4.88851 13.8203 4.89659 13.8013C4.90924 13.7711 4.93419 13.737 4.93947 13.7018C4.94368 13.6744 4.93665 13.7032 4.9486 13.68C4.95317 13.6709 4.9609 13.6494 4.96372 13.6435L5.03541 13.5124C5.05053 13.4815 5.07056 13.4231 5.08813 13.3996C5.09305 13.3932 5.09586 13.3901 5.09938 13.3845C5.10184 13.3802 5.11062 13.3616 5.11379 13.3556C5.13347 13.3152 5.16404 13.2611 5.19251 13.2242L5.26983 13.1019C5.28389 13.0797 5.30744 13.0629 5.31025 13.0334C5.33696 13.0312 5.3352 13.0186 5.35453 12.9912C5.37035 12.9683 5.34926 12.994 5.36543 12.9708C5.37386 12.9588 5.37632 12.9585 5.383 12.948C5.38722 12.9413 5.3823 12.9472 5.38757 12.9399C5.40865 12.9107 5.43958 12.8872 5.46348 12.8597C5.48281 12.8369 5.47051 12.8408 5.49546 12.8165L5.58543 12.722C5.59528 12.7181 5.58543 12.7192 5.6023 12.7188C5.60933 12.7511 5.6009 12.7322 5.62164 12.7638L5.71934 12.9191C5.71969 12.9198 5.72039 12.9212 5.72075 12.9219C5.73094 12.9388 5.74007 12.9469 5.74745 12.9624C5.77592 13.0218 5.82829 13.0741 5.86133 13.1311L6.01139 13.3265C6.01772 13.3367 6.00929 13.3286 6.0237 13.3465L6.16287 13.5054C6.18607 13.5384 6.22789 13.5704 6.25636 13.6041C6.26022 13.6087 6.25846 13.6062 6.26338 13.6136L6.27463 13.6298C6.29396 13.6498 6.32384 13.6895 6.32805 13.7201C6.33192 13.75 6.31189 13.8062 6.28623 13.8336L6.28236 13.8375C6.28166 13.8382 6.2792 13.8403 6.2785 13.841C6.26444 13.8554 6.27709 13.8413 6.2669 13.8572L6.12562 14.081C6.07817 14.158 5.96008 14.4374 5.94462 14.501L5.84094 14.9677C5.82618 15.0423 5.8311 15.069 5.82372 15.1603C5.82196 15.1818 5.81563 15.206 5.81528 15.218V15.529C5.81599 15.5434 5.82231 15.5659 5.82548 15.5902C5.82969 15.6246 5.82266 15.651 5.83532 15.7037C5.84129 15.73 5.83743 15.7241 5.83918 15.7452L5.86027 15.84C5.8666 15.8597 5.85816 15.8629 5.86519 15.8843L5.90104 16.0421C5.91193 16.0671 5.90807 16.0773 5.92177 16.1131C5.93654 16.1507 5.92423 16.1469 5.93864 16.1764C5.96043 16.2196 5.97203 16.2924 5.99663 16.3317C6.00401 16.3437 5.99663 16.3251 6.00436 16.3468C6.01807 16.3859 6.03916 16.4505 6.05603 16.48L6.30205 16.9067C6.3024 16.9071 6.3038 16.9085 6.30415 16.9088C6.31786 16.926 6.31329 16.9331 6.327 16.9485C6.35722 16.9823 6.37585 17.0199 6.40643 17.0469L6.41556 17.0557C6.42365 17.0638 6.41732 17.054 6.42505 17.068C6.44544 17.1046 6.50518 17.1538 6.5326 17.1977C6.55017 17.2255 6.60289 17.2757 6.62538 17.3081L6.72625 17.4297C6.73468 17.4378 6.7389 17.4416 6.74452 17.4504C6.74979 17.4585 6.74312 17.449 6.74909 17.4585L6.95891 17.7031C6.95926 17.7034 6.96032 17.7045 6.96102 17.7052L6.99441 17.7372C6.99687 17.74 6.99159 17.7361 7.00425 17.7456C7.0292 17.7646 7.03166 17.7769 7.05204 17.7962C7.05239 17.7966 7.0538 17.7976 7.05415 17.798L7.08578 17.8279C7.08965 17.8321 7.07946 17.8233 7.09211 17.8345C7.09246 17.8345 7.10125 17.8412 7.10441 17.8433C7.13253 17.8655 7.15256 17.9013 7.18384 17.9182L7.22601 17.9491C7.23128 17.953 7.24886 17.9772 7.26221 17.9706C7.28189 17.9611 7.26959 17.9087 7.26994 17.8936C7.27029 17.8156 7.27943 17.6504 7.27065 17.5892L7.26994 17.2118C7.26994 17.0817 7.27522 16.951 7.26994 16.8213C7.26994 16.7341 7.27522 16.6371 7.27276 16.5577C7.26608 16.3444 7.27276 16.1469 7.27276 15.9342C7.27276 15.7972 7.27276 15.665 7.27276 15.5262L7.27732 15.451C7.27873 15.444 7.27873 15.4257 7.27873 15.4187C7.27838 15.4 7.271 15.3807 7.27662 15.3568C7.28049 15.3396 7.27908 15.3122 7.27908 15.2893V13.3114C7.27908 13.2906 7.27768 13.2752 7.27732 13.2586C7.27662 13.2249 7.27416 13.2323 7.27276 13.2017C7.26819 13.0903 7.2724 12.9796 7.2724 12.8685L7.26924 12.6436C7.26116 12.5972 7.26292 12.2124 7.2601 12.1273C7.25413 11.9495 7.21688 11.6964 7.29349 11.5397C7.31247 11.5014 7.31142 11.5386 7.3188 11.5112C7.32407 11.4915 7.31036 11.513 7.32477 11.4915C7.33918 11.4697 7.35992 11.4585 7.37889 11.4416L7.38276 11.4378C7.38311 11.4374 7.38417 11.436 7.38452 11.436C7.38487 11.4357 7.38592 11.4342 7.38627 11.4339L7.50928 11.3608C7.53002 11.3587 7.49066 11.365 7.51877 11.3611C7.54759 11.3573 7.58906 11.3369 7.62104 11.3281L8.04665 11.2648C8.09797 11.2613 8.16755 11.2705 8.23995 11.2863C8.31341 11.3025 8.3851 11.3713 8.42165 11.4328L8.47261 11.5541C8.49546 11.6666 8.49335 11.6729 8.49722 11.7825C8.50003 11.8658 8.50776 11.9161 8.50741 11.9976L8.53482 15.7669C8.53412 16.1665 8.53728 16.5683 8.5306 16.9675L8.51127 19.0639C8.50916 19.0734 8.50987 19.0906 8.50811 19.0998C8.50249 19.124 8.50038 19.1152 8.49722 19.1339C8.49229 19.1613 8.47929 19.1725 8.47648 19.2049C8.45609 19.207 8.45469 19.2277 8.44204 19.2502C8.42552 19.2801 8.39424 19.3113 8.36542 19.3321C8.35136 19.3423 8.36155 19.3342 8.35347 19.3419L8.31903 19.3764C8.15877 19.4843 8.05895 19.4298 7.97039 19.4544C7.94754 19.4607 7.93243 19.4614 7.88217 19.4614C7.87058 19.4825 7.88709 19.4653 7.85757 19.4639C7.82981 19.4625 7.8516 19.4716 7.82243 19.466C7.80169 19.4621 7.79958 19.4674 7.78974 19.4674C7.7546 19.467 7.82699 19.4751 7.77533 19.4625C7.77252 19.4618 7.74792 19.459 7.74792 19.459C7.71594 19.4565 7.66849 19.4523 7.62948 19.4407C7.62702 19.44 7.61472 19.4368 7.60628 19.434C7.57711 19.4249 7.57184 19.4259 7.55708 19.4227C7.54443 19.4203 7.5381 19.4126 7.52264 19.408C7.43618 19.382 7.34726 19.3598 7.26502 19.3257C7.24745 19.3184 7.23374 19.3085 7.21477 19.3008C7.1638 19.2797 7.10336 19.2572 7.0531 19.2298C7.02533 19.2143 6.98105 19.1961 6.96594 19.1869C6.95118 19.1781 6.94591 19.1718 6.92376 19.1613C6.90479 19.1521 6.88827 19.1444 6.87316 19.1363C6.85031 19.124 6.85558 19.1216 6.83063 19.1089L6.54314 18.9409L6.20961 18.7107C6.1699 18.6805 6.13721 18.6362 6.09926 18.6049C6.06622 18.5779 6.00155 18.51 5.97309 18.4918L5.94954 18.4703C5.94919 18.47 5.94813 18.4686 5.94778 18.4682L5.94462 18.4633C5.94392 18.4619 5.94602 18.4629 5.939 18.4552L5.86027 18.3716C5.85746 18.3677 5.85746 18.3673 5.85289 18.3617L5.84164 18.3491C5.84129 18.3484 5.84024 18.3473 5.83989 18.3466L5.7833 18.2795C5.75202 18.2359 5.70563 18.1941 5.6747 18.1501L5.67014 18.1438C5.66978 18.1435 5.66873 18.1421 5.66873 18.1417C5.66803 18.1407 5.66627 18.1378 5.66557 18.1368L5.64061 18.1108C5.63007 18.0855 5.61742 18.0735 5.60336 18.0549L5.47051 17.8704C5.4561 17.8514 5.43501 17.8366 5.42306 17.8163L5.29267 17.6279C5.28635 17.617 5.29478 17.6296 5.28811 17.6198L5.03787 17.1924C5.02171 17.1482 4.97883 17.0793 4.95774 17.0315C4.94966 17.0135 4.94403 16.9984 4.93947 16.9893L4.86777 16.835C4.85477 16.8094 4.86777 16.8238 4.85652 16.8002C4.83825 16.7612 4.82981 16.7155 4.81119 16.6747C4.78729 16.6224 4.76269 16.5282 4.74476 16.4702C4.73914 16.453 4.73527 16.4438 4.73316 16.4301C4.73141 16.4203 4.72332 16.3985 4.72051 16.3855C4.71313 16.3518 4.69837 16.3159 4.69837 16.299L4.64144 16.0414C4.63757 16.0182 4.64143 16.0235 4.63616 15.9979L4.61683 15.8678C4.61613 15.7968 4.59329 15.7076 4.59364 15.6148C4.59364 15.5972 4.58766 15.5392 4.58766 15.5244L4.5838 15.3491C4.58239 15.3248 4.58485 15.3364 4.58485 15.3192L4.58064 15.3178Z" fill="#1C71B7"/>
<path fill-rule="evenodd" clip-rule="evenodd" d="M10.3477 0.0228882H7.78531C7.72521 0.0685769 7.18608 0.115319 6.83955 0.585913C6.77102 0.679047 6.72673 0.694511 6.75731 0.834038C6.78156 0.944393 6.79386 1.05194 6.81319 1.15491C7.01246 2.22192 7.17448 3.28577 7.38114 4.3707C7.41769 4.56259 7.49114 4.81985 7.41628 5.01491C7.34599 5.19731 7.22158 5.31646 7.01281 5.37339C6.78191 5.4363 6.5605 5.30626 6.46455 5.19556C6.32186 5.03037 6.33381 4.85746 6.2832 4.6118C6.10923 3.7648 5.98657 2.88722 5.82948 2.03319C5.81155 1.93584 5.76446 1.44627 5.69241 1.43748C5.66394 1.43432 5.25555 1.66628 5.20073 1.69861C4.85349 1.90386 4.61556 2.11403 4.3221 2.32841C4.13056 2.46829 3.72252 2.87773 3.5489 3.06365C2.70015 3.97039 2.0345 5.28588 1.77794 6.56727C1.73401 6.78623 1.71151 6.99112 1.67426 7.22343C1.527 8.14775 1.79446 8.06305 1.37658 8.06059C1.22897 8.05989 1.15095 8.06727 1.02513 8.10206C0.665944 8.20117 0.380918 8.49253 0.275834 8.86401C0.137011 9.35499 0.363345 9.74018 0.600223 9.9753C0.895794 10.2688 1.29434 10.261 1.82011 10.261H15.4382C16.3228 10.261 17.4411 10.4726 17.8052 9.61331C18.0621 9.00635 17.7866 8.36706 17.212 8.1358C16.9301 8.02263 16.7491 8.10769 16.5326 8.05251C16.4876 7.93477 16.5119 7.59703 16.4939 7.43431C16.4732 7.24558 16.4518 7.01502 16.4149 6.83824C16.1643 5.63874 15.9467 5.00085 15.2832 3.95809C15.0182 3.54162 14.3845 2.7737 14.0383 2.52241L13.6834 2.22122C13.4345 2.01281 12.6926 1.51129 12.4375 1.43221C12.3816 1.51621 12.2097 2.59727 12.1806 2.78249C12.1103 3.22742 12.0301 3.70716 11.9412 4.14366C11.852 4.58052 11.8632 5.1467 11.5202 5.31856C11.0749 5.54174 10.5997 5.1815 10.7041 4.67892C10.799 4.22203 10.8609 3.77182 10.9456 3.32091C11.0682 2.66616 11.1765 1.91792 11.3054 1.28706C11.3258 1.1876 11.3374 1.05932 11.3606 0.951775C11.3954 0.790459 11.4204 0.753204 11.3318 0.632304C10.9171 0.0668185 10.4349 0.090014 10.3481 0.0235896L10.3477 0.0228882Z" fill="#1C71B7"/>
<path fill-rule="evenodd" clip-rule="evenodd" d="M2.32037 14.8661C2.37063 15.0703 2.50454 15.3613 2.59099 15.5543C2.92698 16.3032 3.14066 16.6905 3.57822 17.3896C3.85235 17.8275 4.43365 18.5989 4.81428 18.9757C4.94853 19.1089 5.12777 19.3201 5.28663 19.4442C5.3766 19.5144 5.45392 19.5861 5.54495 19.6656C6.09462 20.1453 6.95462 20.6468 7.66174 20.8507C8.80853 21.1814 9.80946 21.0837 10.8199 20.6444C12.4545 19.9334 13.7672 18.4056 14.6412 16.9211C14.9874 16.3328 15.3051 15.6552 15.5617 15C15.6566 14.7572 15.6003 14.8855 15.7957 14.7561C16.1901 14.4947 16.5029 13.7636 16.6392 13.2565C16.7352 12.8998 16.9113 11.9874 16.8157 11.5917C16.6058 11.5625 16.2505 11.5699 15.937 11.578C15.976 12.16 15.8471 13.1732 15.7725 13.6002C15.6516 14.0501 15.374 14.6989 15.024 14.9312C14.8507 15.0457 14.9009 14.9322 14.8162 15.1477C14.5885 15.7293 14.307 16.3303 13.9995 16.8522C13.2238 18.1698 12.0591 19.5257 10.6083 20.1566C9.71176 20.5463 8.82364 20.6331 7.80548 20.3393C7.17814 20.1583 6.41479 19.7134 5.92732 19.2878C5.84649 19.2171 5.77761 19.1535 5.69818 19.0913C5.5576 18.9813 5.39839 18.7936 5.2789 18.6755C4.94115 18.341 4.42522 17.6563 4.18202 17.268C3.79401 16.6477 3.60423 16.3039 3.3062 15.6393C3.22923 15.4682 3.11044 15.2099 3.06545 15.0289C2.76707 14.9217 2.62157 14.7681 2.46939 14.507C2.13059 13.926 2.03359 13.4466 1.94151 12.7666C1.89652 12.3863 1.86981 11.9895 1.8431 11.586H1.53242C1.00946 11.586 1.0316 11.5326 1.03195 11.6946C1.03266 11.9076 1.02738 12.1185 1.05444 12.3174C1.15777 13.0839 1.26742 13.6241 1.64875 14.2785C1.82061 14.5727 1.98439 14.7459 2.32073 14.8668L2.32037 14.8661Z" fill="#1C71B7"/>
</svg>
