<svg width="62" height="60" viewBox="0 0 62 60" fill="none" xmlns="http://www.w3.org/2000/svg">
<g opacity="0.5">
<path d="M30.9707 18.0001C29.4873 18.0001 28.0373 18.4399 26.8039 19.264C25.5706 20.0882 24.6093 21.2595 24.0416 22.6299C23.474 24.0004 23.3254 25.5084 23.6148 26.9632C23.9042 28.4181 24.6185 29.7545 25.6674 30.8034C26.7163 31.8523 28.0527 32.5666 29.5075 32.856C30.9624 33.1453 32.4704 32.9968 33.8408 32.4292C35.2113 31.8615 36.3826 30.9002 37.2067 29.6668C38.0308 28.4335 38.4707 26.9834 38.4707 25.5001C38.4707 23.5109 37.6805 21.6033 36.274 20.1968C34.8675 18.7902 32.9598 18.0001 30.9707 18.0001ZM30.9707 30.0001C30.0807 30.0001 29.2107 29.7361 28.4706 29.2417C27.7306 28.7472 27.1538 28.0444 26.8132 27.2221C26.4727 26.3999 26.3835 25.4951 26.5572 24.6222C26.7308 23.7492 27.1594 22.9474 27.7887 22.3181C28.4181 21.6887 29.2199 21.2602 30.0928 21.0865C30.9657 20.9129 31.8705 21.002 32.6928 21.3426C33.515 21.6832 34.2179 22.26 34.7123 23C35.2068 23.74 35.4707 24.61 35.4707 25.5001C35.4695 26.6932 34.995 27.8371 34.1514 28.6807C33.3077 29.5244 32.1638 29.9989 30.9707 30.0001Z" fill="#061725"/>
<path d="M30.9707 9.00006C26.8173 9.00006 22.7572 10.2317 19.3037 12.5392C15.8503 14.8467 13.1587 18.1265 11.5692 21.9637C9.9798 25.801 9.56393 30.0234 10.3742 34.097C11.1845 38.1706 13.1846 41.9124 16.1215 44.8493C19.0584 47.7862 22.8002 49.7863 26.8738 50.5965C30.9474 51.4068 35.1698 50.991 39.0071 49.4015C42.8443 47.8121 46.1241 45.1205 48.4316 41.667C50.7391 38.2136 51.9707 34.1535 51.9707 30.0001C51.9644 24.4325 49.7498 19.0947 45.8129 15.1578C41.876 11.2209 36.5383 9.00641 30.9707 9.00006ZM21.9707 45.5656V43.5001C21.9719 42.307 22.4464 41.1631 23.29 40.3194C24.1337 39.4757 25.2776 39.0013 26.4707 39.0001H35.4707C36.6638 39.0013 37.8077 39.4757 38.6514 40.3194C39.495 41.1631 39.9695 42.307 39.9707 43.5001V45.5656C37.2395 47.1604 34.1335 48.0008 30.9707 48.0008C27.8079 48.0008 24.702 47.1604 21.9707 45.5656ZM42.9587 43.3891C42.9288 41.4216 42.1272 39.5445 40.7266 38.1624C39.326 36.7803 37.4384 36.0038 35.4707 36.0001H26.4707C24.503 36.0038 22.6155 36.7803 21.2148 38.1624C19.8142 39.5445 19.0126 41.4216 18.9827 43.3891C16.2626 40.9602 14.3443 37.7624 13.482 34.2191C12.6196 30.6757 12.8539 26.9541 14.1537 23.5468C15.4535 20.1396 17.7575 17.2076 20.7608 15.1389C23.764 13.0703 27.3247 11.9626 30.9715 11.9626C34.6182 11.9626 38.1789 13.0703 41.1822 15.1389C44.1854 17.2076 46.4894 20.1396 47.7893 23.5468C49.0891 26.9541 49.3233 30.6757 48.461 34.2191C47.5986 37.7624 45.6804 40.9602 42.9602 43.3891H42.9587Z" fill="#061725"/>
</g>
<rect x="1.9707" y="1.00006" width="58" height="58" rx="29" stroke="#079300" stroke-width="2"/>
<rect x="48.8037" y="8.16675" width="10.1667" height="7.33333" fill="white"/>
<path d="M52.531 15.4394L52.637 15.5455L52.7431 15.4394L58.7431 9.43944L58.8488 9.33375L58.7435 9.22768L57.8035 8.28102L57.6974 8.1742L57.591 8.28064L52.637 13.2346L50.3498 10.9473L50.2433 10.8409L50.1373 10.9477L49.1973 11.8944L49.092 12.0004L49.1976 12.1061L52.531 15.4394ZM51.4766 5.97943C52.2672 5.65193 53.1146 5.48337 53.9704 5.48337C54.8262 5.48337 55.6736 5.65193 56.4642 5.97943C57.2548 6.30692 57.9732 6.78693 58.5784 7.39206C59.1835 7.99719 59.6635 8.71558 59.991 9.50622C60.3185 10.2969 60.487 11.1443 60.487 12C60.487 13.7284 59.8005 15.3859 58.5784 16.608C57.3562 17.8301 55.6987 18.5167 53.9704 18.5167C53.1146 18.5167 52.2672 18.3482 51.4766 18.0207C50.6859 17.6932 49.9675 17.2131 49.3624 16.608C48.1403 15.3859 47.4537 13.7284 47.4537 12C47.4537 10.2717 48.1403 8.61417 49.3624 7.39206C49.9675 6.78693 50.6859 6.30692 51.4766 5.97943Z" fill="#079300" stroke="white" stroke-width="0.3"/>
</svg>
