<svg width="17" height="16" viewBox="0 0 17 16" fill="none" xmlns="http://www.w3.org/2000/svg">
<path d="M8.20475 8.66671C8.57294 8.66671 8.87142 8.36823 8.87142 8.00004C8.87142 7.63185 8.57294 7.33337 8.20475 7.33337C7.83656 7.33337 7.53809 7.63185 7.53809 8.00004C7.53809 8.36823 7.83656 8.66671 8.20475 8.66671Z" fill="#061725"/>
<path d="M10.8717 8.66671C11.2399 8.66671 11.5384 8.36823 11.5384 8.00004C11.5384 7.63185 11.2399 7.33337 10.8717 7.33337C10.5036 7.33337 10.2051 7.63185 10.2051 8.00004C10.2051 8.36823 10.5036 8.66671 10.8717 8.66671Z" fill="#061725"/>
<path d="M5.53874 8.66671C5.90693 8.66671 6.2054 8.36823 6.2054 8.00004C6.2054 7.63185 5.90693 7.33337 5.53874 7.33337C5.17055 7.33337 4.87207 7.63185 4.87207 8.00004C4.87207 8.36823 5.17055 8.66671 5.53874 8.66671Z" fill="#061725"/>
<path d="M12.9185 3.28672C11.8246 2.18572 10.3809 1.50086 8.83624 1.35022C7.29156 1.19957 5.74272 1.59257 4.45675 2.46148C3.17077 3.33038 2.22825 4.62073 1.79167 6.11006C1.35509 7.5994 1.45181 9.19439 2.06516 10.6201C2.12908 10.7526 2.15006 10.9017 2.12516 11.0467L1.53849 13.8667C1.51589 13.9748 1.5205 14.0869 1.55192 14.1928C1.58334 14.2987 1.64058 14.3951 1.71849 14.4734C1.78236 14.5368 1.85841 14.5866 1.94205 14.6198C2.02569 14.6531 2.11519 14.669 2.20516 14.6667H2.33849L5.19182 14.0934C5.33684 14.076 5.4839 14.0966 5.61849 14.1534C7.04416 14.7667 8.63915 14.8635 10.1285 14.4269C11.6178 13.9903 12.9082 13.0478 13.7771 11.7618C14.646 10.4758 15.039 8.92699 14.8883 7.38231C14.7377 5.83763 14.0528 4.39391 12.9518 3.30006L12.9185 3.28672ZM13.4718 8.86006C13.3415 9.65604 13.0323 10.4121 12.5675 11.0713C12.1028 11.7305 11.4945 12.2758 10.7886 12.666C10.0827 13.0561 9.29742 13.2811 8.49197 13.324C7.68652 13.3669 6.88184 13.2265 6.13849 12.9134C5.87485 12.8012 5.59164 12.7423 5.30516 12.7401C5.18001 12.7409 5.05515 12.7521 4.93182 12.7734L3.05182 13.1534L3.43182 11.2734C3.50751 10.8662 3.45872 10.4457 3.29182 10.0667C2.97875 9.32337 2.83836 8.51869 2.88122 7.71324C2.92408 6.90779 3.14906 6.12255 3.53925 5.41662C3.92944 4.71069 4.47466 4.10245 5.13389 3.63769C5.79311 3.17292 6.54917 2.86373 7.34516 2.73339C8.18067 2.59627 9.03683 2.66004 9.84281 2.91943C10.6488 3.17882 11.3814 3.62638 11.9801 4.22508C12.5788 4.82378 13.0264 5.55642 13.2858 6.3624C13.5452 7.16838 13.6089 8.02454 13.4718 8.86006Z" fill="#061725"/>
</svg>
