<svg width="146" height="145" viewBox="0 0 146 145" fill="none" xmlns="http://www.w3.org/2000/svg">
<path d="M123.386 22.2914L123.389 22.2948C136.817 35.6799 144.181 53.5224 144.225 72.5034C144.224 91.4786 136.818 109.32 123.431 122.707C110 136.138 92.2018 143.5 73.2246 143.5C54.2481 143.5 36.405 136.094 23.0177 122.707C9.58667 109.276 2.22461 91.4772 2.22461 72.5C2.22461 53.5214 9.58758 35.6799 23.016 22.2948L23.0194 22.2914C36.4046 8.86297 54.246 1.5 73.2246 1.5C92.1585 1.5 110 8.86263 123.386 22.2914Z" stroke="#079300" stroke-width="3"/>
<path d="M62.2978 82.5607L47.3257 68.258C44.4429 65.5041 39.7002 65.5041 36.8174 68.258C33.9346 71.012 33.9346 75.5426 36.8174 78.2966L57.0436 97.6186C59.9264 100.373 64.6691 100.373 67.552 97.6186L109.632 57.4199C112.515 54.666 112.515 50.1353 109.632 47.3814C106.749 44.6274 102.006 44.6274 99.1235 47.3814L62.2978 82.5607Z" fill="#079300"/>
</svg>
