<svg width="26" height="25" viewBox="0 0 26 25" fill="none" xmlns="http://www.w3.org/2000/svg">
<g clip-path="url(#clip0_3778_4473)">
<path d="M7.0415 2.5C7.20726 2.5 7.36624 2.56585 7.48345 2.68306C7.60066 2.80027 7.6665 2.95924 7.6665 3.125V3.75H17.6665V3.125C17.6665 2.95924 17.7324 2.80027 17.8496 2.68306C17.9668 2.56585 18.1257 2.5 18.2915 2.5C18.4573 2.5 18.6162 2.56585 18.7334 2.68306C18.8507 2.80027 18.9165 2.95924 18.9165 3.125V3.75H20.1665C20.8295 3.75 21.4654 4.01339 21.9343 4.48223C22.4031 4.95107 22.6665 5.58696 22.6665 6.25V20C22.6665 20.663 22.4031 21.2989 21.9343 21.7678C21.4654 22.2366 20.8295 22.5 20.1665 22.5H5.1665C4.50346 22.5 3.86758 22.2366 3.39874 21.7678C2.9299 21.2989 2.6665 20.663 2.6665 20V6.25C2.6665 5.58696 2.9299 4.95107 3.39874 4.48223C3.86758 4.01339 4.50346 3.75 5.1665 3.75H6.4165V3.125C6.4165 2.95924 6.48235 2.80027 6.59956 2.68306C6.71677 2.56585 6.87574 2.5 7.0415 2.5V2.5ZM3.9165 7.5V20C3.9165 20.3315 4.0482 20.6495 4.28262 20.8839C4.51704 21.1183 4.83498 21.25 5.1665 21.25H20.1665C20.498 21.25 20.816 21.1183 21.0504 20.8839C21.2848 20.6495 21.4165 20.3315 21.4165 20V7.5H3.9165Z" fill="#09263D"/>
<rect x="5.4165" y="11" width="2.5" height="2.5" rx="0.5" fill="#09263D"/>
<rect x="9.4165" y="11" width="2.5" height="2.5" rx="0.5" fill="#09263D"/>
<rect x="13.4165" y="11" width="2.5" height="2.5" rx="0.5" fill="#09263D"/>
<rect x="17.4165" y="11" width="2.5" height="2.5" rx="0.5" fill="#09263D"/>
<rect x="5.4165" y="15.5" width="2.5" height="2.5" rx="0.5" fill="#09263D"/>
<rect x="9.4165" y="15.5" width="2.5" height="2.5" rx="0.5" fill="#09263D"/>
<rect x="13.4165" y="15.5" width="2.5" height="2.5" rx="0.5" fill="#09263D"/>
<rect x="17.4165" y="15.5" width="2.5" height="2.5" rx="0.5" fill="#09263D"/>
</g>
<defs>
<clipPath id="clip0_3778_4473">
<rect width="20" height="20" fill="white" transform="translate(2.6665 2.5)"/>
</clipPath>
</defs>
</svg>
