<svg width="76" height="75" viewBox="0 0 76 75" fill="none" xmlns="http://www.w3.org/2000/svg">
<g clip-path="url(#clip0_4170_1656)">
<rect x="0.5" width="75" height="75" rx="37.5" fill="#F8FDFF"/>
<g clip-path="url(#clip1_4170_1656)">
<path d="M53.8001 67.1041C63.0357 57.8685 63.0357 42.8947 53.8001 33.6592C44.5646 24.4236 29.5908 24.4236 20.3553 33.6592C11.1197 42.8947 11.1197 57.8685 20.3553 67.1041C29.5908 76.3396 44.5646 76.3396 53.8001 67.1041Z" fill="#BBC1C7"/>
<path fill-rule="evenodd" clip-rule="evenodd" d="M31.4525 25.5133C30.6684 24.9981 29.9567 24.3804 29.3365 23.6765C28.3832 22.5477 27.8248 21.2832 27.9265 19.7655C28.074 17.5877 30.0505 15.6312 32.1565 15.721C32.7947 15.7489 33.1038 15.5814 33.4827 15.1007C34.3962 13.936 35.6965 13.3397 37.1085 12.9967C39.1487 12.5041 41.1431 12.5579 43.0736 13.4414C43.7469 13.7301 44.3539 14.1537 44.8571 14.686C45.3603 15.2184 45.749 15.8482 45.9993 16.5367C46.0691 16.7361 46.119 16.8199 46.3683 16.7361C48.9969 15.9204 51.8767 17.6794 52.3813 20.3977C52.5981 21.5235 52.442 22.6893 51.9365 23.7183C51.7989 24.0055 51.8049 24.1312 52.0861 24.3645C52.4395 24.6552 52.7285 25.0164 52.9345 25.4251C53.1406 25.8337 53.2592 26.2808 53.2827 26.7378C53.4084 28.3472 52.9158 29.7293 51.6374 30.7425C50.4408 31.6858 49.1125 31.626 47.7604 31.1114C47.527 31.0237 47.3096 30.894 47.0823 30.7903C47.0065 30.7564 46.9207 30.6408 46.837 30.7704C46.7132 30.9141 46.619 31.0808 46.5598 31.261C46.5598 31.277 46.6495 31.3288 46.7034 31.3408C47.874 31.6 48.4763 32.9064 47.9877 34.1907C47.6886 34.9765 47.1102 35.521 46.4082 35.9438C45.9646 36.2034 45.4911 36.4083 44.9982 36.554C44.7183 36.6658 44.4097 36.684 44.1187 36.6059C43.9432 36.5461 43.8654 36.5899 43.8394 36.7874C43.7816 37.2381 43.7078 37.6868 43.6261 38.1336C43.5941 38.3011 43.646 38.3569 43.8075 38.4028C44.2224 38.5185 44.6252 38.672 45.0381 38.7877C45.1605 38.8143 45.2709 38.8801 45.3526 38.9751C45.4343 39.0701 45.4828 39.1892 45.4908 39.3142C45.6144 40.0561 45.774 40.794 45.8896 41.5359C45.8947 41.6173 45.9283 41.6942 45.9845 41.7533C46.0406 41.8124 46.1158 41.8498 46.1968 41.859C48.3268 42.4573 50.4507 43.0556 52.5787 43.642C52.7875 43.6898 52.983 43.7835 53.151 43.9163C53.319 44.0492 53.4553 44.2177 53.55 44.4098C53.8956 45.1177 54.1986 45.8456 54.4574 46.5896C55.0896 48.2649 55.6441 49.9801 56.4657 51.5755C56.6248 51.8829 56.8019 52.1806 56.9962 52.467C57.1277 52.6829 57.3189 52.8561 57.5467 52.9656C58.3963 53.3405 58.9427 53.9428 58.8909 54.9241C58.837 55.9611 59.1461 56.8925 59.5969 57.8059C59.8402 58.2945 59.9957 58.831 60.1952 59.3376C60.8812 61.0029 60.5502 62.5844 59.7564 64.0981C58.9068 65.7195 57.5467 66.8424 56.003 67.7637C54.6834 68.5418 53.2779 69.1642 51.8149 69.6185C51.6986 69.6375 51.592 69.6947 51.5119 69.781C51.4317 69.8673 51.3826 69.9778 51.3721 70.0951C51.3694 70.1194 51.3647 70.1434 51.3582 70.1669C50.9593 71.5849 50.9593 71.5929 49.5234 71.93C48.6399 72.1294 47.7584 72.3607 46.8709 72.5582C45.8737 72.7776 46.823 75.6235 46.4301 76.1121C46.3683 76.1899 45.8996 73.9343 45.77 73.9802C43.2671 74.8696 40.7342 75.8389 37.9262 75.8389C33.9375 75.8445 30.0111 74.8496 26.5065 72.9451C26.4207 72.8972 26.3749 73.6192 26.2891 73.5713C26.2033 73.5235 26.1116 72.7257 26.0438 72.6858C25.0016 72.0891 24.0056 71.4151 23.0642 70.6695C22.9067 70.5439 22.2924 72.1972 22.1388 72.0656C22.3861 69.7202 22.9366 67.5882 23.2696 65.2688C23.3308 64.8415 23.3166 64.4068 23.2278 63.9844C22.9884 62.7998 23.1959 61.649 23.4272 60.4963C23.495 60.1453 23.5568 59.7923 23.6366 59.3515C23.0622 59.9758 22.5656 60.5482 22.0252 61.0886C20.5349 62.5466 18.8043 63.7367 16.9096 64.6067C16.0162 65.0255 15.1985 64.9118 14.4306 64.2995C12.9486 63.1325 11.7459 61.6492 10.9106 59.9578C10.4918 59.1082 10.5795 58.2387 10.777 57.3652C11.0247 56.3311 11.3865 55.3277 11.8559 54.3736C11.8945 54.3102 11.9123 54.2364 11.9069 54.1624C11.9015 54.0884 11.8733 54.018 11.826 53.9608C11.4374 53.4276 11.1594 52.8221 11.0083 52.1798C10.94 51.8376 10.9907 51.4822 11.1519 51.1727C11.5144 50.4848 11.9326 49.8278 12.4024 49.2082L12.6457 48.8712C11.7303 48.7136 10.8388 48.578 9.95331 48.4045C8.0846 48.0375 6.24979 47.5569 4.56855 46.6295C3.97963 46.332 3.45562 45.9205 3.02691 45.419C2.44057 44.683 2.47846 43.9292 3.14457 43.267C3.81069 42.6049 4.64034 42.2938 5.49393 42.0086C6.25537 41.7597 7.03572 41.573 7.82733 41.4502C7.90768 41.4423 7.98419 41.412 8.04805 41.3626C8.11191 41.3132 8.16052 41.2468 8.18831 41.171C8.61709 40.2496 9.11169 39.3621 9.58436 38.4666C9.98747 37.7247 10.632 37.1427 11.4112 36.8173C12.9189 36.1292 14.5224 35.8201 16.1518 35.6087C16.6504 35.5449 17.149 35.509 17.6535 35.4771C17.8191 35.4671 17.8649 35.4232 17.8749 35.2477C17.9447 34.1768 18.7105 33.4867 19.7077 33.5784C20.6451 33.6662 21.3032 34.5118 21.1696 35.521C21.1397 35.7683 21.2354 35.8161 21.4388 35.86C22.9512 36.1673 24.4062 36.7097 25.7506 37.4674C26.3597 37.8258 26.931 38.2447 27.4558 38.7179C28.1167 39.3158 28.5806 40.1003 28.786 40.9675C28.8479 41.2109 28.9436 41.4442 28.9974 41.6895C29.0333 41.853 29.1151 41.875 29.2527 41.8451L30.9001 41.4881C31.0157 41.4641 31.1154 41.4183 31.0576 41.2727C30.9619 41.0294 31.1174 40.9297 31.285 40.816C31.62 40.5866 31.9451 40.3413 32.2821 40.108C32.4078 40.0202 32.4297 39.9504 32.3579 39.7929C31.4006 37.6469 30.8582 35.3833 30.5351 33.0659C30.4154 32.2003 30.6767 31.3547 30.8322 30.5091C30.8726 30.3109 30.8658 30.1059 30.8123 29.9108C30.6368 29.2647 30.4952 28.6105 30.3516 27.9583C30.1522 27.0788 30.4533 26.4147 31.0955 25.8503C31.2132 25.7446 31.3229 25.6269 31.4525 25.5133Z" fill="#061725"/>
<path fill-rule="evenodd" clip-rule="evenodd" d="M34.9206 49.0328C35.3921 49.9434 35.9919 50.7816 36.7016 51.5217C37.1711 52.0037 37.755 52.3591 38.3988 52.5548C39.4777 52.8739 40.1778 53.3526 41.2328 53.7295C41.294 53.7471 41.3477 53.7843 41.3856 53.8355C41.4234 53.8868 41.4433 53.949 41.4422 54.0127C41.5599 54.962 41.5638 54.96 40.6444 55.2532C39.8467 55.5065 39.38 55.7817 38.5783 56.019C38.385 56.0657 38.2118 56.1733 38.0844 56.3259C37.9569 56.4786 37.8818 56.6681 37.8703 56.8666C37.8197 57.1265 37.8269 57.3943 37.8913 57.6511C37.9558 57.9078 38.0759 58.1473 38.2432 58.3524C38.2817 58.3943 38.3063 58.447 38.3138 58.5034C38.3213 58.5598 38.3113 58.6171 38.2851 58.6675C38.0857 59.3197 38.1954 59.904 38.7418 60.3508C38.7889 60.3836 38.8235 60.4316 38.8398 60.4866C38.8561 60.5417 38.8532 60.6007 38.8316 60.6539C38.7795 60.84 38.7857 61.0376 38.8491 61.2201C38.9126 61.4026 39.0303 61.5614 39.1866 61.675C39.3162 61.7748 39.386 61.8745 39.3082 62.036C39.2963 62.0822 39.2916 62.13 39.2943 62.1776C39.1766 63.4919 39.398 63.827 40.6564 64.182C41.0143 64.2774 41.3772 64.3533 41.7433 64.4093C42.1103 64.4711 42.4414 64.4093 42.6288 64.0384C42.6548 63.9885 42.6827 63.9207 42.7545 63.9267C43.2012 63.9566 43.628 63.809 44.0688 63.7891C44.334 63.7771 44.3081 63.9666 44.322 64.1261C44.0488 66.1564 44.5594 67.9154 44.5035 69.132C44.4277 70.8431 43.1733 71.7406 42.8323 73.4238C42.8163 73.5076 44.3978 71.1124 44.8146 71.3098C45.2733 71.5292 45.8118 73.5894 45.7919 73.6811C45.7001 74.062 45.3112 74.4649 44.7947 74.8438C41.7652 75.7445 38.5877 76.038 35.4445 75.7074C32.3012 75.3768 29.2543 74.4286 26.4785 72.9173C26.5583 71.2639 26.6381 69.6086 26.7278 67.9553C26.7916 66.7228 27.021 65.5082 27.1805 64.2877C27.5176 61.7129 27.8746 59.1402 28.2216 56.5675C28.3931 55.311 28.5686 54.0546 28.7222 52.7961C28.7541 52.5409 28.8917 52.5588 29.0652 52.5588C30.182 52.5588 31.259 52.4013 32.2342 51.8109C33.2494 51.1987 34.0172 50.3351 34.6873 49.3758L34.9206 49.0328Z" fill="#061725"/>
<path fill-rule="evenodd" clip-rule="evenodd" d="M52.0703 44.3862C50.752 45.6705 50.2275 46.3805 50.0021 47.264L50.4987 46.6079C50.9832 45.9083 51.5632 45.2799 52.2219 44.7411C52.6207 44.446 52.6387 44.446 52.8601 44.8987C53.3028 45.8002 53.6219 46.7535 53.9729 47.6908C54.5932 49.3561 55.1695 51.0433 56.069 52.5909C55.6143 52.4154 55.3391 52.0844 54.3199 50.5248C54.4868 51.2508 54.8385 51.9213 55.341 52.4713C55.8496 53.0377 56.5157 53.3727 57.1759 53.7018C57.7542 53.993 58.1052 54.35 58.0753 55.056C58.0406 55.6305 58.0903 56.207 58.2229 56.7671C58.532 57.9498 58.534 59.2042 59.0605 60.335C59.0852 60.4234 59.0986 60.5145 59.1004 60.6062C59.1913 60.22 59.1817 59.817 59.0725 59.4356C58.9833 59.0616 58.9266 58.6805 58.903 58.2968C59.0501 58.6047 59.1715 58.9242 59.266 59.2521C59.4229 60.0157 59.4985 60.7939 59.4913 61.5735C59.4913 62.7522 58.9548 63.7174 58.175 64.5551C56.8644 66.0169 55.1526 67.0607 53.253 67.5566C52.7504 67.6842 52.6746 67.7241 52.1561 67.6164C51.8928 67.5606 51.7831 67.4648 51.7991 67.1677C51.8968 65.3389 51.482 63.508 51.3164 61.6792C51.2143 60.6915 50.9523 59.7269 50.5406 58.8233C50.4928 58.7156 50.4509 58.6059 50.397 58.4763C51.311 58.4042 52.2192 58.271 53.1153 58.0774C54.7108 57.7962 56.081 58.3287 57.3214 59.294L57.5209 59.4655C57.4037 59.1646 57.2139 58.8974 56.9684 58.6877C56.6189 58.3953 56.2251 58.1604 55.8017 57.9916C55.7269 57.972 55.6603 57.9289 55.6118 57.8686C55.5633 57.8082 55.5355 57.7339 55.5325 57.6566C55.5405 57.4267 55.6224 57.2054 55.7661 57.0258C55.9098 56.8461 56.1077 56.7177 56.3302 56.6594C56.6887 56.6145 57.0502 56.5985 57.4112 56.6115C57.1953 56.449 56.9264 56.3729 56.6573 56.3982C55.8317 56.3583 55.0977 56.6654 54.3538 56.9825C53.2907 57.4469 52.0908 57.4897 50.9973 57.1022C50.4868 56.9267 50.1517 56.5298 49.8586 56.105C48.281 53.8015 48.1015 51.3644 49.1545 48.8076C49.1785 48.7538 49.2004 48.698 49.2263 48.6441C49.2523 48.5903 49.3181 48.5125 49.2263 48.4586C49.1346 48.4048 49.1087 48.5025 49.0748 48.5504C48.1638 49.8111 47.5087 51.2379 47.1462 52.7505C47.1023 52.934 47.0704 53.1174 47.0166 53.2989C47.0026 52.3017 46.9348 51.3205 47.3676 50.3652C47.0804 50.5188 46.9687 50.7641 46.9109 51.2268C46.8955 51.5697 46.8345 51.9091 46.7294 52.2359C46.6755 51.7553 46.6277 51.3145 46.5778 50.8718C46.3591 51.9757 46.2833 53.1031 46.3525 54.2263C46.3963 55.034 46.3245 55.4389 45.8579 56.101C45.719 55.9583 45.6074 55.7913 45.5288 55.6084C45.1578 54.8984 44.8946 54.4357 44.5615 53.7078C44.2464 53.0157 43.9632 52.3496 44.1287 51.6077C44.1966 51.3006 44.3282 50.9157 44.035 50.6983C43.7418 50.4809 43.3669 50.6983 43.0618 50.8558C42.7467 51.0132 42.4722 51.2412 42.2598 51.5221C42.0474 51.803 41.9028 52.1292 41.8372 52.4753C41.6413 51.7008 41.3989 50.939 41.1113 50.1937C40.8547 49.5482 40.5198 48.9367 40.1141 48.3729C39.781 47.9202 39.9865 46.7874 40.4651 46.4064C40.9375 46.0588 41.4325 45.743 41.9469 45.4611C42.966 44.8628 44.0091 44.2964 44.9564 43.5804C45.2759 43.3708 45.5505 43.0996 45.7641 42.7827C45.772 42.7606 45.7844 42.7404 45.8004 42.7233C45.8164 42.7062 45.8357 42.6925 45.8572 42.6832C45.8787 42.6739 45.9019 42.669 45.9253 42.669C45.9488 42.6689 45.972 42.6737 45.9935 42.683C48.0158 43.2494 50.0414 43.8171 52.0703 44.3862Z" fill="#061725"/>
<path fill-rule="evenodd" clip-rule="evenodd" d="M42.5017 36.6659C41.2831 37.711 40.0945 38.7879 38.8002 39.7372C38.4013 40.0264 37.9845 40.2837 37.5776 40.5569C36.3391 41.3866 34.255 41.0077 33.2539 40.0005C32.9328 39.6774 32.7852 39.2506 32.6316 38.8398C31.9557 37.0237 31.4704 35.1422 31.1837 33.2257C31.076 32.5057 31.2216 31.7977 31.3712 31.0917C31.6464 29.7794 31.7401 28.4412 31.8897 27.103C31.9316 26.7241 32.0293 26.3511 32.0891 25.9722C32.0947 25.882 32.132 25.7967 32.1944 25.7314C32.2569 25.6661 32.3404 25.6249 32.4302 25.6152C35.4536 25.0747 38.4292 25.0807 41.2931 26.385C42.0195 26.7228 42.7126 27.1281 43.3633 27.5956C43.4428 27.6406 43.5036 27.7126 43.5347 27.7986C43.5658 27.8845 43.5651 27.9788 43.5328 28.0643C43.1848 29.719 43.1389 31.423 43.3972 33.094C43.4789 33.6006 43.5767 33.6146 43.9696 33.2935C44.4103 32.9205 44.7314 32.4339 45.1522 32.041C45.2739 31.9273 45.4055 31.8236 45.5331 31.7139C45.6608 31.6043 45.7326 31.5743 45.8143 31.7638C45.8456 31.8229 45.8951 31.8703 45.9555 31.899C46.0158 31.9277 46.0838 31.9363 46.1494 31.9234C47.0728 31.8536 47.7648 32.747 47.4397 33.824C47.2575 34.3737 46.9003 34.8487 46.4226 35.1762C45.8786 35.5694 45.2637 35.8538 44.6117 36.0138C44.3285 36.0916 44.0772 35.9639 43.8359 35.8143C43.5208 35.6149 43.2855 35.7286 43.2695 36.0936C43.2257 37.1865 42.9265 38.2415 42.7969 39.3224C42.745 39.7572 42.6293 40.19 42.7191 40.6367C42.745 40.7584 42.6353 40.8361 42.5715 40.9079C42.0062 41.5814 41.3474 42.1704 40.615 42.657C41.2851 41.4105 41.694 40.0643 42.0789 38.7201C41.9184 38.9151 41.8032 39.1433 41.7418 39.3882C41.3131 40.4891 40.9202 41.606 40.268 42.6071C40.005 43.0371 39.6399 43.3954 39.205 43.6502C38.8062 43.8715 38.4192 44.1069 38.0463 44.3662C37.458 44.775 36.7938 44.8588 36.0799 44.9026C36.1237 44.5835 36.2793 44.3043 36.1876 43.9613C35.9682 44.0909 35.9642 44.3382 35.8465 44.5117C35.7648 44.6294 35.8306 44.8727 35.6152 44.8627C35.3998 44.8528 35.1146 44.8249 35.0069 44.6135C34.618 43.8576 34.0855 43.1496 34.1094 42.2202C34.2331 42.1983 34.2909 42.302 34.3687 42.3578C34.8825 42.7334 35.473 42.9908 36.0978 43.1117C36.3082 43.1604 36.527 43.1597 36.7371 43.1095C36.9472 43.0593 37.1427 42.9611 37.3084 42.8225C39.3845 41.0881 41.142 39.0047 42.5017 36.6659Z" fill="#EDCBAA"/>
<path fill-rule="evenodd" clip-rule="evenodd" d="M32.6152 29.8792C32.8566 30.3498 32.7907 30.3777 33.1537 30.4775C33.5167 30.5772 34.9606 30.4635 34.9606 30.4635C34.9606 30.4635 35.2179 30.3159 35.19 30.2202C35.162 30.1245 34.7911 29.4923 34.7911 29.4923L33.066 29.4524C32.9245 29.6036 32.774 29.7462 32.6152 29.8792Z" fill="#061725"/>
<path fill-rule="evenodd" clip-rule="evenodd" d="M38.3315 30.2421C38.5146 30.5187 38.7717 30.7385 39.0734 30.8763L40.7667 30.8883L41.4467 30.4994C41.4467 30.4994 40.8664 29.9449 40.5572 29.8233C40.2481 29.7016 38.9797 29.6498 38.8182 29.6757C38.6566 29.7016 38.3315 30.2421 38.3315 30.2421Z" fill="#061725"/>
<path fill-rule="evenodd" clip-rule="evenodd" d="M51.2746 27.821C50.5008 28.1959 49.9145 27.9327 49.4139 27.3783C48.668 26.5506 48.2791 25.5335 47.9221 24.5024C47.7092 23.8661 47.5353 23.2174 47.4016 22.5599C47.2533 22.8138 47.0774 23.0506 46.8771 23.2659C46.546 23.5531 46.2329 23.5331 45.9417 23.2021C45.5768 22.7872 45.6147 22.3046 45.7044 21.806C45.8101 21.2077 45.7622 21.1618 45.1799 21.2835C44.2346 21.4829 43.3351 21.2835 42.4157 21.0841C40.4034 20.6333 39.484 19.2692 39.1469 17.3686C39.1051 17.1392 39.0672 16.9059 39.0153 16.5948C38.4756 17.5038 38.0146 18.4572 37.6372 19.4447C37.4915 19.826 37.2463 20.1614 36.9272 20.416C36.5024 20.763 35.9919 20.5974 35.4534 20.7351C36.0677 20.0251 36.289 19.2293 36.5044 18.4036C36.305 18.4276 36.305 18.5712 36.2571 18.6709C35.7765 19.8675 34.8431 20.5795 33.6485 20.8786C32.9565 21.0522 32.2524 20.7809 31.6721 20.3342C31.2975 20.0158 30.974 19.6418 30.7128 19.2253L30.4735 18.8783C30.4555 19.4906 31.0518 20.5436 31.7858 21.2436C31.0798 21.2915 30.3897 20.8447 29.8512 19.9652C29.0535 21.7761 29.941 23.0864 31.0758 24.4007C29.2031 23.0665 28.1161 21.0242 28.7164 19.0418C29.1811 17.5082 30.7008 16.2996 32.1806 16.3295C32.2405 16.3295 32.3003 16.3295 32.3601 16.3295C32.8627 16.3794 32.8627 16.3794 32.8168 16.872C32.7331 17.8133 32.7989 18.2022 33.12 18.6549C33.1958 18.6549 33.1838 18.5911 33.1778 18.5532C32.9066 16.7583 33.5927 15.3942 35.1303 14.5067C37.6193 13.0707 40.2299 12.8833 42.8724 14.044C43.5584 14.3285 44.1635 14.7778 44.6342 15.3522C45.1049 15.9266 45.4266 16.6082 45.5708 17.3367C45.6559 17.845 45.6653 18.3632 45.5987 18.8743C45.5987 18.9561 45.5488 19.0738 45.6486 19.0957C45.7961 19.1416 45.7842 18.984 45.8061 18.9122C45.9224 18.5847 45.985 18.2406 45.9916 17.8931C45.9811 17.7811 46.0127 17.6693 46.0802 17.5794C46.1476 17.4894 46.2462 17.4278 46.3566 17.4065C47.8822 16.866 49.2444 17.207 50.4251 18.2401C52.1342 19.7459 52.22 21.9436 51.167 23.8702C51.0832 24.0237 50.9815 24.0218 50.8459 24.0198C50.3796 24.0141 49.9185 24.1179 49.4997 24.3229C49.794 24.4085 50.1018 24.4383 50.4071 24.4107C51.145 24.3807 51.6635 24.7457 52.0784 25.2902C53.4266 27.0592 52.3915 30.1424 50.2535 30.7447C50.1277 30.7795 49.997 30.7936 49.8666 30.7866C51.1151 30.1664 51.4841 29.1532 51.2746 27.821Z" fill="#061725"/>
<path fill-rule="evenodd" clip-rule="evenodd" d="M21.6466 43.72C16.0166 43.6382 14.3014 43.3949 9.2477 41.5621C9.02433 41.4823 9.02234 41.4025 9.11009 41.2111C9.52691 40.2976 9.77421 39.7053 10.2688 38.8318C10.6497 38.1617 11.2381 37.7548 11.9102 37.4357C13.3062 36.7836 14.794 36.5064 16.2978 36.3269C19.1656 35.9858 21.8959 36.5024 24.5065 37.695C24.9054 37.8785 25.2744 38.1358 25.6712 38.3292C27.7653 39.3523 27.7733 41.4623 27.6177 43.0618C27.5938 43.2952 27.4522 43.343 27.2508 43.363C26.6525 43.4228 26.0402 43.5145 25.4319 43.5624C24.1635 43.6721 22.8831 43.708 21.6466 43.72Z" fill="#AFB0B0"/>
<path fill-rule="evenodd" clip-rule="evenodd" d="M12.9071 49.9583C13.4715 50.9036 14.3231 51.3923 15.2784 51.8709C15.2225 51.7204 15.1206 51.5913 14.9872 51.502C14.5504 51.129 14.1097 50.7601 13.6749 50.3851C13.5955 50.3116 13.524 50.2301 13.4615 50.1418C13.0347 49.5973 13.2382 49.0888 13.9222 48.9771L14.2513 48.9193C13.8624 49.4338 14.2373 49.705 14.5345 49.9902C15.5036 50.9176 16.5594 51.7497 17.6876 52.4752C17.9608 52.6688 18.2799 52.7878 18.6132 52.8203C18.9466 52.8528 19.2826 52.7978 19.5882 52.6607C20.5427 52.2838 21.4691 51.8392 22.3603 51.3304C22.4621 51.2726 22.5598 51.2128 22.7054 51.131C22.7134 52.1818 22.6367 53.2316 22.476 54.2701C22.466 54.3545 22.4269 54.4328 22.3653 54.4914C22.3038 54.55 22.2237 54.5853 22.139 54.5912C21.3412 54.659 20.6272 55.014 19.9053 55.3232C19.5762 55.4648 19.2511 55.6123 18.93 55.7739C19.5668 55.6894 20.1931 55.539 20.7988 55.3252C21.062 55.2394 21.3971 54.9881 21.5825 55.1536C21.7321 55.2853 21.5227 55.6622 21.4529 55.9235C21.3173 56.442 21.1617 56.9565 21.0042 57.4691C20.8043 58.0739 20.4551 58.6185 19.989 59.0526C19.291 59.7427 18.6109 60.4487 17.7953 61.0171C17.6576 61.1148 17.528 61.2285 17.6596 61.396C17.7913 61.5635 17.9389 61.4479 18.0585 61.3581C18.8822 60.7396 19.6473 60.0466 20.344 59.288C20.433 59.1887 20.5297 59.0967 20.6332 59.0127C20.3819 59.7148 19.8574 60.2532 19.4825 60.8894C19.815 60.7346 20.1001 60.4936 20.3081 60.1914C20.8166 59.538 21.1754 58.781 21.3592 57.9737C21.5726 57.0922 21.8079 56.2146 22.0153 55.3311C22.0672 55.1138 22.2347 55.0459 22.3843 54.9761C22.5312 54.9095 22.6575 54.8045 22.7498 54.6722C22.8421 54.5399 22.897 54.3852 22.9088 54.2243C23.036 53.3236 23.1026 52.4155 23.1082 51.5059C23.1082 51.3623 23.1082 51.2188 23.1302 51.0752C23.178 50.6264 23.1302 50.2335 22.6136 50.078C22.466 50.0301 22.4441 49.8606 22.3583 49.7848C22.9766 49.2902 23.7006 49.3381 24.4225 49.362C24.3028 50.5945 24.2091 51.825 24.0595 53.0556C23.7105 55.8896 22.4062 58.2409 20.5634 60.341C19.7118 61.3142 18.7805 62.1878 17.5719 62.7003C16.6066 63.1112 15.6015 63.2807 14.5604 63.0075C14.1872 62.9157 13.851 62.7117 13.5971 62.4231C12.8733 61.6241 12.2473 60.7417 11.7324 59.7945C11.3335 59.0267 11.4053 58.2449 11.5988 57.4531C11.7493 56.8396 11.9494 56.2393 12.1971 55.6582C12.237 55.5625 12.227 55.4089 12.4284 55.4967C13.0872 55.7596 13.7971 55.8694 14.5046 55.8178C15.3801 55.7878 16.2476 55.9394 17.1212 55.9035C17.2289 55.9035 17.4044 55.9594 17.4223 55.7958C17.4403 55.6323 17.2488 55.6642 17.1511 55.6522C16.088 55.5642 15.0499 55.283 14.0877 54.8226C13.0905 54.3262 12.3176 53.4714 11.9239 52.4293C11.8403 52.2574 11.802 52.067 11.8124 51.8761C11.8229 51.6852 11.8819 51.5002 11.9837 51.3384C12.2868 50.8717 12.57 50.419 12.9071 49.9583Z" fill="#061725"/>
<path fill-rule="evenodd" clip-rule="evenodd" d="M20.7131 52.178C21.2735 51.9207 21.8239 51.6415 22.3604 51.3304C22.4621 51.2725 22.5599 51.2127 22.7054 51.1309C22.7135 52.1818 22.6368 53.2315 22.4761 54.27C22.4661 54.3544 22.4269 54.4327 22.3654 54.4913C22.3039 54.5499 22.2238 54.5852 22.139 54.5911C21.3413 54.6589 20.6273 55.0139 19.9054 55.3231L19.5583 55.4746C19.9698 55.1691 20.3559 54.831 20.7131 54.4635V52.178ZM19.0618 55.7558C18.9862 55.7866 18.9059 55.8042 18.8244 55.8077C18.2261 55.8077 20.4957 55.9154 20.4957 55.9154L18.7227 60.275C19.1595 59.8762 19.5703 59.4613 19.9891 59.0485C20.4552 58.6144 20.8043 58.0698 21.0043 57.465C21.1618 56.9525 21.3174 56.4379 21.453 55.9194C21.5228 55.6581 21.7322 55.2812 21.5826 55.1496C21.3952 54.984 21.0621 55.2353 20.7988 55.3211C20.2342 55.5183 19.6527 55.6638 19.0618 55.7558ZM17.7654 61.4697L16.2876 63.0651C16.7366 62.9902 17.1747 62.8602 17.5919 62.6782C18.7885 62.1657 19.7279 61.2922 20.5834 60.3189C22.4262 58.2149 23.7305 55.8675 24.0796 53.0335C24.2291 51.803 24.3229 50.5725 24.4425 49.34C23.7206 49.3161 22.9966 49.2682 22.3784 49.7628C22.4641 49.8386 22.4861 50.0081 22.6336 50.056C23.1462 50.2195 23.1981 50.6124 23.1502 51.0532C23.1362 51.1967 23.1302 51.3403 23.1282 51.4839C23.1226 52.3935 23.056 53.3016 22.9288 54.2022C22.917 54.3631 22.8621 54.5179 22.7698 54.6502C22.6775 54.7825 22.5512 54.8875 22.4043 54.9541C22.2547 55.0239 22.0872 55.0917 22.0353 55.3091C21.8359 56.1926 21.5926 57.0701 21.3792 57.9516C21.1955 58.7589 20.8367 59.516 20.3282 60.1693C20.1201 60.4715 19.8351 60.7125 19.5025 60.8674C19.8774 60.2312 20.402 59.6927 20.6532 58.9907C20.5498 59.0747 20.4531 59.1667 20.3641 59.2659C19.6673 60.0246 18.9023 60.7176 18.0785 61.336C17.9768 61.4218 17.8691 61.5056 17.7654 61.4697Z" fill="#C4C4C4"/>
<path fill-rule="evenodd" clip-rule="evenodd" d="M25.9383 54.7926C25.4696 55.6402 25.1405 56.4978 24.6479 57.2676C25.2981 54.6271 24.8753 52.0005 24.612 49.34C26.0975 49.2789 27.5779 49.1291 29.0455 48.8913C28.6796 49.4195 28.3657 49.9819 28.1082 50.5705C27.9765 50.8916 27.8429 51.2107 27.6953 51.5238C27.6056 51.7233 27.5218 51.9227 27.2785 51.9845C27.2522 51.991 27.2275 52.0027 27.2058 52.019C27.1842 52.0353 27.1661 52.0558 27.1527 52.0793C27.1393 52.1028 27.1308 52.1288 27.1277 52.1557C27.1246 52.1827 27.1271 52.2099 27.1349 52.2358C27.1588 52.3695 27.2705 52.3954 27.3782 52.4093C27.6017 52.4487 27.8276 52.4734 28.0543 52.4831C28.2876 52.4831 28.3275 52.5689 28.2976 52.7823C28.1301 53.955 27.9765 55.1296 27.819 56.3043C27.472 58.897 27.117 61.4737 26.7799 64.0604C26.5964 65.4564 26.3412 66.8265 26.2753 68.2266C26.2062 69.7144 26.1351 71.2015 26.0619 72.6879C24.8653 72.305 23.6687 72.1993 22.7354 71.4574C23.1223 69.852 23.7924 67.4368 24.0616 65.7456C24.3042 66.378 24.4573 67.0412 24.5163 67.716C24.5569 68.3699 24.4737 69.0255 24.271 69.6485C24.633 69.1008 24.8335 68.4621 24.8494 67.8058C24.8753 66.8804 24.63 66.0108 24.3568 65.1373C23.9434 63.8825 23.8705 62.5405 24.1454 61.2483C24.3807 60.1614 24.5861 59.0685 24.7975 57.9776C24.8275 57.8505 24.8795 57.7297 24.9511 57.6206C25.409 56.8626 25.7455 56.0376 25.9483 55.1755C25.9729 55.1144 25.9848 55.0489 25.9831 54.983C25.9814 54.9171 25.9661 54.8523 25.9383 54.7926Z" fill="#061725"/>
<path fill-rule="evenodd" clip-rule="evenodd" d="M32.2363 25.2282C32.4976 24.0516 32.7469 22.9327 32.9922 21.8139C33.0241 21.6663 33.0979 21.6145 33.2495 21.5686C38.8516 20.0569 44.4957 21.9675 47.8083 27.0411C47.8513 27.088 47.879 27.1469 47.8879 27.2099C47.8968 27.2729 47.8864 27.3371 47.8581 27.3941C47.4872 28.1919 47.1302 29.0036 46.7553 29.8412C46.4461 29.4044 46.1689 28.9796 45.8598 28.5808C45.542 28.1889 45.146 27.8676 44.6971 27.6374C45.2854 28.2976 45.8757 28.9497 46.2527 29.7614C45.7341 29.195 45.2256 28.6226 44.6572 28.1041C42.3038 25.9622 39.5177 24.945 36.3567 24.8772C34.9748 24.8513 33.5939 24.9689 32.2363 25.2282Z" fill="#061725"/>
<path fill-rule="evenodd" clip-rule="evenodd" d="M27.3621 43.8117C27.1092 44.3617 26.725 44.8411 26.2433 45.2077C25.1384 46.0952 23.8501 46.6237 22.5497 47.1562C22.4697 47.1806 22.3859 47.1901 22.3024 47.1841C18.5969 47.1722 14.9233 46.885 11.2876 46.1012C10.3832 45.9291 9.50494 45.6402 8.675 45.2416C8.55708 45.1815 8.44257 45.1149 8.33197 45.0422C7.74563 44.6673 7.71172 44.5835 7.9331 43.9433C8.12057 43.4148 8.33197 42.8923 8.51944 42.3658C8.5693 42.2282 8.62314 42.1504 8.80264 42.2202C11.9757 43.4447 15.2963 43.8815 18.6667 44.045C21.4768 44.1806 24.2868 44.1886 27.0869 43.8137C27.1785 43.8076 27.2704 43.8069 27.3621 43.8117Z" fill="#AFB0B0"/>
<path fill-rule="evenodd" clip-rule="evenodd" d="M29.3629 43.9753C30.5595 44.4041 31.6983 44.7172 32.6496 45.503C32.7598 45.5945 32.8606 45.6967 32.9507 45.8081C33.3496 46.2927 33.3037 46.7095 32.8271 47.1184C32.4337 47.4321 31.9872 47.6726 31.5088 47.8284C30.0111 48.3688 28.4495 48.5902 26.8779 48.7478C25.1378 48.9189 23.3887 48.9815 21.6407 48.9352C16.9281 48.8256 12.2673 48.3649 7.71613 47.0286C6.66771 46.7373 5.65599 46.3271 4.70066 45.8061C4.342 45.6128 4.01346 45.3683 3.72542 45.0802C3.19691 44.5277 3.23281 44.0411 3.84508 43.5704C4.24422 43.2854 4.6848 43.0635 5.15138 42.9123C6.03493 42.5864 6.94993 42.3531 7.88166 42.2163C7.64832 42.8724 7.4429 43.5026 7.19759 44.1169C7.12845 44.2694 7.11051 44.4402 7.14645 44.6038C7.1824 44.7673 7.2703 44.9149 7.39703 45.0243C7.81637 45.4192 8.31851 45.7156 8.86687 45.8919C10.3835 46.4304 11.9513 46.8127 13.5456 47.0326C16.7179 47.5132 19.9244 47.7307 23.1325 47.6828C24.8317 47.6609 26.5229 47.5871 28.1942 47.1862C28.6294 47.1011 29.0431 46.9296 29.4108 46.6816C29.5614 46.5941 29.677 46.4569 29.7378 46.2936C29.7985 46.1303 29.8007 45.9509 29.7438 45.7862C29.5982 45.2178 29.5005 44.6294 29.3629 43.9753Z" fill="#AFB0B0"/>
<path fill-rule="evenodd" clip-rule="evenodd" d="M43.5727 55.5304C43.2897 55.2621 42.9256 55.0951 42.5376 55.0558C42.3781 55.0278 42.2843 54.984 42.2624 54.8065C42.1477 54.0717 42.1477 53.3235 42.2624 52.5887C42.408 51.777 42.9305 51.2984 43.7263 51.0511C43.802 51.3682 43.7003 51.6494 43.6525 51.9366C43.562 52.445 43.6151 52.9685 43.806 53.4483C44.2013 54.5382 44.6995 55.588 45.2938 56.5835C45.9636 57.6834 46.4146 58.9023 46.6221 60.1733C46.6533 60.4343 46.7053 60.6924 46.7776 60.9451C46.9132 61.3181 46.7776 61.5773 46.5263 61.8406C46.2356 62.1952 45.9005 62.511 45.5291 62.7799C45.563 62.5925 45.7445 62.4828 45.6767 62.2973C43.3114 63.5936 42.9764 63.6036 41.325 63.2366C41.3071 63.3703 41.4706 63.3703 41.5025 63.4939C41.0917 63.3723 40.4236 63.3902 40.1583 63.0731C39.9968 62.8737 40.0487 62.3432 40.1583 62.0759C40.286 61.7608 41.3231 61.6412 41.686 61.6013C42.0849 61.5554 42.1846 61.4497 42.1148 61.0668C41.3589 61.2941 40.5871 61.5494 39.8113 61.4856C39.58 61.4676 39.2729 60.2551 39.6119 60.2052C40.2279 60.0835 40.8329 59.9114 41.4208 59.6907C41.8336 59.5411 42.0191 59.0465 41.0219 59.3616C40.5193 59.5192 39.5959 59.8881 39.0535 59.8402C38.854 59.8243 38.7623 59.1402 38.7862 58.8431C38.8042 58.6197 38.9478 58.5639 39.1013 58.514L40.8424 57.9576C41.2413 57.8319 41.8615 56.9365 40.7467 57.439C40.1604 57.7156 39.5401 57.9134 38.9019 58.0274C38.503 57.9715 38.3814 57.3014 38.3674 56.9285C38.3495 56.8096 38.379 56.6885 38.4495 56.5912C38.52 56.4938 38.6259 56.428 38.7444 56.4079C39.5999 56.1487 40.4455 55.8475 41.3031 55.5943C41.9716 55.3904 42.6827 55.3711 43.3613 55.5384C43.4151 55.5663 43.4789 55.6202 43.5727 55.5304Z" fill="#D98B58"/>
<path fill-rule="evenodd" clip-rule="evenodd" d="M46.6201 58.0515C47.4797 59.9082 48.1119 61.8109 48.0501 63.883C48.1598 63.6676 48.1797 62.3932 48.1079 62.0163C47.8606 60.7538 47.7569 59.4555 47.1446 58.2868C47.1078 58.1982 47.0804 58.1059 47.0629 58.0116C47.027 57.872 47.0629 57.8221 47.2224 57.8441C48.0202 57.9538 48.8378 58.0256 49.6156 58.3207C49.6983 58.3497 49.7742 58.395 49.839 58.4539C49.9038 58.5128 49.956 58.5842 49.9926 58.6638C50.6268 59.9702 50.9672 61.3998 50.9897 62.8519C51.0576 64.9959 51.0496 67.1358 50.7405 69.2618C50.6519 69.755 50.5101 70.2371 50.3176 70.6997C50.3026 70.763 50.2701 70.8208 50.224 70.8666C50.1778 70.9124 50.1198 70.9444 50.0564 70.959C49.139 71.1704 48.2236 71.3858 47.2424 71.6151C48.1837 67.0221 47.7489 62.5228 46.6201 58.0515Z" fill="#061725"/>
<path fill-rule="evenodd" clip-rule="evenodd" d="M44.5335 39.5237C44.2852 40.0189 43.995 40.492 43.666 40.9377C43.3503 41.3876 43.0003 41.8123 42.619 42.2081C43.4905 41.5918 44.1127 40.7462 44.717 39.777C44.8207 40.3334 44.8965 40.7881 44.9902 41.2408C45.0072 41.3092 44.9999 41.3813 44.9697 41.4449C44.9396 41.5085 44.8883 41.5597 44.8247 41.5898C43.999 42.1642 43.1335 42.6748 42.3437 43.299C42.0266 43.5483 41.7095 43.7976 41.4104 44.0728C42.675 43.4363 43.901 42.7258 45.082 41.9448C45.2595 42.4753 45.2595 42.4773 44.7928 42.7286C42.5551 43.9392 40.3155 45.1438 38.0818 46.3623C37.5752 46.6376 37.0846 46.8609 36.5082 46.5718C37.4236 45.9734 38.4846 45.6244 39.428 45.0501C38.6867 45.2342 37.9668 45.4956 37.2801 45.8298C36.947 45.9914 36.6119 46.1489 36.2829 46.3205C36.1413 46.3943 36.0236 46.3883 35.9518 46.2467C35.88 46.1051 36.0515 46.0831 36.1173 46.0472C37.4994 45.1697 38.9473 44.3979 40.2915 43.4546C41.2548 42.7825 42.1822 42.0585 42.9281 41.1451C43.3243 40.6939 43.6097 40.1565 43.7617 39.5755C43.8196 39.3123 43.9312 39.2904 44.1446 39.3901C44.2715 39.4422 44.4014 39.4869 44.5335 39.5237Z" fill="#061725"/>
<path fill-rule="evenodd" clip-rule="evenodd" d="M41.4647 52.84C39.8931 50.8097 38.5509 48.6897 36.1597 47.6427C36.6981 47.5509 37.2027 47.7264 38.3794 48.4105C38.1181 47.9817 37.2865 47.519 36.5565 47.3954L36.3431 47.3615C36.2315 47.3455 36.1776 47.2996 36.1936 47.172C36.2095 47.0443 36.2953 47.0244 36.393 47.0384C37.8369 47.2378 39.1592 47.6626 40.0008 48.9649C40.7447 50.1137 41.1276 51.408 41.4647 52.84Z" fill="#061725"/>
<path fill-rule="evenodd" clip-rule="evenodd" d="M31.6023 41.7017C32.063 42.318 32.3502 43.0299 32.8189 43.6362C32.5975 43.1456 32.3762 42.653 32.1508 42.1624C32.0969 42.0447 32.0212 41.935 31.9633 41.8174C31.716 41.3208 31.716 41.3208 32.1628 40.9957L32.8049 40.525C33.3693 42.4835 34.2648 44.2644 35.268 45.9995C35.0566 46.1152 34.9529 46.0434 34.8192 45.8739C34.4821 45.3924 34.0892 44.9526 33.6486 44.5636C33.9338 45.126 34.3406 45.6106 34.7056 46.1411C34.1073 46.0793 31.5704 42.4256 31.6023 41.7017Z" fill="#061725"/>
<path fill-rule="evenodd" clip-rule="evenodd" d="M40.4592 52.2138C39.7033 51.7691 38.8976 51.4919 38.1158 51.1529C37.5872 50.9261 37.1124 50.5904 36.7224 50.1677C36.3323 49.745 36.0358 49.2448 35.8522 48.6998C35.8238 48.6358 35.8024 48.5689 35.7883 48.5004C35.7774 48.4292 35.7825 48.3564 35.8032 48.2874C35.8239 48.2184 35.8597 48.1549 35.908 48.1015C36.0077 47.9978 36.1274 48.1194 36.2251 48.1653C37.3838 48.6918 38.2733 49.5614 39.089 50.5007C39.5677 51.0472 40.0044 51.6395 40.4592 52.2138Z" fill="#061725"/>
<path fill-rule="evenodd" clip-rule="evenodd" d="M28.4272 51.8269C30.3119 50.4428 32.0311 48.8693 34.3505 48.2072C34.0076 48.6716 33.6296 49.109 33.2197 49.5155C32.9784 49.7807 32.6972 50.0101 32.4638 50.2813C31.5684 51.3223 30.3319 51.5816 29.0734 51.7791C28.8646 51.8445 28.6435 51.8608 28.4272 51.8269Z" fill="#061725"/>
<path fill-rule="evenodd" clip-rule="evenodd" d="M16.1501 50.7382C16.3506 50.8302 16.5694 50.8751 16.79 50.8696C17.0105 50.8641 17.2268 50.8082 17.4225 50.7063C17.8752 50.5069 18.3518 50.6545 18.7866 50.812C19.299 51.0153 19.8697 51.0153 20.3821 50.812C20.5696 50.7362 20.6374 50.7741 20.6613 50.9736C20.7291 51.5938 20.6414 51.7554 20.063 52.0007C18.653 52.599 18.5453 52.589 17.2908 51.6995C16.892 51.4163 16.5091 51.1192 16.1182 50.828L16.1501 50.7382Z" fill="#EDCBAA"/>
<path fill-rule="evenodd" clip-rule="evenodd" d="M28.2959 51.3423C28.5796 50.4304 29.0412 49.5838 29.6541 48.8514C29.7319 48.7765 29.8335 48.7313 29.9412 48.7237C30.6936 48.5754 31.4287 48.3502 32.135 48.0516C32.1787 48.0454 32.223 48.0454 32.2667 48.0516L31.8897 48.3627C32.5676 48.042 33.2995 47.8513 34.0476 47.8003C31.8379 48.5103 30.1327 50.024 28.2959 51.3423Z" fill="#061725"/>
<path fill-rule="evenodd" clip-rule="evenodd" d="M47.3099 55.5904C47.8743 56.426 48.69 56.9665 49.3282 57.7643C48.5064 57.5748 47.6719 57.4455 46.8313 57.3773C46.6538 57.3574 46.574 57.3075 46.6438 57.1121C46.8266 56.5885 47.0493 56.0798 47.3099 55.5904Z" fill="#DC9118"/>
<path fill-rule="evenodd" clip-rule="evenodd" d="M45.547 66.6651C45.5909 68.4181 45.7185 70.0256 46.1074 71.6031C46.1294 71.6929 46.2171 71.8464 46.0775 71.8843C45.9379 71.9222 45.912 71.7447 45.8781 71.645C45.6348 70.7807 45.4791 69.894 45.4134 68.9985C45.2578 67.415 45.2139 65.8235 45.198 64.232C45.198 64.1103 45.1342 63.9468 45.3555 63.9508C45.5769 63.9547 45.4792 64.1203 45.4832 64.218C45.5311 65.0776 45.5689 65.9391 45.547 66.6651Z" fill="#061725"/>
<path fill-rule="evenodd" clip-rule="evenodd" d="M19.5423 34.3904C20.0369 34.3904 20.0708 34.901 19.9552 35.3876C19.9232 35.5272 19.8634 35.5871 19.7098 35.5611C19.297 35.5033 19.287 35.5133 18.8742 35.4734C18.7525 35.4614 18.7186 35.4116 18.7087 35.2959C18.7041 35.0666 18.7883 34.8444 18.9436 34.6757C19.0989 34.507 19.3134 34.4048 19.5423 34.3904Z" fill="#AFB0B0"/>
<path fill-rule="evenodd" clip-rule="evenodd" d="M30.9441 44.0211L29.4005 43.4607C29.2808 43.4188 28.9797 42.7367 29.0515 42.629C29.1232 42.5213 29.2768 42.5432 29.3945 42.613C29.6666 42.7639 29.9175 42.9504 30.1404 43.1675C30.4276 43.4547 30.6988 43.7578 30.9441 44.0211Z" fill="#061725"/>
<path fill-rule="evenodd" clip-rule="evenodd" d="M20.8604 51.6436C21.0757 51.2447 21.2413 50.9256 21.4088 50.6164C21.4347 50.5666 21.4886 50.4848 21.5145 50.4888C21.8944 50.5342 22.2767 50.5555 22.6593 50.5526C22.1367 51.0093 21.5384 51.2886 20.8604 51.6436Z" fill="#061725"/>
<path fill-rule="evenodd" clip-rule="evenodd" d="M35.0408 47.4673C35.0795 47.1957 35.1739 46.935 35.318 46.7015C35.3758 46.6137 35.4456 46.5021 35.5713 46.538C35.6296 46.554 35.6813 46.5881 35.7189 46.6354C35.7566 46.6827 35.7782 46.7408 35.7807 46.8012C35.8246 47.1881 35.6431 47.5192 35.5095 47.8602C35.5053 47.875 35.4971 47.8883 35.4859 47.8987C35.4746 47.9091 35.4608 47.9163 35.4457 47.9194C35.4307 47.9225 35.4151 47.9214 35.4007 47.9162C35.3863 47.9111 35.3735 47.902 35.3639 47.8901C35.2282 47.7645 35.0009 47.7206 35.0408 47.4673Z" fill="#061725"/>
<path fill-rule="evenodd" clip-rule="evenodd" d="M32.6953 47.8003C33.0401 47.5624 33.3332 47.2571 33.5569 46.9029C33.6546 46.7254 33.9139 46.7632 34.1113 46.7513C34.2051 46.7513 34.1732 46.8291 34.1712 46.8829C34.1712 47.0245 34.1532 47.1681 34.1532 47.3097C34.1532 47.4015 34.1532 47.4673 34.0276 47.4713C33.5704 47.519 33.1221 47.6298 32.6953 47.8003Z" fill="#061725"/>
<path fill-rule="evenodd" clip-rule="evenodd" d="M34.9829 47.5652C34.8617 47.4632 34.7711 47.3297 34.7211 47.1794C34.6711 47.0291 34.6637 46.8678 34.6998 46.7136C34.7616 46.4663 35.0009 46.4982 35.2362 46.4643C35.0559 46.8024 34.9685 47.1823 34.9829 47.5652Z" fill="#061725"/>
<path fill-rule="evenodd" clip-rule="evenodd" d="M29.8651 61.9703C29.8625 62.0789 29.8384 62.1859 29.794 62.2851C29.7496 62.3843 29.6859 62.4736 29.6066 62.5479C29.5274 62.6221 29.4341 62.6798 29.3322 62.7177C29.2304 62.7555 29.122 62.7726 29.0135 62.7681C28.8012 62.7533 28.6029 62.6566 28.4604 62.4985C28.3179 62.3404 28.2423 62.1332 28.2495 61.9205C28.2567 61.7077 28.3462 61.5061 28.4992 61.3581C28.6521 61.21 28.8565 61.1271 29.0693 61.1267C29.2859 61.1355 29.4904 61.2287 29.6391 61.3864C29.7878 61.5441 29.8689 61.7536 29.8651 61.9703Z" fill="#061725"/>
<path fill-rule="evenodd" clip-rule="evenodd" d="M31.2376 54.0626C31.2396 54.1706 31.2195 54.2778 31.1788 54.3779C31.1381 54.4779 31.0775 54.5686 31.0006 54.6445C30.9238 54.7204 30.8324 54.7799 30.7319 54.8194C30.6314 54.8589 30.5239 54.8776 30.4159 54.8743C30.2058 54.8698 30.0055 54.7842 29.8569 54.6356C29.7083 54.487 29.6228 54.2867 29.6182 54.0766C29.6161 53.8584 29.7001 53.6483 29.8521 53.4918C30.0041 53.3353 30.2118 53.2451 30.4299 53.2409C30.5375 53.2395 30.6444 53.26 30.7439 53.3009C30.8434 53.3419 30.9337 53.4026 31.0091 53.4794C31.0846 53.5562 31.1437 53.6474 31.183 53.7476C31.2223 53.8479 31.2408 53.955 31.2376 54.0626Z" fill="#061725"/>
<path fill-rule="evenodd" clip-rule="evenodd" d="M28.4513 71.8563C28.2953 71.8493 28.1447 71.7966 28.0183 71.7048C27.8919 71.613 27.7953 71.4861 27.7404 71.3398C27.6855 71.1936 27.6747 71.0344 27.7094 70.8821C27.7441 70.7298 27.8228 70.591 27.9357 70.483C28.0485 70.375 28.1906 70.3025 28.3443 70.2746C28.498 70.2466 28.6565 70.2643 28.8002 70.3256C28.9439 70.3869 29.0664 70.4891 29.1526 70.6194C29.2388 70.7496 29.2848 70.9024 29.285 71.0586C29.2851 71.1664 29.2633 71.2732 29.221 71.3724C29.1787 71.4716 29.1167 71.5612 29.0388 71.6358C28.9608 71.7103 28.8686 71.7683 28.7676 71.8062C28.6667 71.8441 28.5591 71.8612 28.4513 71.8563Z" fill="#061725"/>
<path fill-rule="evenodd" clip-rule="evenodd" d="M46.4962 43.5086C46.546 43.4149 46.6178 43.4648 46.6836 43.4807C47.7438 43.722 48.7834 44.0461 49.7928 44.45C49.8806 44.4869 49.9659 44.5295 50.0481 44.5776C50.1419 44.6295 50.2615 44.6773 50.2216 44.811C50.1817 44.9446 50.0521 44.9167 49.9464 44.9047C49.6271 44.8574 49.3158 44.7669 49.021 44.6354C48.2233 44.3044 47.4136 43.9594 46.6119 43.6163C46.566 43.5964 46.4882 43.5944 46.4962 43.5086Z" fill="#061725"/>
<path fill-rule="evenodd" clip-rule="evenodd" d="M35.8642 37.5335C35.4044 37.5395 34.9466 37.4722 34.508 37.334C34.1829 37.2303 34.1371 37.1047 34.3624 36.8673C34.5086 36.743 34.6087 36.5731 34.6467 36.3851C34.6846 36.197 34.6583 36.0016 34.5718 35.8303C34.4362 35.5271 34.3305 35.208 34.2149 34.8949C34.167 34.7673 34.0573 34.6377 34.1909 34.4961C34.3245 34.3545 34.4362 34.4382 34.5619 34.4681C35.1753 34.6227 35.7982 34.7366 36.4266 34.8092C37.2971 34.8953 38.1758 34.787 38.9993 34.4921C39.135 34.4422 39.2825 34.3584 39.3982 34.4921C39.5139 34.6257 39.4321 34.7593 39.3763 34.8909C38.8518 36.1234 38.066 37.0847 36.6998 37.4198C36.4273 37.4931 36.1464 37.5312 35.8642 37.5335Z" fill="#061725"/>
<path fill-rule="evenodd" clip-rule="evenodd" d="M37.4478 27.8449C38.4449 27.8668 39.4421 27.7033 40.4552 27.7651C41.3746 27.8209 41.941 28.4192 41.941 29.4164C41.3188 28.505 40.4452 28.5768 39.5598 28.6685C39.1441 28.724 38.7241 28.7407 38.3053 28.7184C37.6671 28.6606 37.5215 28.5229 37.4478 27.8449Z" fill="#061725"/>
<path fill-rule="evenodd" clip-rule="evenodd" d="M45.088 33.4331C45.4669 33.3354 45.778 33.3553 45.9815 33.6784C46.1211 33.9017 46.0652 34.1072 45.8518 34.3206C45.8219 34.0992 45.8678 33.8718 45.6524 33.7661C45.5925 33.738 45.5271 33.7234 45.4609 33.7234C45.3948 33.7234 45.3294 33.738 45.2695 33.7661C45.092 33.8399 45.0022 33.9057 45.1777 34.1132C45.2561 34.1893 45.3109 34.2862 45.3357 34.3926C45.3605 34.4989 45.3543 34.6102 45.3178 34.7131C45.2812 34.816 45.2159 34.9063 45.1296 34.9732C45.0432 35.04 44.9395 35.0807 44.8307 35.0904C44.6991 35.1143 44.5575 35.1343 44.5136 34.9548C44.5043 34.9258 44.5014 34.8952 44.505 34.8649C44.5087 34.8347 44.5188 34.8057 44.5347 34.7797C44.5506 34.7538 44.5719 34.7316 44.5972 34.7146C44.6225 34.6977 44.6511 34.6864 44.6811 34.6815C44.7829 34.6516 44.9085 34.6436 44.9025 34.4981C44.8951 34.4378 44.869 34.3813 44.8278 34.3366C44.7867 34.2919 44.7326 34.2612 44.6732 34.2488C44.4139 34.165 44.388 34.0074 44.4737 33.7761C44.607 33.3301 44.841 32.9206 45.1578 32.5795C45.5148 32.2245 45.9994 32.1048 46.3664 32.2863C46.8111 32.5057 46.9428 32.8986 46.9268 33.3613C46.8904 33.8158 46.7289 34.2514 46.4601 34.6197C46.3684 34.7593 46.2487 34.8371 46.1031 34.7394C45.9575 34.6417 46.0114 34.512 46.0892 34.3924C46.2396 34.1762 46.3572 33.939 46.4382 33.6884C46.498 33.5058 46.5137 33.3117 46.4841 33.122C46.4811 33.0278 46.452 32.9364 46.4001 32.8578C46.3482 32.7792 46.2755 32.7166 46.1901 32.6768C46.1047 32.6371 46.01 32.6219 45.9164 32.6329C45.8229 32.6439 45.7343 32.6806 45.6604 32.739C45.4001 32.903 45.1994 33.1463 45.088 33.4331Z" fill="#061725"/>
<path fill-rule="evenodd" clip-rule="evenodd" d="M38.8359 30.7328L39.153 30.7667C39.01 30.5064 38.9352 30.2141 38.9356 29.9171C38.6963 29.959 38.6564 30.1724 38.5367 30.304C38.417 30.4357 38.2914 30.7548 38.064 30.667C37.8367 30.5793 37.8207 30.2881 37.8427 29.961C37.9284 30.1146 37.9823 30.2063 38.0301 30.2921C38.062 30.2906 38.0925 30.2789 38.1173 30.2588C38.142 30.2387 38.1597 30.2112 38.1678 30.1804C38.4071 29.5821 38.8638 29.4186 39.4661 29.4963C40.0105 29.5681 40.565 29.5621 41.0795 29.7955C41.2072 29.8553 41.2131 29.8753 41.1533 29.9949C41.1194 30.0667 41.1912 30.0946 41.2251 30.1325C41.4161 30.3062 41.5544 30.5301 41.624 30.7787L41.1114 30.3499C40.8908 30.1476 40.6247 30.0012 40.3356 29.9231C40.2539 29.9032 40.1262 29.8633 40.0804 29.973C40.0345 30.0827 40.1382 30.1724 40.2239 30.1824C40.6228 30.2542 40.6667 30.3639 40.6368 30.6311C40.6368 30.687 40.557 30.7867 40.5869 30.8305C40.6428 30.9123 40.9718 30.8305 40.904 30.8724C40.7305 30.9781 40.0225 31.0559 39.8769 31.0479C39.5219 31.032 39.149 31.012 38.8359 30.7328Z" fill="#061725"/>
<path fill-rule="evenodd" clip-rule="evenodd" d="M32.2007 30.2142C32.2884 29.9031 32.5417 29.7475 32.7451 29.5042L32.454 29.5521C32.4081 29.5242 32.4101 29.5122 32.436 29.4943C32.6596 29.3523 32.919 29.2769 33.1839 29.2769C33.5289 29.2649 33.8759 29.2529 34.223 29.2649C34.919 29.2908 35.1483 29.4643 35.3777 30.1065C35.4415 30.284 35.2042 30.637 35.0207 30.639C34.9708 30.639 34.921 30.639 34.905 30.5792C34.8967 30.5505 34.8964 30.5201 34.9042 30.4913C34.9119 30.4625 34.9274 30.4363 34.9489 30.4156C35.272 30.0826 34.8233 29.941 34.7495 29.7136C34.6757 29.4863 34.4204 29.5142 34.213 29.5321C34.1905 29.5359 34.1691 29.5444 34.1501 29.5571C34.1312 29.5699 34.1152 29.5865 34.1033 29.6059C34.0774 29.6698 34.1292 29.7176 34.1791 29.7515C34.3479 29.8352 34.5355 29.8737 34.7235 29.8632C34.8133 30.0746 34.4762 30.2062 34.6318 30.4396C34.6557 30.4775 34.5221 30.5114 34.4603 30.5253C34.1227 30.6083 33.7715 30.6198 33.4292 30.5592C33.2976 30.5333 33.1281 30.5253 33.3494 30.3379C33.4691 30.2381 33.2916 30.1245 33.2617 30.0148C33.148 29.598 33.0902 29.582 32.7152 29.8433C32.5417 29.9709 32.3682 30.0985 32.2007 30.2142Z" fill="#061725"/>
<path fill-rule="evenodd" clip-rule="evenodd" d="M35.9063 29.0273C35.911 29.1344 35.923 29.241 35.9422 29.3464C36.0708 29.8369 36.011 30.3577 35.7747 30.8063C35.5254 31.2929 35.312 31.8035 35.0248 32.2682C34.7795 32.667 34.8433 33.0041 35.0547 33.3631C35.1298 33.4792 35.1926 33.6029 35.2422 33.732C34.8831 33.4876 34.6179 33.1281 34.4903 32.7129C34.245 33.0041 34.4364 33.2414 34.606 33.4827C34.5313 33.4721 34.4601 33.4448 34.3974 33.4029C34.3348 33.361 34.2823 33.3055 34.244 33.2406C34.2057 33.1756 34.1825 33.1029 34.1761 33.0278C34.1697 32.9527 34.1803 32.8771 34.2071 32.8066C34.2528 32.6706 34.3254 32.5451 34.4205 32.4377C35.1145 31.6838 35.3519 30.7086 35.6809 29.7852C35.8205 29.3963 35.645 28.9595 35.5912 28.5467C35.5737 28.4526 35.5644 28.3572 35.5633 28.2615C35.7328 28.4968 35.7348 28.806 35.9083 29.0393L35.9063 29.0273Z" fill="#061725"/>
<path fill-rule="evenodd" clip-rule="evenodd" d="M31.9893 28.9657C32.1049 27.9685 32.3881 27.7113 33.2477 27.7691C33.7802 27.805 34.3087 27.9087 34.8432 27.9685C35.0167 27.9865 35.0008 28.0722 34.9768 28.1819C34.9576 28.2889 34.8999 28.3852 34.8148 28.4528C34.7296 28.5203 34.6227 28.5545 34.5141 28.5489C34.2043 28.5584 33.8946 28.5276 33.5927 28.4572C33.0004 28.3315 32.446 28.3195 31.9893 28.9657Z" fill="#061725"/>
<path fill-rule="evenodd" clip-rule="evenodd" d="M36.5083 38.06C36.2072 38.5765 35.8223 38.756 35.3117 38.6961C34.9128 38.6483 34.6396 38.4349 34.4541 37.9722C35.1322 38.3312 35.7963 38.2913 36.5083 38.06Z" fill="#061725"/>
<path fill-rule="evenodd" clip-rule="evenodd" d="M37.2026 33.7721C37.8009 33.455 37.4459 32.9743 37.4021 32.5356C37.6913 32.8208 37.8608 33.2216 37.783 33.445C37.7052 33.6684 37.4679 33.7402 37.2026 33.7721Z" fill="#061725"/>
<path fill-rule="evenodd" clip-rule="evenodd" d="M34.0375 40.2398C33.7617 40.1565 33.5165 39.9939 33.3324 39.7723C33.1484 39.5506 33.0336 39.2797 33.0024 38.9933C33.1999 39.5377 33.7045 39.817 34.0375 40.2398Z" fill="#061725"/>
<path fill-rule="evenodd" clip-rule="evenodd" d="M32.5315 35.7982C32.5614 35.6905 32.4677 35.5589 32.6093 35.535C32.7509 35.511 32.7329 35.6487 32.7628 35.7344C32.8407 35.8946 32.8886 36.0676 32.9044 36.245C32.9044 36.3188 32.8925 36.3946 32.8047 36.4125C32.7844 36.4205 32.7625 36.4239 32.7407 36.4225C32.7188 36.421 32.6976 36.4147 32.6785 36.404C32.6594 36.3933 32.643 36.3785 32.6303 36.3606C32.6176 36.3428 32.6091 36.3224 32.6053 36.3008C32.5674 36.1233 32.5554 35.9458 32.5315 35.7982Z" fill="#061725"/>
<path fill-rule="evenodd" clip-rule="evenodd" d="M40.7861 35.9797C40.7183 36.1791 40.6585 36.3646 40.5867 36.5501C40.5568 36.6199 40.493 36.6996 40.3873 36.6478C40.3681 36.6384 40.3512 36.6252 40.3374 36.6089C40.3237 36.5926 40.3135 36.5736 40.3075 36.5532C40.3015 36.5327 40.2998 36.5112 40.3026 36.4901C40.3053 36.469 40.3124 36.4486 40.3234 36.4304C40.4012 36.2569 40.489 36.0854 40.5747 35.9159C40.6066 35.8521 40.6066 35.7284 40.7323 35.7843C40.8101 35.8201 40.7921 35.9019 40.7861 35.9797Z" fill="#061725"/>
<path fill-rule="evenodd" clip-rule="evenodd" d="M35.9142 29.0395C35.9361 28.8719 35.7945 28.7264 35.8524 28.5209C36.0638 28.7702 36.2513 28.9976 36.1555 29.3446C35.9561 29.2908 35.996 29.1153 35.9062 29.0295L35.9142 29.0395Z" fill="#061725"/>
<path fill-rule="evenodd" clip-rule="evenodd" d="M37.0708 33.5027L36.5024 33.6842C36.5962 33.2853 36.7557 33.2355 37.0708 33.5027Z" fill="#061725"/>
<path fill-rule="evenodd" clip-rule="evenodd" d="M50.9018 19.688C51.3984 20.2464 51.4303 20.9165 51.3625 21.6026C51.3251 22.1142 51.2198 22.6185 51.0494 23.1023C51.0095 23.206 50.9676 23.3815 50.834 23.3516C50.6665 23.3117 50.7243 23.1283 50.7502 23.0146C50.926 22.4069 51.0435 21.7838 51.1013 21.1538C51.1414 20.6566 51.0733 20.1565 50.9018 19.688Z" fill="#061725"/>
<path fill-rule="evenodd" clip-rule="evenodd" d="M37.041 14.0978C36.0618 14.375 35.3956 15.0391 34.7395 15.7252C34.6019 15.8687 34.4044 16.1799 34.2609 16.0442C34.0853 15.8787 34.3805 15.6593 34.5062 15.4978C35.0486 14.7998 35.7207 14.2832 36.6202 14.1277C36.702 14.1137 36.7857 14.1057 36.8695 14.0978C36.9532 14.0898 36.9832 14.0978 37.041 14.0978Z" fill="#061725"/>
<path fill-rule="evenodd" clip-rule="evenodd" d="M36.8893 19.3449C36.8754 19.6125 36.7781 19.8691 36.6111 20.0786C36.4441 20.2882 36.2158 20.4403 35.958 20.5136C36.2292 20.0429 36.6779 19.7916 36.8893 19.3449Z" fill="#061725"/>
<path fill-rule="evenodd" clip-rule="evenodd" d="M22.0275 52.1021C22.203 52.1021 22.2828 52.0921 22.3206 52.1719C22.339 52.2057 22.3437 52.2453 22.3337 52.2824C22.3237 52.3195 22.2997 52.3514 22.2668 52.3713C21.7932 52.6879 21.2711 52.925 20.7212 53.0733C20.6916 53.0791 20.6609 53.0752 20.6336 53.0623C20.6064 53.0494 20.5839 53.0281 20.5696 53.0015C20.5597 52.9903 20.5525 52.9769 20.5485 52.9624C20.5445 52.948 20.5438 52.9328 20.5465 52.918C20.5492 52.9033 20.5552 52.8893 20.564 52.8772C20.5729 52.865 20.5843 52.8551 20.5975 52.848C21.1001 52.5747 21.5987 52.3175 22.0275 52.1021Z" fill="#061725"/>
<path fill-rule="evenodd" clip-rule="evenodd" d="M24.4764 63.4482C24.4764 63.1989 24.4764 62.9496 24.4764 62.6983C24.4764 62.6425 24.4665 62.5707 24.5482 62.5647C24.63 62.5587 24.646 62.6265 24.6479 62.6844C24.6858 63.4821 24.8933 64.234 25.0329 65.0078C25.0468 65.0796 25.0787 65.1873 24.973 65.2252C24.8673 65.2631 24.8135 65.1534 24.7736 65.0736C24.4784 64.569 24.4645 64.0086 24.4764 63.4482Z" fill="#061725"/>
<path fill-rule="evenodd" clip-rule="evenodd" d="M33.4271 21.8957C33.7163 22.6934 33.2756 24.1034 32.6294 24.3447C33.1021 23.5729 33.2197 22.7612 33.4271 21.8957Z" fill="#061725"/>
<path fill-rule="evenodd" clip-rule="evenodd" d="M38.7065 24.4305C39.0236 23.6707 39.4105 22.9368 39.4504 22.0174C39.7635 22.6356 39.3188 24.0496 38.7065 24.4305Z" fill="#061725"/>
<path fill-rule="evenodd" clip-rule="evenodd" d="M47.5569 27.3464C47.147 27.872 46.7026 28.3697 46.2266 28.8362C46.1867 28.3895 46.9486 27.5359 47.5569 27.3464Z" fill="#061725"/>
<path fill-rule="evenodd" clip-rule="evenodd" d="M43.7182 25.8267C43.5627 25.3839 43.8519 24.6301 44.3026 24.3329C44.0792 24.8056 44.0074 25.3421 43.7182 25.8267Z" fill="#061725"/>
<path fill-rule="evenodd" clip-rule="evenodd" d="M28.5132 48.1633C28.3138 48.1374 28.0944 48.1094 27.871 48.0715C27.8092 48.0616 27.7115 48.0716 27.7155 47.9639C27.7194 47.8562 27.8032 47.8522 27.871 47.8422C28.214 47.7943 28.5551 47.7445 28.9001 47.7086C30.0928 47.5912 31.2333 47.1612 32.2067 46.4621C32.2726 46.4162 32.3463 46.2766 32.4361 46.3843C32.5258 46.492 32.3842 46.5479 32.3264 46.6097C31.2953 47.6787 29.9751 48.0217 28.5132 48.1633Z" fill="#061725"/>
<path fill-rule="evenodd" clip-rule="evenodd" d="M4.24797 44.6593C4.73014 45.0106 5.24429 45.3158 5.78362 45.5708C6.14261 45.7303 6.50957 45.8739 6.87254 46.0235C7.09752 46.1039 7.31079 46.2139 7.50675 46.3506C7.56857 46.3964 7.67427 46.4343 7.64037 46.536C7.60647 46.6378 7.49478 46.5899 7.42298 46.5839C7.31536 46.577 7.20926 46.5548 7.10787 46.5181C6.08477 46.1192 5.11352 45.6226 4.28785 44.8628C4.24797 44.8269 4.18814 44.791 4.24797 44.6593Z" fill="#061725"/>
<path fill-rule="evenodd" clip-rule="evenodd" d="M45.042 57.6284C45.0998 57.6484 45.1417 57.6484 45.1537 57.6683C45.6025 58.3493 45.8651 59.1359 45.9155 59.9499C45.9155 60.0635 45.9853 60.263 45.8118 60.2769C45.6383 60.2909 45.6503 60.0895 45.6244 59.9698C45.5386 59.5709 45.4887 59.1721 45.393 58.7732C45.2973 58.3743 45.1656 58.0293 45.042 57.6284Z" fill="#061725"/>
<path fill-rule="evenodd" clip-rule="evenodd" d="M47.8384 70.935C48.5364 70.6797 49.2344 70.4244 49.9325 70.1671C50.0063 70.1412 50.0801 70.1273 50.1319 70.1951C50.1838 70.2629 50.118 70.3486 50.0541 70.3945C49.8153 70.5773 49.5352 70.6985 49.2384 70.7475C48.7877 70.8512 48.331 70.929 47.8783 71.0167C47.8603 70.9948 47.8484 70.9649 47.8384 70.935Z" fill="#061725"/>
<path fill-rule="evenodd" clip-rule="evenodd" d="M50.2217 69.6903C49.7729 70.0254 49.3242 70.0792 48.8535 70.2328C49.2552 69.9372 49.7265 69.7503 50.2217 69.6903Z" fill="#061725"/>
<path fill-rule="evenodd" clip-rule="evenodd" d="M29.4406 61.9364C29.4107 62.1597 29.299 62.3213 29.0597 62.3253C29.0081 62.3311 28.9558 62.3256 28.9066 62.3093C28.8573 62.293 28.8121 62.2662 28.7742 62.2308C28.7363 62.1953 28.7065 62.1521 28.6869 62.104C28.6674 62.0559 28.6584 62.0042 28.6608 61.9523C28.6559 61.9008 28.6621 61.8488 28.6789 61.7998C28.6957 61.7508 28.7228 61.706 28.7582 61.6683C28.7937 61.6306 28.8368 61.6008 28.8846 61.581C28.9325 61.5612 28.984 61.5518 29.0357 61.5535C29.279 61.5495 29.3987 61.709 29.4406 61.9364Z" fill="#C4C4C4"/>
<path fill-rule="evenodd" clip-rule="evenodd" d="M30.4258 54.4457C30.3749 54.4455 30.3246 54.4349 30.278 54.4144C30.2314 54.3939 30.1895 54.364 30.155 54.3265C30.1206 54.289 30.0942 54.2448 30.0777 54.1967C30.0611 54.1486 30.0547 54.0975 30.0588 54.0468C30.0557 53.9948 30.0642 53.9428 30.0835 53.8945C30.1029 53.8462 30.1327 53.8027 30.1708 53.7673C30.2089 53.7318 30.2544 53.7052 30.304 53.6894C30.3536 53.6736 30.4061 53.669 30.4577 53.6758C30.5088 53.6746 30.5596 53.6844 30.6066 53.7045C30.6536 53.7246 30.6958 53.7546 30.7302 53.7925C30.7646 53.8303 30.7905 53.8751 30.8061 53.9237C30.8217 53.9724 30.8267 54.0239 30.8207 54.0747C30.8199 54.1252 30.809 54.1751 30.7886 54.2214C30.7682 54.2676 30.7387 54.3093 30.7019 54.3439C30.665 54.3785 30.6216 54.4053 30.5742 54.4228C30.5267 54.4403 30.4763 54.4481 30.4258 54.4457Z" fill="#C4C4C4"/>
<path fill-rule="evenodd" clip-rule="evenodd" d="M28.4593 71.4435C28.4077 71.4423 28.3568 71.4305 28.3099 71.4089C28.263 71.3873 28.221 71.3562 28.1866 71.3177C28.1522 71.2792 28.1261 71.234 28.1099 71.185C28.0937 71.1359 28.0877 71.0841 28.0924 71.0326C28.1019 70.9367 28.1477 70.848 28.2203 70.7847C28.293 70.7213 28.3871 70.688 28.4834 70.6916C28.5797 70.6951 28.6711 70.7353 28.7389 70.8038C28.8066 70.8724 28.8457 70.9642 28.8482 71.0606C28.8493 71.1117 28.84 71.1624 28.8208 71.2098C28.8015 71.2572 28.7728 71.3001 28.7364 71.336C28.7 71.3718 28.6566 71.3999 28.609 71.4183C28.5613 71.4368 28.5104 71.4454 28.4593 71.4435Z" fill="#C4C4C4"/>
<path fill-rule="evenodd" clip-rule="evenodd" d="M36.357 37.0608C36.2852 37.0608 36.1077 37.0947 35.9302 37.0967C35.8165 37.0967 35.655 37.1824 35.5951 37.0827C35.5353 36.983 35.627 36.8055 35.6889 36.6838C35.99 36.1035 37.2444 35.8861 37.739 36.3049C37.8686 36.4166 37.7749 36.4485 37.6991 36.5043C37.2955 36.7814 36.8383 36.971 36.357 37.0608Z" fill="#061725"/>
<path fill-rule="evenodd" clip-rule="evenodd" d="M34.7354 34.9606C35.8582 35.2218 36.9511 35.3794 38.0719 35.1899C37.1386 35.88 35.0285 35.7663 34.7354 34.9606Z" fill="#061725"/>
<path fill-rule="evenodd" clip-rule="evenodd" d="M9.2337 44.6334C9.43314 44.059 9.63258 43.4886 9.83201 42.9322C10.2488 43.0638 10.5241 43.1575 10.7055 43.2194C10.538 43.7738 10.3685 44.3681 10.1691 45.0143C10.1118 45.1281 10.0138 45.2162 9.89449 45.2609C9.77522 45.3057 9.64345 45.3038 9.52547 45.2558C9.40748 45.2077 9.31193 45.117 9.25785 45.0016C9.20378 44.8863 9.19516 44.7548 9.2337 44.6334ZM10.3306 41.6638C11.0865 39.8828 12.1136 38.3531 14.2555 37.4756C15.1131 37.1206 15.129 37.1824 16.0684 37.0627L15.2168 37.4616C12.7198 38.6722 11.8104 40.0543 11.1443 41.9051L10.3306 41.6638Z" fill="#061725"/>
<path fill-rule="evenodd" clip-rule="evenodd" d="M33.2475 30.5052C33.2159 30.5006 33.1846 30.4939 33.1538 30.4853C32.7988 30.3796 32.8546 30.3517 32.6313 29.9109C32.4857 30.0126 32.3441 30.1104 32.2005 30.222C32.2882 29.9109 32.5415 29.7554 32.7449 29.5121L32.4538 29.5599C32.4079 29.532 32.4099 29.52 32.4358 29.5021C32.6594 29.3601 32.9188 29.2847 33.1837 29.2847C33.5287 29.2727 33.8757 29.2608 34.2228 29.2727C34.9188 29.2987 35.1481 29.4722 35.3775 30.1144C35.4413 30.2918 35.204 30.6448 35.0205 30.6468C34.9706 30.6468 34.9208 30.6468 34.9048 30.587C34.8917 30.5509 34.8917 30.5114 34.9048 30.4753L34.5698 30.4993C34.5319 30.5132 34.482 30.5252 34.4521 30.5332C34.1145 30.6161 33.7633 30.6277 33.421 30.5671C33.3472 30.5531 33.2615 30.5431 33.2395 30.5052H33.2475ZM34.5119 28.5408C34.2021 28.5503 33.8924 28.5195 33.5905 28.4491C32.9922 28.3314 32.4458 28.3194 31.995 28.9656C32.015 28.781 32.0496 28.5982 32.0988 28.4191C32.2623 27.8767 32.5834 27.7231 33.2535 27.767C33.786 27.8029 34.3145 27.9066 34.849 27.9664C34.9248 27.9664 34.9647 27.9943 34.9826 28.0243C35.0018 28.0743 35.0018 28.1297 34.9826 28.1798C34.9633 28.2868 34.9057 28.3831 34.8205 28.4507C34.7354 28.5182 34.6285 28.5524 34.5199 28.5468L34.5119 28.5408ZM35.5909 27.9784C35.3655 27.1029 35.2518 26.0199 35.4593 25.292C34.4406 25.3293 33.4261 25.4412 32.4238 25.627C32.334 25.6368 32.2505 25.6779 32.1881 25.7432C32.1257 25.8086 32.0884 25.8939 32.0828 25.984C32.029 26.363 31.9312 26.7359 31.8834 27.1148C31.8315 27.5755 31.7856 28.0362 31.7378 28.4969C31.657 29.3669 31.5326 30.2322 31.3648 31.0896C31.2153 31.7956 31.0697 32.5036 31.1774 33.2236C31.4641 35.1401 31.9493 37.0216 32.6253 38.8377C32.7788 39.2485 32.9264 39.6753 33.2475 39.9984C33.5603 40.3004 33.9297 40.5376 34.3344 40.6964C34.2951 40.2525 34.3193 39.8053 34.4062 39.3682C34.4226 39.2058 34.4708 39.0482 34.5481 38.9044C34.6255 38.7607 34.7304 38.6336 34.857 38.5305C34.7182 38.4261 34.6072 38.2891 34.5339 38.1317C34.1609 37.9322 33.9475 37.653 33.9475 37.4436C33.9475 37.318 34.0732 37.2023 34.2188 37.0826C34.2427 36.9979 34.2905 36.9217 34.3564 36.8633C34.5005 36.7266 34.6011 36.5503 34.6456 36.3567C34.6413 36.2165 34.6293 36.0767 34.6097 35.9379C34.5973 35.8998 34.5826 35.8625 34.5658 35.8262C34.4302 35.5231 34.3245 35.204 34.2088 34.8908C34.1869 34.833 34.153 34.7732 34.133 34.7133C33.788 34.139 34.0931 33.9914 34.3324 33.9914C34.5718 33.9914 35.1142 34.2088 35.8163 34.2626C36.3767 34.3045 37.2323 33.5367 37.5514 33.2275C37.5514 33.1877 37.5514 33.1478 37.5374 33.1059C37.1006 33.1059 35.7544 33.1298 35.0604 32.9942C35.0011 32.9841 34.943 32.968 34.8869 32.9463C34.9219 33.0874 34.9791 33.2221 35.0564 33.3452C35.1315 33.4614 35.1943 33.585 35.2439 33.7142C34.8848 33.4697 34.6196 33.1103 34.492 32.6951C34.2467 32.9862 34.4381 33.2236 34.6077 33.4649C34.533 33.4542 34.4618 33.4269 34.3991 33.385C34.3365 33.3431 34.284 33.2876 34.2457 33.2227C34.2074 33.1578 34.1842 33.0851 34.1778 33.01C34.1714 32.9348 34.182 32.8593 34.2088 32.7888C34.2545 32.6527 34.3271 32.5273 34.4222 32.4198C35.1162 31.666 35.3536 30.6907 35.6826 29.7673C35.8222 29.3784 35.6467 28.9417 35.5929 28.5288C35.5754 28.4348 35.5661 28.3393 35.565 28.2436C35.7205 28.459 35.7365 28.7343 35.8681 28.9576C35.8532 28.8331 35.8245 28.7107 35.7823 28.5927C35.7125 28.4032 35.6467 28.1938 35.5829 27.9604L35.5909 27.9784ZM32.7669 35.7305C32.8447 35.8906 32.8927 36.0636 32.9085 36.241C32.9085 36.3148 32.8965 36.3906 32.8088 36.4085C32.7884 36.4166 32.7665 36.42 32.7447 36.4185C32.7229 36.417 32.7016 36.4107 32.6825 36.4C32.6635 36.3893 32.647 36.3745 32.6343 36.3567C32.6217 36.3388 32.6131 36.3184 32.6093 36.2969C32.5714 36.1234 32.5515 35.9459 32.5275 35.7943C32.5575 35.6866 32.4637 35.555 32.6053 35.531C32.7469 35.5071 32.729 35.6447 32.7589 35.7305H32.7669ZM36.5063 33.6843C36.6 33.2854 36.7656 33.2355 37.0747 33.5028L36.5063 33.6843ZM33.0022 38.9892C33.2016 39.5337 33.7042 39.8129 34.0373 40.2357C33.7615 40.1525 33.5162 39.9899 33.3322 39.7682C33.1481 39.5466 33.0334 39.2757 33.0022 38.9892Z" fill="#D98B58"/>
<path fill-rule="evenodd" clip-rule="evenodd" d="M40.7643 57.4372C41.8373 56.9645 41.225 57.836 40.8301 57.9697L40.5409 58.0614C40.4903 58.2576 40.4903 58.4635 40.5409 58.6597C40.59 58.9334 40.699 59.1929 40.86 59.4196L41.0176 59.3677C42.0247 59.0526 41.8313 59.5472 41.4165 59.6968C41.2928 59.7426 41.1492 59.7925 40.9956 59.8424C40.9119 60.1296 40.8261 60.6102 41.0794 60.8994C41.1939 61.0339 41.32 61.158 41.4563 61.2703C41.6777 61.2065 41.8991 61.1387 42.1185 61.0709C42.1883 61.4518 42.0965 61.5575 41.6997 61.6034C41.7492 61.8235 41.8671 62.0224 42.0366 62.1714C42.206 62.3204 42.4183 62.412 42.643 62.433C43.6142 62.5946 45.8778 61.3002 45.8778 61.3002L46.5958 59.988C46.3801 58.78 45.9412 57.6227 45.3015 56.5756C44.7072 55.5801 44.209 54.5304 43.8137 53.4405C43.6228 52.9607 43.5696 52.4371 43.6601 51.9287C43.708 51.6475 43.8097 51.3603 43.7339 51.0432C42.9362 51.2905 42.4156 51.7692 42.27 52.5809C42.1554 53.3157 42.1554 54.0638 42.27 54.7986C42.292 54.9761 42.3857 55.02 42.5453 55.0479C42.9333 55.0873 43.2973 55.2542 43.5803 55.5226C43.4866 55.6123 43.4228 55.5585 43.357 55.5425C42.6784 55.3752 41.9673 55.3945 41.2988 55.5984C40.9917 55.6881 40.6865 55.7858 40.3814 55.8856C40.2119 56.6035 40.5569 57.2816 40.7563 57.4172L40.7723 57.4292L40.7643 57.4372ZM45.3932 58.7754C45.2995 58.3965 45.1659 58.0295 45.0422 57.6286C45.1 57.6486 45.1419 57.6486 45.1539 57.6685C45.6027 58.3495 45.8653 59.1361 45.9157 59.9501C45.9157 60.0637 45.9855 60.2632 45.812 60.2771C45.6385 60.2911 45.6505 60.0897 45.6246 59.97C45.5308 59.5731 45.4889 59.1683 45.3932 58.7754Z" fill="#EDCBAA"/>
<path fill-rule="evenodd" clip-rule="evenodd" d="M43.2036 53.2988C43.0241 52.6068 43.1597 51.8789 43.4708 51.1429C43.1582 51.253 42.881 51.4454 42.6686 51.6999C42.4562 51.9544 42.3165 52.2615 42.2642 52.5889C42.1496 53.3236 42.1496 54.0718 42.2642 54.8066C42.2862 54.9841 42.3799 55.028 42.5394 55.0559C42.871 55.0949 43.1866 55.22 43.4549 55.4188C43.4272 54.7067 43.3432 53.9978 43.2036 53.2988Z" fill="#D98B58"/>
<path fill-rule="evenodd" clip-rule="evenodd" d="M44.8132 71.3098C44.3964 71.1104 42.8188 73.5036 42.8308 73.4238C43.1718 71.7406 44.4263 70.8431 44.5021 69.132C44.5579 67.9134 44.0473 66.1564 44.3206 64.1262C44.3066 63.9666 44.3325 63.7771 44.0673 63.7891C43.6265 63.8091 43.1997 63.9566 42.753 63.9267C42.6812 63.9267 42.6533 63.9885 42.6274 64.0384C42.4399 64.4173 42.1088 64.4712 41.7419 64.4094C41.3757 64.3533 41.0129 64.2774 40.6549 64.182C40.3467 64.107 40.0501 63.9903 39.7734 63.835C39.8911 64.6726 40.4595 64.9718 41.4228 65.247C42.9345 65.6778 42.9345 65.947 42.9345 65.947L42.773 70.6397L40.0746 75.3324L40.0048 75.6336L39.9769 75.7532C40.5752 75.7034 45.8822 74.9715 45.9779 74.5706C45.9998 74.4888 45.2719 71.5292 44.8132 71.3098Z" fill="#C4C4C4"/>
<path fill-rule="evenodd" clip-rule="evenodd" d="M57.5689 63.9189C55.9595 64.6049 53.8515 64.7445 51.6836 64.7166C51.7881 65.5265 51.8241 66.3437 51.7913 67.1597C51.7753 67.4568 51.885 67.5586 52.1483 67.6084C52.6668 67.7161 52.7466 67.6762 53.2452 67.5486C54.1734 67.3132 55.0608 66.9394 55.8777 66.4397C56.7241 65.9169 57.4945 65.28 58.1672 64.5471C58.6648 64.0361 59.0464 63.4239 59.2861 62.7522C58.8019 63.2572 58.2168 63.6548 57.5689 63.9189Z" fill="#C4C4C4"/>
<path fill-rule="evenodd" clip-rule="evenodd" d="M47.1781 50.8855C46.9588 51.6833 47.0046 52.481 47.0166 53.2967C47.0704 53.1152 47.1024 52.9317 47.1462 52.7483C47.406 51.6491 47.8274 50.5945 48.3967 49.6191L47.1781 50.8855Z" fill="#C4C4C4"/>
<path fill-rule="evenodd" clip-rule="evenodd" d="M46.7276 52.2339C46.8326 51.9071 46.8936 51.5677 46.909 51.2247C46.909 51.2028 46.909 51.1789 46.909 51.1569L46.6318 51.4461C46.6697 51.7014 46.6996 51.9527 46.7276 52.2339Z" fill="#C4C4C4"/>
<path fill-rule="evenodd" clip-rule="evenodd" d="M46.3526 54.2244C46.3031 53.3805 46.3325 52.5339 46.4403 51.6955C46.2509 52.0306 45.5848 53.1913 44.8628 54.3321C45.0722 54.7509 45.2756 55.1298 45.5289 55.6065C45.6075 55.7894 45.7191 55.9564 45.858 56.0991C46.3287 55.4369 46.3965 55.0321 46.3526 54.2244Z" fill="#C4C4C4"/>
<path fill-rule="evenodd" clip-rule="evenodd" d="M50.407 24.4106C50.1017 24.4382 49.7939 24.4084 49.4996 24.3228C49.9184 24.1178 50.3795 24.014 50.8458 24.0197C50.9814 24.0197 51.0831 24.0197 51.1669 23.8701C52.2139 21.9436 52.1341 19.7458 50.4249 18.24C50.0325 17.8851 49.581 17.6016 49.0907 17.4024C50.2415 20.8128 49.8585 23.0564 48.7716 23.4812C48.425 23.6164 48.0674 23.7211 47.7026 23.7943C47.7704 24.0317 47.8422 24.265 47.922 24.4943C48.279 25.5254 48.6679 26.5425 49.4138 27.3702C49.9144 27.9246 50.5007 28.1879 51.2745 27.813C51.484 29.1532 51.105 30.1663 49.8665 30.7865C49.9969 30.7936 50.1276 30.7794 50.2534 30.7447C52.3914 30.1464 53.4265 27.0591 52.0783 25.2901C51.6634 24.7456 51.1449 24.3807 50.407 24.4106ZM51.0492 23.1023C51.0093 23.206 50.9674 23.3815 50.8338 23.3516C50.6663 23.3117 50.7241 23.1282 50.75 23.0145C50.9258 22.4068 51.0433 21.7838 51.101 21.1538C51.1411 20.6565 51.0731 20.1564 50.9016 19.6879C51.3982 20.2464 51.4301 20.9165 51.3623 21.6025C51.3249 22.1141 51.2196 22.6185 51.0492 23.1023Z" fill="#C4C4C4"/>
<path fill-rule="evenodd" clip-rule="evenodd" d="M44.9128 23.8162C45.6387 24.5022 45.8162 24.9988 45.4832 25.8544C45.1845 26.5536 44.7912 27.2086 44.3145 27.8009C44.4281 27.8986 44.5418 28.0003 44.6535 28.0981C45.2219 28.6166 45.7305 29.189 46.249 29.7554C45.8721 28.9437 45.2817 28.2915 44.6934 27.6314C45.1423 27.8615 45.5383 28.1828 45.8561 28.5747C46.1652 28.9736 46.4424 29.3984 46.7516 29.8351C47.1265 28.9975 47.4835 28.1878 47.8545 27.3881C47.8828 27.3311 47.8932 27.2668 47.8843 27.2038C47.8754 27.1408 47.8476 27.082 47.8046 27.0351C47.0176 25.8154 46.0415 24.7288 44.9128 23.8162ZM46.2271 28.836C46.1872 28.3892 46.949 27.5356 47.5573 27.3462C47.1474 27.8717 46.703 28.3694 46.2271 28.836Z" fill="#C4C4C4"/>
<path fill-rule="evenodd" clip-rule="evenodd" d="M22.9946 42.1423C22.9946 40.475 22.6775 38.9274 20.0609 36.3706C19.6221 36.3081 19.1807 36.2662 18.7366 36.245C17.9265 36.2068 17.1147 36.2362 16.3095 36.3327C14.7977 36.5122 13.306 36.7894 11.9219 37.4416C11.2498 37.7547 10.6615 38.1615 10.2805 38.8376C9.78593 39.7111 9.53863 40.3035 9.12181 41.2169C9.03406 41.4163 9.03605 41.4881 9.25942 41.5679C11.4532 42.3656 13.0288 42.8642 14.5644 43.1753C16.5588 43.5742 18.4813 43.6799 21.6583 43.7258L22.7812 43.7078C22.8988 43.4625 23.0025 43.0058 23.0025 42.1482L22.9946 42.1423ZM15.2166 37.4615C12.7196 38.6721 11.8102 40.0542 11.1441 41.9049L10.3463 41.6636C11.1022 39.8827 12.1293 38.353 14.2712 37.4755C15.1288 37.1205 15.1448 37.1823 16.0841 37.0626L15.2166 37.4615Z" fill="#061725"/>
<path fill-rule="evenodd" clip-rule="evenodd" d="M18.6747 44.0451C17.2288 43.9753 15.7929 43.8457 14.3729 43.6463C12.4718 43.3799 10.6063 42.903 8.81062 42.2243C8.63113 42.1545 8.57728 42.2243 8.52742 42.3699C8.32799 42.8964 8.12855 43.4189 7.94108 43.9474C7.71173 44.5876 7.74165 44.6714 8.33995 45.0463C8.45055 45.119 8.56507 45.1856 8.68298 45.2457C9.51292 45.6443 10.3911 45.9332 11.2956 46.1053C12.0375 46.2648 12.7821 46.4051 13.5293 46.5261C16.4325 46.9759 19.3666 47.1973 22.3044 47.1882H22.3304C22.3643 46.9728 22.4201 46.5899 22.5079 45.9817C22.5954 45.3693 22.588 44.747 22.4859 44.1369C21.2155 44.1528 19.9471 44.1169 18.6767 44.0551L18.6747 44.0451ZM10.7112 43.2195C10.5437 43.7739 10.3742 44.3682 10.1748 45.0144C10.1242 45.1392 10.0262 45.2389 9.90223 45.2914C9.77824 45.344 9.63846 45.3451 9.51363 45.2946C9.3888 45.2441 9.28915 45.1461 9.2366 45.0221C9.18406 44.8981 9.18291 44.7583 9.23343 44.6335C9.43286 44.0591 9.6323 43.4887 9.83173 42.9323C10.2545 43.0639 10.5298 43.1576 10.7112 43.2195Z" fill="#061725"/>
<path fill-rule="evenodd" clip-rule="evenodd" d="M4.37939 43.2413C4.49906 44.6872 7.01992 46.2209 13.354 47.3238C13.6651 47.3776 13.9842 47.4295 14.3113 47.4813C22.4084 48.7597 30.5035 48.0796 32.799 45.6385C32.7531 45.5927 32.7033 45.5488 32.6534 45.5069C31.7021 44.7211 30.5613 44.408 29.3667 43.9792C29.5043 44.6294 29.602 45.2177 29.7656 45.7901C29.8224 45.9549 29.8203 46.1342 29.7596 46.2976C29.6988 46.4609 29.5832 46.5981 29.4325 46.6856C29.0649 46.9335 28.6512 47.1051 28.216 47.1902C26.5527 47.589 24.8535 47.6648 23.1543 47.6868C19.9462 47.7347 16.7396 47.5172 13.5674 47.0366L13.4238 47.0147C11.8784 46.7946 10.3591 46.4197 8.88864 45.8958C8.34027 45.7195 7.83814 45.4232 7.4188 45.0283C7.29207 44.9188 7.20417 44.7713 7.16822 44.6077C7.13227 44.4442 7.15021 44.2734 7.21936 44.1208C7.46467 43.5066 7.67008 42.8764 7.90342 42.2202C6.97169 42.3571 6.05669 42.5903 5.17315 42.9162C4.90178 43.0072 4.63663 43.1158 4.37939 43.2413Z" fill="#061725"/>
<path fill-rule="evenodd" clip-rule="evenodd" d="M27.6953 51.5239C27.8429 51.2107 27.9765 50.8916 28.1081 50.5706C28.3657 49.9819 28.6796 49.4195 29.0455 48.8913C27.5779 49.1291 26.0975 49.2789 24.612 49.34C24.8753 52.0005 25.2981 54.6271 24.6479 57.2676C25.1465 56.4978 25.4696 55.6402 25.9383 54.7926C25.9661 54.8523 25.9813 54.9172 25.9831 54.983C25.9848 55.0489 25.9729 55.1144 25.9482 55.1755C25.7454 56.0376 25.409 56.8626 24.9511 57.6206C24.8794 57.7297 24.8275 57.8506 24.7975 57.9776C24.5861 59.0685 24.3807 60.1714 24.1453 61.2484C23.8704 62.5406 23.9434 63.8826 24.3567 65.1374C24.63 66.0069 24.8753 66.8804 24.8494 67.8058C24.8334 68.4622 24.633 69.1008 24.271 69.6486C24.4736 69.0256 24.5569 68.37 24.5163 67.7161C24.4572 67.0413 24.3042 66.3781 24.0616 65.7456C23.7923 67.4369 23.0644 70.4982 22.3584 71.9421C22.9029 71.8823 23.2 71.9062 23.92 71.8205C24.6958 68.793 25.1286 66.0368 25.0408 65.2929C24.9531 64.549 25.0408 65.2231 25.0288 65.1872C25.0147 65.2045 24.996 65.2176 24.975 65.2251C24.8474 65.269 24.8154 65.1533 24.7756 65.0735C24.4844 64.569 24.4704 64.0086 24.4824 63.4481C24.4824 63.1988 24.4824 62.9496 24.4824 62.6983C24.4824 62.6424 24.4724 62.5706 24.5542 62.5646C24.636 62.5587 24.6519 62.6265 24.6539 62.6843C24.7079 63.3341 24.8113 63.9788 24.963 64.6129C24.7297 62.6564 24.4106 59.5691 25.3619 58.2309C26.4409 56.7192 26.6024 53.2151 26.6024 53.2151C26.6024 53.2151 26.8258 53.3088 28.2218 53.3048C28.2457 53.1313 28.2717 52.9578 28.2956 52.7843C28.3255 52.5709 28.2856 52.4851 28.0523 52.4851C27.8256 52.4754 27.5997 52.4507 27.3762 52.4113C27.2685 52.3974 27.1568 52.3715 27.1329 52.2378C27.1251 52.2119 27.1226 52.1847 27.1257 52.1578C27.1287 52.1308 27.1372 52.1048 27.1507 52.0813C27.1641 52.0578 27.1822 52.0373 27.2038 52.021C27.2255 52.0047 27.2502 51.993 27.2765 51.9865C27.5218 51.9227 27.6056 51.7153 27.6953 51.5239Z" fill="#C4C4C4"/>
<path fill-rule="evenodd" clip-rule="evenodd" d="M34.6817 49.3758C34.0116 50.3351 33.2438 51.1987 32.2287 51.8109C31.2534 52.4093 30.1765 52.5628 29.0596 52.5588C28.8861 52.5588 28.7485 52.5409 28.7166 52.7962C28.6967 52.9637 28.6747 53.1312 28.6548 53.2987C28.9918 53.2987 29.3847 53.2828 29.8514 53.2668C32.7093 53.1591 34.8672 50.4069 34.8672 50.4069L35.8923 51.7551C36.8895 53.0654 39.1511 53.56 41.5024 54.4754C41.5024 54.3538 41.4765 54.2022 41.4526 54.0127C41.4537 53.9491 41.4338 53.8868 41.396 53.8356C41.3581 53.7844 41.3044 53.7471 41.2432 53.7295C40.1882 53.3446 39.4881 52.8739 38.4092 52.5548C37.7654 52.3592 37.1815 52.0038 36.712 51.5218C36.0023 50.7816 35.4025 49.9434 34.931 49.0328L34.6817 49.3758Z" fill="#C4C4C4"/>
<path fill-rule="evenodd" clip-rule="evenodd" d="M29.4005 43.4607L30.9441 44.0212C30.6988 43.7579 30.4276 43.4548 30.1464 43.1676C29.9235 42.9504 29.6726 42.764 29.4005 42.6131C29.2828 42.5433 29.1472 42.4955 29.0574 42.6291C28.9677 42.7627 29.2808 43.4189 29.4005 43.4607Z" fill="#C4C4C4"/>
<path fill-rule="evenodd" clip-rule="evenodd" d="M39.0713 43.732C40.2061 41.9729 41.0656 39.839 41.7178 37.9064C40.4989 39.7581 39.0122 41.4188 37.3063 42.8345C37.1406 42.973 36.945 43.0713 36.735 43.1215C36.5249 43.1716 36.3061 43.1724 36.0957 43.1237C35.4703 43.0063 34.8785 42.7523 34.3626 42.3798C34.2848 42.3239 34.227 42.2202 34.1033 42.2422C34.0794 43.1675 34.6119 43.8755 35.0008 44.6354C35.1085 44.8468 35.3857 44.8747 35.6091 44.8847C35.8324 44.8947 35.7586 44.6514 35.8404 44.5337C35.9581 44.3602 35.9621 44.1129 36.1814 43.9832C36.2632 44.3183 36.1176 44.6055 36.0737 44.9246C36.7877 44.8807 37.4518 44.7969 38.0402 44.3881C38.3752 44.1448 38.7203 43.9334 39.0713 43.732Z" fill="#D98B58"/>
<path fill-rule="evenodd" clip-rule="evenodd" d="M41.0875 26.7977C41.9212 27.2883 42.6372 28.09 43.1517 28.78C43.2255 28.8778 43.2933 28.9795 43.3512 29.0652C43.3611 28.9915 43.3711 28.9177 43.3831 28.8459C43.421 28.5866 43.4668 28.3293 43.5187 28.0721C43.551 27.9866 43.5517 27.8923 43.5206 27.8064C43.4895 27.7204 43.4287 27.6484 43.3492 27.6034C41.0618 25.9455 38.2718 25.129 35.4515 25.2919C35.4375 25.3418 35.4235 25.3936 35.4136 25.4455C37.3968 25.3276 39.3706 25.798 41.0875 26.7977Z" fill="#D98B58"/>
<path fill-rule="evenodd" clip-rule="evenodd" d="M45.9814 33.6783C46.121 33.9017 46.0652 34.1071 45.8518 34.3205C45.8218 34.0992 45.8677 33.8718 45.6523 33.7661C45.5924 33.738 45.5271 33.7234 45.4609 33.7234C45.3947 33.7234 45.3293 33.738 45.2694 33.7661C45.0919 33.8399 45.0022 33.9057 45.1777 34.1131C45.4549 34.4442 45.3771 34.8311 45.062 35.0086C45.4094 34.9664 45.7381 34.8283 46.0113 34.6097C46.0071 34.5278 46.0326 34.447 46.0831 34.3824C46.2336 34.1662 46.3512 33.929 46.4321 33.6783C46.4919 33.4958 46.5076 33.3017 46.478 33.1119C46.475 33.0178 46.446 32.9264 46.3941 32.8478C46.3422 32.7692 46.2695 32.7065 46.1841 32.6668C46.0987 32.6271 46.0039 32.6119 45.9104 32.6229C45.8169 32.6339 45.7282 32.6706 45.6543 32.729C45.3945 32.8952 45.1952 33.1407 45.0859 33.4291C45.4669 33.3353 45.778 33.3553 45.9814 33.6783Z" fill="#D98B58"/>
<path fill-rule="evenodd" clip-rule="evenodd" d="M51.0097 64.3536C50.6368 64.6328 49.3843 64.8183 47.705 64.7704C47.8513 67.0627 47.693 69.3643 47.2344 71.615C48.2156 71.3857 49.131 71.1703 50.0484 70.9589C50.1133 70.9456 50.173 70.9142 50.2207 70.8683C50.2683 70.8224 50.302 70.7639 50.3177 70.6996C50.5091 70.2356 50.6495 69.7521 50.7365 69.2577C50.9566 67.6327 51.0506 65.9931 51.0177 64.3536H51.0097ZM48.8538 70.2329C49.2555 69.9373 49.7268 69.7505 50.2219 69.6905C49.7732 70.0255 49.3245 70.0794 48.8538 70.2329ZM47.8387 70.935C48.5367 70.6797 49.2347 70.4244 49.9327 70.1671C50.0065 70.1412 50.0803 70.1272 50.1322 70.1951C50.184 70.2629 50.1182 70.3486 50.0544 70.3945C49.8156 70.5773 49.5355 70.6985 49.2387 70.7475C48.788 70.8512 48.3313 70.929 47.8786 71.0167C47.8606 70.9948 47.8486 70.9649 47.8387 70.935Z" fill="#C4C4C4"/>
<path fill-rule="evenodd" clip-rule="evenodd" d="M34.3505 48.2072C32.0311 48.8693 30.3119 50.4428 28.4272 51.8269C28.6422 51.8602 28.8618 51.8438 29.0694 51.779C30.3319 51.5796 31.5684 51.3223 32.4598 50.2813C32.6932 50.0101 32.9744 49.7807 33.2157 49.5155C33.627 49.1091 34.0063 48.6717 34.3505 48.2072Z" fill="#061725"/>
<path fill-rule="evenodd" clip-rule="evenodd" d="M35.8522 48.7C36.0356 49.2454 36.332 49.746 36.722 50.1691C37.1121 50.5921 37.587 50.9281 38.1158 51.1551C38.8976 51.4941 39.7113 51.7714 40.4592 52.2161C40.0044 51.6417 39.5677 51.0494 39.089 50.497C38.2733 49.5536 37.3838 48.6881 36.2251 48.1616C36.1274 48.1157 36.0077 47.994 35.908 48.0977C35.8597 48.1511 35.8239 48.2147 35.8032 48.2837C35.7825 48.3527 35.7774 48.4254 35.7883 48.4966C35.8021 48.5665 35.8235 48.6348 35.8522 48.7Z" fill="#061725"/>
<path fill-rule="evenodd" clip-rule="evenodd" d="M8.14063 45.6366C7.56027 45.2377 6.05652 44.428 6.15824 43.5385C7.15542 44.44 7.09957 44.436 8.40787 45.1081C8.56942 45.2178 8.74492 45.3833 8.63323 45.5448C8.57996 45.6222 8.49821 45.6753 8.40588 45.6925C8.31355 45.7097 8.21817 45.6896 8.14063 45.6366Z" fill="#061725"/>
<path fill-rule="evenodd" clip-rule="evenodd" d="M29.7075 54.7449C30.8244 54.4059 30.7346 54.4777 31.5802 53.8674L31.5144 54.1486C31.1714 54.9703 30.3736 54.8666 29.7075 54.7449Z" fill="#061725"/>
<path fill-rule="evenodd" clip-rule="evenodd" d="M28.3037 62.732C29.4225 62.395 29.3328 62.4648 30.1784 61.8565L30.1126 62.1357C29.7616 62.9534 28.9778 62.8477 28.3037 62.732Z" fill="#061725"/>
<path fill-rule="evenodd" clip-rule="evenodd" d="M27.7651 71.8483C28.884 71.5093 28.7922 71.5811 29.6398 70.9708L29.572 71.252C29.223 72.0677 28.4313 71.962 27.7651 71.8483Z" fill="#061725"/>
</g>
</g>
<rect x="1" y="0.5" width="74" height="74" rx="37" stroke="#BBC1C7"/>
<defs>
<clipPath id="clip0_4170_1656">
<rect x="0.5" width="75" height="75" rx="37.5" fill="white"/>
</clipPath>
<clipPath id="clip1_4170_1656">
<rect width="58.1116" height="63.4286" fill="white" transform="translate(2.61426 12.6857)"/>
</clipPath>
</defs>
</svg>
