<svg width="76" height="75" viewBox="0 0 76 75" fill="none" xmlns="http://www.w3.org/2000/svg">
<g clip-path="url(#clip0_4170_1458)">
<rect x="0.5" width="75" height="75" rx="37.5" fill="#F8FDFF"/>
<g clip-path="url(#clip1_4170_1458)">
<path d="M63.107 55.3097L62.47 50.5641L59.329 51.133L57.0098 55.2027L59.329 57.1379L63.107 55.3097Z" fill="#FFB583"/>
<path d="M53.684 67.6062L50.9611 67.4311L47.2026 57.7553L50.0081 56.6662L52.59 63.3177L58.376 52.6695L61.021 54.1038L53.684 67.6062Z" fill="#FFB583"/>
<path d="M59.3336 51.6096V54.2984L58.7647 55.1104L57.5103 54.3276C57.6026 54.279 57.6026 52.0958 57.6804 51.8965L58.2542 50.1947C58.2688 50.1406 58.2688 50.0835 58.2542 50.0294L58.1326 49.3098C58.1229 49.2596 58.1254 49.2078 58.1398 49.1588C58.1541 49.1097 58.18 49.0648 58.2153 49.0278C58.269 48.9836 58.331 48.9505 58.3977 48.9304C58.4643 48.9104 58.5343 48.9038 58.6035 48.911C58.6727 48.9183 58.7398 48.9392 58.8009 48.9726C58.8619 49.006 58.9158 49.0512 58.9592 49.1056L59.1974 49.2952C59.5816 49.6404 59.3336 51.6096 59.3336 51.6096Z" fill="#FFB583"/>
<path d="M22.6681 67.6062L15.3311 54.1038L17.9712 52.6695L23.7475 63.2885L25.5806 58.4749L28.391 59.5446L25.3958 67.4214L22.6681 67.6062Z" fill="#FFB583"/>
<path d="M13.2451 55.3097L13.8772 50.5641L17.0231 51.133L19.3423 55.2027L17.0231 57.1379L13.2451 55.3097Z" fill="#FFB583"/>
<path d="M17.0232 51.6095V54.2983L17.5921 55.1103L18.8465 54.3275C18.7541 54.2789 18.7493 52.0957 18.6764 51.8964L18.0977 50.1946C18.0831 50.1405 18.0831 50.0834 18.0977 50.0293L18.2193 49.3097C18.2288 49.2599 18.2268 49.2085 18.2133 49.1596C18.1998 49.1107 18.1752 49.0656 18.1415 49.0277C18.0882 48.9836 18.0266 48.9506 17.9603 48.9306C17.894 48.9107 17.8245 48.9041 17.7556 48.9113C17.6868 48.9186 17.6201 48.9395 17.5595 48.9728C17.4988 49.0062 17.4454 49.0513 17.4025 49.1055L17.1642 49.2951C16.7752 49.6403 17.0232 51.6095 17.0232 51.6095Z" fill="#FFB583"/>
<path d="M60.5058 76.2122H59.9029C59.752 76.2122 59.6073 76.1523 59.5006 76.0456C59.3939 75.9389 59.334 75.7942 59.334 75.6434V36.4491H61.0747V75.6434C61.0747 75.7942 61.0147 75.9389 60.908 76.0456C60.8014 76.1523 60.6567 76.2122 60.5058 76.2122Z" fill="#061725"/>
<path d="M61.0698 36.4491H59.3291V37.1346H61.0698V36.4491Z" fill="#8B0093"/>
<path d="M65.6744 36.4492H54.7344C54.4445 36.4492 54.1576 36.3918 53.89 36.2805C53.6224 36.1691 53.3795 36.0059 53.1752 35.8003C52.9709 35.5947 52.8093 35.3507 52.6998 35.0824C52.5902 34.814 52.5347 34.5267 52.5367 34.2368H67.8672C67.8698 34.5264 67.815 34.8137 67.7059 35.082C67.5969 35.3503 67.4357 35.5943 67.2319 35.8C67.028 36.0057 66.7854 36.169 66.518 36.2804C66.2507 36.3918 65.964 36.4492 65.6744 36.4492Z" fill="#061725"/>
<path d="M68.0371 29.4815H64.3661L64.1911 32.9191L63.9528 29.4815H63.5347L63.3208 31.5723L63.0971 29.4815H59.9415L59.7713 30.3373L59.6401 29.4815H56.465L56.3532 32.9191L56.0858 29.4815H54.4326L54.2625 31.0763L53.9756 29.4815H52.3613L53.0761 34.2319H67.3224L68.0371 29.4815Z" fill="#BBC1C7"/>
<path d="M67.3762 33.8868H53.0278L53.0765 34.2321H67.3227L67.3762 33.8868Z" fill="#CCCCCC"/>
<path d="M59.9514 54.9062C59.9762 55.0266 60.0456 55.1331 60.1457 55.2044C60.2458 55.2756 60.3693 55.3063 60.4911 55.2903H63.1118L63.3112 55.0326L63.2139 54.3373L62.966 54.2303L60.3209 54.347C60.1994 54.375 60.0932 54.4487 60.0244 54.5528C59.9556 54.6568 59.9295 54.7834 59.9514 54.9062Z" fill="#FFC69F"/>
<path d="M59.616 53.8122C59.6246 53.8788 59.6469 53.943 59.6815 54.0005C59.7161 54.0581 59.7623 54.1079 59.8171 54.1467C59.8719 54.1855 59.9342 54.2126 60 54.2261C60.0658 54.2397 60.1337 54.2395 60.1994 54.2255L62.9514 54.1428L63.2091 53.8365L63.107 53.044L62.7813 52.8787L60.0147 53.2044C59.8814 53.2325 59.7646 53.3122 59.6899 53.4261C59.6152 53.5399 59.5886 53.6788 59.616 53.8122Z" fill="#FFC69F"/>
<path d="M59.6158 51.342C59.6237 51.4091 59.6456 51.4738 59.68 51.5319C59.7143 51.59 59.7604 51.6404 59.8153 51.6797C59.8702 51.7191 59.9327 51.7465 59.9988 51.7604C60.0649 51.7742 60.1331 51.7742 60.1992 51.7602H62.6303L62.9512 51.4587L62.8637 50.7683L62.4747 50.5446L60.0193 50.7294C59.9524 50.7427 59.8888 50.7692 59.8321 50.8073C59.7755 50.8454 59.727 50.8944 59.6895 50.9514C59.6519 51.0084 59.6261 51.0723 59.6134 51.1393C59.6008 51.2064 59.6016 51.2753 59.6158 51.342Z" fill="#FFC69F"/>
<path d="M59.2269 52.6502C59.2519 52.7934 59.3322 52.921 59.4504 53.0056C59.5687 53.0902 59.7154 53.1249 59.859 53.1023L62.7763 52.8787L63.0438 52.6161L62.9465 51.9062L62.6256 51.7604L59.6548 51.9889C59.5113 52.0215 59.3862 52.1089 59.3063 52.2325C59.2264 52.356 59.1979 52.5059 59.2269 52.6502Z" fill="#FFC69F"/>
<path d="M18.8121 48.4734H12.6808C12.2013 48.4727 11.7373 48.3033 11.3701 47.9948C11.003 47.6863 10.7561 47.2584 10.6727 46.7862L9.18004 38.3308C9.17506 38.3006 9.17675 38.2698 9.18501 38.2403C9.19326 38.2109 9.20787 38.1836 9.2278 38.1604C9.24774 38.1372 9.27251 38.1187 9.30038 38.1062C9.32826 38.0936 9.35854 38.0873 9.38911 38.0877H22.133C22.1636 38.0879 22.1939 38.0948 22.2215 38.1079C22.2492 38.1211 22.2737 38.1402 22.2932 38.1639C22.3126 38.1875 22.3267 38.2152 22.3343 38.2449C22.3419 38.2746 22.3429 38.3056 22.3372 38.3357L20.825 46.7862C20.7415 47.2593 20.4939 47.6878 20.1258 47.9963C19.7576 48.3049 19.2925 48.4738 18.8121 48.4734Z" fill="#061725"/>
<path d="M21.4668 39.6922L20.5868 44.8656C20.5168 45.3277 20.2856 45.75 19.9341 46.0579C19.5826 46.3659 19.1334 46.5394 18.6662 46.5479H12.8315C12.3642 46.5391 11.9151 46.3646 11.5643 46.0557C11.2135 45.7467 10.9837 45.3233 10.9158 44.8608L10.0601 39.6776H9.83643L10.8624 45.6971C10.9357 46.1624 11.171 46.5869 11.5269 46.8956C11.8827 47.2043 12.3362 47.3774 12.8072 47.3842H18.7246C19.1956 47.3774 19.6491 47.2043 20.0049 46.8956C20.3608 46.5869 20.5961 46.1624 20.6694 45.6971L21.7099 39.6874L21.4668 39.6922Z" fill="#061725"/>
<path d="M16.2695 57.5755H15.1998C15.0868 57.5757 14.975 57.5528 14.8712 57.5083C14.7673 57.4638 14.6736 57.3986 14.5958 57.3167C14.518 57.2348 14.4577 57.1379 14.4186 57.0319C14.3795 56.926 14.3624 56.8131 14.3683 56.7003L14.7865 48.4783H16.7314L17.1252 56.7052C17.1306 56.8197 17.1123 56.934 17.0714 57.0411C17.0305 57.1482 16.9679 57.2457 16.8876 57.3274C16.8072 57.4091 16.7108 57.4733 16.6044 57.516C16.4981 57.5587 16.384 57.579 16.2695 57.5755Z" fill="#061725"/>
<path d="M16.469 48.9986C16.469 49.0909 16.4252 49.1639 16.3766 49.1639H15.1124C15.0638 49.1639 15.0249 49.0909 15.0249 49.0034C15.0249 48.9159 15.0638 48.843 15.1124 48.843H16.3815C16.4301 48.843 16.4738 48.9159 16.4738 49.0034L16.469 48.9986Z" fill="#061725"/>
<path d="M16.469 49.6258C16.469 49.7133 16.4252 49.7863 16.3766 49.7863H15.1124C15.0638 49.7863 15.0249 49.7182 15.0249 49.6258C15.0249 49.5383 15.0638 49.4654 15.1124 49.4654H16.3815C16.4301 49.4654 16.4738 49.5383 16.4738 49.6307L16.469 49.6258Z" fill="#061725"/>
<path d="M16.4636 50.2481C16.4636 50.3356 16.4247 50.4086 16.3761 50.4086H15.1119C15.0633 50.4086 15.0195 50.3356 15.0195 50.2433C15.0195 50.1557 15.0633 50.0828 15.1119 50.0828H16.381C16.4296 50.0828 16.4685 50.1509 16.4685 50.2433L16.4636 50.2481Z" fill="#061725"/>
<path d="M16.4636 50.8705C16.4636 50.958 16.4247 51.0309 16.3712 51.0309H15.1119C15.0633 51.0309 15.0195 50.958 15.0195 50.8705C15.0195 50.7781 15.0633 50.7052 15.1119 50.7052H16.381C16.4296 50.7052 16.4685 50.7781 16.4685 50.8656L16.4636 50.8705Z" fill="#061725"/>
<path d="M16.4636 51.4929C16.4636 51.5804 16.4247 51.6533 16.3712 51.6533H15.1119C15.0584 51.6533 15.0195 51.5804 15.0195 51.4929C15.0195 51.4005 15.0584 51.3324 15.1119 51.3324H16.381C16.4344 51.3324 16.4733 51.4054 16.4733 51.4929H16.4636Z" fill="#061725"/>
<path d="M16.4636 52.1153C16.4636 52.2076 16.4198 52.2757 16.3712 52.2757H15.1119C15.0584 52.2757 15.0195 52.2028 15.0195 52.1153C15.0195 52.0277 15.0584 51.9548 15.1119 51.9548H16.381C16.4344 51.9548 16.4733 52.0277 16.4733 52.1153H16.4636Z" fill="#061725"/>
<path d="M16.4636 52.7376C16.4636 52.83 16.4198 52.9029 16.3712 52.9029H15.1071C15.0584 52.9029 15.0195 52.83 15.0195 52.7425C15.0195 52.655 15.0584 52.582 15.1071 52.582H16.381C16.4296 52.582 16.4733 52.655 16.4733 52.7425L16.4636 52.7376Z" fill="#061725"/>
<path d="M16.464 53.3648C16.464 53.4523 16.4202 53.5252 16.3716 53.5252H15.1074C15.0588 53.5252 15.015 53.4523 15.0199 53.3648C15.0199 53.2772 15.0588 53.2043 15.1074 53.2043H16.3813C16.4299 53.2043 16.4737 53.2772 16.4737 53.3696L16.464 53.3648Z" fill="#061725"/>
<path d="M16.4587 53.9872C16.4587 54.0747 16.4198 54.1476 16.3712 54.1476H15.107C15.0584 54.1476 15.0146 54.0747 15.0146 53.9823C15.0146 53.8948 15.0584 53.8219 15.107 53.8219H16.3809C16.4296 53.8219 16.4685 53.8899 16.4685 53.9823L16.4587 53.9872Z" fill="#061725"/>
<path d="M16.4587 54.6096C16.4587 54.6971 16.4198 54.77 16.3663 54.77H15.107C15.0584 54.77 15.0146 54.6971 15.0146 54.6047C15.0146 54.5172 15.0584 54.4443 15.107 54.4443H16.3809C16.4296 54.4443 16.4685 54.5172 16.4685 54.6047L16.4587 54.6096Z" fill="#061725"/>
<path d="M16.4587 55.2318C16.4587 55.3194 16.4198 55.3923 16.3663 55.3923H15.107C15.0535 55.3923 15.0146 55.3194 15.0146 55.2318C15.0146 55.1395 15.0535 55.0714 15.107 55.0714H16.3809C16.4344 55.0714 16.4733 55.1443 16.4733 55.2318H16.4587Z" fill="#061725"/>
<path d="M16.4587 55.8542C16.4587 55.9466 16.415 56.0147 16.3663 56.0147H15.107C15.0535 56.0147 15.0146 55.9418 15.0146 55.8542C15.0146 55.7619 15.0535 55.6938 15.107 55.6938H16.3809C16.4344 55.6938 16.4733 55.7667 16.4733 55.8542H16.4587Z" fill="#061725"/>
<path d="M16.4587 56.4766C16.4587 56.569 16.415 56.6371 16.3663 56.6371H15.1022C15.0535 56.6371 15.0146 56.5641 15.0146 56.4766C15.0146 56.3891 15.0535 56.3162 15.1022 56.3162H16.3809C16.4296 56.3162 16.4733 56.3891 16.4733 56.4766H16.4587Z" fill="#061725"/>
<path d="M16.3814 54.9062C16.3566 55.0266 16.2872 55.1331 16.1871 55.2044C16.0869 55.2756 15.9635 55.3063 15.8417 55.2903H13.2452L13.0459 55.0326L13.1383 54.3373L13.3863 54.2303L16.0313 54.347C16.1493 54.3792 16.2508 54.4545 16.3157 54.5582C16.3805 54.6618 16.404 54.786 16.3814 54.9062Z" fill="#FFC69F"/>
<path d="M16.7362 53.8122C16.7113 53.9432 16.6366 54.0594 16.5278 54.1365C16.419 54.2135 16.2846 54.2455 16.1528 54.2255L13.4007 54.172L13.1382 53.8657L13.2452 53.0732L13.5661 52.9078L16.3375 53.2336C16.4648 53.2617 16.5768 53.3371 16.6508 53.4444C16.7247 53.5518 16.7553 53.6832 16.7362 53.8122Z" fill="#FFC69F"/>
<path d="M16.7359 51.342C16.7121 51.4739 16.6378 51.5913 16.5289 51.6694C16.42 51.7475 16.285 51.78 16.1524 51.7602H13.7213L13.4053 51.4587L13.4879 50.7683L13.8818 50.5446L16.3129 50.7294C16.3819 50.7398 16.448 50.7642 16.5072 50.8011C16.5664 50.8381 16.6173 50.8868 16.657 50.9442C16.6966 51.0016 16.7241 51.0665 16.7376 51.1349C16.7512 51.2034 16.7506 51.2739 16.7359 51.342Z" fill="#FFC69F"/>
<path d="M17.1249 52.6502C17.0988 52.7938 17.0175 52.9214 16.8985 53.0059C16.7795 53.0904 16.6322 53.125 16.488 53.1023L13.5707 52.8787L13.3081 52.6161L13.4054 51.9062L13.7214 51.7604L16.6971 51.9889C16.7688 52.0039 16.8367 52.033 16.8971 52.0744C16.9575 52.1158 17.0091 52.1688 17.0489 52.2303C17.0887 52.2918 17.1159 52.3606 17.1289 52.4326C17.142 52.5047 17.1406 52.5786 17.1249 52.6502Z" fill="#FFC69F"/>
<path d="M29.5719 60.663L22.9204 59.0098L27.7486 47.8268H33.8312L29.5719 60.663Z" fill="#061725"/>
<path d="M46.3418 60.663L52.9933 59.0098L48.17 47.8268H42.0874L46.3418 60.663Z" fill="#061725"/>
<path d="M45.2627 68.3113H30.6615L27.749 47.8268H48.18L45.2627 68.3113Z" fill="#061725"/>
<path d="M45.2627 68.3113H30.6615L27.749 76.2173H48.18L45.2627 68.3113Z" fill="#061725"/>
<path d="M43.5366 68.3113H32.3924L30.1655 76.2173H45.7586L43.5366 68.3113Z" fill="#F8FDFF"/>
<path d="M45.6076 67.1735H30.3208V68.7926H45.6076V67.1735Z" fill="#F8FDFF"/>
<path d="M33.569 56.4669H32.6258L31.5415 47.8268H32.4799L33.569 56.4669Z" fill="#F8FDFF"/>
<path d="M42.3599 56.4669H43.2983L44.3874 47.8268H43.4441L42.3599 56.4669Z" fill="#F8FDFF"/>
<path d="M32.7133 66.3761C32.7934 66.3394 32.8808 66.3211 32.969 66.3228C33.0572 66.3244 33.1439 66.3458 33.2227 66.3854C33.3015 66.4251 33.3703 66.4819 33.4242 66.5517C33.478 66.6216 33.5155 66.7026 33.5338 66.7889C33.5521 66.8752 33.5508 66.9645 33.5299 67.0502C33.509 67.1358 33.4692 67.2157 33.4133 67.284C33.3574 67.3522 33.2868 67.4069 33.2069 67.4442C33.127 67.4815 33.0397 67.5003 32.9515 67.4993C32.8713 67.536 32.7839 67.5542 32.6957 67.5526C32.6076 67.551 32.5209 67.5296 32.4421 67.49C32.3633 67.4503 32.2944 67.3935 32.2406 67.3236C32.1867 67.2538 32.1493 67.1727 32.131 67.0865C32.1127 67.0002 32.114 66.9109 32.1349 66.8252C32.1557 66.7395 32.1956 66.6596 32.2515 66.5914C32.3074 66.5232 32.3779 66.4685 32.4579 66.4312C32.5378 66.3939 32.6251 66.3751 32.7133 66.3761Z" fill="#F8FDFF"/>
<path d="M32.4699 65.2529C32.5813 65.2516 32.6908 65.282 32.7857 65.3405C32.8805 65.3991 32.9567 65.4833 33.0056 65.5835C33.0544 65.6837 33.0737 65.7957 33.0614 65.9064C33.049 66.0172 33.0054 66.1221 32.9358 66.2091C32.8661 66.296 32.7731 66.3614 32.6677 66.3976C32.5623 66.4338 32.4488 66.4393 32.3404 66.4135C32.232 66.3877 32.1332 66.3316 32.0554 66.2518C31.9776 66.172 31.9241 66.0718 31.901 65.9628C31.8845 65.7936 31.9348 65.6247 32.0411 65.4921C32.1473 65.3595 32.3012 65.2736 32.4699 65.2529Z" fill="#F8FDFF"/>
<path d="M32.2318 64.1297C32.312 64.093 32.3994 64.0748 32.4876 64.0764C32.5758 64.078 32.6624 64.0994 32.7412 64.1391C32.82 64.1787 32.8889 64.2355 32.9427 64.3054C32.9966 64.3752 33.034 64.4563 33.0523 64.5425C33.0706 64.6288 33.0693 64.7181 33.0484 64.8038C33.0276 64.8895 32.9877 64.9694 32.9318 65.0376C32.8759 65.1058 32.8054 65.1606 32.7255 65.1978C32.6455 65.2351 32.5582 65.2539 32.4701 65.2529C32.3899 65.2896 32.3025 65.3079 32.2143 65.3063C32.1261 65.3046 32.0394 65.2832 31.9606 65.2436C31.8819 65.204 31.813 65.1471 31.7591 65.0773C31.7053 65.0074 31.6678 64.9264 31.6495 64.8401C31.6312 64.7538 31.6326 64.6646 31.6534 64.5789C31.6743 64.4932 31.7141 64.4133 31.77 64.3451C31.826 64.2769 31.8965 64.2221 31.9764 64.1848C32.0563 64.1475 32.1436 64.1287 32.2318 64.1297Z" fill="#F8FDFF"/>
<path d="M31.9938 63.0065C32.105 63.0061 32.214 63.0373 32.3083 63.0964C32.4025 63.1555 32.478 63.2401 32.5261 63.3404C32.5742 63.4407 32.5929 63.5526 32.58 63.6631C32.5671 63.7735 32.5231 63.8781 32.4532 63.9646C32.3833 64.0511 32.2903 64.116 32.185 64.1518C32.0797 64.1876 31.9664 64.1928 31.8582 64.1668C31.75 64.1409 31.6515 64.0847 31.5739 64.005C31.4964 63.9253 31.443 63.8252 31.42 63.7164C31.4036 63.5465 31.4545 63.3769 31.5618 63.2442C31.6691 63.1114 31.8242 63.0261 31.9938 63.0065Z" fill="#F8FDFF"/>
<path d="M31.7504 61.8835C31.9135 61.8341 32.0895 61.8501 32.241 61.9282C32.3925 62.0062 32.5078 62.1402 32.5623 62.3016C32.6212 62.4378 32.6365 62.5888 32.6062 62.734C32.5759 62.8792 32.5014 63.0115 32.393 63.1128C32.2847 63.2141 32.1476 63.2794 32.0007 63.2998C31.8538 63.3202 31.7042 63.2947 31.5723 63.2268C31.4404 63.1588 31.3327 63.0518 31.264 62.9204C31.1953 62.7889 31.1689 62.6395 31.1884 62.4924C31.2079 62.3454 31.2723 62.2079 31.3729 62.0989C31.4735 61.9899 31.6053 61.9147 31.7504 61.8835Z" fill="#F8FDFF"/>
<path d="M31.5119 60.7652C31.6233 60.76 31.7339 60.7869 31.8305 60.8426C31.9271 60.8984 32.0057 60.9806 32.057 61.0796C32.1083 61.1786 32.1301 61.2903 32.1199 61.4013C32.1097 61.5124 32.0679 61.6182 31.9995 61.7062C31.931 61.7943 31.8387 61.8608 31.7336 61.898C31.6285 61.9352 31.5149 61.9416 31.4063 61.9162C31.2977 61.8909 31.1986 61.8349 31.1208 61.755C31.043 61.6751 30.9898 61.5746 30.9673 61.4653C30.9529 61.3014 31.0011 61.1382 31.1021 61.0083C31.2031 60.8784 31.3495 60.7916 31.5119 60.7652Z" fill="#F8FDFF"/>
<path d="M31.274 59.6418C31.3843 59.6415 31.4924 59.6724 31.5858 59.731C31.6792 59.7896 31.7541 59.8734 31.8019 59.9729C31.8496 60.0723 31.8681 60.1832 31.8554 60.2927C31.8427 60.4022 31.7991 60.5059 31.7299 60.5917C31.6607 60.6775 31.5685 60.742 31.4642 60.7775C31.3598 60.8131 31.2475 60.8184 31.1402 60.7928C31.033 60.7672 30.9352 60.7117 30.8582 60.6328C30.7812 60.5538 30.7281 60.4547 30.7052 60.3469C30.6874 60.178 30.7374 60.009 30.844 59.8769C30.9506 59.7447 31.1052 59.6602 31.274 59.6418Z" fill="#F8FDFF"/>
<path d="M31.1623 58.4994C31.3358 58.504 31.5045 58.558 31.6485 58.655C31.7102 58.6927 31.7628 58.7437 31.8023 58.8042C31.8418 58.8648 31.8674 58.9334 31.877 59.0051C31.8813 59.0728 31.8714 59.1407 31.8478 59.2044C31.8319 59.2378 31.814 59.2703 31.7944 59.3017C31.7944 59.3308 31.7506 59.36 31.7214 59.3892C31.5906 59.5233 31.4202 59.612 31.2352 59.642C31.0576 59.6832 30.871 59.6536 30.715 59.5594C30.677 59.539 30.6425 59.5128 30.6128 59.4816C30.5828 59.4526 30.5567 59.4199 30.535 59.3843C30.4861 59.3118 30.456 59.2283 30.4475 59.1412C30.4352 59.0516 30.4451 58.9604 30.4765 58.8755C30.5079 58.7907 30.5597 58.715 30.6274 58.655C30.7019 58.5951 30.7875 58.5504 30.8793 58.5237C30.9711 58.497 31.0673 58.4888 31.1623 58.4994Z" fill="#F8FDFF"/>
<path d="M31.2887 57.3616C31.4632 57.4002 31.6224 57.4899 31.7457 57.6193C31.7741 57.6467 31.7986 57.6778 31.8186 57.7117C31.8386 57.7404 31.8549 57.7714 31.8673 57.8041C31.8959 57.8681 31.906 57.9389 31.8964 58.0083C31.8911 58.0773 31.8658 58.1432 31.8235 58.1979L31.7895 58.2368L31.7554 58.2757C31.7287 58.3029 31.6994 58.3273 31.6679 58.3487C31.524 58.4452 31.355 58.4976 31.1817 58.4994C31.0023 58.5001 30.8291 58.4343 30.6955 58.3146C30.6654 58.2845 30.6377 58.252 30.6128 58.2174C30.6044 58.1979 30.5929 58.1798 30.5788 58.1639C30.5807 58.1445 30.5807 58.125 30.5788 58.1056C30.5497 58.023 30.5397 57.9349 30.5496 57.8479C30.561 57.7615 30.5909 57.6786 30.6371 57.6047C30.6605 57.569 30.6883 57.5364 30.7198 57.5075C30.7496 57.4778 30.7841 57.4532 30.8219 57.4346C30.9643 57.3569 31.1293 57.3311 31.2887 57.3616Z" fill="#F8FDFF"/>
<path d="M31.6583 56.2774C31.8206 56.3537 31.9574 56.4753 32.0521 56.6275C32.092 56.6868 32.1184 56.7541 32.1293 56.8247C32.1402 56.8953 32.1355 56.9674 32.1154 57.0359C32.0934 57.1014 32.0549 57.16 32.0035 57.2061L31.9598 57.2402L31.916 57.2693C31.8842 57.2911 31.8499 57.3091 31.8139 57.3228C31.6467 57.3879 31.4638 57.4014 31.2888 57.3617C31.1105 57.3251 30.9525 57.2227 30.8463 57.0748C30.8221 57.0403 30.8025 57.0027 30.788 56.963C30.7852 56.942 30.7852 56.9208 30.788 56.8998V56.8415C30.7686 56.7566 30.7686 56.6686 30.788 56.5838C30.8157 56.5017 30.8622 56.4274 30.9239 56.3666C30.9855 56.3058 31.0605 56.2603 31.1429 56.2337C31.3141 56.1834 31.498 56.199 31.6583 56.2774Z" fill="#F8FDFF"/>
<path d="M32.2561 55.3C32.3302 55.3552 32.3943 55.4226 32.4457 55.4994C32.4925 55.5688 32.5301 55.644 32.5576 55.723C32.5712 55.7592 32.581 55.7967 32.5867 55.8349C32.589 55.8705 32.589 55.9062 32.5867 55.9418C32.583 56.0104 32.563 56.077 32.5284 56.1363C32.4939 56.196 32.4434 56.2449 32.3825 56.2773C32.318 56.3145 32.2471 56.3393 32.1735 56.3503C31.9967 56.3801 31.815 56.3546 31.6532 56.2773C31.4877 56.2028 31.356 56.0694 31.2837 55.9029C31.2495 55.8233 31.2361 55.7363 31.2448 55.6501C31.2497 55.5623 31.2765 55.477 31.3226 55.4021C31.3697 55.3306 31.4309 55.2694 31.5025 55.2222C31.5394 55.2004 31.5785 55.1825 31.6192 55.1687C31.6601 55.1544 31.7025 55.1446 31.7456 55.1396C31.9218 55.1321 32.0947 55.1891 32.2318 55.3H32.2561Z" fill="#F8FDFF"/>
<path d="M33.0534 54.4782C33.113 54.5494 33.1607 54.6299 33.1944 54.7164C33.2247 54.7945 33.2444 54.8762 33.2528 54.9595C33.2678 55.0333 33.2678 55.1094 33.2528 55.1832C33.235 55.2486 33.2016 55.3086 33.1555 55.3582L33.1166 55.3874C33.1071 55.401 33.0935 55.4113 33.0777 55.4166C33.0495 55.436 33.0183 55.4508 32.9854 55.4604C32.9499 55.4654 32.9139 55.4654 32.8784 55.4604C32.8396 55.465 32.8004 55.465 32.7617 55.4604C32.585 55.4477 32.416 55.3835 32.2755 55.2756C32.1282 55.1655 32.0275 55.0041 31.9935 54.8234C31.9885 54.7814 31.9885 54.739 31.9935 54.697C31.9888 54.655 31.9888 54.6126 31.9935 54.5706C32.0055 54.53 32.0218 54.4909 32.0421 54.4539C32.0538 54.4352 32.0668 54.4173 32.081 54.4004L32.1247 54.3469C32.1851 54.2839 32.2603 54.2371 32.3435 54.2108C32.4267 54.1916 32.5132 54.1916 32.5964 54.2108C32.6834 54.2227 32.7675 54.2508 32.8443 54.2934C32.924 54.3427 32.9947 54.4052 33.0534 54.4782Z" fill="#F8FDFF"/>
<path d="M34.021 53.8607C34.0597 53.9457 34.0859 54.0357 34.0988 54.1281C34.111 54.212 34.111 54.2971 34.0988 54.381C34.0902 54.4545 34.0671 54.5256 34.0308 54.5901C34.0324 54.6046 34.0324 54.6193 34.0308 54.6338L33.9967 54.6727C33.976 54.6976 33.9514 54.719 33.9238 54.7359C33.895 54.7544 33.864 54.7691 33.8314 54.7797H33.7293C33.6553 54.7813 33.5815 54.7715 33.5105 54.7505C33.3401 54.6993 33.1892 54.5975 33.0778 54.4588C32.9626 54.3235 32.9019 54.1501 32.9076 53.9726C32.9139 53.8872 32.9388 53.8042 32.9805 53.7294C33.0037 53.6918 33.0297 53.6561 33.0583 53.6225C33.0909 53.5911 33.1267 53.5634 33.1653 53.5398C33.2016 53.5156 33.2408 53.496 33.282 53.4815H33.3452H33.4084C33.4942 53.4728 33.5808 53.4845 33.6612 53.5155C33.7432 53.5467 33.8178 53.5947 33.88 53.6565C33.9379 53.7164 33.9855 53.7854 34.021 53.8607Z" fill="#F8FDFF"/>
<path d="M35.1052 53.4962C35.1412 53.6702 35.126 53.8509 35.0615 54.0164C35.0306 54.0842 34.9914 54.1479 34.9448 54.206L34.9059 54.2401L34.8183 54.2838C34.7847 54.2908 34.7499 54.2908 34.7162 54.2838H34.619C34.5451 54.2709 34.4743 54.2446 34.4099 54.206C34.2557 54.1159 34.1333 53.9799 34.0598 53.8171C33.9748 53.6554 33.9573 53.4665 34.0112 53.292C34.0375 53.2099 34.0825 53.135 34.1425 53.0731L34.2397 52.9905C34.2778 52.9662 34.3186 52.9466 34.3613 52.9321C34.4035 52.9171 34.4478 52.9089 34.4926 52.9078H34.5558H34.619C34.704 52.9185 34.7855 52.9485 34.8572 52.9954C34.9291 53.0462 34.9902 53.1106 35.0371 53.185C35.0781 53.2839 35.1011 53.3892 35.1052 53.4962Z" fill="#F8FDFF"/>
<path d="M36.2432 53.3843C36.2437 53.4785 36.2289 53.5721 36.1994 53.6615C36.1846 53.7017 36.1667 53.7407 36.1459 53.7782C36.127 53.815 36.1059 53.8508 36.0827 53.8851C36.0436 53.9456 35.9922 53.9971 35.9319 54.0365C35.8716 54.0758 35.8037 54.1021 35.7326 54.1136C35.7004 54.1182 35.6677 54.1182 35.6354 54.1136C35.6032 54.1187 35.5704 54.1187 35.5382 54.1136C35.4705 54.0812 35.4082 54.0386 35.3534 53.9872C35.228 53.8623 35.1418 53.7034 35.1054 53.5302C35.0886 53.4369 35.0886 53.3414 35.1054 53.2482C35.1177 53.1613 35.1493 53.0782 35.1978 53.0051C35.2404 52.9316 35.3006 52.8698 35.3728 52.8252C35.4097 52.8019 35.4488 52.7823 35.4895 52.7668C35.5317 52.7517 35.576 52.7435 35.6208 52.7425H35.7521C35.7731 52.7398 35.7943 52.7398 35.8153 52.7425H35.8785C35.956 52.7764 36.0255 52.8261 36.0827 52.8884C36.1139 52.918 36.1402 52.9525 36.1605 52.9905C36.1813 53.0297 36.1991 53.0703 36.214 53.112C36.2389 53.2005 36.2488 53.2926 36.2432 53.3843Z" fill="#F8FDFF"/>
<path d="M36.8169 54.0942C37.1338 54.0942 37.3906 53.7785 37.3906 53.3891C37.3906 52.9998 37.1338 52.6841 36.8169 52.6841C36.5 52.6841 36.2432 52.9998 36.2432 53.3891C36.2432 53.7785 36.5 54.0942 36.8169 54.0942Z" fill="#F8FDFF"/>
<path d="M38.538 53.3842C38.5159 53.4935 38.4632 53.5942 38.386 53.6747C38.3089 53.7551 38.2104 53.812 38.1022 53.8387C37.994 53.8654 37.8804 53.8608 37.7746 53.8254C37.6689 53.79 37.5754 53.7253 37.5051 53.6389C37.4347 53.5524 37.3903 53.4477 37.3772 53.337C37.364 53.2263 37.3826 53.1141 37.4307 53.0136C37.4788 52.913 37.5545 52.8282 37.649 52.769C37.7434 52.7098 37.8528 52.6786 37.9643 52.6792C38.1329 52.6988 38.2872 52.7834 38.3944 52.9151C38.5016 53.0468 38.5531 53.2151 38.538 53.3842Z" fill="#F8FDFF"/>
<path d="M39.1118 54.0942C39.4287 54.0942 39.6856 53.7785 39.6856 53.3891C39.6856 52.9998 39.4287 52.6841 39.1118 52.6841C38.795 52.6841 38.5381 52.9998 38.5381 53.3891C38.5381 53.7785 38.795 54.0942 39.1118 54.0942Z" fill="#F8FDFF"/>
<path d="M40.8281 53.4961C40.7871 53.6687 40.6997 53.8267 40.5753 53.9531C40.5222 54.0043 40.4615 54.0469 40.3954 54.0796C40.3631 54.0834 40.3304 54.0834 40.2981 54.0796C40.2643 54.0843 40.2299 54.0843 40.196 54.0796C40.1252 54.0692 40.0575 54.0434 39.9979 54.0039C39.9382 53.9644 39.888 53.9122 39.8508 53.851C39.8259 53.8168 39.8032 53.7811 39.7827 53.7441C39.7607 53.7257 39.7396 53.7062 39.7195 53.6857C39.6885 53.5966 39.6721 53.503 39.6709 53.4086C39.6716 53.3157 39.688 53.2237 39.7195 53.1363C39.7328 53.0947 39.749 53.054 39.7681 53.0147C39.7901 52.9779 39.8162 52.9436 39.8459 52.9126C39.9039 52.8491 39.9753 52.7992 40.055 52.7668H40.1134C40.1407 52.7435 40.172 52.7254 40.2057 52.7133H40.337C40.3819 52.7134 40.4264 52.7216 40.4683 52.7376C40.5099 52.7511 40.5492 52.7708 40.585 52.7959C40.6576 52.8418 40.719 52.9033 40.7649 52.9758C40.8098 53.0503 40.8395 53.133 40.8524 53.219C40.8607 53.312 40.8525 53.4059 40.8281 53.4961Z" fill="#F8FDFF"/>
<path d="M41.9126 53.8608C41.8357 54.023 41.7121 54.1585 41.5577 54.2498C41.495 54.2883 41.4258 54.3146 41.3534 54.3276H41.2513C41.2193 54.3349 41.1861 54.3349 41.1541 54.3276C41.1212 54.318 41.09 54.3033 41.0617 54.2838L41.0277 54.2498C40.9777 54.1941 40.9382 54.1299 40.911 54.0602C40.8464 53.8946 40.8312 53.7139 40.8672 53.5399C40.885 53.4469 40.9196 53.3579 40.9693 53.2774C41.0176 53.204 41.0785 53.1398 41.1492 53.0877C41.2213 53.0416 41.3026 53.0117 41.3875 53.0002H41.4507H41.5188C41.5619 53.0017 41.6046 53.0099 41.6452 53.0245C41.6879 53.039 41.7287 53.0586 41.7667 53.0829C41.8029 53.1077 41.837 53.1354 41.8688 53.1655C41.9271 53.2287 41.9718 53.3032 42.0001 53.3843C42.0273 53.5485 41.9964 53.717 41.9126 53.8608Z" fill="#F8FDFF"/>
<path d="M42.8754 54.4783C42.764 54.617 42.6131 54.7187 42.4427 54.77C42.3718 54.7913 42.2979 54.8012 42.2239 54.7992H42.1266C42.0937 54.7896 42.0625 54.7748 42.0343 54.7554C42.0051 54.7386 41.9789 54.7173 41.9565 54.6922L41.9273 54.6533L41.8981 54.6095C41.8618 54.545 41.8387 54.474 41.83 54.4005C41.8203 54.3165 41.8203 54.2316 41.83 54.1476C41.8446 54.055 41.8724 53.9649 41.9127 53.8802C41.9519 53.7964 42.0063 53.7205 42.0732 53.6565C42.1354 53.5948 42.21 53.5467 42.292 53.5155C42.3725 53.4849 42.459 53.4732 42.5448 53.4815H42.608H42.6712C42.7139 53.496 42.7548 53.5156 42.7928 53.5399C42.8298 53.5635 42.8641 53.5912 42.8949 53.6225C42.9251 53.6549 42.9512 53.6908 42.9727 53.7295C43.0158 53.804 43.0423 53.8869 43.0505 53.9726C43.0593 54.1574 42.9966 54.3385 42.8754 54.4783Z" fill="#F8FDFF"/>
<path d="M43.6773 55.3C43.536 55.4064 43.3673 55.4705 43.191 55.4848C43.1523 55.4894 43.1131 55.4894 43.0743 55.4848C43.0405 55.4898 43.0061 55.4898 42.9722 55.4848C42.939 55.4761 42.9076 55.4613 42.8799 55.441C42.8632 55.4347 42.8483 55.4248 42.8361 55.4118L42.7972 55.3827C42.7511 55.333 42.7177 55.273 42.7 55.2076C42.6873 55.1336 42.6873 55.058 42.7 54.984C42.7104 54.9005 42.7317 54.8188 42.7632 54.7408C42.7951 54.6545 42.8411 54.574 42.8993 54.5026C42.9598 54.4294 43.0321 54.367 43.1132 54.3178C43.188 54.2745 43.2707 54.2464 43.3564 54.2352C43.4395 54.2155 43.5261 54.2155 43.6092 54.2352C43.6933 54.2625 43.7699 54.3092 43.8328 54.3713L43.8766 54.4248L43.9106 54.4783C43.9305 54.5162 43.9483 54.5552 43.9641 54.595C43.9688 54.637 43.9688 54.6794 43.9641 54.7214C43.9715 54.7632 43.9715 54.806 43.9641 54.8478C43.9293 55.0295 43.8268 55.1911 43.6773 55.3Z" fill="#F8FDFF"/>
<path d="M44.2706 56.2772C44.1089 56.3545 43.9272 56.38 43.7504 56.3501C43.6767 56.3392 43.6058 56.3144 43.5413 56.2772C43.483 56.2431 43.4344 56.1945 43.4003 56.1362C43.3615 56.0788 43.3411 56.011 43.3419 55.9417C43.3372 55.9062 43.3372 55.8702 43.3419 55.8347C43.3459 55.7967 43.354 55.7592 43.3663 55.7229C43.3937 55.6439 43.4313 55.5687 43.4781 55.4993C43.5327 55.4235 43.5982 55.3564 43.6726 55.2999C43.7441 55.2404 43.8267 55.1958 43.9157 55.1686C43.9989 55.1425 44.0864 55.1326 44.1734 55.1394C44.2166 55.144 44.259 55.1538 44.2998 55.1686C44.3412 55.1805 44.3805 55.1985 44.4165 55.2221C44.4905 55.2678 44.5536 55.3292 44.6013 55.402C44.6431 55.4788 44.6695 55.563 44.6791 55.65C44.6836 55.7365 44.6686 55.8229 44.6353 55.9028C44.5658 56.0694 44.4354 56.2033 44.2706 56.2772Z" fill="#F8FDFF"/>
<path d="M44.6402 57.3616C44.4652 57.4013 44.2823 57.3878 44.1151 57.3227L44.013 57.2692L43.9692 57.2401L43.9303 57.206C43.8774 57.1613 43.8386 57.1022 43.8185 57.0359C43.7984 56.9673 43.7936 56.8952 43.8045 56.8246C43.8155 56.754 43.8418 56.6867 43.8817 56.6274C43.9733 56.4744 44.1089 56.3524 44.2707 56.2774C44.4338 56.1964 44.6216 56.1808 44.7958 56.2336C44.9224 56.271 45.0309 56.3535 45.1008 56.4655C45.1707 56.5775 45.1971 56.7112 45.1751 56.8414C45.172 56.8838 45.1604 56.9251 45.141 56.9629C45.1232 57.0085 45.0986 57.0511 45.0681 57.0893C44.9629 57.2287 44.811 57.3254 44.6402 57.3616Z" fill="#F8FDFF"/>
<path d="M44.7716 58.4993C44.5983 58.4975 44.4293 58.4451 44.2854 58.3485C44.252 58.3297 44.2224 58.305 44.1979 58.2756C44.1826 58.2652 44.1694 58.252 44.159 58.2367L44.1249 58.1978C44.0847 58.142 44.0595 58.0766 44.052 58.0082C44.0449 57.9388 44.0549 57.8687 44.0812 57.804L44.1347 57.7116C44.153 57.6778 44.1759 57.6467 44.2027 57.6192C44.3261 57.4898 44.4852 57.4001 44.6598 57.3615C44.8377 57.3176 45.0257 57.3437 45.1849 57.4345C45.2212 57.4555 45.2553 57.4799 45.287 57.5074C45.317 57.5363 45.3431 57.569 45.3648 57.6046C45.4146 57.6771 45.4463 57.7605 45.4572 57.8477C45.463 57.935 45.4514 58.0226 45.4232 58.1054C45.4251 58.1248 45.4251 58.1444 45.4232 58.1638L45.3891 58.2173C45.3642 58.2519 45.3366 58.2844 45.3065 58.3145C45.2349 58.3806 45.1504 58.4311 45.0584 58.4629C44.9663 58.4947 44.8687 58.5071 44.7716 58.4993Z" fill="#F8FDFF"/>
<path d="M44.6547 59.6419C44.4702 59.6105 44.3001 59.5221 44.1685 59.389L44.1004 59.3015C44.0789 59.2712 44.061 59.2386 44.0469 59.2043C44.0182 59.142 44.008 59.0728 44.0178 59.0049C44.0269 58.9337 44.0516 58.8653 44.0903 58.8048C44.129 58.7442 44.1806 58.693 44.2414 58.6548C44.3855 58.5581 44.5541 58.5041 44.7276 58.4992C44.9068 58.4948 45.0808 58.5592 45.2139 58.6791C45.2815 58.7391 45.3334 58.8149 45.3648 58.8997C45.3962 58.9845 45.4061 59.0758 45.3938 59.1654C45.387 59.252 45.3585 59.3356 45.3111 59.4085C45.2879 59.443 45.2619 59.4755 45.2333 59.5057C45.1503 59.5824 45.0495 59.6373 44.94 59.6653C44.8305 59.6933 44.7157 59.6936 44.6061 59.6662L44.6547 59.6419Z" fill="#F8FDFF"/>
<path d="M44.4166 60.765C44.3148 60.7204 44.2277 60.6478 44.1654 60.5557C44.1031 60.4636 44.0682 60.3557 44.0647 60.2446C44.0613 60.1334 44.0894 60.0236 44.1458 59.9277C44.2022 59.8319 44.2846 59.754 44.3834 59.7031C44.4823 59.6522 44.5935 59.6304 44.7043 59.6401C44.8151 59.6498 44.9208 59.6908 45.0093 59.7582C45.0977 59.8255 45.1653 59.9166 45.2041 60.0208C45.2429 60.125 45.2514 60.238 45.2286 60.3469C45.1751 60.5091 45.06 60.6438 44.9081 60.722C44.7563 60.8003 44.5798 60.8157 44.4166 60.765Z" fill="#F8FDFF"/>
<path d="M44.1783 61.8833C44.0782 61.838 43.9929 61.7653 43.9322 61.6736C43.8716 61.582 43.8381 61.475 43.8356 61.3651C43.8331 61.2553 43.8617 61.1469 43.918 61.0525C43.9744 60.9582 44.0563 60.8817 44.1543 60.8318C44.2522 60.782 44.3623 60.7608 44.4717 60.7707C44.5812 60.7807 44.6856 60.8213 44.773 60.888C44.8603 60.9547 44.9271 61.0447 44.9655 61.1477C45.004 61.2507 45.0125 61.3624 44.9903 61.4701C44.9369 61.6321 44.8215 61.7666 44.6694 61.844C44.5173 61.9214 44.3408 61.9355 44.1783 61.8833Z" fill="#F8FDFF"/>
<path d="M43.9401 63.0067C43.7714 62.9871 43.6171 62.9024 43.51 62.7707C43.4028 62.639 43.3513 62.4707 43.3663 62.3016C43.4209 62.1401 43.5361 62.0062 43.6877 61.9282C43.8392 61.8501 44.0152 61.8341 44.1783 61.8835C44.2665 61.8825 44.3538 61.9013 44.4337 61.9386C44.5137 61.9758 44.5842 62.0306 44.6401 62.0988C44.696 62.167 44.7359 62.2469 44.7567 62.3326C44.7776 62.4183 44.7789 62.5076 44.7606 62.5939C44.7423 62.6801 44.7048 62.7612 44.651 62.831C44.5971 62.9009 44.5283 62.9577 44.4495 62.9973C44.3707 63.037 44.284 63.0584 44.1958 63.06C44.1077 63.0616 44.0203 63.0434 43.9401 63.0067Z" fill="#F8FDFF"/>
<path d="M43.6969 64.1297C43.5255 64.1102 43.3688 64.0235 43.2612 63.8885C43.1537 63.7536 43.104 63.5816 43.1232 63.4101C43.1787 63.2495 43.2943 63.1167 43.4458 63.0396C43.5972 62.9626 43.7726 62.9472 43.9351 62.9968C44.0231 62.9965 44.1101 63.016 44.1896 63.0537C44.269 63.0915 44.339 63.1466 44.3944 63.215C44.4498 63.2834 44.4891 63.3633 44.5095 63.4489C44.5298 63.5345 44.5308 63.6236 44.5121 63.7096C44.4935 63.7956 44.4559 63.8763 44.4019 63.9459C44.348 64.0154 44.2791 64.0719 44.2004 64.1113C44.1217 64.1507 44.0352 64.1719 43.9472 64.1734C43.8592 64.1749 43.772 64.1567 43.692 64.12L43.6969 64.1297Z" fill="#F8FDFF"/>
<path d="M43.4586 65.253C43.3567 65.2081 43.2697 65.1352 43.2075 65.0428C43.1454 64.9504 43.1108 64.8423 43.1077 64.731C43.1045 64.6197 43.1331 64.5098 43.1899 64.4141C43.2468 64.3184 43.3297 64.2407 43.4289 64.1902C43.5281 64.1397 43.6396 64.1184 43.7505 64.1288C43.8613 64.1391 43.967 64.1807 44.0551 64.2488C44.1433 64.3168 44.2103 64.4084 44.2485 64.513C44.2866 64.6176 44.2943 64.7309 44.2706 64.8397C44.2161 65.001 44.1006 65.1346 43.9489 65.2119C43.7971 65.2891 43.6211 65.3039 43.4586 65.253Z" fill="#F8FDFF"/>
<path d="M43.2206 66.376C43.1324 66.3771 43.0451 66.3582 42.9652 66.321C42.8852 66.2837 42.8147 66.2289 42.7588 66.1607C42.7029 66.0925 42.663 66.0126 42.6422 65.9269C42.6213 65.8412 42.62 65.752 42.6383 65.6657C42.6566 65.5794 42.6941 65.4984 42.7479 65.4285C42.8018 65.3587 42.8706 65.3018 42.9494 65.2622C43.0282 65.2226 43.1149 65.2011 43.2031 65.1995C43.2912 65.1979 43.3786 65.2162 43.4588 65.2529C43.547 65.2519 43.6343 65.2707 43.7142 65.308C43.7942 65.3452 43.8647 65.4 43.9206 65.4682C43.9765 65.5364 44.0164 65.6163 44.0372 65.702C44.0581 65.7877 44.0594 65.877 44.0411 65.9632C44.0228 66.0495 43.9853 66.1306 43.9315 66.2004C43.8776 66.2703 43.8088 66.3271 43.73 66.3667C43.6512 66.4064 43.5645 66.4278 43.4763 66.4294C43.3882 66.431 43.3008 66.4128 43.2206 66.376Z" fill="#F8FDFF"/>
<path d="M42.9821 67.4993C42.8796 67.4551 42.7917 67.3827 42.7288 67.2905C42.6659 67.1983 42.6305 67.0901 42.6268 66.9785C42.6231 66.8669 42.6512 66.7566 42.7078 66.6604C42.7644 66.5642 42.8473 66.4861 42.9466 66.4352C43.046 66.3844 43.1578 66.3628 43.269 66.3731C43.3801 66.3834 43.486 66.425 43.5744 66.4933C43.6627 66.5615 43.7299 66.6535 43.7679 66.7584C43.8059 66.8634 43.8133 66.977 43.7892 67.086C43.7337 67.2455 43.6188 67.3774 43.4685 67.4544C43.3182 67.5314 43.144 67.5474 42.9821 67.4993Z" fill="#F8FDFF"/>
<path d="M42.9822 67.4993H32.9515L31.2837 59.6906C30.5981 56.4669 32.8785 53.3697 36.1459 53.3697H39.8072C43.0649 53.3697 45.3452 56.4523 44.6694 59.6906L42.9822 67.4993Z" fill="#F8FDFF"/>
<path d="M29.2905 35.9047C29.2905 30.1868 30.5741 24.2354 37.9647 24.2354C45.3553 24.2354 46.6438 30.1722 46.6438 35.9047C46.6438 41.6373 42.754 44.5011 37.9647 44.5011C33.1754 44.5011 29.2905 41.6178 29.2905 35.9047Z" fill="#061725"/>
<path d="M45.0679 35.4282C45.7864 33.4104 45.7744 31.2046 45.0339 29.1948C44.6162 27.9547 43.8183 26.8777 42.7535 26.117C41.3817 25.2101 39.7636 24.7482 38.1198 24.7945C35.1636 24.7945 32.3289 26.0295 31.2057 29.1948C30.5331 31.2148 30.511 33.3949 31.1425 35.4282H45.0679Z" fill="#061725"/>
<path d="M36.7442 22.8058C37.3426 23.4732 37.7048 24.319 37.775 25.2126C36.8836 25.1393 36.0404 24.7774 35.3731 24.1818C34.7707 23.5073 34.4083 22.6526 34.3423 21.7507C35.2373 21.8283 36.0816 22.1992 36.7442 22.8058Z" fill="#061725"/>
<path d="M36.8412 23.6956C37.2587 24.1276 37.5773 24.6452 37.7748 25.2126C37.2089 25.0126 36.693 24.6925 36.2626 24.2742C36.146 24.155 36.0371 24.0283 35.9369 23.895C35.8813 23.8229 35.8538 23.7331 35.8597 23.6423C35.8655 23.5515 35.9042 23.4659 35.9685 23.4015C36.0329 23.3372 36.1185 23.2985 36.2093 23.2926C36.3001 23.2868 36.3899 23.3143 36.462 23.3698C36.5943 23.4713 36.7209 23.5801 36.8412 23.6956Z" fill="#061725"/>
<path d="M39.1851 22.8058C38.5891 23.4748 38.2273 24.3196 38.1543 25.2126C39.0558 25.1448 39.9099 24.7826 40.5854 24.1818C41.1856 23.506 41.5477 22.652 41.6162 21.7507C40.7111 21.8224 39.8557 22.1937 39.1851 22.8058Z" fill="#061725"/>
<path d="M39.0927 23.6956C38.6727 24.1266 38.3524 24.6444 38.1543 25.2126C38.7202 25.0127 39.236 24.6925 39.6664 24.2742C39.7847 24.155 39.8951 24.0283 39.9971 23.895C40.0572 23.823 40.0881 23.7311 40.0837 23.6374C40.0793 23.5437 40.0398 23.4551 39.9732 23.389C39.9066 23.323 39.8176 23.2844 39.7239 23.2809C39.6302 23.2773 39.5385 23.3091 39.4671 23.3699C39.3354 23.4702 39.2103 23.579 39.0927 23.6956Z" fill="#061725"/>
<path d="M38.4654 24.7069H37.4589C37.3891 24.7069 37.3325 24.7635 37.3325 24.8333V25.3584C37.3325 25.4282 37.3891 25.4848 37.4589 25.4848H38.4654C38.5352 25.4848 38.5918 25.4282 38.5918 25.3584V24.8333C38.5918 24.7635 38.5352 24.7069 38.4654 24.7069Z" fill="#061725"/>
<path d="M46.0939 36.1817C45.8945 37.3924 44.961 38.6128 44.0809 38.4912C43.2009 38.3697 42.7049 36.8915 42.8994 35.6954C43.0939 34.4993 43.9107 33.9888 44.7908 34.1298C45.6709 34.2708 46.2884 34.9807 46.0939 36.1817Z" fill="#FFB583"/>
<path d="M45.603 36.0212C45.4669 36.8477 44.8299 37.6938 44.227 37.5965C43.6241 37.4993 43.2886 36.4977 43.4199 35.6516C43.4269 35.4947 43.4671 35.3409 43.5377 35.2006C43.6084 35.0602 43.708 34.9364 43.8299 34.8373C43.9519 34.7382 44.0934 34.666 44.2453 34.6255C44.3971 34.585 44.5558 34.5771 44.7109 34.6024C44.866 34.6276 45.014 34.6853 45.1452 34.7718C45.2764 34.8584 45.3878 34.9717 45.472 35.1043C45.5563 35.2369 45.6115 35.3859 45.6341 35.5414C45.6567 35.6969 45.6461 35.8555 45.603 36.0066V36.0212Z" fill="#FC9854"/>
<path d="M29.8395 36.1819C30.034 37.3926 30.9676 38.613 31.8476 38.4914C32.7277 38.3699 33.2285 36.8772 33.0291 35.6616C32.8298 34.4461 32.0227 33.955 31.1377 34.096C30.2528 34.237 29.6402 34.9809 29.8395 36.1819Z" fill="#FFB583"/>
<path d="M30.3309 36.0214C30.4622 36.848 31.104 37.694 31.7021 37.5968C32.3001 37.4996 32.6453 36.4979 32.5092 35.6519C32.5048 35.4932 32.4665 35.3373 32.3969 35.1946C32.3272 35.0519 32.2279 34.9258 32.1056 34.8246C31.9832 34.7235 31.8406 34.6496 31.6874 34.6081C31.5341 34.5666 31.3738 34.5583 31.2171 34.5839C31.0604 34.6094 30.911 34.6681 30.7788 34.7562C30.6467 34.8442 30.5349 34.9594 30.451 35.0942C30.3671 35.229 30.3129 35.3801 30.2922 35.5375C30.2715 35.6949 30.2847 35.855 30.3309 36.0069V36.0214Z" fill="#FC9854"/>
<path d="M31.7263 38.8269C31.9465 38.8269 32.125 38.6483 32.125 38.4282C32.125 38.208 31.9465 38.0294 31.7263 38.0294C31.5061 38.0294 31.3276 38.208 31.3276 38.4282C31.3276 38.6483 31.5061 38.8269 31.7263 38.8269Z" fill="#F8FDFF"/>
<path d="M44.2024 38.8269C44.4226 38.8269 44.6011 38.6483 44.6011 38.4282C44.6011 38.208 44.4226 38.0294 44.2024 38.0294C43.9822 38.0294 43.8037 38.208 43.8037 38.4282C43.8037 38.6483 43.9822 38.8269 44.2024 38.8269Z" fill="#F8FDFF"/>
<path d="M40.9939 48.1136C40.9939 49.6014 34.9404 49.6354 34.9404 48.1136V43.0958H40.9939V48.1136Z" fill="#FFB583"/>
<path d="M34.9404 43.0958V45.7603C35.4753 44.428 38.6114 46.4604 40.9939 44.1557V43.0958H34.9404Z" fill="#FC9854"/>
<path d="M44.6596 34.7232C44.6596 39.809 41.6645 45.0943 37.9643 45.0943C34.2642 45.0943 31.269 39.8188 31.269 34.7232C31.269 29.6276 34.269 27.07 37.9643 27.07C41.6596 27.07 44.6596 29.6421 44.6596 34.7232Z" fill="#FFC69F"/>
<path d="M37.9643 27.0797C34.269 27.0797 31.269 29.6421 31.269 34.7328C31.269 39.8236 34.269 45.1039 37.9643 45.1039V39.3033L37.3565 39.2596C37.3235 39.2574 37.2913 39.2482 37.262 39.2327C37.2328 39.2171 37.2072 39.1955 37.187 39.1693C37.1668 39.1431 37.1523 39.1128 37.1447 39.0806C37.137 39.0484 37.1363 39.0149 37.1426 38.9824C37.6086 37.5932 37.885 36.1474 37.9643 34.6842V27.0797Z" fill="#FFB583"/>
<path d="M39.7538 34.6162C39.5107 34.7523 39.4134 34.4217 39.5787 34.3244C39.942 34.0969 40.3262 33.9048 40.7262 33.7507C40.8429 33.7021 40.9742 33.6729 41.1006 33.634C41.227 33.5951 41.3632 33.5757 41.4993 33.5611H41.7035H41.9029C42.0414 33.5637 42.1796 33.5767 42.3161 33.6C42.7773 33.6777 43.2015 33.9009 43.5268 34.2369C43.7748 34.5043 43.8234 34.7231 43.7797 34.7572C43.7359 34.7912 43.6095 34.6113 43.3567 34.4168C43.0375 34.1695 42.6582 34.0117 42.2578 33.9598C42.1418 33.9428 42.0249 33.9331 41.9077 33.9306H41.7278H41.5431C41.4264 33.9306 41.3048 33.9744 41.1881 33.9938C41.0714 34.0133 40.9547 34.0521 40.8429 34.0959C40.4653 34.2371 40.1009 34.4112 39.7538 34.6162Z" fill="#061725"/>
<path d="M36.4817 34.6162C36.7248 34.7523 36.8172 34.4217 36.6519 34.3244C36.2899 34.0978 35.9073 33.9057 35.5093 33.7507C35.3877 33.7021 35.2613 33.6729 35.1349 33.634C35.0085 33.5951 34.8723 33.5757 34.7313 33.5611H34.532H34.3277C34.1908 33.5637 34.0543 33.5767 33.9193 33.6C33.4567 33.6777 33.031 33.9008 32.7038 34.2369C32.4607 34.5043 32.4072 34.7231 32.4558 34.7572C32.5044 34.7912 32.626 34.6113 32.8739 34.4168C33.1949 34.1695 33.5758 34.0118 33.9777 33.9598C34.092 33.9428 34.2073 33.9331 34.3229 33.9306H34.5076H34.6875C34.8091 33.9306 34.9258 33.9744 35.0473 33.9938C35.1689 34.0133 35.2807 34.0521 35.3877 34.0959C35.7672 34.2362 36.1334 34.4103 36.4817 34.6162Z" fill="#061725"/>
<path d="M42.2868 27.0458L42.0145 26.8173C41.6574 26.5555 41.2726 26.3338 40.867 26.1561C40.282 25.9083 39.6649 25.7446 39.034 25.6698C38.2443 25.5772 37.4449 25.6117 36.6661 25.7719C36.2433 25.8607 35.8286 25.9843 35.4262 26.1415C35.0178 26.3088 34.6228 26.5071 34.2447 26.7347C33.495 27.1999 32.8279 27.7865 32.2707 28.4705C32.0017 28.8059 31.7594 29.162 31.5462 29.5353L31.4052 29.793C31.3517 29.9 31.3128 29.9875 31.269 30.0847C31.2231 30.1773 31.1841 30.2732 31.1523 30.3716C31.1132 30.4653 31.0792 30.5611 31.0502 30.6585C30.8374 31.3631 30.7325 32.0959 30.7391 32.8319C30.7472 33.4149 30.8091 33.996 30.9238 34.5677C30.9972 34.9514 31.1012 35.3287 31.235 35.6957C31.3322 35.9486 31.4052 36.0798 31.4392 36.075C31.4733 36.0701 31.5219 35.8173 31.5948 35.404L31.7018 35.2727C31.7553 35.2095 31.8136 35.1317 31.872 35.049C31.9303 34.9664 32.0081 34.8691 32.0762 34.767L32.3387 34.4316C32.4117 34.3538 32.4797 34.2662 32.5575 34.1739C32.5603 34.1948 32.5603 34.2161 32.5575 34.2371C32.5089 34.3635 32.4943 34.4413 32.5235 34.4607C32.5527 34.4802 32.6256 34.4607 32.7277 34.3489C32.8298 34.2371 32.8395 34.2468 32.9076 34.1836C32.9757 34.1204 33.0535 34.0426 33.141 33.9648C33.5935 33.547 34.0815 33.1696 34.5997 32.8367C34.4781 32.9291 34.3565 33.0166 34.2544 33.0993C33.8071 33.4445 33.5543 33.6779 33.5883 33.7363C33.6223 33.7946 33.9578 33.6682 34.4684 33.4202C34.8282 33.25 35.2804 33.0215 35.786 32.7492L35.7471 32.7784C35.3338 33.0604 35.0907 33.2646 35.1248 33.3132C35.1588 33.3619 35.4603 33.3132 35.9368 33.1188C36.4734 32.9105 36.9992 32.6752 37.5121 32.4137L37.376 32.5353C37.0745 32.8027 36.8898 32.9875 36.9432 33.0215C36.9967 33.0555 37.2252 33.0215 37.5996 32.827C38.0897 32.5979 38.564 32.3364 39.0194 32.0442C39.6041 31.6758 40.1498 31.249 40.6482 30.7703C41.1177 30.315 41.5234 29.7981 41.8541 29.2338L41.9708 29.015C41.9708 29.1366 42.0097 29.2679 42.034 29.404C42.2082 30.1188 42.4695 30.8096 42.8119 31.4607C43.1669 32.156 43.5656 32.8222 43.8573 33.4397C43.9302 33.5904 44.008 33.7411 44.0615 33.887C44.115 34.0328 44.1879 34.1787 44.2268 34.3149L44.363 34.7038C44.3921 34.8254 44.4262 34.9421 44.4554 35.049L44.4991 35.1998L44.5283 35.3408C44.5526 35.4283 44.572 35.5061 44.5915 35.5644C44.5998 35.6001 44.6129 35.6344 44.6304 35.6666C44.6304 35.7832 44.6304 35.8562 44.6693 35.8659C44.7082 35.8756 44.7568 35.8076 44.8297 35.6811C44.8734 35.6041 44.9124 35.5246 44.9464 35.4429C44.9902 35.3505 45.0291 35.2387 45.0777 35.1123C45.1704 34.8251 45.2467 34.5329 45.3062 34.2371C45.6855 31.806 44.961 27.7752 42.2868 27.0458Z" fill="#061725"/>
<path d="M38.8153 40.5579C38.5786 40.5844 38.3445 40.6299 38.1151 40.694C37.8874 40.6299 37.6549 40.5844 37.4198 40.5579C36.5981 40.5919 35.791 40.8058 35.4312 40.7135C36.53 41.647 36.5446 42.4249 38.1151 42.4249C39.6856 42.4249 39.8266 41.3942 40.799 40.7135C40.6045 40.8447 39.637 40.5919 38.8153 40.5579Z" fill="#061725"/>
<path d="M38.115 41.044C37.3611 41.0417 36.6085 40.9815 35.8638 40.8641C36.5315 41.3081 37.3155 41.545 38.1174 41.545C38.9193 41.545 39.7033 41.3081 40.371 40.8641C39.6247 40.9814 38.8705 41.0415 38.115 41.044Z" fill="#F8FDFF"/>
<path d="M41.3387 36.4394C41.7415 36.4394 42.068 36.1347 42.068 35.7587C42.068 35.3828 41.7415 35.078 41.3387 35.078C40.9359 35.078 40.6094 35.3828 40.6094 35.7587C40.6094 36.1347 40.9359 36.4394 41.3387 36.4394Z" fill="#061725"/>
<path d="M41.8738 35.9775C41.8738 36.0047 41.8683 36.0317 41.8578 36.0568C41.8472 36.0819 41.8317 36.1046 41.8122 36.1237C41.7928 36.1427 41.7697 36.1576 41.7443 36.1676C41.719 36.1776 41.6919 36.1824 41.6647 36.1817C41.6118 36.1817 41.5611 36.1607 41.5237 36.1233C41.4863 36.0859 41.4653 36.0352 41.4653 35.9824C41.4653 35.9295 41.4863 35.8788 41.5237 35.8414C41.5611 35.804 41.6118 35.783 41.6647 35.783C41.6913 35.7817 41.7178 35.7857 41.7428 35.7949C41.7678 35.804 41.7908 35.818 41.8102 35.8362C41.8297 35.8543 41.8454 35.8761 41.8563 35.9004C41.8672 35.9247 41.8731 35.9509 41.8738 35.9775Z" fill="#F8FDFF"/>
<path d="M40.3033 35.6664C40.1477 35.7928 40.0602 35.5643 40.172 35.467C40.3454 35.2912 40.5545 35.1547 40.7852 35.0666C41.0158 34.9786 41.2627 34.941 41.5091 34.9565C41.9076 35.1077 42.2972 35.2814 42.6761 35.4767L42.8511 35.5011C42.9649 35.4927 43.0775 35.4715 43.1866 35.4379C43.1926 35.4349 43.1993 35.4333 43.206 35.4333C43.2128 35.4333 43.2194 35.4349 43.2255 35.4379C43.2289 35.4438 43.2307 35.4505 43.2307 35.4573C43.2307 35.4641 43.2289 35.4708 43.2255 35.4767C43.2103 35.5042 43.1906 35.5288 43.1671 35.5497C43.0887 35.6173 42.9925 35.6612 42.89 35.6761C42.4038 35.7393 41.9905 35.3406 41.5286 35.2191C41.3011 35.1849 41.0687 35.2152 40.8576 35.3066C40.6622 35.4001 40.4792 35.5177 40.313 35.6567L40.3033 35.6664Z" fill="#061725"/>
<path d="M34.5848 36.4394C34.9876 36.4394 35.3141 36.1347 35.3141 35.7587C35.3141 35.3828 34.9876 35.078 34.5848 35.078C34.182 35.078 33.8555 35.3828 33.8555 35.7587C33.8555 36.1347 34.182 36.4394 34.5848 36.4394Z" fill="#061725"/>
<path d="M35.1199 35.9776C35.1187 36.0301 35.0973 36.08 35.0601 36.1172C35.023 36.1543 34.973 36.1757 34.9205 36.1769C34.8677 36.1769 34.817 36.1559 34.7796 36.1185C34.7422 36.0812 34.7212 36.0304 34.7212 35.9776C34.7212 35.9247 34.7422 35.874 34.7796 35.8366C34.817 35.7992 34.8677 35.7782 34.9205 35.7782C34.9734 35.7782 35.0241 35.7992 35.0615 35.8366C35.0989 35.874 35.1199 35.9247 35.1199 35.9776Z" fill="#F8FDFF"/>
<path d="M35.6255 35.6665C35.7811 35.7929 35.8686 35.5644 35.7616 35.4671C35.5881 35.2916 35.3789 35.1552 35.1483 35.0672C34.9177 34.9791 34.6709 34.9414 34.4245 34.9566C34.0253 35.1059 33.6356 35.2797 33.2576 35.4768L33.0826 35.5011C32.9688 35.4923 32.8563 35.4711 32.7471 35.4379C32.7409 35.4353 32.7343 35.4339 32.7276 35.4339C32.7209 35.4339 32.7143 35.4353 32.7082 35.4379C32.7052 35.444 32.7036 35.4506 32.7036 35.4574C32.7036 35.4641 32.7052 35.4708 32.7082 35.4768C32.7232 35.5031 32.7412 35.5275 32.7617 35.5498C32.8421 35.6173 32.9397 35.6611 33.0437 35.6762C33.5299 35.7394 33.9383 35.3407 34.4051 35.2191C34.6325 35.1848 34.8651 35.2151 35.0761 35.3067C35.2715 35.4002 35.4544 35.5178 35.6206 35.6567L35.6255 35.6665Z" fill="#061725"/>
</g>
</g>
<rect x="1" y="0.5" width="74" height="74" rx="37" stroke="#BBC1C7"/>
<defs>
<clipPath id="clip0_4170_1458">
<rect x="0.5" width="75" height="75" rx="37.5" fill="white"/>
</clipPath>
<clipPath id="clip1_4170_1458">
<rect width="58.8619" height="54.4373" fill="white" transform="translate(9.17529 21.775)"/>
</clipPath>
</defs>
</svg>
