<svg width="26" height="26" viewBox="0 0 26 26" fill="none" xmlns="http://www.w3.org/2000/svg">
<path d="M23.4649 12.8291L14.0313 3.40039L13.399 2.76807C13.2549 2.62494 13.0601 2.54462 12.857 2.54462C12.6539 2.54462 12.4591 2.62494 12.315 2.76807L2.24912 12.8291C2.1015 12.9761 1.98482 13.1513 1.90599 13.3442C1.82716 13.5371 1.78777 13.7438 1.79014 13.9521C1.79991 14.8115 2.51524 15.4975 3.37461 15.4975H4.41221V23.4492H21.3018V15.4975H22.3614C22.7789 15.4975 23.172 15.334 23.4674 15.0386C23.6128 14.8936 23.7281 14.7212 23.8064 14.5313C23.8848 14.3415 23.9247 14.138 23.9239 13.9326C23.9239 13.5176 23.7603 13.1245 23.4649 12.8291ZM14.2242 21.6914H11.4898V16.7109H14.2242V21.6914ZM19.544 13.7397V21.6914H15.7867V16.125C15.7867 15.5854 15.3497 15.1484 14.8102 15.1484H10.9039C10.3644 15.1484 9.92734 15.5854 9.92734 16.125V21.6914H6.17002V13.7397H3.82627L12.8595 4.71387L13.4234 5.27783L21.8902 13.7397H19.544Z" fill="#09263D"/>
</svg>
