<svg width="76" height="75" viewBox="0 0 76 75" fill="none" xmlns="http://www.w3.org/2000/svg">
<rect x="1" y="0.5" width="74" height="74" rx="37" fill="#F8FDFF"/>
<g clip-path="url(#clip0_4170_1569)">
<path opacity="0.15" d="M67.851 54.7052C67.851 55.118 67.7546 55.5138 67.5829 55.8057C67.4112 56.0976 67.1784 56.2616 66.9356 56.2616H11.0233C10.7805 56.2616 10.5477 56.0976 10.376 55.8057C10.2044 55.5138 10.1079 55.118 10.1079 54.7052C10.1079 54.2924 10.2044 53.8965 10.376 53.6046C10.5477 53.3127 10.7805 53.1487 11.0233 53.1487H66.9356C67.1784 53.1487 67.4112 53.3127 67.5829 53.6046C67.7546 53.8965 67.851 54.2924 67.851 54.7052Z" fill="#061725"/>
<path d="M10.4167 45.5643L10.0086 45.5065C9.87839 45.478 9.75806 45.3735 9.66812 45.2109C9.57819 45.0483 9.52423 44.8377 9.51547 44.615L9.32842 41.295C9.3115 41.0772 9.3407 40.8563 9.41079 40.6718C9.48089 40.4873 9.58731 40.3512 9.71101 40.2879L9.96891 40.1771L10.4167 45.5643Z" fill="#FFC55E"/>
<path d="M10.5808 45.7232L9.99136 45.6557L9.63428 40.0517L10.3683 40.0179L10.5808 45.7232Z" fill="#061725"/>
<path d="M10.5012 49.0337L9.84658 49.0578C9.76526 49.0627 9.68576 49.0161 9.62347 48.9271C9.56117 48.8381 9.52051 48.7129 9.50933 48.5759L9.35063 46.7545C9.34325 46.6739 9.34624 46.5916 9.35938 46.5132C9.37253 46.4348 9.39552 46.3621 9.42677 46.3003C9.45802 46.2385 9.49679 46.1889 9.5404 46.155C9.58401 46.1211 9.63142 46.1037 9.67937 46.1039H10.5579L10.7563 48.5133C10.7619 48.5766 10.7596 48.6411 10.7495 48.7028C10.7393 48.7644 10.7216 48.8217 10.6975 48.8709C10.6734 48.9201 10.6435 48.96 10.6097 48.9881C10.5758 49.0161 10.5389 49.0317 10.5012 49.0337Z" fill="#DAD1D1"/>
<path d="M41.854 24.9839H42.5398C42.6045 24.9842 42.6669 25.0244 42.7154 25.0971C42.7639 25.1698 42.7951 25.27 42.8034 25.379L43.1038 29.2339H41.29L41.5904 25.379C41.5987 25.27 41.63 25.1698 41.6785 25.0971C41.727 25.0244 41.7894 24.9842 41.854 24.9839Z" fill="#061725"/>
<path d="M68.018 44.8174H67.9047C67.7941 44.8174 67.6921 44.5331 67.6666 44.1332L67.5136 41.7239C67.4881 41.2757 67.5674 40.8806 67.6864 40.8661H67.7686C67.8735 40.8661 67.9755 41.136 68.0039 41.5215L68.1881 43.9308C68.2249 44.3693 68.1427 44.7981 68.018 44.8174Z" fill="#E94E1B"/>
<path d="M65.9291 49.4047L59.6801 50.142L59.3485 50.1805L58.5635 50.2721H15.4864L11.8589 49.4818C11.4787 49.4003 11.1254 49.106 10.8544 48.6454C10.5835 48.1847 10.4104 47.5839 10.3625 46.9376L9.96007 40.3409C9.83537 38.6688 10.5722 38.3652 11.5613 38.2785L27.9192 36.8907C28.523 36.8299 29.1019 36.4604 29.58 35.8306L34.378 29.5664C34.7028 29.1415 35.1017 28.9126 35.5116 28.9159H49.6306C51.0014 28.9163 52.318 29.8256 53.3007 31.4505L55.3837 34.9103C55.6392 35.3344 55.9608 35.6253 56.3104 35.7487L66.7679 39.4253C67.0128 39.5124 67.2351 39.7289 67.4031 40.044C67.5711 40.3591 67.6761 40.7565 67.7032 41.1793L67.9696 45.2703C68.0015 45.7716 67.9736 46.2786 67.8874 46.761C67.8011 47.2434 67.6584 47.6911 67.4678 48.0773C67.2772 48.4636 67.0426 48.7802 66.7782 49.0083C66.5138 49.2365 66.2249 49.3713 65.9291 49.4047Z" fill="#061725"/>
<path opacity="0.75" d="M26.9022 37.7917L11.5985 39.0927C11.2556 39.1216 10.3232 39.1795 10.4479 40.5046L10.8532 46.8363C10.5953 39.6083 11.1026 40.0179 12.8965 39.777L26.9022 37.7917Z" fill="#F6F6F6"/>
<path opacity="0.75" d="M67.4877 45.3522L67.2241 41.2612C67.208 41.0067 67.1442 40.7677 67.0421 40.5794C66.9401 40.3912 66.8052 40.2636 66.6573 40.2156L56.2791 36.3607C56.2115 36.3852 56.1465 36.4275 56.0864 36.4859C66.1925 40.5143 66.663 40.2156 67.4877 45.3522Z" fill="#F6F6F6"/>
<path d="M28.5742 41.613L28.9455 46.1859L29.2147 49.4722H41.9678L41.7751 46.1859L41.4917 41.319L41.5115 40.8661L41.9706 29.735H35.5062C35.1993 29.7315 34.9003 29.9009 34.656 30.2169L29.8722 36.4859C29.6674 36.7503 29.447 36.9779 29.2147 37.1654L28.6819 40.8516L28.5742 41.613Z" fill="white"/>
<path d="M40.8565 38.4375H38.731V39.5892H40.8565V38.4375Z" fill="#061725"/>
<path d="M67.9502 45.2462L67.9785 45.7714H66.6749C66.3572 45.7727 66.0527 45.9879 65.828 46.3699C65.6034 46.7518 65.4768 47.2695 65.4761 47.8097C65.4761 47.8097 68.3101 47.617 68.3101 47.617C68.3875 47.6176 68.4642 47.5923 68.5359 47.5425C68.6076 47.4928 68.6728 47.4195 68.7278 47.3268C68.7828 47.2342 68.8265 47.1241 68.8565 47.0027C68.8864 46.8814 68.902 46.7512 68.9024 46.6195C68.9024 46.4991 68.9024 46.3882 68.8854 46.2774C68.8699 45.9954 68.793 45.7333 68.6698 45.5426C68.5466 45.3519 68.386 45.2462 68.2194 45.2462H67.9502Z" fill="#DAD1D1"/>
<path d="M11.7031 48.518H10.0027C9.93035 48.5184 9.86016 48.4765 9.80389 48.3993C9.74763 48.3221 9.70873 48.2142 9.69375 48.094L9.59173 47.2989C9.58206 47.2206 9.58276 47.1396 9.59377 47.0618C9.60479 46.9839 9.62584 46.9113 9.65541 46.849C9.68498 46.7867 9.72232 46.7364 9.76473 46.7017C9.80715 46.667 9.85357 46.6488 9.90063 46.6484H11.601C11.6732 46.6488 11.7431 46.6911 11.7993 46.7681C11.8555 46.8452 11.8945 46.9525 11.91 47.0724L12.012 47.8675C12.0216 47.9458 12.0209 48.0268 12.0099 48.1046C11.9989 48.1824 11.9779 48.2551 11.9483 48.3174C11.9187 48.3796 11.8814 48.4299 11.839 48.4646C11.7966 48.4993 11.7501 48.5176 11.7031 48.518Z" fill="#DAD1D1"/>
<path d="M25.0459 50.2865H16.4673L16.7053 47.988C16.7795 47.2687 16.9534 46.5898 17.2126 46.0076C17.4662 45.4437 17.7925 44.9863 18.1664 44.6705C18.5403 44.3548 18.9518 44.189 19.3693 44.1861H21.9681C22.7043 44.1788 23.4142 44.6513 23.9519 45.5064C24.4267 46.2405 24.7447 47.2218 24.856 48.2964L25.0459 50.2865Z" fill="#061725"/>
<path d="M59.6804 50.1421L59.3488 50.1806L59.0286 50.2192L58.5638 50.277H51.1104L51.3087 48.3784L51.3512 47.9785C51.4217 47.2879 51.5847 46.6342 51.8274 46.0677C52.0702 45.5012 52.3862 45.0372 52.7512 44.7114C53.0893 44.404 53.4625 44.2248 53.8452 44.1862H54.0152H56.6055C57.2929 44.1893 57.9579 44.6023 58.4846 45.3535C59.0113 46.1046 59.3663 47.1461 59.4877 48.2965L59.6804 50.1421Z" fill="#061725"/>
<path d="M53.261 36.3123L51.0137 30.954C50.8585 30.5752 50.6522 30.2651 50.4121 30.0497C50.1719 29.8342 49.905 29.7197 49.6335 29.7156H42.4521L41.993 40.8466L41.9731 41.2996L42.2565 46.1664L42.4493 49.4527H49.9906C50.0539 48.2994 50.2565 47.1806 50.5857 46.1664C50.8987 45.1788 51.3232 44.3058 51.8347 43.5972C52.3463 42.8886 52.935 42.3584 53.5671 42.0368V40.8466L53.5898 38.1337C53.5984 37.4822 53.4831 36.8434 53.261 36.3123Z" fill="#061725"/>
<path d="M48.5737 36.3123L47.3012 30.954C47.1198 30.1926 46.8336 29.7156 46.5219 29.7156H42.4664L42.2085 40.8466V41.2996L42.37 46.1664L42.4777 49.4527H46.7287C46.76 48.3376 46.8733 47.2336 47.066 46.1664C47.4146 44.2052 48.0154 42.7066 48.7494 42.0368V40.8466V38.1337C48.7592 37.5131 48.6996 36.895 48.5737 36.3123Z" fill="#C99029"/>
<path d="M41.9732 41.3045L42.1348 46.1713L42.2453 49.4577H46.4963C46.529 48.3428 46.6423 47.2391 46.8336 46.1713C47.1822 44.2102 47.783 42.7116 48.517 42.0418V40.8516V38.1387C48.5235 37.5164 48.459 36.8978 48.3271 36.3172L47.0546 30.9589C46.8761 30.1976 46.587 29.7205 46.2753 29.7205H42.2226L41.9619 40.8516L41.9732 41.3045Z" fill="white"/>
<path d="M46.859 31.4312C46.723 30.8675 46.5161 30.535 46.2922 30.5302H42.4946L42.3359 37.2762H48.208L46.859 31.4312Z" fill="#061725"/>
<path d="M48.2109 38.4375H47.0093V39.5892H48.2109V38.4375Z" fill="#061725"/>
<g opacity="0.75">
<path opacity="0.75" d="M44.8579 30.8287L43.2822 37.0785H44.5292L46.1191 30.8287H44.8579Z" fill="white"/>
<path opacity="0.75" d="M44.2943 30.8288L42.7271 37.0786H43.1295L44.6995 30.8288H44.2943Z" fill="white"/>
</g>
<path d="M57.7502 49.0963C57.7502 49.8883 57.6121 50.6625 57.3533 51.321C57.0945 51.9795 56.7267 52.4927 56.2964 52.7958C55.866 53.0989 55.3925 53.1782 54.9357 53.0237C54.4788 52.8692 54.0592 52.4878 53.7298 51.9278C53.4005 51.3678 53.1762 50.6543 53.0853 49.8775C52.9944 49.1008 53.0411 48.2957 53.2193 47.564C53.3976 46.8323 53.6994 46.2069 54.0867 45.7669C54.474 45.3269 54.9293 45.092 55.3951 45.092C56.0197 45.092 56.6187 45.5139 57.0604 46.2649C57.5021 47.0158 57.7502 48.0343 57.7502 49.0963Z" fill="#DAD1D1"/>
<path d="M58.1699 44.9523C57.7022 44.4474 57.1595 44.1799 56.6055 44.1813H54.0152C53.5734 44.1782 53.1381 44.362 52.7484 44.7162C52.0781 45.8856 51.7029 47.4538 51.7027 49.0867C51.7008 49.9113 51.7947 50.7285 51.979 51.4913C52.1633 52.2541 52.4344 52.9475 52.7767 53.5317C53.119 54.116 53.5258 54.5796 53.9737 54.8959C54.4216 55.2122 54.9019 55.375 55.3869 55.375C56.2527 55.379 57.0916 54.8644 57.7565 53.9216C58.4214 52.9787 58.8698 51.6679 59.0229 50.2191C59.0628 49.8503 59.0827 49.4761 59.0824 49.1011C59.0872 47.5749 58.7625 46.0987 58.1699 44.9523ZM53.2302 50.2528C53.158 49.8714 53.1216 49.4729 53.1225 49.0722C53.1225 48.0498 53.3614 47.0693 53.7866 46.3464C54.2117 45.6235 54.7884 45.2173 55.3897 45.2173C55.991 45.2173 56.5677 45.6235 56.9929 46.3464C57.4181 47.0693 57.6569 48.0498 57.6569 49.0722C57.6573 49.4697 57.621 49.8649 57.5492 50.2432C57.4057 51.0288 57.1182 51.7158 56.7286 52.2036C56.339 52.6915 55.8679 52.9547 55.3841 52.9547C54.9002 52.9547 54.4291 52.6915 54.0395 52.2036C53.6499 51.7158 53.3624 51.0288 53.2189 50.2432L53.2302 50.2528Z" fill="#061725"/>
<path d="M57.1096 49.0962C57.1096 49.6738 57.0089 50.2383 56.8202 50.7186C56.6315 51.1988 56.3633 51.573 56.0494 51.7941C55.7356 52.0151 55.3903 52.0729 55.0572 51.9602C54.724 51.8475 54.418 51.5694 54.1778 51.161C53.9376 50.7527 53.7741 50.2324 53.7078 49.6659C53.6415 49.0995 53.6755 48.5123 53.8055 47.9788C53.9355 47.4452 54.1556 46.9891 54.4381 46.6683C54.7205 46.3474 55.0525 46.1761 55.3922 46.1761C55.8477 46.1761 56.2845 46.4838 56.6066 47.0314C56.9287 47.579 57.1096 48.3218 57.1096 49.0962Z" fill="white"/>
<path d="M56.4297 49.0963C56.4291 49.444 56.3679 49.7835 56.2539 50.0721C56.1399 50.3607 55.9782 50.5854 55.7891 50.7178C55.6001 50.8502 55.3922 50.8843 55.1917 50.8159C54.9912 50.7475 54.8072 50.5796 54.6628 50.3335C54.5184 50.0873 54.4202 49.7739 54.3805 49.4329C54.3408 49.0918 54.3615 48.7384 54.4399 48.4173C54.5182 48.0962 54.6508 47.8218 54.8209 47.6288C54.9909 47.4357 55.1908 47.3327 55.3952 47.3327C55.5313 47.3327 55.6661 47.3784 55.7917 47.4671C55.9174 47.5557 56.0316 47.6857 56.1277 47.8496C56.2238 48.0134 56.2999 48.2078 56.3517 48.4218C56.4035 48.6357 56.43 48.865 56.4297 49.0963Z" fill="#DAD1D1"/>
<path opacity="0.5" d="M54.4969 45.9161C54.137 46.2148 53.8343 46.681 53.624 47.2605L55.3953 49.0675L54.4969 45.9161Z" fill="white"/>
<path opacity="0.5" d="M55.4092 49.0674L56.3161 52.2621C56.6804 51.9613 56.9848 51.4855 57.1918 50.8936L55.4092 49.0674Z" fill="white"/>
<path d="M29.1323 41.6033L29.5036 46.1714H41.2903L41.0069 41.3046L41.0267 40.8564H29.24L29.1323 41.6033Z" fill="#061725"/>
<path d="M37.884 41.7527H36.7476V43.685H37.884V41.7527Z" fill="#061725"/>
<path d="M36.7502 43.6849H35.6138V45.6172H36.7502V43.6849Z" fill="#061725"/>
<path d="M35.6164 41.7527H34.48V43.685H35.6164V41.7527Z" fill="#061725"/>
<path d="M34.4826 43.6849H33.3462V45.6172H34.4826V43.6849Z" fill="#061725"/>
<path d="M33.3493 41.7527H32.2129V43.685H33.3493V41.7527Z" fill="#061725"/>
<g style="mix-blend-mode:multiply" opacity="0.15">
<path d="M68.2132 45.2462H67.9638L67.8306 43.2031L9.42435 46.3111C9.39393 46.3715 9.37158 46.4424 9.35886 46.519C9.34613 46.5955 9.34334 46.6759 9.35067 46.7544L9.50937 48.5759C9.52054 48.7129 9.56121 48.838 9.62351 48.927C9.6858 49.016 9.7653 49.0626 9.84662 49.0577L10.5013 49.0336C10.5386 49.0315 10.5753 49.0161 10.6089 48.9883C10.6425 48.9606 10.6723 48.9211 10.6964 48.8725C10.7204 48.8238 10.7382 48.7672 10.7485 48.7061C10.7589 48.645 10.7615 48.5809 10.7563 48.518H10.796C11.0714 49.0521 11.4527 49.3951 11.8673 49.4817L15.4948 50.2865H17.13C17.2813 51.7354 17.7277 53.0475 18.391 53.9928C19.0543 54.938 19.8921 55.4561 20.7576 55.4561C21.6231 55.4561 22.4609 54.938 23.1242 53.9928C23.7875 53.0475 24.2339 51.7354 24.3851 50.2865H51.7674C51.9193 51.7401 52.3682 53.0559 53.0351 54.0015C53.7019 54.9472 54.5438 55.462 55.4121 55.455C56.2804 55.4481 57.1194 54.92 57.781 53.9637C58.4426 53.0075 58.8843 51.6847 59.0282 50.2286H59.1529L59.3484 50.2045L59.68 50.166L65.929 49.4287C66.2729 49.3868 66.6062 49.2074 66.9017 48.9051C67.1971 48.6029 67.4465 48.1863 67.6294 47.6892L68.2982 47.641C68.3756 47.6417 68.4524 47.6164 68.524 47.5666C68.5957 47.5168 68.6609 47.4435 68.7159 47.3509C68.7709 47.2583 68.8146 47.1481 68.8446 47.0268C68.8745 46.9054 68.8902 46.7752 68.8905 46.6436C68.8905 46.5231 68.8905 46.4123 68.8735 46.3063C68.8621 46.0207 68.7878 45.753 68.6654 45.5565C68.543 45.36 68.3815 45.2492 68.2132 45.2462Z" fill="#061725"/>
</g>
<path d="M23.1015 49.0963C23.1021 49.8897 22.9642 50.6655 22.7053 51.3255C22.4465 51.9855 22.0782 52.5001 21.6473 52.8042C21.2163 53.1082 20.742 53.188 20.2843 53.0335C19.8267 52.8789 19.4063 52.497 19.0764 51.936C18.7464 51.3751 18.5218 50.6603 18.4309 49.8821C18.34 49.104 18.387 48.2975 18.5658 47.5647C18.7446 46.8319 19.0472 46.2059 19.4354 45.7657C19.8236 45.3255 20.2799 45.0911 20.7465 45.092C21.0557 45.092 21.362 45.1956 21.6477 45.3969C21.9334 45.5981 22.1931 45.893 22.4118 46.2649C22.6304 46.6367 22.8039 47.0781 22.9223 47.564C23.0406 48.0498 23.1015 48.5705 23.1015 49.0963Z" fill="#DAD1D1"/>
<path d="M23.5406 44.986C23.0727 44.4663 22.5266 44.1869 21.9677 44.1813H19.3689C18.9339 44.1792 18.5051 44.3561 18.1191 44.6969C17.4419 45.868 17.0623 47.4444 17.062 49.0867C17.0614 49.4847 17.0842 49.8818 17.13 50.2721C17.2401 51.2114 17.4754 52.0953 17.8178 52.8558C18.1602 53.6164 18.6006 54.2332 19.1051 54.6591C19.6097 55.085 20.165 55.3084 20.7283 55.3123C21.2916 55.3162 21.8479 55.1005 22.3545 54.6816C22.861 54.2627 23.3044 53.6519 23.6504 52.8962C23.9964 52.1404 24.2359 51.2598 24.3505 50.322C24.465 49.3843 24.4516 48.4143 24.3112 47.4868C24.1708 46.5592 23.9072 45.6988 23.5406 44.9716V44.986ZM18.5896 50.2865C18.5187 49.9045 18.4824 49.5065 18.4819 49.1059C18.4819 48.5997 18.5405 48.0984 18.6544 47.6307C18.7684 47.163 18.9354 46.7381 19.1459 46.3801C19.3564 46.0222 19.6064 45.7382 19.8815 45.5445C20.1565 45.3507 20.4513 45.251 20.7491 45.251C21.0468 45.251 21.3416 45.3507 21.6167 45.5445C21.8918 45.7382 22.1417 46.0222 22.3522 46.3801C22.5628 46.7381 22.7298 47.163 22.8437 47.6307C22.9576 48.0984 23.0163 48.5997 23.0163 49.1059C23.0167 49.5034 22.9804 49.8986 22.9086 50.2769C22.7658 51.0644 22.4784 51.7533 22.0885 52.2427C21.6985 52.7321 21.2266 52.9962 20.742 52.9962C20.2573 52.9962 19.7854 52.7321 19.3955 52.2427C19.0056 51.7533 18.7182 51.0644 18.5754 50.2769L18.5896 50.2865Z" fill="#061725"/>
<path d="M22.4757 49.0962C22.4762 49.6751 22.3757 50.2413 22.1869 50.723C21.9981 51.2048 21.7295 51.5804 21.415 51.8024C21.1006 52.0244 20.7545 52.0827 20.4205 51.97C20.0865 51.8573 19.7798 51.5786 19.539 51.1693C19.2983 50.7599 19.1344 50.2383 19.0681 49.6705C19.0018 49.1027 19.0361 48.5142 19.1666 47.9795C19.2972 47.4449 19.5181 46.9881 19.8015 46.6671C20.0848 46.346 20.4178 46.1752 20.7582 46.1762C21.2135 46.1774 21.6499 46.4855 21.9718 47.0328C22.2937 47.5802 22.4749 48.3222 22.4757 49.0962Z" fill="white"/>
<path d="M21.7923 49.0963C21.7923 49.4454 21.7314 49.7865 21.6173 50.0767C21.5032 50.3668 21.341 50.5928 21.1513 50.7262C20.9616 50.8595 20.7529 50.8942 20.5516 50.8257C20.3503 50.7573 20.1655 50.5888 20.0206 50.3417C19.8756 50.0946 19.7771 49.7799 19.7374 49.4374C19.6977 49.095 19.7186 48.7403 19.7975 48.4181C19.8765 48.0959 20.0099 47.8208 20.1808 47.6276C20.3518 47.4344 20.5526 47.3318 20.7579 47.3327C21.0325 47.334 21.2956 47.5204 21.4895 47.851C21.6834 48.1816 21.7923 48.6294 21.7923 49.0963Z" fill="#DAD1D1"/>
<path opacity="0.5" d="M19.8597 45.9161C19.4993 46.2135 19.1964 46.68 18.9868 47.2605L20.7553 49.0675L19.8597 45.9161Z" fill="white"/>
<path opacity="0.5" d="M20.7549 49.0674L21.6646 52.2621C22.0268 51.9598 22.3292 51.4841 22.5346 50.8936L20.7549 49.0674Z" fill="white"/>
<path d="M32.5473 36.5391L31.5611 36.8667C30.8781 36.1969 31.2777 36.5824 30.7789 36.0909L29.2627 37.0547L30.4331 40.4277H33.8708L33.5874 39.1942H32.9866L32.7825 38.7894L32.8506 37.3004L32.5473 36.5391Z" fill="#061725"/>
<path d="M38.0737 34.3851L38.1219 35.2332L38.1758 36.197L38.2098 36.7945C38.5839 37.498 39.06 36.2837 39.3434 35.8307L39.3689 34.1972L38.0737 34.3851Z" fill="#FFAE80"/>
<g style="mix-blend-mode:multiply" opacity="0.4">
<path d="M38.1216 35.2187L38.1754 36.1824C38.3366 36.0791 38.4823 35.9161 38.6019 35.7053C38.7215 35.4944 38.812 35.241 38.8669 34.9633L38.1216 35.2187Z" fill="#FFAE80"/>
</g>
<path d="M39.8026 33.2334C39.7374 33.643 39.488 34.0526 39.4341 34.361C39.3803 34.6693 38.6236 35.2428 38.3629 35.4018C38.2531 35.479 38.1323 35.4992 38.0158 35.4598C37.8993 35.4203 37.7922 35.323 37.7082 35.1801C37.6175 34.9344 37.6317 34.6982 37.7082 33.7634H37.5892C37.5735 33.7525 37.5593 33.7357 37.5478 33.7145C37.5363 33.6932 37.5276 33.6679 37.5225 33.6403C37.5174 33.6127 37.5159 33.5836 37.5181 33.5549C37.5203 33.5262 37.5262 33.4987 37.5354 33.4743L37.6204 33.2382L37.7111 32.9828L37.7479 32.8913C37.7479 32.8913 37.7281 32.7804 37.7139 32.6503C37.7126 32.6279 37.7126 32.6053 37.7139 32.5829C37.7279 32.4835 37.7449 32.3853 37.7649 32.2889C37.8082 32.0889 37.8683 31.9006 37.9435 31.73C38.0477 31.4976 38.1872 31.3178 38.3469 31.21C38.5067 31.1022 38.6807 31.0704 38.8503 31.118C39.2754 31.2529 39.9669 31.3589 39.8026 33.2334Z" fill="#FFAE80"/>
<g style="mix-blend-mode:multiply" opacity="0.4">
<path d="M38.873 32.5107L38.8334 32.7805L37.6289 33.2624L37.7196 33.007L37.7564 32.9155C37.7564 32.9155 37.7366 32.8046 37.7224 32.6745C37.7212 32.6521 37.7212 32.6295 37.7224 32.6071L38.873 32.5107Z" fill="#FFAE80"/>
</g>
<path d="M39.3632 34.7899C38.5923 34.8332 39.162 33.5225 39.162 33.5225C39.162 33.5225 39.1138 33.1949 39.0401 33.3009C38.9514 33.2529 38.8644 33.1966 38.7794 33.1322C38.9154 32.2215 39.1308 31.2723 38.2324 31.3349C38.2608 31.0024 38.5867 30.853 39.0004 30.9398C39.1301 30.9538 39.2568 31.0113 39.3733 31.1089C39.4898 31.2064 39.5938 31.3422 39.6794 31.5083C39.765 31.6744 39.8304 31.8676 39.872 32.0768C39.9135 32.286 39.9304 32.5072 39.9215 32.7275C39.8932 33.2768 39.8932 33.59 39.3632 34.7899Z" fill="#061725"/>
<path d="M39.7541 39.5797C39.6838 40.4239 39.6516 41.2761 39.6577 42.1287H37.127C37.127 42.0516 37.127 41.9697 37.127 41.8926C37.127 41.5408 37.127 41.2084 37.1468 40.9289C37.1468 40.8903 37.1468 40.8518 37.1468 40.8181C37.1468 40.6446 37.1468 40.4952 37.1468 40.3747C37.1468 40.2543 37.1468 40.076 37.1468 40.0712C37.1483 40.0359 37.1483 40.0004 37.1468 39.9651C37.1804 39.5295 37.2383 39.1004 37.3197 38.6834C37.496 37.7688 37.7751 36.9211 38.1415 36.1873C38.1415 36.1873 39.2751 35.532 39.3148 35.5705C39.491 35.7518 39.637 36.0069 39.7387 36.3115C39.8404 36.616 39.8945 36.9599 39.8958 37.3101C39.8929 38.2931 39.8221 38.8617 39.7541 39.5797Z" fill="#5E4A4C"/>
<path d="M39.2754 33.6814C39.2442 33.9753 39.0628 34.2693 38.9495 34.2307C38.8361 34.1922 38.8758 33.9657 38.907 33.6717C38.924 33.479 38.9268 33.1899 39.0572 33.1899C39.1875 33.1899 39.3207 33.2525 39.2754 33.6814Z" fill="#FFAE80"/>
<g style="mix-blend-mode:multiply" opacity="0.5">
<path d="M38.6888 40.3651L38.3289 42.1287H37.1357C37.1357 42.0516 37.1357 41.9697 37.1357 41.8926C37.1357 41.5409 37.1357 41.2084 37.1556 40.9289C37.1556 40.8903 37.1556 40.8518 37.1556 40.8181C37.1556 40.6446 37.1556 40.4952 37.1556 40.3748C37.1556 40.2543 37.1556 40.076 37.1556 40.0712C37.1571 40.0359 37.1571 40.0005 37.1556 39.9652C37.1892 39.5296 37.247 39.1004 37.3285 38.6834L37.8272 37.5558L39.0005 38.6545L38.839 39.4592L38.6888 40.3651Z" fill="#5589B9"/>
</g>
<path d="M38.8812 39.0495L36.6139 41.1505L35.8091 39.329L38.167 37.0161C38.4731 36.698 39.1164 36.4716 39.3403 37.1606C39.3488 37.1606 39.7144 38.293 38.8812 39.0495Z" fill="#5E4A4C"/>
<path d="M37.3567 41.0685L37.3255 41.1119L37.2943 41.1456C37.2578 41.1875 37.2189 41.223 37.1781 41.2516C37.0558 41.3382 36.9229 41.3725 36.791 41.3515C36.6591 41.3305 36.5322 41.2548 36.4214 41.1311L36.2996 41.0203L34.7239 39.5747L34.1089 39.0928L34.2081 37.6906L35.2595 38.2399L36.6963 39.0254L36.9089 39.141L37.0988 39.247C37.2609 39.3247 37.3985 39.5079 37.4818 39.7568C37.565 40.0057 37.5873 40.3004 37.5437 40.577C37.5141 40.7708 37.4485 40.9432 37.3567 41.0685Z" fill="#5E4A4C"/>
<path d="M39.3379 40.8323H41.6958L42.3731 34.9198H41.1687C40.8441 34.9209 40.5298 35.1137 40.2796 35.4653C40.0294 35.8169 39.8588 36.3054 39.797 36.8473L39.3379 40.8323Z" fill="#061725"/>
<path d="M33.834 37.9798L33.4684 36.9679L33.0064 36.6451L33.3182 37.4643L32.8506 37.6184L32.5898 36.9294L32.6125 38.3461L33.0886 39.0496L33.7546 39.252L33.834 37.9798Z" fill="#FFAE80"/>
<path d="M33.5873 38.1099L33.3039 38.4376L32.2157 35.6138C32.203 35.5813 32.1943 35.5449 32.19 35.5066C32.1858 35.4684 32.186 35.429 32.1908 35.3909C32.1955 35.3528 32.2047 35.3167 32.2177 35.2846C32.2307 35.2526 32.2474 35.2253 32.2667 35.2043C32.2859 35.1817 32.3077 35.1659 32.3306 35.1578C32.3535 35.1496 32.3771 35.1494 32.4001 35.157C32.423 35.1647 32.4449 35.18 32.4643 35.2022C32.4837 35.2244 32.5004 35.2529 32.5132 35.2862L33.5873 38.1099Z" fill="#061725"/>
<path d="M37.3141 32.607C37.3566 32.6456 39.9157 32.4287 39.9157 32.4287C39.9157 32.4287 40.0092 31.3638 39.774 31.1229C38.7084 30.0242 37.5068 31.8264 37.3991 32.0577C37.2914 32.289 37.5436 32.3468 37.5436 32.3468C37.5436 32.3468 37.2716 32.5636 37.3141 32.607Z" fill="#061725"/>
<path d="M41.1828 37.4497H30.0564C30.0327 37.4504 30.0095 37.4382 29.9902 37.4148C29.9709 37.3914 29.9565 37.358 29.9492 37.3197C29.9419 37.2813 29.9421 37.24 29.9496 37.2018C29.9572 37.1636 29.9718 37.1306 29.9912 37.1075L30.0309 37.0593C30.0537 37.0364 30.0755 37.0107 30.0961 36.9823L34.8969 30.6939C35.0717 30.4658 35.2859 30.3421 35.5062 30.3422H41.4577C41.4732 30.3422 41.4885 30.3478 41.5027 30.3586C41.5168 30.3694 41.5295 30.3851 41.5398 30.4048C41.55 30.4235 41.5578 30.4455 41.5627 30.4696C41.5676 30.4937 41.5694 30.5192 41.5682 30.5446L41.2848 37.2906C41.281 37.3329 41.2688 37.3718 41.2502 37.4007C41.2317 37.4296 41.2079 37.4469 41.1828 37.4497ZM30.388 37.0738H41.0807L41.3443 30.718H35.5062C35.3342 30.7198 35.1672 30.8161 35.0301 30.9927L30.388 37.0738Z" fill="#061725"/>
<path d="M31.5096 34.8669H31.4275C31.2997 34.8938 31.1798 34.9861 31.0837 35.1315C30.9875 35.277 30.9196 35.4687 30.889 35.6812L30.7926 36.3269L30.1465 37.3437L30.8805 37.7051C30.9633 37.9146 31.0786 38.0809 31.2137 38.1856C31.3488 38.2902 31.4984 38.329 31.6457 38.2977L31.759 38.2737L31.5096 34.8669Z" fill="#061725"/>
<path d="M54.8766 27.4557C55.4434 28.6363 55.6673 30.636 55.9026 32.3418C55.9407 32.6029 55.931 32.8775 55.8748 33.129C55.8185 33.3805 55.7185 33.5967 55.588 33.7488C55.0908 34.2454 54.5164 34.4724 53.9414 34.3993L54.8766 27.4557Z" fill="#061725"/>
<g style="mix-blend-mode:multiply" opacity="0.3">
<path d="M54.8767 29.0845C55.1601 30.4771 54.9334 32.0335 55.3216 32.7466C54.6557 33.1659 54.0208 33.1177 53.4087 34.1103C54.137 32.4575 54.8767 29.0845 54.8767 29.0845Z" fill="#456F96"/>
</g>
<path d="M54.2755 54.9027C54.2755 54.9316 54.2755 54.9702 54.2755 55.0039H52.8585V54.9653C52.8571 54.9526 52.8571 54.9395 52.8585 54.9268V54.9027C52.8653 54.7915 52.8786 54.6818 52.8981 54.575C52.9264 54.4207 52.9829 54.2857 53.0593 54.1895C53.1357 54.0933 53.2282 54.041 53.3232 54.0402C53.395 54.0326 53.4669 54.0326 53.5386 54.0402H53.5953C53.9326 54.0402 54.2103 54.0932 54.2641 54.681C54.2719 54.7542 54.2757 54.8284 54.2755 54.9027Z" fill="#061725"/>
<path d="M54.2759 54.9026V55.0038V55.2784H52.8589V55.0038V54.9219L54.2759 54.9026Z" fill="#061725"/>
<path d="M51.2602 54.7629C51.2602 54.8063 51.2602 54.8544 51.2602 54.9026V55.0038H48.959C48.959 54.9604 48.959 54.9315 48.959 54.9026C49.0242 54.3388 49.4379 54.0497 49.9027 53.9389C50.2422 53.8618 50.5863 53.8618 50.9258 53.9389C51.01 53.9597 51.0934 53.9903 51.1752 54.0304C51.2177 54.0449 51.2772 54.0835 51.2602 54.7629Z" fill="#061725"/>
<path d="M51.2548 54.9026V55.0038V55.2784H48.9536V55.0038V54.9026H51.2548Z" fill="#061725"/>
<path d="M54.3837 54.4402C54.3837 54.5414 54.3355 54.6137 54.2618 54.6618C54.0818 54.743 53.8948 54.7707 53.7092 54.7438H53.5817C53.3526 54.7105 53.1246 54.6575 52.8987 54.5848L52.7258 54.5269L52.6068 48.6337V48.4024L52.5501 45.7136L52.091 40.5432V40.4276L51.5979 45.5643V45.6558C51.5979 46.8894 51.6262 48.229 51.6347 49.5107C51.6347 51.5538 51.6149 53.5054 51.3683 54.8112L51.3286 54.7871C51.3097 54.7666 51.2898 54.7489 51.2691 54.7341C51.1614 54.6667 51.0367 54.604 50.9007 54.5414C50.5543 54.421 50.2208 54.2114 49.9116 53.9198C49.9116 53.9198 50.0533 45.7811 50.0533 45.7811L50.2035 41.2998L50.2262 40.6444L50.2715 39.2615V39.2133L50.2999 38.3459L50.3367 37.2328L50.3566 36.698V36.4859V36.1294V35.768V35.3343H54.276C54.276 35.4933 54.276 35.6475 54.293 35.8162C54.31 35.9848 54.293 36.033 54.293 36.139C54.2952 36.5219 54.2857 36.9046 54.2647 37.2858C54.2647 37.3485 54.2647 37.4111 54.2647 37.4689C54.2391 37.8433 54.2013 38.2149 54.1513 38.582C54.1371 38.6929 54.1201 38.7989 54.1031 38.9049C54.0861 39.0109 54.055 39.2326 54.0238 39.3868V39.7578C54.0238 39.9072 54.0238 40.0662 54.0238 40.2397L54.0436 40.8998L54.0606 41.5166C54.1003 42.8803 54.1343 44.191 54.1286 45.1884C54.1286 45.2896 54.1286 45.386 54.1286 45.4823C54.1286 45.8534 54.1428 46.4461 54.174 47.1592C54.276 49.5493 54.5084 53.2596 54.3837 54.4402Z" fill="#5E4A4C"/>
<path opacity="0.5" d="M54.2532 37.4929C54.2249 37.8736 54.188 38.2446 54.1399 38.6012C54.1257 38.7072 54.1087 38.8132 54.0945 38.9192C54.0803 39.0252 54.0435 39.2517 54.0123 39.4011C54.0123 39.6757 54.0265 39.9552 54.0322 40.2347L54.052 40.8949L54.069 41.5116C53.6921 41.4635 53.2358 41.4731 52.7625 41.5116C52.6167 42.1441 52.5765 42.8328 52.6463 43.5017C52.6554 43.789 52.6878 44.0728 52.7427 44.345C52.7702 44.4822 52.8141 44.6083 52.8716 44.7153C52.9292 44.8223 52.9992 44.9078 53.0771 44.9666C52.9157 45.2358 52.8086 45.585 52.771 45.9641C52.7346 46.3402 52.7137 46.7202 52.7087 47.1013C52.6917 47.6169 52.652 48.1276 52.6067 48.6336V48.4023L52.5528 45.7135L52.0937 40.5383V40.4274L51.6006 45.5641V45.6508C51.6006 46.8892 51.6289 48.2288 51.6374 49.5298C51.6374 49.5298 51.6374 49.5732 51.6374 49.5973C51.6091 49.1155 51.5892 48.6047 51.5751 48.1035C51.575 47.8711 51.5579 47.6396 51.5241 47.4145C51.4986 47.2699 51.4617 47.1302 51.4305 46.9808C51.3285 46.4652 51.3569 45.8821 51.201 45.4051C51.1852 45.3655 51.1736 45.3215 51.167 45.275C51.1667 45.2202 51.1735 45.1659 51.1868 45.116C51.4276 43.9713 51.5185 42.7511 51.4532 41.5406C51.0364 41.5489 50.6202 41.4811 50.2119 41.3382L50.2346 40.6828L50.2828 39.2372L50.3111 38.3699L50.3479 37.2568C51.0451 37.2568 51.7423 37.4158 52.4394 37.4736C53.0346 37.5266 53.6439 37.4833 54.2532 37.4929Z" fill="#061725"/>
<path d="M52.6576 25.3934L52.2779 25.2922L52.2212 25.909L52.6378 25.8897L52.6576 25.3934Z" fill="#EBB677"/>
<path d="M53.7967 25.9427L53.8647 23.8707C53.3432 23.8418 52.646 23.7791 52.527 23.731C52.527 23.731 52.4703 25.2344 52.4136 25.8752C52.1813 27.5232 53.3234 27.7593 53.7967 25.9427Z" fill="#FFAE80"/>
<path d="M54.0235 24.2658C54.1315 23.9643 54.1975 23.6248 54.2162 23.2732C54.3551 21.2638 53.6494 21.3746 53.2215 21.259C52.7085 21.1674 52.1757 21.63 52.0312 22.9551C52.0403 23.0399 52.0526 23.1236 52.068 23.2057L51.8328 23.9044C51.8238 23.9319 51.8184 23.9623 51.8169 23.9936C51.8153 24.0249 51.8177 24.0564 51.8239 24.086C51.83 24.1156 51.8398 24.1427 51.8526 24.1654C51.8654 24.188 51.8809 24.2059 51.898 24.2176L52.0057 24.2947C52.0057 24.4296 51.9348 25.0031 51.9348 25.0031C51.9122 25.3452 51.9518 25.8945 52.2182 25.9186C52.3288 25.8897 52.5952 25.5861 52.734 24.3911C52.9267 24.3911 53.9271 24.5308 54.0235 24.2658Z" fill="#FFAE80"/>
<path d="M53.8165 25.1238C52.4137 25.3936 52.7821 24.3094 52.7679 24.0637C52.7679 23.9866 52.544 24.001 52.5469 23.9287C52.5639 22.7 52.8529 21.9579 52.2635 21.9531C52.0509 21.8326 52.0311 20.6376 53.3574 21.0424C53.6293 21.0921 53.8814 21.3073 54.0673 21.6482C54.2533 21.9891 54.3605 22.4328 54.3691 22.8975C54.389 23.8854 54.0602 24.9888 53.8165 25.1238Z" fill="#061725"/>
<path d="M53.0656 23.9093C53.0372 24.2225 52.887 24.555 52.7822 24.5309C52.6773 24.5068 52.7085 24.2418 52.734 23.9286C52.7538 23.7214 52.7737 23.4467 52.8785 23.3937C52.9834 23.3407 53.1052 23.4515 53.0656 23.9093Z" fill="#FFAE80"/>
<path d="M50.3562 36.5149V36.7221C50.3536 37.366 50.3735 38.0096 50.4157 38.6495C50.4157 38.6784 50.4157 38.7073 50.4157 38.7314C50.4234 38.9359 50.456 39.1354 50.5114 39.3174C50.5668 39.4993 50.6439 39.6597 50.7376 39.7883C50.8314 39.917 50.9399 40.0111 51.0562 40.0648C51.1725 40.1184 51.2941 40.1304 51.4133 40.0999C51.6201 40.0517 51.8355 39.9987 52.0481 39.9554C52.6997 39.8047 53.3577 39.7498 54.0149 39.7915L54.1736 39.8156C54.2429 39.83 54.3132 39.8182 54.3796 39.7812C54.4459 39.7442 54.5067 39.6828 54.5575 39.6014C54.6084 39.5201 54.6481 39.4207 54.6738 39.3103C54.6995 39.1999 54.7106 39.0812 54.7064 38.9627C54.5902 35.4981 54.9303 30.0434 54.9303 30.0434V29.9904L55.0068 28.4581C55.0068 28.3955 55.0068 28.3473 55.0068 28.3039C55.0042 28.0157 54.958 27.7335 54.8727 27.4845C54.7873 27.2355 54.6656 27.0281 54.5193 26.8824L53.9299 26.3042H53.6861L52.3768 26.1596H52.3372C52.3372 26.1596 51.8015 26.4294 51.5323 26.5788H51.5153C51.4757 26.5967 51.4369 26.6193 51.3991 26.6463C51.3916 26.6436 51.3839 26.6436 51.3764 26.6463C51.1129 26.8776 51.1554 27.2004 51.0193 27.61C51.0193 27.61 50.9995 27.7498 50.9683 27.9955C50.9457 28.1642 50.9173 28.3955 50.8861 28.6653L50.7784 29.6001C50.7784 29.7013 50.7614 29.8025 50.7501 29.9037L50.7161 30.2169C50.6736 30.6265 50.6339 31.0698 50.5942 31.542C50.5546 32.0143 50.5234 32.3901 50.4922 32.8334C50.4922 32.9153 50.4922 33.0021 50.4752 33.0888C50.4582 33.1755 50.4752 33.2334 50.4752 33.3153V33.3442C50.4752 33.4309 50.4752 33.5129 50.4582 33.6044L50.4412 33.8598C50.4412 33.961 50.4412 34.0574 50.427 34.1537C50.4129 34.2501 50.427 34.3128 50.427 34.3898C50.427 34.5633 50.4129 34.7368 50.4044 34.9151L50.3874 35.3584C50.3874 35.5656 50.3874 35.768 50.3874 35.9704C50.3874 36.1727 50.3562 36.3366 50.3562 36.5149Z" fill="#061725"/>
<path d="M52.5554 25.7405C52.9849 25.6529 53.4197 25.6772 53.8449 25.8127L53.9413 26.2946C53.8477 26.5645 53.0032 26.5596 52.3457 26.1211L52.374 25.9959C52.3896 25.9312 52.4142 25.874 52.4459 25.8295C52.4775 25.7849 52.5152 25.7543 52.5554 25.7405Z" fill="#C21E1D"/>
<g style="mix-blend-mode:multiply" opacity="0.3">
<path d="M50.2632 39.2903C50.317 39.0735 50.351 38.847 50.4162 38.6398C50.7563 37.5315 50.7931 36.5678 50.8357 35.2668C50.9462 31.7203 51.7567 30.93 51.9438 28.7086C51.3146 30.1976 50.9859 29.7157 50.762 29.9181L50.728 30.2313C50.6855 30.6409 50.6458 31.0842 50.6061 31.5564C50.5664 32.0287 50.5353 32.4045 50.5041 32.8478C50.5041 32.9297 50.5041 33.0165 50.4871 33.1032C50.4701 33.1899 50.4871 33.2478 50.4871 33.3297V33.3586C50.4871 33.4453 50.4871 33.5273 50.4701 33.6188L50.4531 33.8742C50.4531 33.9754 50.4531 34.0718 50.4389 34.1681C50.4247 34.2645 50.4389 34.3272 50.4389 34.4043C50.4389 34.5777 50.4247 34.7512 50.4162 34.9295L50.3992 35.3728C50.3992 35.58 50.3992 35.7824 50.3992 35.9848C50.3992 36.1871 50.3992 36.351 50.3992 36.5293V36.7413L50.3794 37.2762L50.3425 38.3893L50.3142 39.2566L50.2632 39.2903Z" fill="#456F96"/>
</g>
<g style="mix-blend-mode:multiply" opacity="0.3">
<path d="M52.8928 34.7561C53.026 33.6478 53.3009 32.5973 53.4596 31.4939C53.6593 30.3987 53.6108 29.2161 53.3236 28.1786C53.4143 29.5134 53.0997 30.8193 52.9126 32.1251C52.6859 33.688 52.6321 35.3089 52.7539 36.9052C52.7719 36.1844 52.8183 35.4664 52.8928 34.7561Z" fill="#456F96"/>
</g>
<path d="M47.3693 38.876V38.8326C47.3703 38.8869 47.3829 38.9386 47.4048 38.978C47.4267 39.0174 47.4564 39.0418 47.4882 39.0465C47.5199 39.0513 47.5516 39.0361 47.5772 39.0038C47.6029 38.9714 47.6206 38.9243 47.6272 38.8712C47.6272 39.1025 47.8057 39.2326 47.8681 38.9097V38.876C47.8681 38.9965 48.0268 39.1362 48.0919 38.8134L48.3187 37.7244C48.344 37.6343 48.3557 37.5349 48.3527 37.4352V37.069L48.6077 36.6305L48.0749 35.8306L47.7915 36.4956L47.5308 36.6787C47.4982 36.7028 47.4691 36.739 47.4458 36.7847C47.3449 37.0547 47.1974 37.2651 47.0235 37.3871C46.8818 37.469 46.8733 37.6906 46.9668 37.7388C47.0416 37.7499 47.117 37.7355 47.1885 37.6966C47.26 37.6578 47.3263 37.5951 47.3834 37.5123C47.3268 37.7918 47.2162 38.3749 47.1624 38.6543L47.1454 38.7748C47.1454 38.7748 47.1454 38.7748 47.1454 38.8037C47.1509 38.8437 47.1631 38.88 47.1805 38.9084C47.1979 38.9367 47.2198 38.9559 47.2435 38.9636C47.2672 38.9712 47.2917 38.967 47.314 38.9515C47.3363 38.9359 47.3555 38.9097 47.3693 38.876Z" fill="#FFAE80"/>
<path d="M48.5681 37.2617L48.7636 36.8424L48.0438 35.7823L47.8511 36.269L48.5681 37.2617Z" fill="#EDEDED"/>
<path d="M49.5657 31.86C49.6479 31.6721 51.1924 26.9402 51.1924 26.9402C51.2406 26.7185 52.1248 28.0003 52.0965 28.8194C52.0455 28.9014 50.3054 33.7055 50.2629 33.8067C49.6961 35.1656 48.8317 36.9437 48.8317 36.9437L48.041 35.7824C48.041 35.7824 48.9507 33.2959 49.5657 31.86Z" fill="#061725"/>
</g>
<rect x="1" y="0.5" width="74" height="74" rx="37" stroke="#BBC1C7"/>
<defs>
<clipPath id="clip0_4170_1569">
<rect width="59.571" height="35.3013" fill="white" transform="translate(9.3252 20.9603)"/>
</clipPath>
</defs>
</svg>
