<svg width="26" height="25" viewBox="0 0 26 25" fill="none" xmlns="http://www.w3.org/2000/svg">
<path d="M23.6079 12.3291L13.5518 2.28025C13.4793 2.2077 13.3933 2.15015 13.2987 2.11088C13.204 2.07161 13.1025 2.05139 13 2.05139C12.8975 2.05139 12.796 2.07161 12.7013 2.11088C12.6066 2.15015 12.5206 2.2077 12.4482 2.28025L2.39209 12.3291C2.09912 12.6221 1.93311 13.02 1.93311 13.435C1.93311 14.2969 2.63379 14.9975 3.4956 14.9975H4.55517V22.1679C4.55517 22.6001 4.9043 22.9492 5.33642 22.9492H11.4375V17.4804H14.1719V22.9492H20.6636C21.0957 22.9492 21.4448 22.6001 21.4448 22.1679V14.9975H22.5044C22.9194 14.9975 23.3174 14.834 23.6103 14.5386C24.2182 13.9282 24.2183 12.9394 23.6079 12.3291Z" fill="#1C71B7"/>
</svg>
