<svg width="26" height="26" viewBox="0 0 26 26" fill="none" xmlns="http://www.w3.org/2000/svg">
<path d="M23.5655 12.8289L14.1319 3.40021L13.4996 2.76788C13.3555 2.62476 13.1607 2.54443 12.9576 2.54443C12.7545 2.54443 12.5597 2.62476 12.4156 2.76788L2.34971 12.8289C2.20208 12.976 2.08541 13.1511 2.00658 13.344C1.92774 13.5369 1.88835 13.7436 1.89073 13.952C1.90049 14.8113 2.61582 15.4974 3.4752 15.4974H4.5128V23.449H21.4024V15.4974H22.462C22.8795 15.4974 23.2726 15.3338 23.568 15.0384C23.7134 14.8934 23.8287 14.721 23.907 14.5311C23.9854 14.3413 24.0253 14.1378 24.0245 13.9324C24.0245 13.5174 23.8609 13.1243 23.5655 12.8289ZM14.3248 21.6912H11.5904V16.7107H14.3248V21.6912ZM19.6446 13.7396V21.6912H15.8873V16.1248C15.8873 15.5853 15.4503 15.1482 14.9107 15.1482H11.0045C10.4649 15.1482 10.0279 15.5853 10.0279 16.1248V21.6912H6.27061V13.7396H3.92686L12.9601 4.71368L13.524 5.27765L21.9908 13.7396H19.6446Z" fill="#09263D"/>
</svg>
