<svg width="76" height="75" viewBox="0 0 76 75" fill="none" xmlns="http://www.w3.org/2000/svg">
<g clip-path="url(#clip0_4170_193)">
<rect x="0.5" width="75" height="75" rx="37.5" fill="#F8FDFF"/>
<g clip-path="url(#clip1_4170_193)">
<path d="M20.7457 52.8503L33.603 49.4336C34.1427 48.9532 33.9214 48.1301 33.9781 47.0371L36.2721 28.9441C36.313 28.1944 36.0904 27.4541 35.6428 26.8513C35.1953 26.2485 34.551 25.8212 33.8216 25.6434C30.8906 24.9336 25.8978 24.151 21.1182 25.3735C16.2927 26.615 11.8477 29.778 9.34316 31.8237C8.74273 32.3173 8.33983 33.0104 8.20804 33.7764C8.07624 34.5424 8.22434 35.3303 8.62528 35.9961L19.3693 51.0151C19.9361 51.9489 20.0926 52.7073 20.7457 52.8503Z" fill="#061725"/>
<path d="M41.1598 78.2167L36.4881 60.6743L33.9485 51.142L33.1577 51.3525L35.6974 60.8848L25.126 63.7023L22.5837 54.1647L21.793 54.3752L24.3353 63.9129L29.0069 81.4553C29.428 83.0287 32.5154 83.5874 35.8485 82.6967C39.1815 81.8061 41.5808 79.7901 41.1598 78.2167Z" fill="#061725"/>
<path d="M42.7305 43.6447V78.4596C42.7305 80.5836 43.5779 82.3216 44.6197 82.3216H47.2834C48.317 82.3216 49.1726 80.5836 49.1726 78.4596V43.6447H42.7305Z" fill="#061725"/>
<path d="M48.5222 35.1892V43.0941H43.3647V35.1892H42.8276V44.1979H49.0619V35.1892H48.5222Z" fill="#061725"/>
<path d="M44.1852 34.8437H47.7126C48.1172 34.824 48.5025 34.6648 48.8031 34.3933C49.1036 34.1217 49.301 33.7545 49.3616 33.354L51.3911 23.2765C51.4809 22.873 51.4447 22.4517 51.2874 22.0694C51.13 21.6872 50.8591 21.3624 50.5113 21.1391C49.1258 20.3213 47.5508 19.8794 45.9421 19.8571C44.3623 19.8436 42.809 20.2636 41.4513 21.0716C41.1081 21.294 40.8407 21.6155 40.6846 21.9934C40.5284 22.3713 40.4908 22.7877 40.5769 23.1875L42.5362 33.3351C42.5923 33.7393 42.7877 34.1112 43.0888 34.3866C43.3899 34.6621 43.7776 34.8237 44.1852 34.8437Z" fill="#061725"/>
<path d="M57.5496 48.2192C57.5361 48.2678 57.5199 48.3164 57.5091 48.3677L50.7 78.9643C50.3572 80.5027 51.2397 82.0167 52.6377 82.3298L54.9533 82.8452C56.3621 83.1583 57.7925 82.157 58.1353 80.6187L64.9471 50.0221C64.9471 49.9708 64.9633 49.9222 64.9741 49.8709L57.5496 48.2192Z" fill="#061725"/>
<path d="M65.2306 45.4744L63.9108 51.3983L57.887 50.0597L59.2068 44.1331L58.4754 43.9711L56.9775 50.6939L64.4641 52.3618L65.962 45.6363L65.2306 45.4744Z" fill="#061725"/>
<path d="M59.6385 43.6527L64.8095 44.8024C64.9537 44.828 65.1016 44.825 65.2447 44.7934C65.3878 44.7618 65.5232 44.7023 65.6433 44.6184C65.7634 44.5344 65.8657 44.4276 65.9444 44.304C66.0232 44.1804 66.0768 44.0426 66.1022 43.8983L67.6136 37.108C67.8079 36.2363 67.0738 35.4887 66.2641 35.7775L60.3807 37.8691C60.1947 37.94 60.0295 38.0564 59.9003 38.2078C59.7711 38.3592 59.682 38.5406 59.6412 38.7354L58.8316 42.2817C58.7935 42.4247 58.7842 42.5739 58.8042 42.7205C58.8243 42.8672 58.8733 43.0084 58.9483 43.1359C59.0234 43.2635 59.1231 43.3748 59.2416 43.4636C59.3601 43.5523 59.495 43.6166 59.6385 43.6527Z" fill="#061725"/>
</g>
</g>
<rect x="1" y="0.5" width="74" height="74" rx="37" stroke="#BBC1C7"/>
<defs>
<clipPath id="clip0_4170_193">
<rect x="0.5" width="75" height="75" rx="37.5" fill="white"/>
</clipPath>
<clipPath id="clip1_4170_193">
<rect width="61.9058" height="77.2217" fill="white" transform="translate(8.1582 19.8571)"/>
</clipPath>
</defs>
</svg>
