<svg width="26" height="25" viewBox="0 0 26 25" fill="none" xmlns="http://www.w3.org/2000/svg">
<path d="M17.0552 7.61719V6.44531C17.0552 6.33789 16.9673 6.25 16.8599 6.25H7.48486C7.37744 6.25 7.28955 6.33789 7.28955 6.44531V7.61719C7.28955 7.72461 7.37744 7.8125 7.48486 7.8125H16.8599C16.9673 7.8125 17.0552 7.72461 17.0552 7.61719ZM7.48486 9.76562C7.37744 9.76562 7.28955 9.85352 7.28955 9.96094V11.1328C7.28955 11.2402 7.37744 11.3281 7.48486 11.3281H11.9771C12.0845 11.3281 12.1724 11.2402 12.1724 11.1328V9.96094C12.1724 9.85352 12.0845 9.76562 11.9771 9.76562H7.48486ZM16.6646 12.5977C13.752 12.5977 11.3911 14.9585 11.3911 17.8711C11.3911 20.7837 13.752 23.1445 16.6646 23.1445C19.5771 23.1445 21.938 20.7837 21.938 17.8711C21.938 14.9585 19.5771 12.5977 16.6646 12.5977ZM19.2891 20.4956C18.5884 21.1963 17.6558 21.582 16.6646 21.582C15.6733 21.582 14.7407 21.1963 14.04 20.4956C13.3394 19.7949 12.9536 18.8623 12.9536 17.8711C12.9536 16.8799 13.3394 15.9473 14.04 15.2466C14.7407 14.5459 15.6733 14.1602 16.6646 14.1602C17.6558 14.1602 18.5884 14.5459 19.2891 15.2466C19.9897 15.9473 20.3755 16.8799 20.3755 17.8711C20.3755 18.8623 19.9897 19.7949 19.2891 20.4956ZM18.8374 16.0156H17.7559C17.6924 16.0156 17.6338 16.0449 17.5972 16.0962L16.0469 18.2397L15.4829 17.4609C15.4648 17.4358 15.441 17.4153 15.4134 17.4013C15.3858 17.3873 15.3552 17.3801 15.3242 17.3804H14.2476C14.0889 17.3804 13.9961 17.561 14.0889 17.6904L15.8906 20.1831C15.9688 20.2905 16.1274 20.2905 16.2056 20.1831L18.9937 16.3257C19.0889 16.1963 18.9961 16.0156 18.8374 16.0156ZM11.0005 20.8008H5.33643V3.61328H19.0083V12.0117C19.0083 12.1191 19.0962 12.207 19.2036 12.207H20.5708C20.6782 12.207 20.7661 12.1191 20.7661 12.0117V2.63672C20.7661 2.20459 20.417 1.85547 19.9849 1.85547H4.35986C3.92773 1.85547 3.57861 2.20459 3.57861 2.63672V21.7773C3.57861 22.2095 3.92773 22.5586 4.35986 22.5586H11.0005C11.1079 22.5586 11.1958 22.4707 11.1958 22.3633V20.9961C11.1958 20.8887 11.1079 20.8008 11.0005 20.8008Z" fill="#09263D"/>
</svg>
