<svg width="26" height="25" viewBox="0 0 26 25" fill="none" xmlns="http://www.w3.org/2000/svg">
<path d="M23.5811 12.5001C23.5816 10.8106 23.1607 9.14774 22.3564 7.66201C21.5522 6.17629 20.39 4.91466 18.9752 3.99138C17.5604 3.06811 15.9376 2.51236 14.2538 2.37446C12.57 2.23657 10.8784 2.5209 9.33217 3.20168C7.78597 3.88247 6.43403 4.93821 5.39878 6.2733C4.36353 7.60838 3.67768 9.18063 3.40335 10.8476C3.12902 12.5147 3.27487 14.2238 3.82769 15.8202C4.38051 17.4166 5.32284 18.8499 6.56934 19.9903L6.69629 20.1075C8.55299 21.7496 10.9461 22.6561 13.4248 22.6561C15.9035 22.6561 18.2966 21.7496 20.1533 20.1075L20.2803 19.9903C21.3214 19.0402 22.1528 17.8833 22.7211 16.5935C23.2895 15.3037 23.5824 13.9095 23.5811 12.5001ZM4.83106 12.5001C4.83054 11.1082 5.1681 9.73704 5.81472 8.5045C6.46133 7.27196 7.39764 6.21492 8.54313 5.42427C9.68862 4.63363 11.009 4.13305 12.3908 3.96557C13.7725 3.79809 15.1742 3.96873 16.4755 4.46282C17.7767 4.95691 18.9384 5.75965 19.8607 6.80203C20.7831 7.8444 21.4384 9.0952 21.7705 10.4469C22.1025 11.7986 22.1012 13.2106 21.7668 14.5617C21.4324 15.9128 20.7748 17.1624 19.8506 18.2032C18.9795 16.9399 17.7523 15.9643 16.3252 15.4004C17.0906 14.7976 17.6492 13.9711 17.9232 13.0361C18.1972 12.101 18.173 11.1039 17.8539 10.1832C17.5349 9.26256 16.9369 8.4642 16.1431 7.89917C15.3493 7.33413 14.3992 7.0305 13.4248 7.0305C12.4504 7.0305 11.5003 7.33413 10.7065 7.89917C9.91271 8.4642 9.31472 9.26256 8.99569 10.1832C8.67666 11.1039 8.65246 12.101 8.92644 13.0361C9.20042 13.9711 9.75897 14.7976 10.5244 15.4004C9.09728 15.9643 7.87011 16.9399 6.99903 18.2032C5.59997 16.6332 4.82819 14.6029 4.83106 12.5001ZM10.2998 11.7188C10.2998 11.1007 10.4831 10.4966 10.8265 9.98265C11.1698 9.46875 11.6579 9.06821 12.2289 8.83168C12.7999 8.59516 13.4283 8.53327 14.0345 8.65385C14.6407 8.77443 15.1975 9.07206 15.6345 9.5091C16.0716 9.94614 16.3692 10.503 16.4898 11.1091C16.6103 11.7153 16.5485 12.3437 16.3119 12.9147C16.0754 13.4857 15.6749 13.9738 15.161 14.3171C14.6471 14.6605 14.0429 14.8438 13.4248 14.8438C12.5968 14.8412 11.8034 14.5112 11.2179 13.9257C10.6325 13.3402 10.3024 12.5468 10.2998 11.7188ZM8.16113 19.2872C8.72649 18.4041 9.50492 17.6775 10.4248 17.1742C11.3446 16.6709 12.3763 16.4071 13.4248 16.4071C14.4733 16.4071 15.505 16.6709 16.4249 17.1742C17.3447 17.6775 18.1231 18.4041 18.6885 19.2872C17.1835 20.4576 15.3313 21.093 13.4248 21.093C11.5183 21.093 9.66613 20.4576 8.16113 19.2872Z" fill="#09263D"/>
</svg>
