<svg width="26" height="26" viewBox="0 0 26 26" fill="none" xmlns="http://www.w3.org/2000/svg">
<path d="M12.9577 2.5835C7.31081 2.5835 2.54102 7.35329 2.54102 13.0002C2.54102 18.647 7.31081 23.4168 12.9577 23.4168C18.6046 23.4168 23.3744 18.647 23.3744 13.0002C23.3744 7.35329 18.6046 2.5835 12.9577 2.5835ZM12.9577 7.79183C14.7566 7.79183 16.0827 9.11683 16.0827 10.9168C16.0827 12.7168 14.7566 14.0418 12.9577 14.0418C11.1598 14.0418 9.83268 12.7168 9.83268 10.9168C9.83268 9.11683 11.1598 7.79183 12.9577 7.79183ZM7.63893 17.971C8.57331 16.596 10.1316 15.6793 11.916 15.6793H13.9993C15.7848 15.6793 17.3421 16.596 18.2764 17.971C16.9452 19.396 15.0566 20.2918 12.9577 20.2918C10.8587 20.2918 8.97018 19.396 7.63893 17.971Z" fill="#1C71B7"/>
</svg>
