<svg width="26" height="26" viewBox="0 0 26 26" fill="none" xmlns="http://www.w3.org/2000/svg">
<g clip-path="url(#clip0_4170_1413)">
<path d="M23.8936 14.7969C21.4717 12.375 17.4873 12.375 15.0654 14.7969C12.6436 17.2187 12.6436 21.2031 15.0654 23.625C17.4873 26.0469 21.4717 26.0469 23.8936 23.625C26.3154 21.2031 26.3154 17.2969 23.8936 14.7969ZM22.3311 18.2344L19.2061 21.3594C19.0498 21.5156 18.8936 21.5938 18.6592 21.5938C18.4248 21.5938 18.2686 21.5156 18.1123 21.3594L16.5498 19.7969C16.2373 19.4844 16.2373 19.0156 16.5498 18.7031C16.8623 18.3906 17.3311 18.3906 17.6436 18.7031L18.6592 19.7188L21.2373 17.1406C21.5498 16.8281 22.0186 16.8281 22.3311 17.1406C22.6436 17.4531 22.6436 17.9219 22.3311 18.2344Z" fill="#1C71B7"/>
<path d="M13.9717 2.53125V6.75H18.1904L13.9717 2.53125Z" fill="#1C71B7"/>
<path d="M16.7061 8.3125H13.1904C12.7217 8.3125 12.4092 8 12.4092 7.53125V2.0625H3.81543C3.34668 2.0625 3.03418 2.375 3.03418 2.84375V23.1562C3.03418 23.625 3.34668 23.9375 3.81543 23.9375H13.1904C12.1748 22.6094 11.6279 21.0469 11.6279 19.25C11.6279 15.1875 14.7529 11.9062 18.6592 11.5156V10.2656C18.6592 9.17188 17.7998 8.3125 16.7061 8.3125Z" fill="#1C71B7"/>
</g>
<defs>
<clipPath id="clip0_4170_1413">
<rect width="25" height="25" fill="white" transform="translate(0.69043 0.5)"/>
</clipPath>
</defs>
</svg>
