<svg width="22" height="21" viewBox="0 0 22 21" fill="none" xmlns="http://www.w3.org/2000/svg">
<path d="M7.28252 14.3062C7.39524 14.3931 7.53398 14.4394 7.67627 14.4375C7.77815 14.4375 7.87863 14.4138 7.96975 14.3682C8.06088 14.3227 8.14014 14.2565 8.20127 14.175C8.5986 13.6452 9.11382 13.2152 9.70612 12.9191C10.2984 12.6229 10.9516 12.4688 11.6138 12.4688C12.276 12.4688 12.9291 12.6229 13.5214 12.9191C14.1137 13.2152 14.6289 13.6452 15.0263 14.175C15.132 14.3124 15.2873 14.4031 15.4589 14.4276C15.6306 14.4521 15.805 14.4086 15.945 14.3062C16.014 14.2545 16.072 14.1898 16.116 14.1156C16.1599 14.0414 16.1887 13.9594 16.2009 13.8741C16.2131 13.7887 16.2084 13.7019 16.187 13.6184C16.1656 13.5349 16.128 13.4564 16.0763 13.3875C15.4955 12.6079 14.7205 11.9941 13.8286 11.6074C14.3166 11.161 14.6583 10.5775 14.8089 9.93347C14.9594 9.28944 14.9119 8.61495 14.6724 7.99843C14.4329 7.38191 14.0127 6.85215 13.4669 6.47862C12.9211 6.10508 12.2752 5.90521 11.6138 5.90521C10.9524 5.90521 10.3064 6.10508 9.76061 6.47862C9.2148 6.85215 8.79461 7.38191 8.55514 7.99843C8.31568 8.61495 8.26811 9.28944 8.41868 9.93347C8.56926 10.5775 8.91094 11.161 9.39893 11.6074C8.50701 11.9941 7.73204 12.6079 7.15127 13.3875C7.04684 13.5267 7.002 13.7018 7.02662 13.8741C7.05123 14.0464 7.14328 14.2018 7.28252 14.3062ZM9.64502 9.1875C9.64502 8.79812 9.76048 8.41748 9.97681 8.09372C10.1931 7.76996 10.5006 7.51762 10.8604 7.36861C11.2201 7.2196 11.616 7.18061 11.9979 7.25658C12.3798 7.33254 12.7306 7.52005 13.0059 7.79538C13.2812 8.07072 13.4687 8.42152 13.5447 8.80342C13.6207 9.18532 13.5817 9.58117 13.4327 9.94091C13.2836 10.3006 13.0313 10.6081 12.7075 10.8245C12.3838 11.0408 12.0032 11.1562 11.6138 11.1562C11.0923 11.1541 10.5928 10.946 10.224 10.5772C9.85529 10.2085 9.64718 9.70898 9.64502 9.1875ZM17.52 1.96875H5.70752C5.35942 1.96875 5.02558 2.10703 4.77944 2.35317C4.5333 2.59931 4.39502 2.93315 4.39502 3.28125V4.92188H3.08252C2.90847 4.92188 2.74155 4.99102 2.61848 5.11409C2.49541 5.23716 2.42627 5.40408 2.42627 5.57812C2.42627 5.75217 2.49541 5.91909 2.61848 6.04216C2.74155 6.16523 2.90847 6.23438 3.08252 6.23438H4.39502V8.20312H3.08252C2.90847 8.20312 2.74155 8.27227 2.61848 8.39534C2.49541 8.51841 2.42627 8.68533 2.42627 8.85938C2.42627 9.03342 2.49541 9.20034 2.61848 9.32341C2.74155 9.44648 2.90847 9.51562 3.08252 9.51562H4.39502V11.4844H3.08252C2.90847 11.4844 2.74155 11.5535 2.61848 11.6766C2.49541 11.7997 2.42627 11.9666 2.42627 12.1406C2.42627 12.3147 2.49541 12.4816 2.61848 12.6047C2.74155 12.7277 2.90847 12.7969 3.08252 12.7969H4.39502V14.7656H3.08252C2.90847 14.7656 2.74155 14.8348 2.61848 14.9578C2.49541 15.0809 2.42627 15.2478 2.42627 15.4219C2.42627 15.5959 2.49541 15.7628 2.61848 15.8859C2.74155 16.009 2.90847 16.0781 3.08252 16.0781H4.39502V17.7188C4.39502 18.0668 4.5333 18.4007 4.77944 18.6468C5.02558 18.893 5.35942 19.0312 5.70752 19.0312H17.52C17.8681 19.0312 18.202 18.893 18.4481 18.6468C18.6942 18.4007 18.8325 18.0668 18.8325 17.7188V3.28125C18.8325 2.93315 18.6942 2.59931 18.4481 2.35317C18.202 2.10703 17.8681 1.96875 17.52 1.96875ZM17.52 17.7188H5.70752V3.28125H17.52V17.7188Z" fill="#061725"/>
</svg>
