<svg width="19" height="18" viewBox="0 0 19 18" fill="none" xmlns="http://www.w3.org/2000/svg">
<g clip-path="url(#clip0_3185_19108)">
<path d="M0.45752 4.5C0.45752 3.90326 0.694572 3.33097 1.11653 2.90901C1.53849 2.48705 2.11078 2.25 2.70752 2.25H16.2075C16.8043 2.25 17.3766 2.48705 17.7985 2.90901C18.2205 3.33097 18.4575 3.90326 18.4575 4.5V13.5C18.4575 14.0967 18.2205 14.669 17.7985 15.091C17.3766 15.5129 16.8043 15.75 16.2075 15.75H2.70752C2.11078 15.75 1.53849 15.5129 1.11653 15.091C0.694572 14.669 0.45752 14.0967 0.45752 13.5V4.5ZM2.70752 3.375C2.40915 3.375 2.123 3.49353 1.91202 3.7045C1.70105 3.91548 1.58252 4.20163 1.58252 4.5V5.625H17.3325V4.5C17.3325 4.20163 17.214 3.91548 17.003 3.7045C16.792 3.49353 16.5059 3.375 16.2075 3.375H2.70752ZM17.3325 7.875H1.58252V13.5C1.58252 13.7984 1.70105 14.0845 1.91202 14.2955C2.123 14.5065 2.40915 14.625 2.70752 14.625H16.2075C16.5059 14.625 16.792 14.5065 17.003 14.2955C17.214 14.0845 17.3325 13.7984 17.3325 13.5V7.875Z" fill="black"/>
<path d="M2.70752 11.25C2.70752 10.9516 2.82605 10.6655 3.03702 10.4545C3.248 10.2435 3.53415 10.125 3.83252 10.125H4.95752C5.25589 10.125 5.54204 10.2435 5.75301 10.4545C5.96399 10.6655 6.08252 10.9516 6.08252 11.25V12.375C6.08252 12.6734 5.96399 12.9595 5.75301 13.1705C5.54204 13.3815 5.25589 13.5 4.95752 13.5H3.83252C3.53415 13.5 3.248 13.3815 3.03702 13.1705C2.82605 12.9595 2.70752 12.6734 2.70752 12.375V11.25Z" fill="black"/>
</g>
<defs>
<clipPath id="clip0_3185_19108">
<rect width="18" height="18" fill="white" transform="translate(0.45752)"/>
</clipPath>
</defs>
</svg>
