<svg width="22" height="22" viewBox="0 0 22 22" fill="none" xmlns="http://www.w3.org/2000/svg">
<g clip-path="url(#clip0_3185_19516)">
<path d="M9.42 15.8405V8.83963H8.58919C7.99416 9.15681 7.41908 9.5101 6.86719 9.8975V10.8097C7.35938 10.4724 8.139 9.99594 8.51831 9.78988H8.53406V15.8405H9.42ZM10.9792 14.1277C11.0409 14.9677 11.7589 15.9731 13.2144 15.9731C14.8656 15.9731 15.8394 14.5739 15.8394 12.2049C15.8394 9.6665 14.8144 8.70312 13.2761 8.70312C12.0608 8.70312 10.9176 9.58512 10.9176 11.0774C10.9176 12.5999 11.9991 13.4006 13.1173 13.4006C14.0964 13.4006 14.7317 12.9071 14.9325 12.3637H14.9679C14.9627 14.0909 14.3629 15.2039 13.2551 15.2039C12.3836 15.2039 11.9321 14.6133 11.877 14.1277H10.9792ZM14.8551 11.0866C14.8551 12.0001 14.1214 12.6354 13.3011 12.6354C12.5123 12.6354 11.7996 12.1327 11.7996 11.0604C11.7996 9.98019 12.5634 9.47225 13.3326 9.47225C14.1634 9.47225 14.8551 9.99462 14.8551 11.0866Z" fill="black" fill-opacity="0.45"/>
<path d="M5.55469 0.5C5.72874 0.5 5.89566 0.56914 6.01873 0.692211C6.1418 0.815282 6.21094 0.982202 6.21094 1.15625V1.8125H16.7109V1.15625C16.7109 0.982202 16.7801 0.815282 16.9031 0.692211C17.0262 0.56914 17.1931 0.5 17.3672 0.5C17.5412 0.5 17.7082 0.56914 17.8312 0.692211C17.9543 0.815282 18.0234 0.982202 18.0234 1.15625V1.8125H19.3359C20.0321 1.8125 20.6998 2.08906 21.1921 2.58134C21.6844 3.07363 21.9609 3.74131 21.9609 4.4375V18.875C21.9609 19.5712 21.6844 20.2389 21.1921 20.7312C20.6998 21.2234 20.0321 21.5 19.3359 21.5H3.58594C2.88974 21.5 2.22207 21.2234 1.72978 20.7312C1.2375 20.2389 0.960938 19.5712 0.960938 18.875V4.4375C0.960938 3.74131 1.2375 3.07363 1.72978 2.58134C2.22207 2.08906 2.88974 1.8125 3.58594 1.8125H4.89844V1.15625C4.89844 0.982202 4.96758 0.815282 5.09065 0.692211C5.21372 0.56914 5.38064 0.5 5.55469 0.5V0.5ZM2.27344 5.75V18.875C2.27344 19.2231 2.41172 19.5569 2.65786 19.8031C2.904 20.0492 3.23784 20.1875 3.58594 20.1875H19.3359C19.684 20.1875 20.0179 20.0492 20.264 19.8031C20.5102 19.5569 20.6484 19.2231 20.6484 18.875V5.75H2.27344Z" fill="black" fill-opacity="0.45"/>
</g>
<defs>
<clipPath id="clip0_3185_19516">
<rect width="21" height="21" fill="white" transform="translate(0.960938 0.5)"/>
</clipPath>
</defs>
</svg>
