<svg width="22" height="22" viewBox="0 0 22 22" fill="none" xmlns="http://www.w3.org/2000/svg">
<path d="M11.4575 2.25C16.2902 2.25 20.2075 6.16738 20.2075 11C20.2075 15.8326 16.2902 19.75 11.4575 19.75C10.061 19.7519 8.6845 19.4182 7.4439 18.777L4.09615 19.7106C3.90938 19.7628 3.7121 19.7643 3.52454 19.7151C3.33697 19.6658 3.16587 19.5676 3.02875 19.4305C2.89163 19.2934 2.79343 19.1223 2.74421 18.9347C2.69499 18.7472 2.69653 18.5499 2.74865 18.3631L3.68315 15.018C3.04033 13.7763 2.70571 12.3982 2.70753 11C2.70753 6.16738 6.6249 2.25 11.4575 2.25ZM11.4575 3.5625C9.48498 3.5625 7.59322 4.34609 6.19842 5.74089C4.80362 7.1357 4.02003 9.02745 4.02003 11C4.02003 12.2863 4.3464 13.5226 4.9589 14.6199L5.09015 14.8561L4.11715 18.3421L7.60578 17.3691L7.84203 17.5004C8.83461 18.0522 9.9404 18.3695 11.0746 18.4277C12.2088 18.486 13.3412 18.2837 14.3851 17.8365C15.429 17.3892 16.3567 16.7088 17.0969 15.8475C17.8371 14.9862 18.3702 13.9668 18.6553 12.8675C18.9405 11.7682 18.9701 10.6182 18.7419 9.50566C18.5138 8.39314 18.0338 7.34765 17.339 6.44936C16.6441 5.55106 15.7527 4.82383 14.7332 4.32342C13.7138 3.82301 12.5932 3.56272 11.4575 3.5625ZM11.4575 14.0625C11.6896 14.0625 11.9122 14.1547 12.0762 14.3188C12.2403 14.4829 12.3325 14.7054 12.3325 14.9375C12.3325 15.1696 12.2403 15.3921 12.0762 15.5562C11.9122 15.7203 11.6896 15.8125 11.4575 15.8125C11.2255 15.8125 11.0029 15.7203 10.8388 15.5562C10.6747 15.3921 10.5825 15.1696 10.5825 14.9375C10.5825 14.7054 10.6747 14.4829 10.8388 14.3188C11.0029 14.1547 11.2255 14.0625 11.4575 14.0625ZM11.4575 6.40625C12.0957 6.40625 12.7077 6.65976 13.159 7.11102C13.6103 7.56228 13.8638 8.17432 13.8638 8.8125C13.8638 9.69625 13.6039 10.1898 12.9442 10.8766L12.7963 11.0262C12.252 11.5705 12.1138 11.8015 12.1138 12.3125C12.1138 12.4865 12.0446 12.6535 11.9216 12.7765C11.7985 12.8996 11.6316 12.9688 11.4575 12.9688C11.2835 12.9688 11.1166 12.8996 10.9935 12.7765C10.8704 12.6535 10.8013 12.4865 10.8013 12.3125C10.8013 11.4288 11.0612 10.9353 11.7209 10.2484L11.8688 10.0988C12.413 9.5545 12.5513 9.3235 12.5513 8.8125C12.5504 8.53274 12.4423 8.26396 12.2493 8.06145C12.0563 7.85893 11.793 7.73807 11.5136 7.72372C11.2342 7.70938 10.96 7.80264 10.7472 7.98432C10.5345 8.16601 10.3995 8.4223 10.3699 8.7005L10.3638 8.8125C10.3638 8.98655 10.2946 9.15347 10.1716 9.27654C10.0485 9.39961 9.88158 9.46875 9.70753 9.46875C9.53348 9.46875 9.36656 9.39961 9.24349 9.27654C9.12042 9.15347 9.05128 8.98655 9.05128 8.8125C9.05128 8.17432 9.30479 7.56228 9.75605 7.11102C10.2073 6.65976 10.8194 6.40625 11.4575 6.40625Z" fill="black"/>
</svg>
