<svg width="22" height="21" viewBox="0 0 22 21" fill="none" xmlns="http://www.w3.org/2000/svg">
<path d="M13.019 2.27061C13.0375 2.24739 13.0605 2.22816 13.0866 2.2141C13.1127 2.20004 13.1414 2.19144 13.1709 2.18882C13.2005 2.1862 13.2303 2.18962 13.2584 2.19887C13.2866 2.20811 13.3126 2.22299 13.3349 2.24261L14.1408 2.95311L11.6041 6.12498H13.285L15.1278 3.82198L16.5733 5.09686C16.616 5.13463 16.6423 5.1876 16.6466 5.24448C16.6508 5.30136 16.6327 5.35765 16.596 5.40136L15.9923 6.12498H17.6933C17.904 5.81652 17.9947 5.44168 17.9482 5.07103C17.9018 4.70037 17.7215 4.35946 17.4413 4.11248L14.2038 1.25736C14.0476 1.11981 13.865 1.01554 13.6672 0.950924C13.4693 0.886306 13.2604 0.862693 13.0532 0.881528C12.8459 0.900362 12.6447 0.961249 12.4617 1.06047C12.2788 1.15969 12.118 1.29516 11.9891 1.45861L8.31152 6.12498H9.98277L13.019 2.27061ZM14.6763 12.25C14.5022 12.25 14.3353 12.3191 14.2122 12.4422C14.0892 12.5653 14.02 12.7322 14.02 12.9062C14.02 13.0803 14.0892 13.2472 14.2122 13.3703C14.3353 13.4933 14.5022 13.5625 14.6763 13.5625H16.4263C16.6003 13.5625 16.7672 13.4933 16.8903 13.3703C17.0134 13.2472 17.0825 13.0803 17.0825 12.9062C17.0825 12.7322 17.0134 12.5653 16.8903 12.4422C16.7672 12.3191 16.6003 12.25 16.4263 12.25H14.6763ZM4.39502 6.34373C4.39502 6.16968 4.46416 6.00276 4.58723 5.87969C4.7103 5.75662 4.87722 5.68748 5.05127 5.68748H7.78827L8.83127 4.37498H5.05127C4.52912 4.37498 4.02837 4.5824 3.65915 4.95161C3.28994 5.32083 3.08252 5.82159 3.08252 6.34373V15.5312C3.08252 16.2854 3.38213 17.0088 3.91543 17.5421C4.44874 18.0754 5.17206 18.375 5.92627 18.375H16.4263C17.1805 18.375 17.9038 18.0754 18.4371 17.5421C18.9704 17.0088 19.27 16.2854 19.27 15.5312V9.84373C19.27 9.08952 18.9704 8.3662 18.4371 7.8329C17.9038 7.29959 17.1805 6.99998 16.4263 6.99998H5.05127C4.87722 6.99998 4.7103 6.93084 4.58723 6.80777C4.46416 6.6847 4.39502 6.51778 4.39502 6.34373ZM4.39502 15.5312V8.20048C4.60064 8.27311 4.82114 8.31248 5.05127 8.31248H16.4263C17.2715 8.31248 17.9575 8.99848 17.9575 9.84373V15.5312C17.9575 15.9373 17.7962 16.3268 17.509 16.614C17.2219 16.9012 16.8324 17.0625 16.4263 17.0625H5.92627C5.52016 17.0625 5.13068 16.9012 4.84351 16.614C4.55635 16.3268 4.39502 15.9373 4.39502 15.5312Z" fill="black"/>
</svg>
