<svg width="22" height="22" viewBox="0 0 22 22" fill="none" xmlns="http://www.w3.org/2000/svg">
<path d="M19.0044 6.85742H15.9774C16.2563 6.41855 16.4204 5.89766 16.4204 5.33984C16.4204 3.7792 15.151 2.50977 13.5903 2.50977C12.7413 2.50977 11.9764 2.88711 11.4575 3.48184C10.9387 2.88711 10.1737 2.50977 9.32471 2.50977C7.76406 2.50977 6.49463 3.7792 6.49463 5.33984C6.49463 5.89766 6.65664 6.41855 6.9376 6.85742H3.91064C3.54766 6.85742 3.25439 7.15068 3.25439 7.51367V11.6152C3.25439 11.7055 3.32822 11.7793 3.41846 11.7793H4.23877V18.834C4.23877 19.197 4.53203 19.4902 4.89502 19.4902H18.02C18.383 19.4902 18.6763 19.197 18.6763 18.834V11.7793H19.4966C19.5868 11.7793 19.6606 11.7055 19.6606 11.6152V7.51367C19.6606 7.15068 19.3674 6.85742 19.0044 6.85742ZM12.1548 5.33984C12.1548 4.54824 12.7987 3.9043 13.5903 3.9043C14.3819 3.9043 15.0259 4.54824 15.0259 5.33984C15.0259 6.13145 14.3819 6.77539 13.5903 6.77539H12.1548V5.33984ZM9.32471 3.9043C10.1163 3.9043 10.7603 4.54824 10.7603 5.33984V6.77539H9.32471C8.53311 6.77539 7.88916 6.13145 7.88916 5.33984C7.88916 4.54824 8.53311 3.9043 9.32471 3.9043ZM4.64893 10.3848V8.25195H10.7603V10.3848H4.64893ZM5.6333 11.7793H10.7603V18.0957H5.6333V11.7793ZM17.2817 18.0957H12.1548V11.7793H17.2817V18.0957ZM18.2661 10.3848H12.1548V8.25195H18.2661V10.3848Z" fill="#061725"/>
</svg>
