<svg width="25" height="24" viewBox="0 0 25 24" fill="none" xmlns="http://www.w3.org/2000/svg">
<path d="M19.9648 9H13.9648V3H4.96484V21H19.9648V9ZM19.3438 7.5L15.4648 3.621V7.5H19.3438ZM4.21484 1.5H15.4648L21.4648 7.5V21.75C21.4648 21.9489 21.3858 22.1397 21.2452 22.2803C21.1045 22.421 20.9138 22.5 20.7148 22.5H4.21484C4.01593 22.5 3.82517 22.421 3.68451 22.2803C3.54386 22.1397 3.46484 21.9489 3.46484 21.75V2.25C3.46484 2.05109 3.54386 1.86032 3.68451 1.71967C3.82517 1.57902 4.01593 1.5 4.21484 1.5ZM7.96484 12H16.9648V13.5H7.96484V12ZM7.96484 7.5H11.7148V9H7.96484V7.5ZM7.96484 16.5H16.9648V18H7.96484V16.5Z" fill="#061725" fill-opacity="0.45"/>
</svg>
