<svg width="22" height="22" viewBox="0 0 22 22" fill="none" xmlns="http://www.w3.org/2000/svg">
<path d="M17.5859 4H5.33594C4.63974 4 3.97207 4.27656 3.47978 4.76884C2.9875 5.26113 2.71094 5.92881 2.71094 6.625V15.375C2.71094 16.0712 2.9875 16.7389 3.47978 17.2312C3.97207 17.7234 4.63974 18 5.33594 18H17.5859C18.2821 18 18.9498 17.7234 19.4421 17.2312C19.9344 16.7389 20.2109 16.0712 20.2109 15.375V6.625C20.2109 5.92881 19.9344 5.26113 19.4421 4.76884C18.9498 4.27656 18.2821 4 17.5859 4ZM16.9997 5.75L11.4609 9.90625L5.92219 5.75H16.9997ZM17.5859 16.25H5.33594C5.10387 16.25 4.88131 16.1578 4.71722 15.9937C4.55312 15.8296 4.46094 15.6071 4.46094 15.375V6.84375L10.9359 11.7C11.0874 11.8136 11.2716 11.875 11.4609 11.875C11.6503 11.875 11.8345 11.8136 11.9859 11.7L18.4609 6.84375V15.375C18.4609 15.6071 18.3688 15.8296 18.2047 15.9937C18.0406 16.1578 17.818 16.25 17.5859 16.25Z" fill="black" fill-opacity="0.45"/>
</svg>
