<svg width="203" height="288" viewBox="0 0 203 288" fill="none" xmlns="http://www.w3.org/2000/svg">
<g clip-path="url(#clip0_4467_25596)">
<circle cx="84.4609" cy="123" r="46.9" stroke="#1C71B7" stroke-width="0.2"/>
<circle cx="84.4609" cy="123" r="32.75" stroke="#1C71B7" stroke-width="0.5"/>
<circle cx="84.4609" cy="123" r="12.375" stroke="#1C71B7"/>
<circle cx="84.4609" cy="123" r="2.71875" fill="#1C71B7" stroke="#1C71B7"/>
<rect x="57.7109" y="79.5833" width="19.5827" height="20.1667" rx="5" fill="#F8FDFF"/>
<path d="M66.9609 93.7915C69.101 93.7915 70.8359 92.0566 70.8359 89.9165C70.8359 87.7764 69.101 86.0415 66.9609 86.0415C64.8208 86.0415 63.0859 87.7764 63.0859 89.9165C63.0859 92.0566 64.8208 93.7915 66.9609 93.7915Z" stroke="black" stroke-opacity="0.45" stroke-linecap="round" stroke-linejoin="round"/>
<path d="M66.9613 79.5833C64.2207 79.5833 61.5924 80.6719 59.6545 82.6098C57.7166 84.5477 56.6279 87.176 56.6279 89.9166C56.6279 92.3604 57.1472 93.9595 58.5654 95.7291L66.9613 105.417L75.3571 95.7291C76.7753 93.9595 77.2946 92.3604 77.2946 89.9166C77.2946 87.176 76.2059 84.5477 74.268 82.6098C72.3302 80.6719 69.7018 79.5833 66.9613 79.5833Z" stroke="black" stroke-opacity="0.45" stroke-linecap="round" stroke-linejoin="round"/>
<rect x="104.194" y="96.6667" width="13.2657" height="13.6613" rx="5" fill="#F8FDFF"/>
<path d="M110.461 106.292C111.911 106.292 113.086 105.116 113.086 103.667C113.086 102.217 111.911 101.042 110.461 101.042C109.011 101.042 107.836 102.217 107.836 103.667C107.836 105.116 109.011 106.292 110.461 106.292Z" stroke="black" stroke-opacity="0.45" stroke-linecap="round" stroke-linejoin="round"/>
<path d="M110.461 96.6667C108.604 96.6667 106.824 97.4042 105.511 98.717C104.198 100.03 103.461 101.81 103.461 103.667C103.461 105.322 103.813 106.405 104.773 107.604L110.461 114.167L116.148 107.604C117.109 106.405 117.461 105.322 117.461 103.667C117.461 101.81 116.723 100.03 115.411 98.717C114.098 97.4042 112.317 96.6667 110.461 96.6667Z" stroke="black" stroke-opacity="0.45" stroke-linecap="round" stroke-linejoin="round"/>
<rect x="81.5264" y="100.531" width="13.2657" height="13.6613" rx="5" fill="#F8FDFF"/>
<path d="M87.793 110.156C89.2427 110.156 90.418 108.981 90.418 107.531C90.418 106.082 89.2427 104.906 87.793 104.906C86.3432 104.906 85.168 106.082 85.168 107.531C85.168 108.981 86.3432 110.156 87.793 110.156Z" stroke="black" stroke-opacity="0.45" stroke-linecap="round" stroke-linejoin="round"/>
<path d="M87.793 100.531C85.9365 100.531 84.156 101.269 82.8432 102.582C81.5305 103.894 80.793 105.675 80.793 107.531C80.793 109.187 81.1447 110.27 82.1055 111.469L87.793 118.031L93.4805 111.469C94.4412 110.27 94.793 109.187 94.793 107.531C94.793 105.675 94.0555 103.894 92.7427 102.582C91.43 101.269 89.6495 100.531 87.793 100.531Z" stroke="black" stroke-opacity="0.45" stroke-linecap="round" stroke-linejoin="round"/>
<rect x="16.9609" y="58.5" width="135" height="263" rx="1.5" stroke="black" stroke-opacity="0.5"/>
<rect x="64.7109" y="38.25" width="4.5" height="4.5" rx="2.25" stroke="black" stroke-opacity="0.5" stroke-width="0.5"/>
<rect x="72.7109" y="38.25" width="31.5" height="4.5" rx="2.25" stroke="black" stroke-opacity="0.5" stroke-width="0.5"/>
</g>
<rect x="2.46094" y="25.5" width="164" height="261" rx="23.5" stroke="black" stroke-opacity="0.5" stroke-width="3"/>
<g clip-path="url(#clip1_4467_25596)">
<rect x="143.814" y="27.5737" width="31.5" height="31.5" fill="#F8FDFF"/>
<path d="M142.71 25.3223C145.031 23.0009 147.787 21.1594 150.82 19.903C153.854 18.6466 157.105 18 160.388 18C163.671 18 166.922 18.6466 169.955 19.903C172.988 21.1594 175.744 23.0009 178.065 25.3223C182.754 30.0107 185.388 36.3696 185.388 43C185.388 49.6304 182.754 55.9893 178.065 60.6777C175.744 62.9991 172.988 64.8406 169.955 66.097C166.922 67.3534 163.671 68 160.388 68C153.757 68 147.398 65.3661 142.71 60.6777C138.021 55.9893 135.388 49.6304 135.388 43C135.388 36.3696 138.021 30.0107 142.71 25.3223ZM145.733 42.4873L151.637 48.3917L165.938 37.4492L154.996 51.7504L160.9 57.6548L170.994 32.3934L145.733 42.4873Z" fill="#1C71B7"/>
</g>
<defs>
<clipPath id="clip0_4467_25596">
<rect x="0.960938" y="24" width="167" height="264" rx="25" fill="white"/>
</clipPath>
<clipPath id="clip1_4467_25596">
<rect width="60" height="60" fill="white" transform="translate(117.961 43) rotate(-45)"/>
</clipPath>
</defs>
</svg>
