<svg width="25" height="24" viewBox="0 0 25 24" fill="none" xmlns="http://www.w3.org/2000/svg">
<path d="M18.2707 4.47C18.1907 4.47 18.1107 4.45 18.0407 4.41C16.1207 3.42 14.4607 3 12.4707 3C10.4907 3 8.61068 3.47 6.90068 4.41C6.66068 4.54 6.36068 4.45 6.22068 4.21C6.15832 4.09305 6.14433 3.95629 6.18173 3.82913C6.21913 3.70197 6.30493 3.59457 6.42068 3.53C8.28068 2.52 10.3207 2 12.4707 2C14.6007 2 16.4607 2.47 18.5007 3.52C18.7507 3.65 18.8407 3.95 18.7107 4.19C18.6711 4.27336 18.6089 4.34387 18.531 4.3934C18.4532 4.44294 18.3629 4.46949 18.2707 4.47ZM3.96068 9.72C3.8685 9.72086 3.77789 9.69617 3.69889 9.64866C3.61989 9.60116 3.55559 9.5327 3.51313 9.45088C3.47066 9.36906 3.45169 9.27708 3.45832 9.18514C3.46495 9.09319 3.49692 9.00488 3.55068 8.93C4.54068 7.53 5.80068 6.43 7.30068 5.66C10.4407 4.04 14.4607 4.03 17.6107 5.65C19.1107 6.42 20.3707 7.51 21.3607 8.9C21.3991 8.95374 21.4264 9.01455 21.4411 9.07891C21.4559 9.14328 21.4577 9.20993 21.4466 9.27501C21.4354 9.34009 21.4115 9.40232 21.3761 9.4581C21.3408 9.51388 21.2948 9.56211 21.2407 9.6C21.0107 9.76 20.7007 9.71 20.5407 9.48C19.665 8.24038 18.5017 7.23156 17.1507 6.54C14.2807 5.07 10.6107 5.07 7.75068 6.55C6.39068 7.25 5.25068 8.25 4.35068 9.51C4.27068 9.65 4.12068 9.72 3.96068 9.72ZM10.2107 21.79C10.1451 21.7908 10.0801 21.7779 10.0198 21.752C9.95953 21.7262 9.90533 21.688 9.86068 21.64C8.99068 20.77 8.52068 20.21 7.85068 19C7.16068 17.77 6.80068 16.27 6.80068 14.66C6.80068 11.69 9.34068 9.27 12.4607 9.27C15.5807 9.27 18.1207 11.69 18.1207 14.66C18.1207 14.94 17.9007 15.16 17.6207 15.16C17.3407 15.16 17.1207 14.94 17.1207 14.66C17.1207 12.24 15.0307 10.27 12.4607 10.27C9.89068 10.27 7.80068 12.24 7.80068 14.66C7.80068 16.1 8.12068 17.43 8.73068 18.51C9.37068 19.66 9.81068 20.15 10.5807 20.93C10.7707 21.13 10.7707 21.44 10.5807 21.64C10.4707 21.74 10.3407 21.79 10.2107 21.79ZM17.3807 19.94C16.1907 19.94 15.1407 19.64 14.2807 19.05C12.7907 18.04 11.9007 16.4 11.9007 14.66C11.9007 14.38 12.1207 14.16 12.4007 14.16C12.6807 14.16 12.9007 14.38 12.9007 14.66C12.9007 16.07 13.6207 17.4 14.8407 18.22C15.5507 18.7 16.3807 18.93 17.3807 18.93C17.6207 18.93 18.0207 18.9 18.4207 18.83C18.6907 18.78 18.9507 18.96 19.0007 19.24C19.0507 19.51 18.8707 19.77 18.5907 19.82C18.0207 19.93 17.5207 19.94 17.3807 19.94ZM15.3707 22C15.3307 22 15.2807 21.99 15.2407 21.98C13.6507 21.54 12.6107 20.95 11.5207 19.88C10.83 19.198 10.2823 18.385 9.90965 17.4887C9.53704 16.5923 9.34701 15.6307 9.35068 14.66C9.35068 13.04 10.7307 11.72 12.4307 11.72C14.1307 11.72 15.5107 13.04 15.5107 14.66C15.5107 15.73 16.4407 16.6 17.5907 16.6C18.7407 16.6 19.6707 15.73 19.6707 14.66C19.6707 10.89 16.4207 7.83 12.4207 7.83C9.58068 7.83 6.98068 9.41 5.81068 11.86C5.42068 12.67 5.22068 13.62 5.22068 14.66C5.22068 15.44 5.29068 16.67 5.89068 18.27C5.99068 18.53 5.86068 18.82 5.60068 18.91C5.34068 19.01 5.05068 18.87 4.96068 18.62C4.47882 17.3553 4.23145 16.0134 4.23068 14.66C4.23068 13.46 4.46068 12.37 4.91068 11.42C6.24068 8.63 9.19068 6.82 12.4207 6.82C16.9707 6.82 20.6707 10.33 20.6707 14.65C20.6707 16.27 19.2907 17.59 17.5907 17.59C15.8907 17.59 14.5107 16.27 14.5107 14.65C14.5107 13.58 13.5807 12.71 12.4307 12.71C11.2807 12.71 10.3507 13.58 10.3507 14.65C10.3507 16.36 11.0107 17.96 12.2207 19.16C13.1707 20.1 14.0807 20.62 15.4907 21.01C15.7607 21.08 15.9107 21.36 15.8407 21.62C15.7907 21.85 15.5807 22 15.3707 22Z" fill="black" fill-opacity="0.45"/>
</svg>
