<svg width="18" height="17" viewBox="0 0 18 17" fill="none" xmlns="http://www.w3.org/2000/svg">
<path d="M9.51836 4.92606V1.62085H6.56107C6.14584 1.62085 5.74762 1.7858 5.454 2.07941C5.16039 2.37302 4.99544 2.77125 4.99544 3.18647V12.2323C4.99544 12.6475 5.16039 13.0458 5.454 13.3394C5.74762 13.633 6.14584 13.7979 6.56107 13.7979H12.8236C13.0292 13.7979 13.2328 13.7574 13.4227 13.6788C13.6127 13.6001 13.7852 13.4848 13.9306 13.3394C14.076 13.194 14.1913 13.0214 14.27 12.8314C14.3487 12.6415 14.3892 12.4379 14.3892 12.2323V6.49168H11.084C10.6688 6.49168 10.2705 6.32673 9.97692 6.03312C9.68331 5.73951 9.51836 5.34129 9.51836 4.92606ZM10.5621 4.92606V1.96877L14.0413 5.44793H11.084C10.9456 5.44793 10.8128 5.39295 10.715 5.29508C10.6171 5.19721 10.5621 5.06447 10.5621 4.92606ZM4.3017 3.4488C3.99593 3.55653 3.73112 3.75648 3.5438 4.02108C3.35648 4.28567 3.25587 4.60187 3.25586 4.92606V12.2351C3.25586 13.1117 3.60409 13.9524 4.22393 14.5722C4.84378 15.1921 5.68447 15.5403 6.56107 15.5403H11.0798C11.7617 15.5403 12.3414 15.1047 12.5564 14.4965H6.56107C5.96129 14.4965 5.38608 14.2583 4.96198 13.8342C4.53787 13.4101 4.29961 12.8349 4.29961 12.2351L4.3017 3.4488Z" fill="#1C71B7"/>
</svg>
