<svg width="17" height="17" viewBox="0 0 17 17" fill="none" xmlns="http://www.w3.org/2000/svg">
<g clip-path="url(#clip0_3185_19311)">
<path d="M15.9609 1.9982L11.9574 1.99821V1.00171C11.9574 0.725459 11.7337 0.501709 11.4574 0.501709C11.1812 0.501709 10.9574 0.725459 10.9574 1.00171V1.99796H6.95744V1.00171C6.95744 0.725459 6.73369 0.501709 6.45744 0.501709C6.18119 0.501709 5.95744 0.725459 5.95744 1.00171V1.99796H1.96094C1.40869 1.99796 0.960938 2.44571 0.960938 2.99796V15.498C0.960938 16.0502 1.40869 16.498 1.96094 16.498H15.9609C16.5132 16.498 16.9609 16.0502 16.9609 15.498V2.99796C16.9609 2.44595 16.5132 1.9982 15.9609 1.9982ZM15.9609 15.498H1.96094V2.99796H5.95744V3.50171C5.95744 3.77795 6.18119 4.00171 6.45744 4.00171C6.73369 4.00171 6.95744 3.77795 6.95744 3.50171V2.99821H10.9574V3.50196C10.9574 3.77821 11.1812 4.00196 11.4574 4.00196C11.7337 4.00196 11.9574 3.77821 11.9574 3.50196V2.99821H15.9609V15.498ZM12.4609 8.49821H13.4609C13.7369 8.49821 13.9609 8.27421 13.9609 7.9982V6.9982C13.9609 6.7222 13.7369 6.4982 13.4609 6.4982H12.4609C12.1849 6.4982 11.9609 6.7222 11.9609 6.9982V7.9982C11.9609 8.27421 12.1849 8.49821 12.4609 8.49821ZM12.4609 12.498H13.4609C13.7369 12.498 13.9609 12.2742 13.9609 11.998V10.998C13.9609 10.722 13.7369 10.498 13.4609 10.498H12.4609C12.1849 10.498 11.9609 10.722 11.9609 10.998V11.998C11.9609 12.2745 12.1849 12.498 12.4609 12.498ZM9.46094 10.498H8.46094C8.18494 10.498 7.96094 10.722 7.96094 10.998V11.998C7.96094 12.2742 8.18494 12.498 8.46094 12.498H9.46094C9.73694 12.498 9.96094 12.2742 9.96094 11.998V10.998C9.96094 10.7222 9.73694 10.498 9.46094 10.498ZM9.46094 6.4982H8.46094C8.18494 6.4982 7.96094 6.7222 7.96094 6.9982V7.9982C7.96094 8.27421 8.18494 8.49821 8.46094 8.49821H9.46094C9.73694 8.49821 9.96094 8.27421 9.96094 7.9982V6.9982C9.96094 6.72195 9.73694 6.4982 9.46094 6.4982ZM5.46094 6.4982H4.46094C4.18494 6.4982 3.96094 6.7222 3.96094 6.9982V7.9982C3.96094 8.27421 4.18494 8.49821 4.46094 8.49821H5.46094C5.73694 8.49821 5.96094 8.27421 5.96094 7.9982V6.9982C5.96094 6.72195 5.73694 6.4982 5.46094 6.4982ZM5.46094 10.498H4.46094C4.18494 10.498 3.96094 10.722 3.96094 10.998V11.998C3.96094 12.2742 4.18494 12.498 4.46094 12.498H5.46094C5.73694 12.498 5.96094 12.2742 5.96094 11.998V10.998C5.96094 10.7222 5.73694 10.498 5.46094 10.498Z" fill="#1C71B7"/>
</g>
<defs>
<clipPath id="clip0_3185_19311">
<rect width="16" height="16" fill="white" transform="translate(0.960938 0.5)"/>
</clipPath>
</defs>
</svg>
