<svg width="25" height="24" viewBox="0 0 25 24" fill="none" xmlns="http://www.w3.org/2000/svg">
<path d="M10.1797 12C11.3307 12 12.1797 11.151 12.1797 10C12.1797 8.849 11.3307 8 10.1797 8C9.02869 8 8.17969 8.849 8.17969 10C8.17969 11.151 9.02769 12 10.1797 12Z" fill="#061725" fill-opacity="0.45"/>
<path d="M20.4648 4H4.46484C3.36184 4 2.46484 4.841 2.46484 5.875V18.125C2.46484 19.159 3.36184 20 4.46484 20H20.4648C21.5678 20 22.4648 19.159 22.4648 18.125V5.875C22.4648 4.841 21.5678 4 20.4648 4ZM20.4648 18L4.46484 17.989V6L20.4648 6.011V18Z" fill="#061725" fill-opacity="0.45"/>
<path d="M14.4648 9H18.4648V11H14.4648V9ZM15.4648 13H18.4648V15H15.4648V13ZM13.8948 15.536C13.8948 14.162 12.2188 12.75 10.1798 12.75C8.14084 12.75 6.46484 14.162 6.46484 15.536V16H13.8948V15.536Z" fill="#061725" fill-opacity="0.45"/>
</svg>
