<svg width="25" height="28" viewBox="0 0 25 28" fill="none" xmlns="http://www.w3.org/2000/svg">
<path d="M7.8436 16.2067C7.71738 16.3305 7.64548 16.4994 7.64373 16.6761C7.64198 16.8529 7.71052 17.0232 7.83427 17.1494L12.4889 21.8054C12.5507 21.8678 12.6242 21.9174 12.7052 21.9512C12.7862 21.985 12.8731 22.0024 12.9609 22.0024C13.0487 22.0024 13.1356 21.985 13.2167 21.9512C13.2977 21.9174 13.3712 21.8678 13.4329 21.8054L18.0863 17.1494C18.2029 17.0229 18.266 16.8563 18.2626 16.6843C18.2592 16.5123 18.1894 16.3483 18.0678 16.2265C17.9462 16.1048 17.7823 16.0348 17.6103 16.0311C17.4384 16.0274 17.2716 16.0903 17.1449 16.2067L13.6276 19.7241V1.33341C13.6276 1.1566 13.5574 0.987035 13.4323 0.86201C13.3073 0.736986 13.1377 0.666748 12.9609 0.666748C12.7841 0.666748 12.6146 0.736986 12.4895 0.86201C12.3645 0.987035 12.2943 1.1566 12.2943 1.33341V19.7241L8.77694 16.2067C8.65232 16.0846 8.48477 16.0162 8.31027 16.0162C8.13577 16.0162 7.96822 16.0846 7.8436 16.2067ZM20.9609 10.0001H18.9609C18.7841 10.0001 18.6146 10.0703 18.4895 10.1953C18.3645 10.3204 18.2943 10.4899 18.2943 10.6667C18.2943 10.8436 18.3645 11.0131 18.4895 11.1382C18.6146 11.2632 18.7841 11.3334 18.9609 11.3334H20.9609C21.6679 11.3345 22.3455 11.6158 22.8454 12.1156C23.3453 12.6155 23.6265 13.2932 23.6276 14.0001V23.3334C23.6265 24.0403 23.3453 24.718 22.8454 25.2179C22.3455 25.7177 21.6679 25.999 20.9609 26.0001H4.96094C4.25402 25.999 3.57636 25.7177 3.07649 25.2179C2.57662 24.718 2.29533 24.0403 2.29427 23.3334V14.0001C2.29533 13.2932 2.57662 12.6155 3.07649 12.1156C3.57636 11.6158 4.25402 11.3345 4.96094 11.3334H8.29427C8.47108 11.3334 8.64065 11.2632 8.76568 11.1382C8.8907 11.0131 8.96094 10.8436 8.96094 10.6667C8.96094 10.4899 8.8907 10.3204 8.76568 10.1953C8.64065 10.0703 8.47108 10.0001 8.29427 10.0001H4.96094C3.9004 10.0011 2.8836 10.4229 2.13368 11.1728C1.38376 11.9227 0.961996 12.9395 0.960938 14.0001V23.3334C0.961996 24.394 1.38376 25.4108 2.13368 26.1607C2.8836 26.9106 3.9004 27.3324 4.96094 27.3334H20.9609C22.0215 27.3324 23.0383 26.9106 23.7882 26.1607C24.5381 25.4108 24.9599 24.394 24.9609 23.3334V14.0001C24.9599 12.9395 24.5381 11.9227 23.7882 11.1728C23.0383 10.4229 22.0215 10.0011 20.9609 10.0001Z" fill="#061725"/>
</svg>
