<svg width="18" height="17" viewBox="0 0 18 17" fill="none" xmlns="http://www.w3.org/2000/svg">
<path d="M8.92734 1.08105C4.8926 1.08105 1.62109 4.35256 1.62109 8.3873C1.62109 12.422 4.8926 15.6936 8.92734 15.6936C12.9621 15.6936 16.2336 12.422 16.2336 8.3873C16.2336 4.35256 12.9621 1.08105 8.92734 1.08105ZM8.92734 14.4541C5.57756 14.4541 2.86055 11.7371 2.86055 8.3873C2.86055 5.03752 5.57756 2.32051 8.92734 2.32051C12.2771 2.32051 14.9941 5.03752 14.9941 8.3873C14.9941 11.7371 12.2771 14.4541 8.92734 14.4541Z" fill="#1C71B7"/>
<path d="M8.14648 5.51694C8.14648 5.72456 8.22896 5.92367 8.37576 6.07048C8.52257 6.21728 8.72168 6.29976 8.9293 6.29976C9.13691 6.29976 9.33602 6.21728 9.48283 6.07048C9.62963 5.92367 9.71211 5.72456 9.71211 5.51694C9.71211 5.30933 9.62963 5.11022 9.48283 4.96341C9.33602 4.81661 9.13691 4.73413 8.9293 4.73413C8.72168 4.73413 8.52257 4.81661 8.37576 4.96341C8.22896 5.11022 8.14648 5.30933 8.14648 5.51694ZM9.3207 7.34351H8.53789C8.46613 7.34351 8.40742 7.40222 8.40742 7.47397V11.9099C8.40742 11.9817 8.46613 12.0404 8.53789 12.0404H9.3207C9.39246 12.0404 9.45117 11.9817 9.45117 11.9099V7.47397C9.45117 7.40222 9.39246 7.34351 9.3207 7.34351Z" fill="#1C71B7"/>
</svg>
