<svg width="25" height="25" viewBox="0 0 25 25" fill="none" xmlns="http://www.w3.org/2000/svg">
<path d="M9.96094 5.50001C9.69572 5.50001 9.44137 5.60537 9.25383 5.7929C9.06629 5.98044 8.96094 6.23479 8.96094 6.50001C8.96094 6.76523 9.06629 7.01958 9.25383 7.20712C9.44137 7.39465 9.69572 7.50001 9.96094 7.50001C10.2262 7.50001 10.4805 7.39465 10.668 7.20712C10.8556 7.01958 10.9609 6.76523 10.9609 6.50001C10.9609 6.23479 10.8556 5.98044 10.668 5.7929C10.4805 5.60537 10.2262 5.50001 9.96094 5.50001ZM7.13094 5.50001C7.33754 4.91448 7.72068 4.40744 8.22754 4.0488C8.7344 3.69015 9.34002 3.49756 9.96094 3.49756C10.5819 3.49756 11.1875 3.69015 11.6943 4.0488C12.2012 4.40744 12.5843 4.91448 12.7909 5.50001H19.9609C20.2262 5.50001 20.4805 5.60537 20.668 5.7929C20.8556 5.98044 20.9609 6.23479 20.9609 6.50001C20.9609 6.76523 20.8556 7.01958 20.668 7.20712C20.4805 7.39465 20.2262 7.50001 19.9609 7.50001H12.7909C12.5843 8.08554 12.2012 8.59258 11.6943 8.95122C11.1875 9.30986 10.5819 9.50246 9.96094 9.50246C9.34002 9.50246 8.7344 9.30986 8.22754 8.95122C7.72068 8.59258 7.33754 8.08554 7.13094 7.50001H5.96094C5.69572 7.50001 5.44137 7.39465 5.25383 7.20712C5.06629 7.01958 4.96094 6.76523 4.96094 6.50001C4.96094 6.23479 5.06629 5.98044 5.25383 5.7929C5.44137 5.60537 5.69572 5.50001 5.96094 5.50001H7.13094ZM15.9609 11.5C15.6957 11.5 15.4414 11.6054 15.2538 11.7929C15.0663 11.9804 14.9609 12.2348 14.9609 12.5C14.9609 12.7652 15.0663 13.0196 15.2538 13.2071C15.4414 13.3947 15.6957 13.5 15.9609 13.5C16.2262 13.5 16.4805 13.3947 16.668 13.2071C16.8556 13.0196 16.9609 12.7652 16.9609 12.5C16.9609 12.2348 16.8556 11.9804 16.668 11.7929C16.4805 11.6054 16.2262 11.5 15.9609 11.5ZM13.1309 11.5C13.3375 10.9145 13.7207 10.4074 14.2275 10.0488C14.7344 9.69015 15.34 9.49756 15.9609 9.49756C16.5819 9.49756 17.1875 9.69015 17.6943 10.0488C18.2012 10.4074 18.5843 10.9145 18.7909 11.5H19.9609C20.2262 11.5 20.4805 11.6054 20.668 11.7929C20.8556 11.9804 20.9609 12.2348 20.9609 12.5C20.9609 12.7652 20.8556 13.0196 20.668 13.2071C20.4805 13.3947 20.2262 13.5 19.9609 13.5H18.7909C18.5843 14.0855 18.2012 14.5926 17.6943 14.9512C17.1875 15.3099 16.5819 15.5025 15.9609 15.5025C15.34 15.5025 14.7344 15.3099 14.2275 14.9512C13.7207 14.5926 13.3375 14.0855 13.1309 13.5H5.96094C5.69572 13.5 5.44137 13.3947 5.25383 13.2071C5.06629 13.0196 4.96094 12.7652 4.96094 12.5C4.96094 12.2348 5.06629 11.9804 5.25383 11.7929C5.44137 11.6054 5.69572 11.5 5.96094 11.5H13.1309ZM9.96094 17.5C9.69572 17.5 9.44137 17.6054 9.25383 17.7929C9.06629 17.9804 8.96094 18.2348 8.96094 18.5C8.96094 18.7652 9.06629 19.0196 9.25383 19.2071C9.44137 19.3947 9.69572 19.5 9.96094 19.5C10.2262 19.5 10.4805 19.3947 10.668 19.2071C10.8556 19.0196 10.9609 18.7652 10.9609 18.5C10.9609 18.2348 10.8556 17.9804 10.668 17.7929C10.4805 17.6054 10.2262 17.5 9.96094 17.5ZM7.13094 17.5C7.33754 16.9145 7.72068 16.4074 8.22754 16.0488C8.7344 15.6902 9.34002 15.4976 9.96094 15.4976C10.5819 15.4976 11.1875 15.6902 11.6943 16.0488C12.2012 16.4074 12.5843 16.9145 12.7909 17.5H19.9609C20.2262 17.5 20.4805 17.6054 20.668 17.7929C20.8556 17.9804 20.9609 18.2348 20.9609 18.5C20.9609 18.7652 20.8556 19.0196 20.668 19.2071C20.4805 19.3947 20.2262 19.5 19.9609 19.5H12.7909C12.5843 20.0855 12.2012 20.5926 11.6943 20.9512C11.1875 21.3099 10.5819 21.5025 9.96094 21.5025C9.34002 21.5025 8.7344 21.3099 8.22754 20.9512C7.72068 20.5926 7.33754 20.0855 7.13094 19.5H5.96094C5.69572 19.5 5.44137 19.3947 5.25383 19.2071C5.06629 19.0196 4.96094 18.7652 4.96094 18.5C4.96094 18.2348 5.06629 17.9804 5.25383 17.7929C5.44137 17.6054 5.69572 17.5 5.96094 17.5H7.13094Z" fill="white"/>
</svg>
