<svg width="22" height="22" viewBox="0 0 22 22" fill="none" xmlns="http://www.w3.org/2000/svg">
<g clip-path="url(#clip0_3185_19163)">
<path d="M20.2075 18H2.70752V16.25H3.58252V10.1521C3.58252 5.78763 7.10877 2.25 11.4575 2.25C15.8063 2.25 19.3325 5.78763 19.3325 10.1521V16.25H20.2075V18ZM5.33252 16.25H17.5825V10.1521C17.5825 6.7545 14.8403 4 11.4575 4C8.07477 4 5.33252 6.7545 5.33252 10.1521V16.25ZM9.27002 18.875H13.645C13.645 19.4552 13.4146 20.0116 13.0043 20.4218C12.5941 20.832 12.0377 21.0625 11.4575 21.0625C10.8774 21.0625 10.321 20.832 9.91072 20.4218C9.50049 20.0116 9.27002 19.4552 9.27002 18.875Z" fill="#061725"/>
</g>
<defs>
<clipPath id="clip0_3185_19163">
<rect width="21" height="21" fill="white" transform="translate(0.95752 0.5)"/>
</clipPath>
</defs>
</svg>
