<svg width="22" height="22" viewBox="0 0 22 22" fill="none" xmlns="http://www.w3.org/2000/svg">
<path d="M11.4575 11.875C11.1911 11.8719 10.9302 11.9505 10.7098 12.1001C10.4894 12.2498 10.3201 12.4634 10.2248 12.7122C10.1295 12.961 10.1127 13.233 10.1766 13.4916C10.2406 13.7502 10.3822 13.9831 10.5825 14.1587V15.375C10.5825 15.6071 10.6747 15.8296 10.8388 15.9937C11.0029 16.1578 11.2255 16.25 11.4575 16.25C11.6896 16.25 11.9121 16.1578 12.0762 15.9937C12.2403 15.8296 12.3325 15.6071 12.3325 15.375V14.1587C12.5328 13.9831 12.6744 13.7502 12.7384 13.4916C12.8023 13.233 12.7855 12.961 12.6902 12.7122C12.5949 12.4634 12.4256 12.2498 12.2053 12.1001C11.9849 11.9505 11.7239 11.8719 11.4575 11.875ZM15.8325 8.375V6.625C15.8325 5.46468 15.3716 4.35188 14.5511 3.53141C13.7306 2.71094 12.6178 2.25 11.4575 2.25C10.2972 2.25 9.1844 2.71094 8.36393 3.53141C7.54346 4.35188 7.08252 5.46468 7.08252 6.625V8.375C6.38633 8.375 5.71865 8.65156 5.22636 9.14384C4.73408 9.63613 4.45752 10.3038 4.45752 11V17.125C4.45752 17.8212 4.73408 18.4889 5.22636 18.9812C5.71865 19.4734 6.38633 19.75 7.08252 19.75H15.8325C16.5287 19.75 17.1964 19.4734 17.6887 18.9812C18.181 18.4889 18.4575 17.8212 18.4575 17.125V11C18.4575 10.3038 18.181 9.63613 17.6887 9.14384C17.1964 8.65156 16.5287 8.375 15.8325 8.375ZM8.83252 6.625C8.83252 5.92881 9.10908 5.26113 9.60136 4.76884C10.0936 4.27656 10.7613 4 11.4575 4C12.1537 4 12.8214 4.27656 13.3137 4.76884C13.806 5.26113 14.0825 5.92881 14.0825 6.625V8.375H8.83252V6.625ZM16.7075 17.125C16.7075 17.3571 16.6153 17.5796 16.4512 17.7437C16.2871 17.9078 16.0646 18 15.8325 18H7.08252C6.85046 18 6.6279 17.9078 6.4638 17.7437C6.29971 17.5796 6.20752 17.3571 6.20752 17.125V11C6.20752 10.7679 6.29971 10.5454 6.4638 10.3813C6.6279 10.2172 6.85046 10.125 7.08252 10.125H15.8325C16.0646 10.125 16.2871 10.2172 16.4512 10.3813C16.6153 10.5454 16.7075 10.7679 16.7075 11V17.125Z" fill="#061725"/>
</svg>
