<svg width="25" height="24" viewBox="0 0 25 24" fill="none" xmlns="http://www.w3.org/2000/svg">
<path d="M12.4609 13C12.1565 12.9964 11.8583 13.0862 11.6064 13.2573C11.3545 13.4284 11.1611 13.6725 11.0522 13.9568C10.9432 14.2411 10.924 14.552 10.9971 14.8476C11.0702 15.1431 11.2321 15.4092 11.4609 15.61V17C11.4609 17.2652 11.5663 17.5196 11.7538 17.7071C11.9414 17.8946 12.1957 18 12.4609 18C12.7262 18 12.9805 17.8946 13.168 17.7071C13.3556 17.5196 13.4609 17.2652 13.4609 17V15.61C13.6898 15.4092 13.8517 15.1431 13.9248 14.8476C13.9979 14.552 13.9787 14.2411 13.8697 13.9568C13.7608 13.6725 13.5674 13.4284 13.3155 13.2573C13.0636 13.0862 12.7654 12.9964 12.4609 13ZM17.4609 9V7C17.4609 5.67392 16.9342 4.40215 15.9965 3.46447C15.0588 2.52678 13.787 2 12.4609 2C11.1349 2 9.86309 2.52678 8.9254 3.46447C7.98772 4.40215 7.46094 5.67392 7.46094 7V9C6.66529 9 5.90223 9.31607 5.33962 9.87868C4.77701 10.4413 4.46094 11.2044 4.46094 12V19C4.46094 19.7956 4.77701 20.5587 5.33962 21.1213C5.90223 21.6839 6.66529 22 7.46094 22H17.4609C18.2566 22 19.0196 21.6839 19.5823 21.1213C20.1449 20.5587 20.4609 19.7956 20.4609 19V12C20.4609 11.2044 20.1449 10.4413 19.5823 9.87868C19.0196 9.31607 18.2566 9 17.4609 9ZM9.46094 7C9.46094 6.20435 9.77701 5.44129 10.3396 4.87868C10.9022 4.31607 11.6653 4 12.4609 4C13.2566 4 14.0196 4.31607 14.5823 4.87868C15.1449 5.44129 15.4609 6.20435 15.4609 7V9H9.46094V7ZM18.4609 19C18.4609 19.2652 18.3556 19.5196 18.168 19.7071C17.9805 19.8946 17.7262 20 17.4609 20H7.46094C7.19572 20 6.94137 19.8946 6.75383 19.7071C6.56629 19.5196 6.46094 19.2652 6.46094 19V12C6.46094 11.7348 6.56629 11.4804 6.75383 11.2929C6.94137 11.1054 7.19572 11 7.46094 11H17.4609C17.7262 11 17.9805 11.1054 18.168 11.2929C18.3556 11.4804 18.4609 11.7348 18.4609 12V19Z" fill="#061725" fill-opacity="0.45"/>
</svg>
