<svg width="19" height="22" viewBox="0 0 19 22" fill="none" xmlns="http://www.w3.org/2000/svg">
<g clip-path="url(#clip0_3185_19509)">
<path d="M13.1359 12.9688C11.9588 12.9688 11.3928 13.625 9.46094 13.625C7.5291 13.625 6.96719 12.9688 5.78594 12.9688C2.74258 12.9688 0.273438 15.4379 0.273438 18.4812V19.5312C0.273438 20.6182 1.15527 21.5 2.24219 21.5H16.6797C17.7666 21.5 18.6484 20.6182 18.6484 19.5312V18.4812C18.6484 15.4379 16.1793 12.9688 13.1359 12.9688ZM16.6797 19.5312H2.24219V18.4812C2.24219 16.5289 3.83359 14.9375 5.78594 14.9375C6.38477 14.9375 7.35684 15.5938 9.46094 15.5938C11.5814 15.5938 12.533 14.9375 13.1359 14.9375C15.0883 14.9375 16.6797 16.5289 16.6797 18.4812V19.5312ZM9.46094 12.3125C12.7217 12.3125 15.3672 9.66699 15.3672 6.40625C15.3672 3.14551 12.7217 0.5 9.46094 0.5C6.2002 0.5 3.55469 3.14551 3.55469 6.40625C3.55469 9.66699 6.2002 12.3125 9.46094 12.3125ZM9.46094 2.46875C11.6307 2.46875 13.3984 4.23652 13.3984 6.40625C13.3984 8.57598 11.6307 10.3438 9.46094 10.3438C7.29121 10.3438 5.52344 8.57598 5.52344 6.40625C5.52344 4.23652 7.29121 2.46875 9.46094 2.46875Z" fill="black" fill-opacity="0.45"/>
</g>
<defs>
<clipPath id="clip0_3185_19509">
<rect width="18.375" height="21" fill="white" transform="translate(0.273438 0.5)"/>
</clipPath>
</defs>
</svg>
