<svg width="22" height="22" viewBox="0 0 22 22" fill="none" xmlns="http://www.w3.org/2000/svg">
<g clip-path="url(#clip0_3185_19537)">
<path d="M15.3984 1.8125C15.7465 1.8125 16.0804 1.95078 16.3265 2.19692C16.5727 2.44306 16.7109 2.7769 16.7109 3.125V18.875C16.7109 19.2231 16.5727 19.5569 16.3265 19.8031C16.0804 20.0492 15.7465 20.1875 15.3984 20.1875H7.52344C7.17534 20.1875 6.8415 20.0492 6.59536 19.8031C6.34922 19.5569 6.21094 19.2231 6.21094 18.875V3.125C6.21094 2.7769 6.34922 2.44306 6.59536 2.19692C6.8415 1.95078 7.17534 1.8125 7.52344 1.8125H15.3984ZM7.52344 0.5C6.82724 0.5 6.15957 0.776562 5.66728 1.26884C5.175 1.76113 4.89844 2.42881 4.89844 3.125V18.875C4.89844 19.5712 5.175 20.2389 5.66728 20.7312C6.15957 21.2234 6.82724 21.5 7.52344 21.5H15.3984C16.0946 21.5 16.7623 21.2234 17.2546 20.7312C17.7469 20.2389 18.0234 19.5712 18.0234 18.875V3.125C18.0234 2.42881 17.7469 1.76113 17.2546 1.26884C16.7623 0.776562 16.0946 0.5 15.3984 0.5L7.52344 0.5Z" fill="black" fill-opacity="0.45"/>
<path d="M11.4609 18.875C11.809 18.875 12.1429 18.7367 12.389 18.4906C12.6352 18.2444 12.7734 17.9106 12.7734 17.5625C12.7734 17.2144 12.6352 16.8806 12.389 16.6344C12.1429 16.3883 11.809 16.25 11.4609 16.25C11.1128 16.25 10.779 16.3883 10.5329 16.6344C10.2867 16.8806 10.1484 17.2144 10.1484 17.5625C10.1484 17.9106 10.2867 18.2444 10.5329 18.4906C10.779 18.7367 11.1128 18.875 11.4609 18.875Z" fill="black" fill-opacity="0.45"/>
</g>
<defs>
<clipPath id="clip0_3185_19537">
<rect width="21" height="21" fill="white" transform="translate(0.960938 0.5)"/>
</clipPath>
</defs>
</svg>
