<svg width="291" height="244" viewBox="0 0 291 244" fill="none" xmlns="http://www.w3.org/2000/svg">
<path d="M290.836 225.259C290.836 226.441 289.861 227.623 287.929 228.785C286.003 229.944 283.157 231.065 279.483 232.134C272.136 234.273 261.5 236.2 248.353 237.819C222.059 241.056 185.731 243.058 145.604 243.058C122.494 243.058 100.646 242.396 81.2521 241.215C57.2658 239.754 37.0281 237.5 22.7886 234.734C15.6681 233.351 10.0522 231.84 6.21832 230.237C4.30098 229.436 2.83482 228.614 1.84954 227.777C0.863436 226.94 0.371345 226.099 0.371345 225.259C0.371345 224.559 0.713653 223.857 1.40058 223.157C2.08779 222.457 3.11345 221.764 4.46254 221.084C7.16036 219.724 11.1316 218.423 16.2175 217.201C26.3877 214.759 40.9941 212.643 58.7323 211.014L58.7237 210.921L58.7323 211.014C82.9662 208.783 113.032 207.463 145.604 207.463C185.731 207.463 222.059 209.465 248.353 212.702C261.5 214.321 272.136 216.247 279.483 218.386C283.157 219.455 286.003 220.576 287.929 221.734C289.861 222.897 290.836 224.078 290.836 225.259Z" fill="#1C71B7" stroke="#061725" stroke-width="0.188003"/>
<path d="M58.6856 224.732C61.6635 229.861 68.298 235.44 80.7495 241.185C56.983 239.722 36.9285 237.481 22.7886 234.734C15.6681 233.35 10.0522 231.84 6.21832 230.237C4.30098 229.436 2.83482 228.614 1.84954 227.777C0.863436 226.94 0.371345 226.099 0.371345 225.259C0.371345 224.558 0.713653 223.857 1.40058 223.157C2.08779 222.457 3.11345 221.764 4.46254 221.084C7.16036 219.724 11.1316 218.423 16.2175 217.201C26.3536 214.767 40.8964 212.657 58.5543 211.03C56.393 214.932 55.7062 219.601 58.6856 224.732Z" fill="#1C71B7" stroke="#061725" stroke-width="0.188003"/>
<path d="M90.5431 201.357L90.5431 201.357L81.5981 209.855C80.7553 210.661 80.0795 211.625 79.6093 212.693C79.1392 213.76 78.8838 214.909 78.8579 216.075C78.832 217.242 79.036 218.401 79.4583 219.488C79.8806 220.576 80.5129 221.569 81.3191 222.412C82.1253 223.255 83.0896 223.931 84.157 224.401C85.2244 224.871 86.3739 225.126 87.5399 225.152C88.706 225.178 89.8657 224.974 90.9529 224.552C92.0401 224.129 93.0334 223.497 93.8762 222.691L90.5431 201.357ZM90.5431 201.357L103.997 188.559L122.79 194.916M90.5431 201.357L122.79 194.916M122.79 194.916L93.8764 222.691L122.79 194.916Z" fill="#F9C921" stroke="#061725" stroke-width="0.188003"/>
<path d="M103.356 189.077L90.3881 201.427L89.8504 199.296C89.8504 199.296 89.8504 199.296 89.8504 199.296C89.6301 198.422 89.6451 197.506 89.8938 196.64C90.1425 195.775 90.6161 194.99 91.2663 194.367L91.2663 194.367L98.6718 187.264L103.356 189.077Z" fill="#E2B21B" stroke="#061725" stroke-width="0.188003"/>
<path d="M138.156 172.459L138.156 172.46C139.027 175.521 139.781 179.942 138.862 184.504C137.944 189.062 135.355 193.766 129.526 197.402C128.364 198.122 127.156 198.763 125.908 199.321L125.908 199.321L125.793 199.27C125.691 199.225 125.54 199.159 125.342 199.073C124.945 198.9 124.36 198.649 123.604 198.333C122.091 197.701 119.897 196.808 117.169 195.767C111.713 193.685 104.121 191.009 95.5747 188.634C87.0288 186.26 77.5275 184.185 68.2545 183.306C59.1967 182.447 50.3509 182.728 42.8242 184.989C45.0091 183.334 54.626 175.452 63.3809 158.778C68.9147 148.249 74.1022 134.21 76.8548 116.028C76.9074 116.183 76.9774 116.385 77.0658 116.63C77.295 117.264 77.6481 118.189 78.1443 119.351L78.2307 119.314L78.1443 119.351C82.4726 129.485 97.7085 157.664 136.676 168.402C137.279 169.712 137.774 171.069 138.156 172.459Z" fill="#87D296" stroke="#061725" stroke-width="0.188003"/>
<path d="M68.252 183.306C59.1946 182.448 50.3493 182.73 42.8232 184.992C42.8376 184.981 42.8524 184.97 42.8675 184.959C43.1902 184.713 43.6619 184.342 44.2588 183.838C45.4524 182.828 47.1468 181.286 49.1516 179.153C53.1446 174.903 58.3695 168.307 63.3243 158.9C66.9648 162.848 91.5829 188.296 129.34 197.52C128.237 198.192 127.093 198.793 125.914 199.321L125.913 199.321L125.798 199.27C125.697 199.225 125.546 199.159 125.347 199.073C124.951 198.901 124.365 198.649 123.609 198.333C122.096 197.701 119.902 196.808 117.173 195.767C111.717 193.685 104.123 191.009 95.5755 188.634C87.0284 186.259 77.526 184.184 68.252 183.306Z" fill="#70BA7C" stroke="#061725" stroke-width="0.188003"/>
<path d="M138.113 172.316C113.445 167.318 97.8646 154.844 88.4476 143.61C83.7293 137.981 80.5581 132.663 78.5667 128.753C77.571 126.799 76.8703 125.196 76.4187 124.082C76.1929 123.525 76.0294 123.091 75.9224 122.796C75.8689 122.648 75.8295 122.535 75.8035 122.46C75.7946 122.434 75.7873 122.412 75.7815 122.395L78.2046 119.498C82.6132 129.749 97.8875 157.719 136.676 168.407C137.257 169.671 137.737 170.977 138.113 172.316Z" fill="#90DD9D" stroke="#061725" stroke-width="0.188003"/>
<path d="M78.1062 128.202L78.1062 128.202C76.1437 136.539 72.524 146.129 67.4115 155.861C60.2712 169.441 51.7091 180.471 43.9683 186.874L44.0282 186.946L43.9683 186.874C40.7857 189.507 37.7468 191.358 35.007 192.287C32.2674 193.217 29.8361 193.223 27.8567 192.183C25.6635 191.031 24.2127 188.692 23.4791 185.424C22.7456 182.157 22.7326 177.974 23.4048 173.157C24.749 163.524 28.8305 151.378 35.3317 139.004C35.8327 138.052 36.3393 137.113 36.8516 136.186C44.1254 123.066 52.6512 112.614 60.2234 106.84C63.1207 104.631 65.8749 103.11 68.3629 102.382C70.8503 101.654 73.0646 101.722 74.8922 102.68C77.551 104.08 79.1191 107.227 79.6382 111.656C80.157 116.082 79.6248 121.766 78.1062 128.202ZM60.1664 106.765C65.9719 102.339 71.2247 100.651 74.9359 102.597L60.1664 106.765Z" fill="#F9C921" stroke="#061725" stroke-width="0.188003"/>
<path d="M79.6359 111.656C80.1348 115.912 79.6619 121.331 78.2747 127.463C78.0459 119.107 75.6493 113.939 72.2798 110.844C68.8874 107.728 64.5242 106.728 60.4409 106.673C63.2577 104.554 65.9356 103.091 68.3606 102.382C70.8479 101.654 73.0622 101.722 74.8898 102.68C77.5487 104.08 79.1168 107.227 79.6359 111.656Z" fill="#FFDA66" stroke="#061725" stroke-width="0.188003"/>
<path d="M35.3317 139.004C35.7107 138.284 36.0929 137.571 36.4783 136.865C34.3454 144.945 32.7201 154.39 33.2958 163.293C33.887 172.435 36.8005 181.014 43.881 186.946C40.7302 189.541 37.7217 191.366 35.007 192.287C32.2674 193.217 29.8361 193.223 27.8567 192.183C25.6635 191.031 24.2127 188.692 23.4791 185.424C22.7456 182.157 22.7326 177.973 23.4048 173.157C24.749 163.524 28.8305 151.378 35.3317 139.004Z" fill="#E2B21B" stroke="#061725" stroke-width="0.188003"/>
<path d="M57.2153 161.089L57.2153 161.089C52.2284 169.545 46.9656 176.456 42.2756 180.911C39.9302 183.139 37.7321 184.749 35.7869 185.632C33.8405 186.516 32.1628 186.666 30.8432 186.003C29.3066 185.231 28.366 183.408 28.005 180.728C27.6444 178.053 27.8658 174.547 28.6284 170.452C30.1535 162.264 33.8385 151.739 39.3244 140.82C44.8104 129.902 51.0568 120.665 56.718 114.557C59.549 111.502 62.23 109.233 64.5928 107.926C66.9588 106.618 68.9837 106.285 70.5213 107.057C71.8578 107.731 72.7437 109.199 73.1894 111.337C73.6348 113.474 73.6367 116.262 73.2201 119.547C72.3871 126.115 69.8838 134.642 65.9444 143.852C64.7683 146.599 63.4625 149.408 62.0402 152.24C60.4807 155.338 58.863 158.299 57.2153 161.089Z" fill="#87D296" stroke="#061725" stroke-width="0.188003"/>
<path d="M57.7221 160.217L57.7218 160.218C57.5629 160.493 57.4059 160.765 57.2444 161.036L44.9872 159.54L44.9871 159.54L44.0464 159.426L45.9885 155.56L45.9886 155.56L46.5394 154.468L46.5394 154.468L54.5822 138.465L54.5822 138.465L56.6471 134.359L57.2826 135.016L57.2828 135.016L65.923 143.91C64.7533 146.639 63.4558 149.428 62.0434 152.24C60.6473 155.015 59.2006 157.689 57.7221 160.217Z" fill="#E1F0FC" stroke="#061725" stroke-width="0.188003"/>
<path d="M44.9911 159.54L44.991 159.54L44.0503 159.426L45.9924 155.56L45.9925 155.56L46.5227 154.509L51.6209 153.473C51.6311 153.497 51.6439 153.526 51.6595 153.561C51.7063 153.665 51.7782 153.816 51.8794 154.009C52.0817 154.393 52.4012 154.94 52.8707 155.594C53.8008 156.888 55.3196 158.6 57.6831 160.292C57.5386 160.542 57.3953 160.79 57.2483 161.037L44.9911 159.54Z" fill="#D4E0E8" stroke="#061725" stroke-width="0.188003"/>
<path d="M56.5818 134.267C57.0987 134.527 57.4405 135.112 57.5978 135.981C57.7547 136.849 57.724 137.982 57.5135 139.304C57.0927 141.948 55.9572 145.329 54.2043 148.817C52.4514 152.305 50.4166 155.234 48.5462 157.149C47.6106 158.108 46.72 158.808 45.93 159.2C45.1383 159.593 44.4653 159.668 43.9483 159.408C43.4313 159.148 43.0895 158.564 42.9323 157.694C42.7753 156.826 42.806 155.693 43.0165 154.371C43.4373 151.727 44.5729 148.346 46.3258 144.858C48.0786 141.37 50.1135 138.441 51.9839 136.526C52.9194 135.568 53.81 134.867 54.6 134.475C55.3917 134.082 56.0648 134.007 56.5818 134.267Z" fill="#F9C921" stroke="#061725" stroke-width="0.188003"/>
<path d="M52.6217 148.179L52.6216 148.179C52.0577 149.307 51.4186 150.397 50.7086 151.439C49.734 152.859 48.7415 153.978 47.8567 154.67C47.4142 155.016 47.0026 155.252 46.6371 155.367C46.2722 155.481 45.9607 155.473 45.7078 155.344L45.707 155.343C45.3697 155.174 45.1414 154.79 45.0356 154.205C44.9302 153.622 44.9505 152.858 45.0927 151.963C45.3771 150.174 46.145 147.885 47.3319 145.522L47.3321 145.522C47.9734 144.236 48.7151 143.002 49.5502 141.833C50.4768 140.547 51.4074 139.545 52.2345 138.932C52.6481 138.625 53.0319 138.419 53.3731 138.322C53.7136 138.225 54.0055 138.237 54.2444 138.358L54.2446 138.358C54.583 138.527 54.8119 138.912 54.918 139.497C55.0238 140.081 55.0036 140.845 54.8613 141.739C54.577 143.528 53.8086 145.816 52.6217 148.179Z" fill="#E1F0FC" stroke="#061725" stroke-width="0.188003"/>
<path d="M89.8923 201.98C88.6375 203.876 86.9836 206.942 86.3894 210.617C85.7136 214.796 86.4096 219.761 90.611 224.681C89.3353 225.121 87.9751 225.264 86.6345 225.098C85.2488 224.927 83.9233 224.429 82.7665 223.647L82.7665 223.647C81.6662 222.905 80.7465 221.924 80.0751 220.779C79.4036 219.634 78.9976 218.353 78.8867 217.03C78.7759 215.707 78.9631 214.376 79.4346 213.135C79.9061 211.894 80.6499 210.774 81.6112 209.859C81.6112 209.859 81.6112 209.859 81.6112 209.859L89.8923 201.98Z" fill="#E2B21B" stroke="#061725" stroke-width="0.188003"/>
<path d="M47.3321 145.522C47.9289 144.325 48.6126 143.174 49.3776 142.078C49.3681 144.781 49.6517 148.119 50.6829 151.477C49.7166 152.879 48.7338 153.985 47.8567 154.67C47.4142 155.016 47.0026 155.252 46.6371 155.367C46.2722 155.481 45.9607 155.473 45.7078 155.344L45.707 155.343C45.3697 155.175 45.1414 154.791 45.0356 154.205C44.9302 153.622 44.9505 152.858 45.0927 151.963C45.3771 150.174 46.145 147.885 47.3319 145.522L47.3321 145.522Z" fill="#D4E0E8" stroke="#061725" stroke-width="0.188003"/>
<path d="M106.326 76.8419L106.325 76.8414C95.5774 69.6372 90.7266 61.3375 88.5611 54.8429C87.4781 51.5949 87.0664 48.7973 86.9254 46.8125C86.8549 45.8201 86.852 45.031 86.8667 44.4906C86.8741 44.2204 86.8858 44.0124 86.8957 43.8722C86.8993 43.8211 86.9027 43.779 86.9055 43.7462L93.4134 43.8723L93.7598 43.879L93.4643 43.6982L85.801 39.0086C85.7983 33.3485 86.2637 28.3946 86.7304 24.8526C86.9645 23.0762 87.1989 21.6551 87.3748 20.6783C87.4627 20.1899 87.536 19.8126 87.5872 19.5575C87.6069 19.4594 87.6234 19.3794 87.6362 19.3181L92.8716 23.4837L93.014 23.3676L88.8072 15.074C89.3588 11.7063 90.807 7.95675 92.1216 5.04235C92.7805 3.58161 93.4051 2.33229 93.865 1.44823C94.0949 1.00622 94.2836 0.655574 94.4147 0.415526C94.4777 0.300285 94.5274 0.210538 94.5621 0.148413C100.578 5.56764 105.464 12.3127 109.016 18.0732C111.168 21.5652 112.827 24.6957 113.948 26.953C114.508 28.0816 114.934 28.9919 115.219 29.6198C115.362 29.9338 115.47 30.1772 115.542 30.3419C115.578 30.4243 115.605 30.4871 115.623 30.5292L115.63 30.5464L113.498 33.7736L110.908 37.6935L111.035 37.8254L113.966 36.0225L113.966 36.0224L117.348 33.9508C119.044 37.8661 120.081 42.1711 120.695 45.5092C121.004 47.1919 121.206 48.6279 121.33 49.6431C121.392 50.1507 121.435 50.553 121.462 50.8283C121.476 50.966 121.486 51.0719 121.492 51.1433L121.498 51.2101L114.583 58.5681L114.685 58.7205L122.204 55.909C122.513 68.1905 116.464 74.312 112.537 76.9789L112.535 76.9802C111.543 77.6879 110.472 78.2767 109.343 78.7347L108.988 78.5306C108.988 78.5305 108.988 78.5304 108.988 78.5303C108.057 77.9785 107.17 77.4194 106.326 76.8419Z" fill="#55AD68" stroke="#061725" stroke-width="0.188003"/>
<path d="M113.629 33.5781C112.721 28.5944 111.36 23.7045 109.564 18.969C111.452 22.0991 112.925 24.8906 113.949 26.9531C114.509 28.0817 114.935 28.992 115.221 29.6199C115.363 29.9339 115.471 30.1772 115.543 30.342C115.579 30.4244 115.606 30.4872 115.624 30.5293L115.632 30.5465L113.629 33.5781Z" fill="#499B58" stroke="#061725" stroke-width="0.188003"/>
<path d="M117.341 33.9511C119.037 37.8663 120.074 42.1714 120.688 45.5095C120.997 47.1922 121.199 48.6282 121.323 49.6434C121.385 50.151 121.428 50.5533 121.455 50.8286C121.469 50.9663 121.479 51.0721 121.485 51.1436L121.491 51.2103L114.576 58.5683L114.678 58.7207L122.197 55.9092C122.506 68.1908 116.456 74.3123 112.53 76.9792L112.528 76.9804C111.536 77.6881 110.464 78.277 109.335 78.7349L108.981 78.5309C108.981 78.5308 108.981 78.5307 108.981 78.5306C108.077 77.9946 107.213 77.4517 106.391 76.8917C114.783 62.6404 115.781 48.162 114.012 35.9904L117.341 33.9511Z" fill="#499B58" stroke="#061725" stroke-width="0.188003"/>
<path d="M112.476 77.0354C111.5 77.7225 110.448 78.2952 109.341 78.7424L109.022 78.5578C100.65 52.8958 98.211 21.7317 97.6792 13.2229C103.478 53.6008 109.28 70.3684 112.476 77.0354Z" fill="white" stroke="#061725" stroke-width="0.188003"/>
<path d="M109.692 77.1962L109.691 77.1962C97.7037 76.6463 89.8681 72.3944 85.0301 68.2841C82.6106 66.2285 80.9399 64.2075 79.8745 62.7013C79.3419 61.9482 78.9606 61.3238 78.7126 60.8882C78.5887 60.6704 78.4981 60.4999 78.4386 60.384C78.4184 60.3446 78.4018 60.3116 78.3887 60.2852L83.6073 57.2607L83.9073 57.0869L83.5606 57.0854L75.2283 57.0499C72.5093 52.5613 70.4991 48.4091 69.1677 45.3759C68.4997 43.8544 68.0027 42.6146 67.6727 41.7554C67.5077 41.3258 67.3844 40.9914 67.3025 40.7645C67.2729 40.6827 67.2488 40.6148 67.2299 40.5616L73.3735 41.3469L73.4351 41.1739L66.114 36.6197C64.9321 33.6835 64.2783 30.0137 63.9202 27.07C63.7407 25.5943 63.6357 24.3028 63.5755 23.3803C63.5455 22.9191 63.5266 22.5502 63.5153 22.2967C63.5101 22.1801 63.5065 22.088 63.5041 22.0225C70.8806 23.432 77.9913 26.4345 83.5775 29.2958C86.9641 31.0314 89.7844 32.7172 91.758 33.969C92.7447 34.5949 93.5197 35.1123 94.0478 35.473C94.3119 35.6534 94.5142 35.7946 94.6505 35.8907C94.7186 35.9388 94.7702 35.9755 94.8047 36.0002L94.8159 36.0082L94.6768 39.5899L94.6768 39.59L94.5039 43.9459L94.6814 43.9926L96.1402 41.1541L96.1403 41.1538L97.8333 37.8865C101.059 40.1754 103.948 43.0895 106.038 45.4411C107.091 46.6273 107.941 47.6697 108.528 48.4153C108.821 48.7882 109.048 49.0868 109.202 49.2921C109.279 49.3947 109.337 49.474 109.377 49.5276L109.411 49.5753L107.452 58.7333L107.617 58.8114L112.236 52.9792C118.373 62.561 116.518 70.3233 114.691 74.3295L114.69 74.3313C114.242 75.371 113.674 76.3546 112.998 77.2619H112.622H112.621C111.615 77.2656 110.641 77.2487 109.692 77.1962Z" fill="#65C67C" stroke="#061725" stroke-width="0.188003"/>
<path d="M94.6828 39.3497C91.5851 35.8562 88.1779 32.6506 84.5033 29.7718C87.4777 31.3348 89.9646 32.8274 91.7548 33.9629C92.7416 34.5888 93.5165 35.1062 94.0447 35.467C94.3087 35.6474 94.5111 35.7886 94.6473 35.8847C94.7155 35.9327 94.7671 35.9695 94.8016 35.9942L94.8127 36.0022L94.6828 39.3497Z" fill="#58B76C" stroke="#061725" stroke-width="0.188003"/>
<path d="M97.8235 37.8861C101.049 40.175 103.938 43.0891 106.028 45.4408C107.082 46.6269 107.931 47.6693 108.518 48.415C108.811 48.7878 109.038 49.0864 109.192 49.2917C109.269 49.3943 109.327 49.4737 109.367 49.5273L109.402 49.575L107.442 58.733L107.608 58.811L112.226 52.9788C118.363 62.5606 116.508 70.3229 114.681 74.3291L114.68 74.331C114.232 75.3707 113.664 76.3542 112.988 77.2615H112.612H112.611C111.636 77.2651 110.691 77.2494 109.77 77.2006C109.573 61.8638 103.412 49.8994 96.1589 41.0985L97.8235 37.8861Z" fill="#58B76C" stroke="#061725" stroke-width="0.188003"/>
<path d="M114.65 74.4036C114.208 75.4171 113.65 76.3761 112.987 77.2616H112.987H112.986H112.985H112.985H112.984H112.983H112.982H112.981H112.98H112.98H112.979H112.978H112.977H112.976H112.976H112.975H112.974H112.973H112.972H112.972H112.971H112.97H112.969H112.968H112.967H112.967H112.966H112.965H112.964H112.963H112.963H112.962H112.961H112.96H112.959H112.959H112.958H112.957H112.956H112.955H112.954H112.954H112.953H112.952H112.951H112.95H112.95H112.949H112.948H112.947H112.946H112.945H112.945H112.944H112.943H112.942H112.941H112.941H112.94H112.939H112.938H112.937H112.936H112.936H112.935H112.934H112.933H112.932H112.931H112.931H112.93H112.929H112.928H112.927H112.927H112.926H112.925H112.924H112.923H112.922H112.922H112.921H112.92H112.919H112.918H112.918H112.917H112.916H112.915H112.914H112.913H112.913H112.912H112.911H112.91H112.909H112.908H112.908H112.907H112.906H112.905H112.904H112.903H112.903H112.902H112.901H112.9H112.899H112.899H112.898H112.897H112.896H112.895H112.894H112.894H112.893H112.892H112.891H112.89H112.889H112.889H112.888H112.887H112.886H112.885H112.884H112.884H112.883H112.882H112.881H112.88H112.879H112.879H112.878H112.877H112.876H112.875H112.874H112.874H112.873H112.872H112.871H112.87H112.87H112.869H112.868H112.867H112.866H112.865H112.865H112.864H112.863H112.862H112.861H112.86H112.86H112.859H112.858H112.857H112.856H112.855H112.855H112.854H112.853H112.852H112.851H112.85H112.85H112.849H112.848H112.847H112.846H112.845H112.845H112.844H112.843H112.842H112.841H112.84H112.84H112.839H112.838H112.837H112.836H112.835H112.835H112.834H112.833H112.832H112.831H112.83H112.83H112.829H112.828H112.827H112.826H112.825H112.825H112.824H112.823H112.822H112.821H112.82H112.82H112.819H112.818H112.817H112.816H112.815H112.815H112.814H112.813H112.812H112.811H112.81H112.81H112.809H112.808H112.807H112.806H112.806H112.805H112.804H112.803H112.802H112.801H112.801H112.8H112.799H112.798H112.797H112.796H112.796H112.795H112.794H112.793H112.792H112.791H112.791H112.79H112.789H112.788H112.787H112.786H112.786H112.785H112.784H112.783H112.782H112.781H112.781H112.78H112.779H112.778H112.777H112.776H112.776H112.775H112.774H112.773H112.772H112.771H112.771H112.77H112.769H112.768H112.767H112.766H112.766H112.765H112.764H112.763H112.762H112.762H112.761H112.76H112.759H112.758H112.757H112.757H112.756H112.755H112.754H112.753H112.752H112.752H112.751H112.75H112.749H112.748H112.747H112.747H112.746H112.745H112.744H112.743H112.742H112.742H112.741H112.74H112.739H112.738H112.738H112.737H112.736H112.735H112.734H112.733H112.733H112.732H112.731H112.73H112.729H112.728H112.728H112.727H112.726H112.725H112.724H112.724H112.723H112.722H112.721H112.72H112.719H112.719H112.718H112.717H112.716H112.715H112.714H112.714H112.713H112.712H112.711H112.71H112.71H112.709H112.708H112.707H112.706H112.705H112.705H112.704H112.703H112.702H112.701H112.701H112.7H112.699H112.698H112.697H112.696H112.696H112.695H112.694H112.693H112.692H112.692H112.691H112.69H112.689H112.688H112.687H112.687H112.686H112.685H112.684H112.683H112.683H112.682H112.681H112.68H112.679H112.679H112.678H112.677H112.676H112.675H112.674H112.674H112.673H112.672H112.671H112.67H112.67H112.669H112.668H112.667H112.666H112.666H112.665H112.664H112.663H112.662H112.661H112.661H112.66H112.659H112.658H112.657H112.657H112.656H112.655H112.654H112.653H112.653H112.652H112.651H112.65H112.65C93.8245 61.0523 77.0259 37.7388 72.3601 31.0384C96.282 60.1662 108.917 70.6532 114.65 74.4036Z" fill="white" stroke="#061725" stroke-width="0.188003"/>
<path d="M109.853 78.7895L109.852 78.7897C100.162 82.1599 92.5928 81.2728 87.4485 79.5468C84.8757 78.6835 82.9083 77.6101 81.5848 76.753C80.923 76.3245 80.4223 75.9501 80.0874 75.6833C79.92 75.5498 79.794 75.4433 79.7101 75.3703C79.6863 75.3495 79.6658 75.3315 79.6488 75.3163L82.8247 71.2679L83.0386 70.9952L82.7162 71.1224L76.0967 73.7351C72.5132 71.038 69.5998 68.3824 67.5802 66.3985C66.5665 65.4028 65.778 64.5764 65.2432 63.9992C64.9758 63.7105 64.7718 63.4842 64.6347 63.3301C64.5926 63.2827 64.5567 63.2422 64.5274 63.2087L69.6348 61.8876L69.6277 61.704L62.3709 60.4122C60.5014 58.4545 58.819 55.752 57.6011 53.5314C56.9902 52.4177 56.4971 51.4268 56.1568 50.7143C55.9866 50.3581 55.8546 50.0716 55.7652 49.8743C55.7282 49.7924 55.6984 49.726 55.6763 49.6762C61.9671 48.4561 68.5644 48.5793 73.904 49.0759L73.9044 49.0759C77.6225 49.4077 81.3133 49.9955 84.9505 50.8351L85.9748 53.7157L87.2231 57.2276L87.4053 57.2049L87.6609 54.4885L87.6609 54.4883L87.9608 51.3793C91.2431 52.1721 94.4552 53.5655 96.8566 54.7673C98.0697 55.3744 99.0751 55.9321 99.777 56.338C100.128 56.5409 100.403 56.7059 100.59 56.82C100.684 56.8771 100.755 56.9214 100.804 56.9515L100.841 56.9751L102.203 64.8582L102.386 64.8689L104.189 58.791C112.087 64.442 113.083 71.183 112.897 74.9389L112.897 74.9412C112.872 75.9031 112.735 76.8588 112.489 77.7889L112.199 77.9112C112.198 77.9113 112.198 77.9115 112.198 77.9116C111.399 78.2272 110.621 78.529 109.853 78.7895Z" fill="#87D296" stroke="#061725" stroke-width="0.188003"/>
<path d="M74.9212 49.1715C78.2945 49.5155 81.6434 50.0704 84.9479 50.8333L85.8937 53.4931C82.3716 51.7288 78.6995 50.2826 74.9212 49.1715Z" fill="#78C184" stroke="#061725" stroke-width="0.188003"/>
<path d="M87.9598 51.3793C91.2421 52.1721 94.4542 53.5655 96.8556 54.7672C98.0687 55.3743 99.0741 55.9321 99.776 56.3379C100.127 56.5409 100.402 56.7058 100.589 56.8199C100.683 56.877 100.755 56.9214 100.803 56.9514L100.84 56.975L102.202 64.8581L102.385 64.8689L104.188 58.791C112.086 64.442 113.082 71.1829 112.896 74.9389L112.896 74.9411C112.871 75.903 112.734 76.8587 112.488 77.7888L112.198 77.9112C112.197 77.9113 112.197 77.9114 112.197 77.9115C111.427 78.2158 110.677 78.5072 109.935 78.761C104.907 66.6519 96.2162 59.1055 87.6659 54.4267L87.9598 51.3793Z" fill="#78C184" stroke="#061725" stroke-width="0.188003"/>
<path d="M112.485 77.789L112.229 77.8979C92.4894 71.1267 72.1263 58.2948 65.8865 54.2116C93.8833 69.5848 107.165 73.8737 112.894 75.0276C112.863 75.9606 112.725 76.8869 112.485 77.789Z" fill="white" stroke="#061725" stroke-width="0.188003"/>
<path d="M192.59 56.4461H194.389C194.671 56.4461 194.9 56.675 194.9 56.9574V85.1409C194.9 85.4233 194.671 85.6523 194.389 85.6523H192.59C192.307 85.6523 192.078 85.4233 192.078 85.1409V56.9574C192.078 56.675 192.307 56.4461 192.59 56.4461Z" fill="#6D778B" stroke="#061725" stroke-width="0.188003"/>
<path d="M192.59 92.3601H194.389C194.671 92.3601 194.9 92.5891 194.9 92.8715V101.191C194.9 101.473 194.671 101.702 194.389 101.702H192.59C192.307 101.702 192.078 101.473 192.078 101.191V92.8715C192.078 92.5891 192.307 92.3601 192.59 92.3601Z" fill="#6D778B" stroke="#061725" stroke-width="0.188003"/>
<path d="M192.452 38.5497V222.629C192.452 223.95 191.927 225.217 190.993 226.152C190.059 227.086 188.792 227.611 187.47 227.611H103.721C102.399 227.611 101.132 227.086 100.198 226.152C99.2634 225.217 98.7385 223.95 98.7385 222.629V38.5497C98.7385 37.2284 99.2634 35.9612 100.198 35.0269C101.132 34.0925 102.399 33.5676 103.721 33.5676H187.478C188.798 33.5696 190.063 34.0954 190.996 35.0295C191.928 35.9636 192.452 37.2297 192.452 38.5497Z" fill="#8DB8DB" stroke="#061725" stroke-width="0.188003"/>
<path d="M121.252 123.358C126.137 159.711 136.475 198.481 157.275 227.603H103.721C102.399 227.603 101.132 227.079 100.198 226.144C99.2634 225.21 98.7385 223.943 98.7385 222.621V38.5497C98.7385 37.2284 99.2634 35.9612 100.198 35.0269C101.132 34.0925 102.399 33.5676 103.721 33.5676H117.947C116.933 53.0547 116.367 87.0032 121.252 123.358Z" fill="#8DB8DB" stroke="#061725" stroke-width="0.188003"/>
<path d="M104.227 219.044V39.7268H186.969V219.044H104.227Z" fill="#E1F0FC" stroke="#061725" stroke-width="0.188003"/>
<path d="M124.711 37.6907H166.489V45.9365C166.489 46.4745 166.275 46.9905 165.895 47.3709C165.515 47.7513 164.999 47.965 164.461 47.965H126.74C126.202 47.965 125.686 47.7513 125.305 47.3709C124.925 46.9905 124.711 46.4745 124.711 45.9365V37.6907Z" fill="#64BAF4" stroke="#061725" stroke-width="0.188003"/>
<path d="M121.278 123.537C125.705 156.38 134.589 191.179 151.62 219.042H104.227V39.7268H117.676C116.878 59.7908 116.85 90.6897 121.278 123.537Z" fill="#D3E1EA" stroke="#061725" stroke-width="0.188003"/>
<path d="M179.211 121.407L203.695 103.317L228.18 121.407V149.454L179.211 148.954V121.407Z" fill="#EFA500" stroke="#061725" stroke-width="0.188003"/>
<path d="M179.211 155.474V121.453H228.18V155.474H179.211Z" fill="#F9C921" stroke="#061725" stroke-width="0.188003"/>
<path d="M199.916 137.315L179.393 121.453H227.995L207.075 137.315H199.916Z" fill="#EFA500" stroke="#061725" stroke-width="0.188003"/>
<path d="M207.072 137.503L228.02 155.474H179.367L199.919 137.503H207.072Z" fill="#FFB600" stroke="#061725" stroke-width="0.188003"/>
<path d="M199.332 225.029L199.331 225.029C199.122 225.738 198.88 226.454 198.613 227.19L198.613 227.19C198.583 227.274 198.548 227.365 198.515 227.451C198.514 227.452 198.514 227.453 198.514 227.454C197.679 227.71 196.818 227.867 195.947 227.923L195.945 227.923C192.542 228.213 186.388 227.547 180.983 220.576L186.432 218.738L186.415 218.556L179.207 217.589L179.186 217.559C179.157 217.516 179.115 217.453 179.06 217.37C178.949 217.204 178.79 216.959 178.594 216.647C178.201 216.024 177.66 215.129 177.066 214.048C175.893 211.911 174.519 209.046 173.685 206.1L176.49 205.721L176.49 205.721L178.951 205.394L178.967 205.211L175.731 204.2L175.731 204.2L173.083 203.369C172.195 200.094 171.535 196.762 171.106 193.396L171.106 193.395C170.471 188.563 170.13 182.586 171.021 176.823C171.066 176.841 171.124 176.864 171.195 176.893C171.377 176.968 171.643 177.078 171.972 177.22C172.632 177.505 173.55 177.919 174.584 178.436C176.644 179.466 179.156 180.901 180.995 182.529L182.417 189.079L182.601 189.079L183.623 184.406C183.652 184.43 183.686 184.458 183.726 184.49C183.871 184.61 184.083 184.787 184.355 185.02C184.898 185.487 185.676 186.175 186.616 187.062C188.487 188.828 191 191.383 193.574 194.543L191.425 200.647L191.31 200.974L191.575 200.749L195.139 197.73C195.152 197.744 195.167 197.76 195.184 197.778C195.253 197.852 195.354 197.962 195.481 198.11C195.735 198.404 196.093 198.845 196.505 199.431C197.33 200.602 198.373 202.351 199.247 204.656C200.993 209.266 202.061 216.108 199.332 225.029Z" fill="#55AD68" stroke="#061725" stroke-width="0.188003"/>
<path d="M173.074 203.356C172.276 200.41 171.661 197.418 171.234 194.396C172.367 197.755 173.794 201.008 175.499 204.116L173.074 203.356Z" fill="#499B58" stroke="#061725" stroke-width="0.188003"/>
<path d="M198.606 227.19L198.606 227.19C198.576 227.274 198.541 227.365 198.508 227.451C198.507 227.452 198.507 227.453 198.507 227.454C197.672 227.71 196.811 227.867 195.94 227.923L195.94 227.923L195.938 227.924C192.535 228.213 186.381 227.547 180.976 220.576L186.425 218.738L186.408 218.556L179.2 217.589L179.179 217.559C179.15 217.516 179.108 217.453 179.053 217.37C178.943 217.204 178.783 216.959 178.587 216.647C178.194 216.024 177.653 215.129 177.059 214.048C175.886 211.911 174.512 209.046 173.678 206.1L176.422 205.729C180.978 213.326 188.126 220.964 199.299 225.114C199.095 225.795 198.862 226.483 198.606 227.19Z" fill="#499B58" stroke="#061725" stroke-width="0.188003"/>
<path d="M198.607 227.234C198.592 227.273 198.577 227.313 198.562 227.353C198.551 227.381 198.54 227.409 198.53 227.437C198.526 227.446 198.523 227.455 198.52 227.464C197.711 227.712 196.877 227.868 196.033 227.929C194.786 222.766 190.444 210.878 175.586 186.073C179.621 191.759 191.833 209.67 198.607 227.234Z" fill="white" stroke="#061725" stroke-width="0.188003"/>
<path d="M197.614 226.75L197.614 226.75C197.108 227.211 196.57 227.662 196.007 228.119C196.007 228.119 196.007 228.119 196.007 228.119L195.804 228.278C195.02 228.08 194.262 227.791 193.545 227.417L193.543 227.416C190.706 226.011 186.149 222.531 185.21 214.412L190.409 215.566L190.489 215.401L185.236 211.172L185.235 211.141C185.232 211.094 185.229 211.023 185.226 210.93C185.218 210.745 185.21 210.474 185.204 210.132C185.193 209.448 185.195 208.477 185.245 207.334C185.343 205.074 185.63 202.142 186.381 199.407L188.781 200.454L188.781 200.454L190.89 201.377L190.998 201.229L188.912 198.869L188.911 198.869L187.216 196.941C188.086 193.918 189.164 190.958 190.44 188.082L190.44 188.082C192.258 183.946 194.862 179.041 198.333 174.901C198.359 174.936 198.392 174.98 198.432 175.033C198.541 175.18 198.698 175.395 198.891 175.667C199.278 176.21 199.807 176.98 200.379 177.887C201.519 179.695 202.823 182.039 203.502 184.213L201.484 190.087L201.641 190.183L204.69 186.975C204.701 187.005 204.714 187.041 204.728 187.081C204.785 187.245 204.869 187.488 204.972 187.804C205.179 188.435 205.465 189.355 205.784 190.51C206.42 192.81 207.184 196.043 207.706 199.785L203.069 203.593L202.801 203.813L203.144 203.758L207.417 203.076C207.421 203.092 207.425 203.11 207.429 203.13C207.448 203.222 207.475 203.358 207.505 203.536C207.565 203.892 207.636 204.414 207.681 205.077C207.771 206.404 207.757 208.293 207.34 210.543C206.508 215.042 204.064 220.985 197.614 226.75Z" fill="#65C67C" stroke="#061725" stroke-width="0.188003"/>
<path d="M187.222 196.941C187.998 194.247 188.938 191.602 190.037 189.023C189.331 192.203 188.904 195.438 188.763 198.693L187.222 196.941Z" fill="#58B76C" stroke="#061725" stroke-width="0.188003"/>
<path d="M193.543 227.416C190.706 226.011 186.149 222.531 185.21 214.412L190.409 215.566L190.489 215.401L185.236 211.172L185.235 211.141C185.232 211.094 185.229 211.023 185.226 210.93C185.218 210.745 185.21 210.474 185.204 210.132C185.193 209.448 185.195 208.477 185.245 207.334C185.343 205.074 185.63 202.142 186.381 199.407L188.724 200.429C188.68 208.662 190.681 218.147 197.549 226.809C197.062 227.25 196.546 227.682 196.007 228.119C196.007 228.119 196.007 228.119 196.007 228.119L195.804 228.278C195.02 228.08 194.262 227.791 193.545 227.417L193.543 227.416Z" fill="#58B76C" stroke="#061725" stroke-width="0.188003"/>
<path d="M197.512 184.617C197.986 191.267 199.017 211.123 195.982 228.143L195.809 228.28C195.05 228.089 194.315 227.813 193.618 227.457C195.107 222.768 197.366 211.29 197.512 184.617Z" fill="white" stroke="#061725" stroke-width="0.188003"/>
<path d="M198.257 227.709L198.256 227.709C197.71 227.913 197.133 228.102 196.547 228.284C196.547 228.284 196.547 228.284 196.547 228.285L196.34 228.344C195.785 227.939 195.278 227.471 194.83 226.95L194.828 226.949C193.027 224.936 190.518 220.735 192.342 214.003L196.087 216.561L196.222 216.437L193.398 211.416L193.405 211.397C193.418 211.358 193.438 211.301 193.464 211.226C193.517 211.077 193.596 210.86 193.7 210.587C193.907 210.04 194.216 209.27 194.618 208.379C195.41 206.62 196.565 204.391 198.029 202.46L199.593 204.043L199.593 204.043L200.974 205.446L201.13 205.348L200.228 202.814L200.228 202.814L199.493 200.749C201.142 198.628 202.935 196.623 204.86 194.748L204.86 194.748C207.614 192.046 211.232 188.982 215.296 186.8C215.305 186.833 215.316 186.873 215.328 186.92C215.368 187.071 215.425 187.291 215.492 187.568C215.626 188.121 215.802 188.9 215.967 189.801C216.297 191.595 216.585 193.867 216.432 195.808L212.967 199.829L213.077 199.975L216.495 198.406C216.296 202.15 215.737 205.866 214.826 209.502L209.945 211.05L209.615 211.155L209.953 211.232L213.55 212.045C213.548 212.056 213.546 212.067 213.544 212.079C213.531 212.158 213.509 212.274 213.476 212.425C213.41 212.726 213.301 213.163 213.126 213.704C212.777 214.785 212.166 216.281 211.122 217.935C209.033 221.241 205.207 225.183 198.257 227.709Z" fill="#87D296" stroke="#061725" stroke-width="0.188003"/>
<path d="M199.493 200.755C200.933 198.903 202.483 197.138 204.134 195.472C202.605 197.729 201.272 200.114 200.149 202.599L199.493 200.755Z" fill="#78C184" stroke="#061725" stroke-width="0.188003"/>
<path d="M194.828 226.949C193.027 224.936 190.518 220.735 192.342 214.003L196.087 216.561L196.222 216.437L193.398 211.417L193.405 211.397C193.418 211.359 193.438 211.301 193.464 211.227C193.517 211.078 193.596 210.86 193.7 210.587C193.907 210.04 194.216 209.271 194.618 208.379C195.41 206.621 196.565 204.391 198.029 202.46L199.549 203.999C196.904 210.518 195.48 218.687 198.174 227.74C197.652 227.932 197.103 228.112 196.547 228.285C196.547 228.285 196.547 228.285 196.547 228.285L196.34 228.345C195.785 227.94 195.278 227.472 194.83 226.95L194.83 226.95L194.828 226.949Z" fill="#78C184" stroke="#061725" stroke-width="0.188003"/>
<path d="M211.438 194.571C209.59 200.303 204.167 216 196.509 228.298L196.34 228.347C195.804 227.957 195.314 227.509 194.877 227.012C197.539 223.771 202.934 215.445 211.438 194.571Z" fill="white" stroke="#061725" stroke-width="0.188003"/>
<g opacity="0.46">
<path opacity="0.46" d="M116.637 99.3537V58.0212H138.156V99.3537H116.637Z" fill="#6D778B" stroke="#061725" stroke-width="0.188003"/>
<path opacity="0.46" d="M155.819 71.1438H174.123C175.01 71.1438 175.73 71.8635 175.73 72.7512V97.9361C175.73 98.8238 175.01 99.5435 174.123 99.5435H155.819C154.931 99.5435 154.211 98.8238 154.211 97.9361V72.7512C154.211 71.8635 154.931 71.1438 155.819 71.1438Z" fill="#6D778B" stroke="#061725" stroke-width="0.188003"/>
</g>
<path d="M116.633 111.723V109.577H173.517V111.723H116.633Z" fill="#6D778B" stroke="#061725" stroke-width="0.188003"/>
<path d="M116.633 120.389V118.244H173.517V120.389H116.633Z" fill="#6D778B" stroke="#061725" stroke-width="0.188003"/>
<path d="M116.633 129.057V126.911H173.517V129.057H116.633Z" fill="#6D778B" stroke="#061725" stroke-width="0.188003"/>
<path d="M116.633 137.725V135.58H173.517V137.725H116.633Z" fill="#6D778B" stroke="#061725" stroke-width="0.188003"/>
<path d="M116.633 146.392V144.247H173.517V146.392H116.633Z" fill="#6D778B" stroke="#061725" stroke-width="0.188003"/>
<path d="M195.837 74.7995L195.881 74.828L191.474 78.9819C190.762 78.3427 189.915 77.87 188.996 77.5986C187.419 77.1132 185.147 75.5529 183.369 73.0247L183.369 73.0247C182.743 72.137 182.308 71.3057 182.059 70.5993C181.81 69.8891 181.755 69.319 181.871 68.9456C181.928 68.7616 182.026 68.6286 182.16 68.5454C182.295 68.4618 182.477 68.4224 182.714 68.445C183.191 68.4907 183.865 68.7864 184.741 69.4194C186.205 70.4787 187.58 71.6865 188.548 72.5362C188.739 72.7042 188.914 72.8582 189.071 72.9943C189.308 73.1998 189.505 73.3658 189.651 73.4769C189.724 73.5321 189.787 73.576 189.837 73.6045C189.862 73.6186 189.888 73.6311 189.913 73.6385C189.934 73.6448 189.974 73.6542 190.015 73.6352C190.067 73.6109 190.081 73.561 190.082 73.5289C190.083 73.4991 190.075 73.4691 190.067 73.4438C190.049 73.3911 190.014 73.3219 189.965 73.2378C189.867 73.0675 189.7 72.8157 189.458 72.4703C189.221 72.1311 189.162 71.8896 189.196 71.7322C189.227 71.585 189.346 71.4805 189.557 71.4319C189.769 71.383 190.055 71.3966 190.374 71.4769C190.69 71.557 191.033 71.7016 191.353 71.9077C192.011 72.3306 193.168 73.077 194.161 73.7176L195.443 74.5456L195.837 74.7995Z" fill="#F8B7C8" stroke="#061725" stroke-width="0.188003"/>
<path d="M210.184 90.2105L210.185 90.2104L210.182 90.2028C209.981 89.5816 209.904 88.9264 209.959 88.2755C210.013 87.6246 210.196 86.991 210.497 86.4117C210.799 85.8323 211.213 85.3188 211.715 84.901C212.216 84.4841 212.795 84.1709 213.418 83.9796L213.42 83.9792L213.437 83.9755L213.504 83.9609C213.563 83.948 213.651 83.9288 213.764 83.9037C213.992 83.8533 214.326 83.7791 214.747 83.6836C215.591 83.4926 216.788 83.2164 218.204 82.8755C221.036 82.1938 224.743 81.2533 228.241 80.2187L228.241 80.2187C230.215 79.6332 231.718 79.2104 232.728 78.934C233.233 78.7958 233.614 78.6942 233.87 78.6271C233.997 78.5936 234.093 78.5687 234.157 78.5522L234.23 78.5338L234.238 78.5315C236.764 78.7489 239.339 80.4743 241.185 82.3816C242.108 83.3359 242.844 84.3307 243.296 85.1956C243.522 85.6282 243.676 86.0253 243.748 86.3666C243.818 86.6987 243.808 86.968 243.723 87.1651C240.113 90.1217 236.537 91.8748 232.703 92.0612L232.703 92.0612C231.081 92.1447 229.154 92.3527 227.121 92.572C226.815 92.6051 226.506 92.6384 226.195 92.6716C223.823 92.9253 221.348 93.1716 219.069 93.2399C216.788 93.3082 214.71 93.1978 213.128 92.7421C211.546 92.2864 210.483 91.4933 210.184 90.2105Z" fill="#3C4D51" stroke="#061725" stroke-width="0.188003"/>
<path d="M216.839 83.5178L216.84 83.5184C217.472 83.8279 218.032 84.2667 218.484 84.8065C218.936 85.3463 219.269 85.9749 219.462 86.6517C219.656 87.3285 219.705 88.0384 219.606 88.7353C219.507 89.4323 219.264 90.1007 218.89 90.6974L218.89 90.6975C218.206 91.7952 217.124 92.5865 215.871 92.9065C214.617 93.2266 213.289 93.0508 212.162 92.4157C208.177 90.1672 202.502 86.9613 197.822 84.3175C195.483 82.9956 193.392 81.8142 191.887 80.9634L190.109 79.9586L189.628 79.6867L189.559 79.6478L195.454 72.6474L216.839 83.5178Z" fill="#3C4D51" stroke="#061725" stroke-width="0.188003"/>
<path d="M249.814 49.6905L249.825 49.6973L249.838 49.7007C250.284 49.8229 250.691 49.9133 251.06 49.9918C251.14 50.0087 251.218 50.025 251.294 50.0409C251.572 50.0993 251.826 50.1526 252.06 50.2111C252.656 50.3598 253.102 50.5374 253.438 50.8922C253.775 51.2475 254.013 51.7928 254.163 52.7029C254.312 53.6128 254.371 54.8754 254.358 56.6538C254.334 59.8581 253.748 61.6808 253.176 62.6988C252.89 63.2076 252.607 63.5161 252.399 63.6963C252.295 63.7864 252.209 63.8447 252.15 63.8799C252.121 63.8975 252.099 63.9094 252.084 63.9167C252.082 63.9178 252.08 63.9188 252.078 63.9197L235.264 64.5344L235.246 64.3975C235.228 64.255 235.201 64.0492 235.17 63.796C235.107 63.2897 235.024 62.5942 234.94 61.8373C234.772 60.3215 234.605 58.566 234.604 57.5888C234.604 57.2119 234.551 56.6883 234.489 56.0816C234.469 55.8874 234.449 55.6847 234.429 55.4756C234.346 54.6088 234.272 53.6228 234.305 52.6455C234.373 50.6836 234.873 48.7957 236.556 47.9532L236.556 47.9532C239.085 46.6871 241.799 46.7581 244.185 47.3293C246.571 47.9006 248.621 48.9704 249.814 49.6905Z" fill="#161616" stroke="#061725" stroke-width="0.188003"/>
<path d="M239.506 67.2028L249.442 67.3448L249.297 77.5177V77.5177C249.278 78.8616 248.201 79.8996 246.851 80.6382C245.506 81.374 243.923 81.7933 242.963 81.9115C241.606 82.0779 240.705 81.631 240.143 80.8131C239.574 79.9865 239.341 78.7676 239.361 77.3775C239.361 77.3775 239.361 77.3775 239.361 77.3775L239.506 67.2028Z" fill="#F8B7C8" stroke="#061725" stroke-width="0.188003"/>
<path d="M239.507 67.2028L249.449 67.3448L249.383 71.892C248.545 72.9965 247.061 73.6756 245.272 73.922C243.492 74.1672 241.422 73.9819 239.419 73.3721L239.507 67.2028Z" fill="#E5A1B6" stroke="#061725" stroke-width="0.188003"/>
<path d="M235.562 51.2512L252.496 52.2558L252.497 52.2995C252.498 52.385 252.5 52.511 252.502 52.6727C252.506 52.9961 252.509 53.4623 252.509 54.0331C252.51 55.1748 252.497 56.735 252.442 58.409C252.387 60.0832 252.291 61.8702 252.125 63.4659C251.959 65.0639 251.724 66.4621 251.395 67.3631C250.739 69.1595 249.266 70.5103 247.5 71.4081C245.735 72.3058 243.686 72.7457 241.896 72.7252C238.568 72.6864 236.811 69.9436 235.708 67.3714C235.575 67.0623 235.471 66.5779 235.392 65.959C235.313 65.3423 235.26 64.5997 235.227 63.7788C235.162 62.1372 235.178 60.1879 235.228 58.3175C235.279 56.4475 235.364 54.6576 235.436 53.3352C235.473 52.674 235.506 52.1297 235.53 51.7508C235.542 51.5613 235.551 51.4132 235.558 51.3124L235.562 51.2512Z" fill="#F8B7C8" stroke="#061725" stroke-width="0.188003"/>
<path d="M250.939 68.31C250.937 68.2642 250.934 68.2122 250.932 68.1544C250.921 67.8935 250.906 67.5131 250.889 67.0353C250.856 66.0797 250.816 64.7344 250.791 63.1761C250.741 60.0656 250.749 56.1083 250.98 52.7068L250.981 52.7047C250.989 52.6915 251.001 52.6718 251.017 52.6469C251.049 52.597 251.097 52.5264 251.161 52.4446C251.289 52.2807 251.478 52.0738 251.722 51.8987C251.967 51.7238 252.265 51.582 252.613 51.5443C252.958 51.5069 253.358 51.5711 253.813 51.8168L253.814 51.8179C253.819 51.8225 253.828 51.8315 253.84 51.8462C253.864 51.8757 253.901 51.9283 253.945 52.0156C254.032 52.1906 254.145 52.5028 254.234 53.0416C254.41 54.1198 254.486 56.0934 254.073 59.6615L254.073 59.6616C253.736 62.6106 252.912 64.8222 252.173 66.2953C251.804 67.032 251.456 67.5841 251.201 67.9514C251.096 68.102 251.007 68.2215 250.939 68.31Z" fill="#161616" stroke="#061725" stroke-width="0.188003"/>
<path d="M244.604 61.0886C244.603 61.1913 244.571 61.2912 244.513 61.3759C244.455 61.4605 244.373 61.526 244.278 61.5641C244.182 61.6021 244.078 61.611 243.977 61.5896C243.877 61.5683 243.785 61.5175 243.714 61.4439C243.642 61.3703 243.594 61.2771 243.575 61.1761C243.557 61.0752 243.568 60.9709 243.609 60.8766C243.65 60.7823 243.718 60.7022 243.804 60.6465C243.89 60.5907 243.991 60.5617 244.093 60.5633C244.231 60.5654 244.362 60.6219 244.458 60.7203C244.553 60.8188 244.606 60.9512 244.604 61.0886Z" fill="#161616" stroke="#061725" stroke-width="0.188003"/>
<path d="M238.284 60.5746C238.283 60.6768 238.251 60.7763 238.193 60.8604C238.135 60.9446 238.053 61.0096 237.958 61.0472C237.863 61.0849 237.759 61.0935 237.659 61.072C237.559 61.0506 237.467 60.9999 237.396 60.9265C237.325 60.8531 237.277 60.7602 237.259 60.6596C237.24 60.5591 237.252 60.4553 237.293 60.3614C237.333 60.2676 237.401 60.1879 237.487 60.1324C237.573 60.0769 237.673 60.0481 237.775 60.0496C237.843 60.0507 237.91 60.0651 237.972 60.092C238.035 60.119 238.091 60.1579 238.138 60.2067C238.186 60.2554 238.223 60.313 238.248 60.3761C238.273 60.4393 238.285 60.5067 238.284 60.5746Z" fill="#161616" stroke="#061725" stroke-width="0.188003"/>
<path d="M239.044 67.783C239.024 67.7179 239.008 67.6614 238.997 67.6164L243.093 67.7332C243.074 67.7773 243.049 67.8316 243.018 67.8935C242.931 68.0643 242.799 68.291 242.617 68.515C242.251 68.9634 241.69 69.3928 240.887 69.3597C240.085 69.3266 239.608 68.8689 239.329 68.4112C239.189 68.1819 239.099 67.9539 239.044 67.783Z" fill="white" stroke="#061725" stroke-width="0.188003"/>
<path d="M250.023 58.8831C251.077 59.8109 251.18 61.4179 250.252 62.4723C249.324 63.5267 247.717 63.6293 246.663 62.7014C245.608 61.7735 245.506 60.1666 246.434 59.1122C247.362 58.0578 248.969 57.9552 250.023 58.8831Z" fill="#F8B7C8" stroke="#061725" stroke-width="0.187824"/>
<path d="M249.162 60.6994C249.614 60.7908 250.024 61.0232 250.335 61.3631V61.3722L250.359 61.3991C250.673 61.745 250.865 62.1837 250.907 62.6488C250.912 62.7122 250.892 62.7751 250.851 62.824C250.811 62.8718 250.755 62.9024 250.693 62.9096H250.663C250.604 62.9087 250.547 62.8861 250.504 62.8461C250.461 62.806 250.434 62.7512 250.429 62.6924L250.429 62.6922C250.407 62.4584 250.34 62.2312 250.23 62.0235L250.17 61.9098L250.08 62.0013L249.275 62.8172C249.253 62.8403 249.225 62.8585 249.195 62.8708C249.166 62.883 249.134 62.8892 249.102 62.8889C249.056 62.887 249.012 62.8721 248.974 62.8458C248.936 62.8194 248.907 62.7825 248.889 62.7397C248.872 62.697 248.867 62.65 248.875 62.6046C248.884 62.5594 248.905 62.5176 248.936 62.484L249.789 61.6181L249.864 61.5417L249.779 61.4771C249.577 61.325 249.344 61.2191 249.097 61.1669L249.097 61.1668L249.093 61.1662C249.031 61.1558 248.976 61.1218 248.938 61.0713C248.902 61.0214 248.886 60.9592 248.894 60.8978C248.905 60.8369 248.94 60.7826 248.99 60.7458C249.039 60.7093 249.101 60.6928 249.162 60.6994Z" fill="#CE8DA4" stroke="#061725" stroke-width="0.188003"/>
<path d="M251.068 54.9908C247.867 55.4217 244.359 55.646 241.429 55.5912C239.954 55.5636 238.627 55.4654 237.56 55.288C236.519 55.1147 235.74 54.8682 235.309 54.5498L235.358 50.7789L252.048 51.0166L251.068 54.9908Z" fill="#161616" stroke="#061725" stroke-width="0.188003"/>
<path d="M236.285 58.8204C236.285 58.8204 237.569 57.6754 239.237 58.8204" stroke="#061725" stroke-width="0.0940014" stroke-miterlimit="10" stroke-linecap="round"/>
<path d="M242.48 58.9217C242.48 58.9217 243.874 57.914 245.417 59.2225" stroke="#061725" stroke-width="0.0940014" stroke-miterlimit="10" stroke-linecap="round"/>
<path d="M236.763 210.056L235.331 217.281L224.161 217.103L225.377 209.494L236.763 210.056Z" fill="#F8B7C8" stroke="#061725" stroke-width="0.188003"/>
<path d="M235.893 215.564L235.888 215.648L237.138 218.92L237.044 218.919L237.044 218.919C237.044 218.919 237.044 218.92 237.044 218.92L237.011 222.749L214.708 222.562C214.549 222.135 214.51 221.673 214.595 221.225C214.671 220.832 214.873 220.474 215.17 220.206L215.171 220.206C215.369 220.025 215.823 219.759 216.449 219.43C216.99 219.145 217.651 218.817 218.364 218.462C218.469 218.41 218.575 218.357 218.682 218.304C220.349 217.476 222.244 216.521 223.552 215.648L223.552 215.648C223.592 215.621 223.674 215.591 223.806 215.563C223.935 215.535 224.1 215.511 224.299 215.491C224.695 215.45 225.215 215.424 225.815 215.409C227.017 215.379 228.536 215.396 230.029 215.432C231.522 215.467 232.987 215.521 234.078 215.567C234.624 215.589 235.077 215.61 235.393 215.624C235.551 215.632 235.675 215.638 235.759 215.642L235.855 215.647L235.88 215.648L235.886 215.648L235.888 215.648L235.888 215.648C235.888 215.648 235.888 215.648 235.893 215.564Z" fill="#404952" stroke="#061725" stroke-width="0.188003"/>
<path d="M250.05 210.595L261.324 208.894L261.346 216.259L250.362 218.294L250.05 210.595Z" fill="#F8B7C8" stroke="#061725" stroke-width="0.188003"/>
<path d="M261.793 215.808L261.789 215.808L261.794 215.719C261.789 215.808 261.789 215.808 261.789 215.808L261.789 215.808L261.787 215.808L261.781 215.808L261.756 215.806L261.66 215.801C261.576 215.796 261.452 215.789 261.294 215.781C260.978 215.764 260.526 215.74 259.98 215.713C258.889 215.66 257.425 215.595 255.933 215.548C254.441 215.502 252.922 215.474 251.72 215.494C251.119 215.505 250.599 215.527 250.203 215.565C250.004 215.584 249.839 215.606 249.71 215.633C249.577 215.66 249.495 215.69 249.455 215.716L261.793 215.808ZM261.793 215.808C262.141 215.814 262.378 215.934 262.545 216.125C262.715 216.32 262.818 216.596 262.878 216.925C262.971 217.44 262.952 218.051 262.935 218.616C262.93 218.778 262.925 218.935 262.923 219.086M261.793 215.808L262.923 219.086M262.862 222.913L262.923 219.086C262.923 219.086 262.923 219.086 262.923 219.086M262.862 222.913L261.795 215.714C263.118 215.734 263.069 217.334 263.029 218.626C263.024 218.786 263.019 218.941 263.017 219.087L262.923 219.086M262.862 222.913L240.559 222.57C240.405 222.143 240.37 221.68 240.458 221.234L262.862 222.913Z" fill="#404952" stroke="#061725" stroke-width="0.188003"/>
<path d="M237.161 183.704L237.159 183.716L237.159 183.728L238.317 213.411L223.283 212.458L220.598 179.469L229.121 124.622L249.196 128.609L237.161 183.704Z" fill="#AAB1BB" stroke="#061725" stroke-width="0.188003"/>
<path d="M248.561 211.324L242.441 123.855L262.885 123.559L263.151 212.538L248.561 211.324Z" fill="#AAB1BB" stroke="#061725" stroke-width="0.188003"/>
<path d="M229.471 134.222L239.381 77.0917C239.561 77.3195 239.879 77.6511 240.304 77.9951C240.878 78.459 241.658 78.9526 242.582 79.2513C243.508 79.5504 244.579 79.6543 245.733 79.3372C246.841 79.0327 248.019 78.3418 249.213 77.0745L253.318 134.214C253.293 134.231 253.264 134.255 253.232 134.282C253.188 134.32 253.131 134.37 253.065 134.43C253.028 134.463 252.987 134.499 252.944 134.538C252.699 134.755 252.344 135.061 251.871 135.403C250.927 136.087 249.516 136.918 247.588 137.476C243.745 138.589 237.835 138.623 229.471 134.222Z" fill="#1C71B7" stroke="#061725" stroke-width="0.188003"/>
<path d="M242.119 125.023L239.065 120.017L241.848 82.2093L243.965 82.3273L245.23 120.015L242.119 125.023Z" fill="#F4F4F4" stroke="#061725" stroke-width="0.188003"/>
<path d="M241.836 82.0203L241.488 80.3207L243.029 79.3694L244.712 80.8794L244.001 82.1408L241.836 82.0203Z" fill="#F4F4F4" stroke="#061725" stroke-width="0.188003"/>
<path d="M244.504 81.5246L243.113 79.3143L249.279 76.9564L250.929 78.0253L244.504 81.5246Z" fill="#1C71B7" stroke="#061725" stroke-width="0.188003"/>
<path d="M239.325 76.7216L242.839 79.2903L241.589 81.1748L237.997 77.869L239.325 76.7216Z" fill="#1C71B7" stroke="#061725" stroke-width="0.188003"/>
<path d="M243.063 138.902H243.062C235.76 138.902 229.774 135.449 229.017 134.993L229.87 133.648C230.411 133.973 233.585 135.798 237.93 136.743C242.639 137.767 248.734 137.761 254.343 133.685L255.286 134.97C251.743 137.563 247.456 138.943 243.063 138.902Z" fill="#2E3C3F" stroke="#061725" stroke-width="0.188003"/>
<path d="M243.683 139.086L243.682 139.086C242.121 139.389 240.51 139.311 238.985 138.861L238.985 138.861C238.924 138.843 238.871 138.806 238.835 138.755C238.798 138.704 238.779 138.642 238.782 138.579L238.855 137.039C238.858 136.999 238.87 136.961 238.889 136.926C238.909 136.89 238.936 136.86 238.968 136.835C239.001 136.811 239.038 136.795 239.078 136.786C239.117 136.778 239.158 136.778 239.197 136.787L239.197 136.787L239.199 136.787C240.669 137.091 242.177 137.163 243.669 137.001L243.67 137.001C243.71 136.996 243.75 137 243.788 137.012C243.826 137.024 243.862 137.044 243.892 137.07C243.921 137.097 243.945 137.13 243.962 137.166C243.978 137.203 243.986 137.242 243.986 137.281L243.92 138.687C243.913 138.831 243.88 138.926 243.838 138.986C243.798 139.043 243.745 139.074 243.683 139.086Z" fill="#404952" stroke="#061725" stroke-width="0.188003"/>
<path d="M239.241 76.5928L239.24 76.6371C239.238 76.7448 239.234 76.9023 239.228 77.1071C239.218 77.5168 239.202 78.1154 239.18 78.8822C239.135 80.4159 239.068 82.6226 238.974 85.336C238.786 90.7628 238.492 98.2166 238.07 106.368C237.226 122.642 235.869 141.691 233.815 152.948C230.245 153.523 227.785 152.599 226.215 151.534C225.425 150.997 224.859 150.423 224.492 149.984C224.308 149.765 224.174 149.579 224.086 149.449C224.042 149.383 224.009 149.332 223.988 149.297C223.982 149.287 223.976 149.278 223.972 149.271C224.588 143.75 225.714 133.053 226.623 124.413C227.104 119.839 227.525 115.841 227.777 113.494C228.881 103.267 230.275 94.7249 231.515 88.6353C232.135 85.5903 232.717 83.1594 233.204 81.4379C233.448 80.577 233.668 79.8949 233.857 79.4028C233.951 79.1566 234.037 78.9596 234.114 78.8121C234.192 78.662 234.256 78.573 234.303 78.5326C234.448 78.41 234.703 78.2698 235.016 78.1259C235.326 77.983 235.686 77.8402 236.032 77.7111C236.378 77.5821 236.709 77.4672 236.965 77.3799C237.027 77.3588 237.084 77.3392 237.137 77.3215C237.192 77.3026 237.241 77.2859 237.283 77.2715C237.361 77.2448 237.42 77.2241 237.446 77.2128C238.032 76.9721 238.632 76.7652 239.241 76.5928Z" fill="#3C4D51" stroke="#061725" stroke-width="0.188003"/>
<path d="M260.321 96.1795L260.321 96.1791C259.653 91.0046 259.273 87.0445 259.009 84.2585C259 84.1592 258.99 84.0613 258.981 83.965C258.863 82.7099 258.768 81.709 258.68 80.9567C258.633 80.5516 258.588 80.22 258.543 79.9604C258.497 79.6989 258.451 79.5169 258.406 79.4071C258.369 79.319 258.254 79.2138 258.047 79.0997C257.846 78.9884 257.575 78.8783 257.255 78.7711C256.616 78.557 255.795 78.3589 254.97 78.1869C254.145 78.015 253.319 77.8697 252.673 77.7605C252.469 77.7259 252.283 77.6951 252.12 77.6681C252.026 77.6525 251.939 77.6382 251.862 77.6252C251.654 77.5904 251.506 77.5647 251.449 77.55L260.321 96.1795ZM260.321 96.1795C260.48 97.3803 260.64 98.6695 260.8 100.03L260.8 100.031M260.321 96.1795L260.8 100.031M260.8 100.031C261.046 102.06 261.312 104.382 261.603 106.929C261.86 109.172 262.137 111.589 262.437 114.131C263.276 121.324 265.672 141.187 266.953 149.279C266.942 149.286 266.93 149.294 266.915 149.303M260.8 100.031L266.915 149.303M266.915 149.303C266.856 149.341 266.767 149.395 266.651 149.464M266.915 149.303L266.651 149.464M266.651 149.464C266.42 149.602 266.08 149.798 265.646 150.028M266.651 149.464L265.646 150.028M265.646 150.028C264.778 150.489 263.535 151.086 262.036 151.632M265.646 150.028L262.036 151.632M262.036 151.632C259.052 152.721 255.063 153.608 251.002 152.828M262.036 151.632L251.002 152.828M251.002 152.828C248.91 141.636 248.499 122.673 248.616 106.474C248.674 98.3608 248.865 90.9436 249.042 85.5473C249.13 82.8492 249.216 80.6564 249.279 79.1345C249.311 78.3736 249.338 77.7804 249.356 77.3756C249.366 77.1733 249.373 77.0181 249.378 76.9126L249.38 76.891C249.841 77.1162 250.327 77.2864 250.829 77.3983M251.002 152.828L250.829 77.3983M250.829 77.3983C250.829 77.3982 250.828 77.3981 250.828 77.3981L250.85 77.3067L250.83 77.3984C250.829 77.3984 250.829 77.3983 250.829 77.3983ZM250.829 77.3983C250.852 77.4038 250.876 77.4095 250.9 77.4153C251.071 77.4564 251.264 77.5025 251.449 77.55L250.829 77.3983Z" fill="#3C4D51" stroke="#061725" stroke-width="0.188003"/>
<path d="M267.908 122.554C267.875 122.595 267.838 122.654 267.797 122.739C267.687 122.967 267.544 123.4 267.397 124.229C267.256 125.023 267.34 125.587 267.443 126.275C267.449 126.318 267.456 126.361 267.462 126.405C267.572 127.151 267.692 128.075 267.584 129.614L267.584 129.614C267.51 130.697 267.325 131.617 267.073 132.322C266.819 133.031 266.503 133.509 266.177 133.726C266.017 133.833 265.857 133.875 265.7 133.855C265.543 133.835 265.377 133.751 265.207 133.585C264.866 133.249 264.529 132.595 264.249 131.553C263.781 129.812 263.475 128.012 263.259 126.743C263.216 126.489 263.177 126.256 263.14 126.049C263.086 125.74 263.037 125.488 262.994 125.309C262.972 125.221 262.951 125.147 262.929 125.093C262.919 125.066 262.907 125.04 262.892 125.018C262.88 125 262.854 124.968 262.81 124.957C262.755 124.943 262.713 124.973 262.691 124.997C262.672 125.019 262.659 125.048 262.65 125.073C262.63 125.125 262.614 125.201 262.598 125.297C262.567 125.491 262.538 125.792 262.507 126.213L262.507 126.213C262.493 126.419 262.465 126.578 262.427 126.697C262.389 126.816 262.344 126.889 262.3 126.929C262.259 126.966 262.217 126.978 262.169 126.973C262.117 126.968 262.052 126.94 261.976 126.884C261.823 126.77 261.652 126.559 261.487 126.278C261.323 126 261.17 125.659 261.049 125.293C260.994 125.126 260.983 124.896 261.012 124.614C261.04 124.334 261.108 124.011 261.203 123.661C261.393 122.961 261.694 122.164 262.01 121.411C262.327 120.658 262.658 119.951 262.911 119.432C263.037 119.172 263.144 118.96 263.219 118.813C263.244 118.763 263.266 118.721 263.283 118.687L267.908 122.554Z" fill="#F8B7C8" stroke="#061725" stroke-width="0.188003"/>
<path d="M274.897 103.004C274.249 102.93 273.622 102.728 273.053 102.41L273.051 102.409L273.037 102.399L272.98 102.361C272.93 102.327 272.855 102.277 272.758 102.212C272.564 102.083 272.28 101.894 271.92 101.656C271.198 101.179 270.171 100.507 268.945 99.7215C266.493 98.151 263.249 96.129 260.078 94.3239L260.078 94.3239C258.289 93.3062 256.944 92.5155 256.046 91.9794C255.597 91.7113 255.26 91.5068 255.035 91.3694C254.923 91.3007 254.839 91.2488 254.783 91.2141L254.72 91.1749L254.712 91.1702C253.12 89.1969 252.581 86.1442 252.679 83.492C252.728 82.1651 252.937 80.9454 253.248 80.0203C253.403 79.5576 253.584 79.1718 253.78 78.8837C253.972 78.6033 254.173 78.4238 254.374 78.3484C259.011 78.9052 262.742 80.28 265.537 82.9101L265.537 82.9101C266.721 84.0228 268.206 85.2701 269.772 86.5859C270.008 86.7834 270.245 86.9824 270.483 87.1827C272.308 88.719 274.199 90.334 275.827 91.9316C277.456 93.5304 278.815 95.1061 279.581 96.563C280.348 98.0198 280.511 99.3361 279.792 100.44L279.794 100.441L279.788 100.439C279.48 101.016 279.059 101.524 278.552 101.936C278.044 102.348 277.459 102.655 276.832 102.838C276.205 103.021 275.547 103.078 274.897 103.004Z" fill="#3C4D51" stroke="#061725" stroke-width="0.188003"/>
<path d="M270.692 96.94L270.693 96.9391C270.953 96.2875 271.348 95.6977 271.85 95.2077C272.352 94.7177 272.952 94.3383 273.609 94.0938C274.267 93.8494 274.969 93.7454 275.669 93.7886C276.37 93.8317 277.053 94.021 277.676 94.3443C278.825 94.9403 279.699 95.9565 280.116 97.1811C280.534 98.4057 280.463 99.7443 279.919 100.918C277.99 105.066 275.239 110.976 272.971 115.849L270.093 122.03L269.231 123.882L268.998 124.383L268.965 124.454L261.529 119.112L270.692 96.94Z" fill="#3C4D51" stroke="#061725" stroke-width="0.188003"/>
<path opacity="0.35" d="M229.504 92.3221L232.392 84.0453L230.638 92.2131L229.504 92.3221Z" fill="#2A2D30" stroke="#061725" stroke-width="0.188003"/>
<path opacity="0.35" d="M261.158 103.204L257.645 93.1394L260.104 94.5576L261.158 103.204Z" fill="#2A2D30" stroke="#061725" stroke-width="0.188003"/>
<path opacity="0.35" d="M240.792 167.083L240.353 147.916L244.185 151.547L240.792 167.083Z" fill="#2A2D30" stroke="#061725" stroke-width="0.188003"/>
</svg>
