<svg width="22" height="22" viewBox="0 0 22 22" fill="none" xmlns="http://www.w3.org/2000/svg">
<path d="M18.4575 2.25H4.45752C3.49502 2.25 2.71627 3.0375 2.71627 4L2.70752 19.75L6.20752 16.25H18.4575C19.42 16.25 20.2075 15.4625 20.2075 14.5V4C20.2075 3.0375 19.42 2.25 18.4575 2.25ZM18.4575 14.5H5.48127L4.96502 15.0163L4.45752 15.5238V4H18.4575V14.5ZM10.145 12.75H16.7075V11H11.895L10.145 12.75ZM13.5225 7.61375C13.6975 7.43875 13.6975 7.1675 13.5225 6.9925L11.9738 5.44375C11.7988 5.26875 11.5275 5.26875 11.3525 5.44375L6.20752 10.5887V12.75H8.36877L13.5225 7.61375Z" fill="#061725"/>
</svg>
