<svg width="17" height="17" viewBox="0 0 17 17" fill="none" xmlns="http://www.w3.org/2000/svg">
<path d="M15.1104 1.50342C15.5438 1.50342 15.9598 1.83998 15.9598 2.34842V6.9078C15.9598 7.23874 15.6915 7.50686 15.3607 7.50686H10.8076C10.2988 7.50686 9.96197 7.09061 9.96197 6.65686C9.96197 6.44955 10.0389 6.23811 10.2107 6.06624L11.6207 4.65561C10.7388 3.93248 9.62541 3.51061 8.45509 3.51061C5.70228 3.51061 3.46135 5.75092 3.46135 8.50436C3.46135 11.2578 5.70103 13.4969 8.45416 13.4969C10.7398 13.4969 11.2492 12.2997 12.051 12.2997C12.6285 12.2997 13.0501 12.7697 13.0501 13.2984C13.0501 14.3934 10.5004 15.4987 8.45634 15.4987C4.6001 15.4987 1.45947 12.3581 1.45947 8.50186C1.45947 4.64561 4.60103 1.51373 8.45728 1.51373C10.1635 1.51373 11.776 2.15092 13.0323 3.24061L14.5198 1.75217C14.6917 1.58029 14.9042 1.50342 15.1104 1.50342Z" fill="#1C71B7"/>
</svg>
