<svg width="17" height="18" viewBox="0 0 17 18" fill="none" xmlns="http://www.w3.org/2000/svg">
<path d="M7.10742 14.75C8.66053 14.7497 10.1689 14.2298 11.3923 13.273L15.2388 17.1195L16.476 15.8822L12.6295 12.0357C13.5868 10.8122 14.107 9.30351 14.1074 7.75C14.1074 3.89037 10.967 0.75 7.10742 0.75C3.2478 0.75 0.107422 3.89037 0.107422 7.75C0.107422 11.6096 3.2478 14.75 7.10742 14.75ZM7.10742 2.5C10.0028 2.5 12.3574 4.85462 12.3574 7.75C12.3574 10.6454 10.0028 13 7.10742 13C4.21205 13 1.85742 10.6454 1.85742 7.75C1.85742 4.85462 4.21205 2.5 7.10742 2.5Z" fill="#1C71B7"/>
</svg>
