<svg width="33" height="32" viewBox="0 0 33 32" fill="none" xmlns="http://www.w3.org/2000/svg">
<rect x="0.460938" width="32" height="32" rx="16" fill="#F8FDFF"/>
<g clip-path="url(#clip0_3185_19904)">
<path d="M20.9609 5.5C21.3588 5.5 21.7403 5.65804 22.0216 5.93934C22.3029 6.22064 22.4609 6.60218 22.4609 7V25C22.4609 25.3978 22.3029 25.7794 22.0216 26.0607C21.7403 26.342 21.3588 26.5 20.9609 26.5H11.9609C11.5631 26.5 11.1816 26.342 10.9003 26.0607C10.619 25.7794 10.4609 25.3978 10.4609 25V7C10.4609 6.60218 10.619 6.22064 10.9003 5.93934C11.1816 5.65804 11.5631 5.5 11.9609 5.5H20.9609ZM11.9609 4C11.1653 4 10.4022 4.31607 9.83962 4.87868C9.27701 5.44129 8.96094 6.20435 8.96094 7V25C8.96094 25.7956 9.27701 26.5587 9.83962 27.1213C10.4022 27.6839 11.1653 28 11.9609 28H20.9609C21.7566 28 22.5196 27.6839 23.0823 27.1213C23.6449 26.5587 23.9609 25.7956 23.9609 25V7C23.9609 6.20435 23.6449 5.44129 23.0823 4.87868C22.5196 4.31607 21.7566 4 20.9609 4H11.9609Z" fill="#061725" fill-opacity="0.46"/>
<path d="M16.4609 25C16.8588 25 17.2403 24.842 17.5216 24.5607C17.8029 24.2794 17.9609 23.8978 17.9609 23.5C17.9609 23.1022 17.8029 22.7206 17.5216 22.4393C17.2403 22.158 16.8588 22 16.4609 22C16.0631 22 15.6816 22.158 15.4003 22.4393C15.119 22.7206 14.9609 23.1022 14.9609 23.5C14.9609 23.8978 15.119 24.2794 15.4003 24.5607C15.6816 24.842 16.0631 25 16.4609 25Z" fill="#061725" fill-opacity="0.46"/>
<path d="M20.0095 11.1904H13.9142C13.4941 11.1904 13.1523 11.5321 13.1523 11.9523V16.5238C13.1523 16.944 13.4941 17.2857 13.9142 17.2857H15.0571V18.7207L17.4483 17.2857H20.0095C20.4297 17.2857 20.7714 16.944 20.7714 16.5238V11.9523C20.7714 11.5321 20.4297 11.1904 20.0095 11.1904ZM20.0095 16.5238H17.2373L15.819 17.3744V16.5238H13.9142V11.9523H20.0095V16.5238Z" fill="#061725" fill-opacity="0.46"/>
</g>
<defs>
<clipPath id="clip0_3185_19904">
<rect width="24" height="24" fill="white" transform="translate(4.46094 4)"/>
</clipPath>
</defs>
</svg>
