<svg width="19" height="22" viewBox="0 0 19 22" fill="none" xmlns="http://www.w3.org/2000/svg">
<g clip-path="url(#clip0_3185_20404)">
<path d="M11.4336 12.9688H7.49609C3.50938 12.9688 0.277344 16.2008 0.277344 20.1875C0.277344 20.9122 0.865098 21.5 1.58984 21.5H17.3398C18.0646 21.5 18.6523 20.9122 18.6523 20.1875C18.6523 16.2008 15.4203 12.9688 11.4336 12.9688ZM2.2867 19.5312C2.61072 16.9432 4.82188 14.9375 7.49609 14.9375H11.4336C14.1062 14.9375 16.3186 16.9452 16.6426 19.5312H2.2867ZM9.46484 11C12.3642 11 14.7148 8.64939 14.7148 5.75C14.7148 2.85061 12.3642 0.5 9.46484 0.5C6.56545 0.5 4.21484 2.85061 4.21484 5.75C4.21484 8.6498 6.56504 11 9.46484 11ZM9.46484 2.46875C11.274 2.46875 12.7461 3.9408 12.7461 5.75C12.7461 7.5592 11.274 9.03125 9.46484 9.03125C7.65564 9.03125 6.18359 7.55879 6.18359 5.75C6.18359 3.9408 7.65605 2.46875 9.46484 2.46875Z" fill="#061725" fill-opacity="0.45"/>
</g>
<defs>
<clipPath id="clip0_3185_20404">
<rect width="18.375" height="21" fill="white" transform="translate(0.277344 0.5)"/>
</clipPath>
</defs>
</svg>
