<svg width="22" height="22" viewBox="0 0 22 22" fill="none" xmlns="http://www.w3.org/2000/svg">
<path d="M19.9888 11C19.9892 9.5809 19.6357 8.18408 18.9601 6.93607C18.2845 5.68806 17.3083 4.62829 16.1198 3.85274C14.9314 3.07719 13.5682 2.61036 12.1538 2.49453C10.7395 2.3787 9.31851 2.61753 8.01971 3.18939C6.7209 3.76126 5.58527 4.64808 4.71566 5.76955C3.84605 6.89102 3.26994 8.21171 3.0395 9.612C2.80906 11.0123 2.93157 12.4479 3.39594 13.7889C3.86031 15.1299 4.65187 16.3339 5.69893 17.2918L5.80557 17.3903C7.36519 18.7697 9.37542 19.5311 11.4575 19.5311C13.5396 19.5311 15.5499 18.7697 17.1095 17.3903L17.2161 17.2918C18.0907 16.4938 18.789 15.522 19.2664 14.4385C19.7439 13.3551 19.9899 12.184 19.9888 11ZM4.23877 11C4.23834 9.83087 4.52189 8.6791 5.06505 7.64376C5.6082 6.60843 6.3947 5.72051 7.35691 5.05637C8.31912 4.39223 9.42825 3.97174 10.5889 3.83106C11.7496 3.69038 12.927 3.83372 14.0201 4.24875C15.1131 4.66378 16.0889 5.33809 16.8637 6.21368C17.6385 7.08927 18.189 8.13995 18.4679 9.27536C18.7468 10.4108 18.7457 11.5969 18.4648 12.7318C18.1839 13.8667 17.6315 14.9164 16.8552 15.7907C16.1235 14.7295 15.0926 13.91 13.8939 13.4364C14.5368 12.9299 15.006 12.2357 15.2362 11.4503C15.4663 10.6649 15.446 9.82722 15.178 9.05387C14.91 8.28053 14.4077 7.60991 13.7409 7.13528C13.0741 6.66065 12.276 6.4056 11.4575 6.4056C10.6391 6.4056 9.84094 6.66065 9.17415 7.13528C8.50736 7.60991 8.00505 8.28053 7.73706 9.05387C7.46908 9.82722 7.44875 10.6649 7.67889 11.4503C7.90904 12.2357 8.37822 12.9299 9.02119 13.4364C7.8224 13.91 6.79157 14.7295 6.05986 15.7907C4.88466 14.4719 4.23636 12.7665 4.23877 11ZM8.83252 10.3438C8.83252 9.8246 8.98648 9.31708 9.27491 8.88541C9.56335 8.45373 9.97332 8.11727 10.453 7.91859C10.9326 7.71991 11.4604 7.66793 11.9696 7.76922C12.4788 7.8705 12.9466 8.12051 13.3137 8.48762C13.6808 8.85473 13.9308 9.32246 14.0321 9.83167C14.1334 10.3409 14.0814 10.8687 13.8827 11.3483C13.684 11.828 13.3476 12.2379 12.9159 12.5264C12.4842 12.8148 11.9767 12.9688 11.4575 12.9688C10.762 12.9666 10.0956 12.6894 9.60376 12.1975C9.11194 11.7057 8.83469 11.0393 8.83252 10.3438ZM7.03604 16.7012C7.51093 15.9594 8.16482 15.3491 8.93748 14.9263C9.71014 14.5035 10.5768 14.2819 11.4575 14.2819C12.3383 14.2819 13.2049 14.5035 13.9776 14.9263C14.7502 15.3491 15.4041 15.9594 15.879 16.7012C14.6148 17.6843 13.059 18.2181 11.4575 18.2181C9.85604 18.2181 8.30023 17.6843 7.03604 16.7012Z" fill="#061725"/>
</svg>
